<svg width="24" height="24" viewBox="0 0 24 24" fill="none" xmlns="http://www.w3.org/2000/svg">
<circle cx="12" cy="12" r="11.5" fill="white" stroke="#D8DFE9"/>
<g clip-path="url(#clip0_3278_31631)">
<g opacity="0.8">
<path d="M11.8397 3.49635C11.9711 3.43568 12.1026 3.39523 12.234 3.375H12.7093C13.0936 3.44579 13.4172 3.67838 13.7004 3.94131C14.1555 4.35593 14.5195 4.86157 14.8532 5.3672C15.3285 6.09532 15.7634 6.85377 16.1881 7.61223C16.6027 8.36057 17.0174 9.11902 17.4219 9.88759C18.3118 11.5562 19.2017 13.2349 19.9804 14.9642C20.1928 15.4496 20.395 15.9552 20.5568 16.471C20.5872 16.6631 20.6579 16.8552 20.6377 17.0575C20.6175 17.1485 20.5872 17.2496 20.5062 17.2901C20.4355 17.3407 20.3444 17.3103 20.2737 17.3305C20.2029 17.371 20.1624 17.4519 20.1017 17.4822L19.9197 17.5025L19.7478 17.6542L19.5961 17.6744C19.4849 17.6744 19.4545 17.8058 19.3635 17.8261C19.3028 17.8463 19.232 17.8362 19.1714 17.8362C19.1208 17.8969 19.0702 17.9676 18.9893 17.998C18.9186 18.0182 18.8579 18.0081 18.7871 18.0081C18.7466 18.0688 18.7062 18.1396 18.6354 18.1699C18.5646 18.1901 18.4938 18.18 18.423 18.1699C18.3826 18.2306 18.3522 18.3115 18.2713 18.3216H18.059C18.0185 18.3823 17.9781 18.4531 17.9073 18.4935C17.8365 18.5137 17.7556 18.4935 17.6747 18.4935C17.6444 18.5441 17.6342 18.6149 17.5736 18.6452H17.3207L17.2095 18.8272L16.9365 18.8171L16.8454 18.9991C16.7544 18.9991 16.6533 18.9991 16.5623 18.9789C16.5522 19.0396 16.5421 19.1104 16.4915 19.1609C16.4207 19.1812 16.3398 19.1711 16.269 19.1407C16.0971 19.0497 15.9555 18.9182 15.8241 18.7767C15.6623 18.625 15.5106 18.4632 15.3589 18.2913C15.2375 18.1699 15.1465 18.0283 15.0252 17.907C14.8735 17.7654 14.742 17.6036 14.6004 17.4519C14.4285 17.2395 14.2263 17.0676 14.0442 16.8755L13.7611 16.6125C13.5689 16.4305 13.3667 16.2788 13.1543 16.1271C12.8711 15.935 12.5577 15.7631 12.2138 15.7226C11.9812 15.7125 11.7587 15.8238 11.5565 15.9451C11.2026 16.1575 10.8891 16.4305 10.5958 16.7137C10.1306 17.1384 9.69576 17.5935 9.2508 18.0283C9.07888 18.2306 8.89685 18.4126 8.70471 18.5946C8.53279 18.7362 8.3811 18.9081 8.19907 19.0497C8.02716 19.1711 7.85524 19.3228 7.64288 19.3329C7.55186 19.2924 7.52152 19.1913 7.47096 19.1104C7.37994 19.1104 7.28893 19.1306 7.19792 19.1003C7.15746 19.0598 7.14735 18.9991 7.11701 18.9486C7.026 18.9385 6.92487 18.9587 6.83386 18.9284C6.78329 18.8879 6.76307 18.8272 6.73273 18.7666H6.47991C6.42935 18.7261 6.40912 18.6553 6.35856 18.6047C6.27766 18.5845 6.19676 18.5946 6.11585 18.5946L5.98439 18.4227C5.9136 18.4227 5.84281 18.4328 5.77202 18.4126C5.70123 18.3823 5.66078 18.3115 5.61022 18.2508L5.42819 18.2407C5.34729 18.2205 5.29672 18.1396 5.23605 18.089L5.06413 18.0587C5.00346 18.0485 4.96301 17.998 4.92255 17.9575C4.85177 17.8665 4.7203 17.9171 4.62929 17.8564L4.48771 17.7351C4.35619 17.6852 4.23068 17.6207 4.11354 17.5429C4.04275 17.5126 3.96185 17.5227 3.89106 17.4923C3.83038 17.4519 3.77982 17.3609 3.69892 17.3508C3.6079 17.3305 3.49666 17.3305 3.43599 17.2496C3.34497 17.1283 3.3652 16.9766 3.3652 16.8451C3.41576 16.4609 3.56745 16.0968 3.70903 15.7429C4.0832 14.863 4.53827 14.0237 5.00346 13.2046C5.14503 12.9315 5.29672 12.6787 5.44842 12.4259C5.61022 12.1225 5.81247 11.8393 5.97428 11.536L6.65183 10.3932C6.78329 10.2011 6.88442 9.99883 7.026 9.80669C7.5822 8.88643 8.15862 7.97629 8.74516 7.07625C9.35192 6.16611 9.94857 5.24585 10.6767 4.42672C11.0205 4.07278 11.3745 3.69861 11.8397 3.49635ZM11.1318 4.24469C10.7273 4.61886 10.3935 5.05371 10.0598 5.48856C9.77666 5.89307 9.48339 6.28746 9.21035 6.7122C7.85453 8.7889 6.54628 10.8963 5.28661 13.0326C5.1956 13.1641 5.13492 13.3057 5.05402 13.4372C4.79109 13.9023 4.53827 14.3877 4.28545 14.8732C4.04275 15.3181 3.84049 15.7833 3.64835 16.2586C3.6079 16.4305 3.51689 16.6024 3.51689 16.7845C3.51689 16.8755 3.50677 16.9665 3.527 17.0575C3.53711 17.1384 3.62813 17.1687 3.69892 17.189C3.75959 17.0777 3.73937 16.9362 3.77982 16.8148C3.81016 16.6833 3.84049 16.5418 3.89106 16.4103C4.06297 15.9249 4.27534 15.4395 4.51805 14.9743C4.8821 14.2462 5.2765 13.5383 5.6709 12.8304L5.9945 12.2337L6.34845 11.6371C6.44957 11.4551 6.5507 11.273 6.66194 11.1112C6.76307 10.9595 6.83386 10.8078 6.92487 10.6562C7.1878 10.2516 7.4204 9.82691 7.68333 9.4224C8.10806 8.71451 8.54291 8.01674 8.98787 7.31896C9.19012 7.0358 9.36204 6.73242 9.55418 6.45938C9.97891 5.82228 10.434 5.2054 10.9497 4.65931C11.2531 4.37616 11.5565 4.08289 11.9408 3.9312C12.1835 3.8503 12.4363 3.7694 12.6891 3.8503C13.1543 3.94131 13.5285 4.26492 13.8521 4.60875C14.115 4.90202 14.3678 5.22563 14.5802 5.55935C15.0959 6.29757 15.5207 7.09648 15.9656 7.87516C16.4005 8.69429 16.8454 9.51342 17.2702 10.3528C17.7859 11.3337 18.2916 12.3248 18.777 13.3158L19.2725 14.3473C19.6163 15.1057 19.9703 15.8743 20.1928 16.6833C20.2433 16.835 20.2332 17.0069 20.2939 17.1485C20.3647 17.1485 20.4557 17.1384 20.4658 17.0575C20.4759 16.8856 20.486 16.7036 20.4253 16.5418C20.2635 16.0058 20.0411 15.5001 19.8186 15.0046C18.9995 13.2248 18.0792 11.5056 17.1589 9.78646C16.5724 8.68418 15.9859 7.592 15.3488 6.52005C15.1465 6.18633 14.9544 5.8425 14.7319 5.52901C14.4588 5.11439 14.1757 4.70988 13.842 4.34582C13.5184 3.99188 13.1341 3.64804 12.6588 3.54692C12.5172 3.5368 12.3756 3.5368 12.2442 3.55703C11.8093 3.65816 11.4351 3.9312 11.1318 4.24469ZM11.5868 4.35593C11.1318 4.69977 10.7677 5.14473 10.4138 5.58968C10.2621 5.80205 10.1003 5.99419 9.9688 6.20656C9.23057 7.24817 8.57325 8.33023 7.91592 9.41229L6.88442 11.1011L6.13608 12.3551L5.81247 12.9113C5.56977 13.3158 5.3574 13.7405 5.12481 14.145C4.92255 14.5293 4.71019 14.9136 4.51805 15.308C4.37647 15.581 4.26523 15.8541 4.13376 16.1271C4.05286 16.299 4.01241 16.4811 3.94162 16.653C3.88094 16.8148 3.86072 16.9766 3.87083 17.1485C3.96185 17.1485 4.06297 17.1485 4.13376 17.0777C4.17421 17.0069 4.17421 16.926 4.20455 16.8451C4.27534 16.5418 4.40681 16.2687 4.50793 15.9754C4.81131 15.2878 5.15515 14.6102 5.50909 13.9428C6.00461 13.0124 6.54059 12.0922 7.06645 11.1719C7.16758 11 7.27882 10.8281 7.35972 10.646L8.00693 9.57409L8.53279 8.69429L9.22046 7.592C9.50361 7.13693 9.79688 6.69197 10.1003 6.25712C10.2317 6.09532 10.343 5.91329 10.4845 5.75149C10.7778 5.37732 11.0913 5.00315 11.4756 4.70988C11.7183 4.51774 12.0116 4.34582 12.3251 4.3256L12.4565 4.31548C12.6588 4.3256 12.861 4.36605 13.033 4.46717C13.4779 4.69977 13.8116 5.09416 14.1251 5.48856C14.6409 6.18633 15.0757 6.94479 15.4903 7.70324C16.8311 10.1822 18.0891 12.7051 19.2624 15.2676C19.3939 15.6417 19.5658 15.9957 19.6871 16.3698C19.7579 16.5519 19.7882 16.7339 19.8489 16.9159C19.8995 17.0171 20.0107 17.0373 20.1017 17.0676L20.122 16.9362C19.9096 16.1372 19.5455 15.3788 19.2118 14.6203C18.6354 13.4169 18.0286 12.2337 17.4219 11.0404C16.9971 10.2314 16.5825 9.4224 16.1376 8.61339C15.6926 7.77403 15.2375 6.94479 14.7319 6.13577C14.4791 5.74138 14.2263 5.34698 13.9229 4.98292C13.7611 4.79078 13.6094 4.59864 13.4172 4.45706C13.1442 4.21436 12.8105 4.0121 12.4363 4.03233C12.1228 4.02221 11.8397 4.1739 11.5969 4.35593H11.5868ZM11.3644 5.0436C10.9194 5.46833 10.5452 5.97397 10.1913 6.4796C9.59463 7.33918 9.04854 8.2291 8.50246 9.11902L7.63276 10.5854C7.31927 11.0809 7.026 11.5865 6.74284 12.0922C6.57093 12.3652 6.41924 12.6484 6.25743 12.9214C6.04507 13.3158 5.80236 13.7001 5.60011 14.1046L5.17537 14.9035C4.91244 15.4192 4.65962 15.935 4.44726 16.471C4.38658 16.6429 4.31579 16.8047 4.30568 16.9867C4.41692 16.9665 4.51805 16.9159 4.59895 16.8451C4.66974 16.7946 4.67985 16.7036 4.71019 16.6227C4.75064 16.4609 4.83154 16.3193 4.89222 16.1575C5.06413 15.7024 5.29672 15.2676 5.49898 14.8226L5.87315 14.1147L6.35856 13.1843C6.53048 12.8304 6.73273 12.5068 6.91476 12.1731C7.34961 11.4146 7.77434 10.6562 8.2193 9.90781C8.75527 8.99767 9.28113 8.08753 9.86767 7.20772C10.1812 6.73242 10.4947 6.25712 10.8688 5.82228C11.1823 5.45822 11.5262 5.10427 11.9711 4.90202C12.2037 4.79078 12.4768 4.77055 12.7296 4.83123C13.0633 4.93236 13.3363 5.16495 13.5892 5.40766C14.0948 5.95374 14.4791 6.60096 14.8532 7.23806C16.1156 9.58951 17.3094 11.9771 18.4331 14.3979C18.7567 15.1159 19.0702 15.8339 19.3332 16.5822C19.4141 16.6833 19.5253 16.7743 19.6568 16.8148C19.5961 16.5822 19.5051 16.3597 19.4242 16.1271C19.0702 15.2473 18.6556 14.3776 18.241 13.5181C17.8264 12.6382 17.3814 11.7686 16.9365 10.8887C16.3297 9.70556 15.7229 8.51226 15.0757 7.3493C14.8735 7.01558 14.6914 6.67175 14.469 6.34814C14.3072 6.08521 14.1454 5.83239 13.9532 5.58968C13.7206 5.2863 13.4678 4.99303 13.1644 4.77055C13.0026 4.65931 12.8307 4.55819 12.6386 4.52785C12.497 4.51774 12.3554 4.51774 12.2239 4.53796C11.8902 4.60875 11.6172 4.83123 11.3745 5.0436H11.3644ZM12.3149 5.00315C11.9711 5.05371 11.688 5.26608 11.4351 5.49867C11.0104 5.90318 10.6666 6.36836 10.3329 6.84366C10.1003 7.19761 9.86767 7.54144 9.64519 7.9055C9.36204 8.34034 9.10922 8.79542 8.83617 9.24037L7.8249 10.9798C7.5822 11.364 7.36983 11.7686 7.14735 12.1629C7.00577 12.4158 6.84397 12.6484 6.71251 12.9012C6.20687 13.8012 5.72146 14.7012 5.2765 15.6215C5.1147 15.9754 4.94278 16.3193 4.82143 16.6833C4.94278 16.653 5.04391 16.5822 5.14503 16.5013C5.25627 16.4103 5.28661 16.2687 5.33718 16.1372C5.68101 15.3485 6.0754 14.5698 6.4698 13.8113C6.54059 13.6495 6.62149 13.5079 6.70239 13.3562L7.62265 11.6674L8.55302 10.0191C8.79572 9.62466 9.00809 9.22015 9.2508 8.82575C9.58452 8.26955 9.91824 7.70324 10.2924 7.16727C10.6261 6.68186 10.97 6.18633 11.4149 5.78183C11.6475 5.57957 11.9003 5.38743 12.1936 5.32675C12.3149 5.30653 12.4363 5.30653 12.5577 5.31664C12.7296 5.31664 12.8813 5.38743 13.0228 5.46833C13.2655 5.62002 13.4577 5.82228 13.6498 6.03464C13.8521 6.27735 14.0442 6.53017 14.206 6.80321C14.7218 7.61223 15.1566 8.4617 15.5915 9.32128C15.7128 9.57409 15.8544 9.8168 15.9758 10.0797L16.623 11.4146C17.1589 12.5371 17.6949 13.6495 18.1904 14.7923C18.3017 15.0653 18.423 15.3181 18.5242 15.5912C18.6152 15.7833 18.6758 15.9754 18.7567 16.1676C18.8377 16.2788 18.9489 16.3496 19.0702 16.3901C19.0702 16.3395 19.0601 16.2788 19.0298 16.2181L18.8073 15.6822C18.2713 14.4383 17.6848 13.2147 17.0882 11.991L15.8746 9.56398C15.4196 8.66395 14.9544 7.76392 14.4386 6.89422C14.1656 6.46949 13.8925 6.04476 13.5588 5.66047C13.397 5.48856 13.2352 5.31664 13.033 5.19529C12.8307 5.05371 12.5678 4.97281 12.3149 5.00315ZM11.8801 5.66047C11.6273 5.80205 11.4351 6.02453 11.2329 6.2369C11.0407 6.42904 10.8891 6.65152 10.7273 6.86389C10.5958 7.06614 10.4441 7.25828 10.3227 7.47065C10.1508 7.69313 10.0194 7.93583 9.86767 8.17854C9.24068 9.19992 8.65415 10.2415 8.0575 11.2831L7.28893 12.6787C7.03611 13.1439 6.76307 13.599 6.52036 14.0641C6.28777 14.5192 6.04507 14.9642 5.8327 15.4192C5.79225 15.5001 5.74168 15.5709 5.71135 15.6518C5.63044 15.8743 5.49898 16.0766 5.4383 16.299C5.55966 16.2485 5.68101 16.1676 5.78214 16.0867C5.84281 16.0361 5.86304 15.9754 5.89337 15.9148C6.04507 15.5507 6.21698 15.1968 6.3889 14.8529C6.49003 14.6608 6.56081 14.4585 6.66194 14.2765L7.00577 13.6091C7.14735 13.3461 7.2687 13.0731 7.43051 12.8102C7.56197 12.5472 7.73389 12.2843 7.85524 12.0113C8.52801 10.743 9.23275 9.49202 9.9688 8.25944C10.2014 7.86505 10.4643 7.48076 10.7273 7.10659C11.0104 6.7122 11.3138 6.33803 11.6981 6.04476C11.8599 5.9234 12.052 5.83239 12.2442 5.79194H12.6082C12.9521 5.87284 13.2352 6.10543 13.4678 6.35825C13.6701 6.59084 13.8521 6.83355 14.0139 7.09648C14.5195 7.88527 14.9341 8.72463 15.3589 9.56398C15.5712 9.99883 15.7735 10.4539 15.996 10.8887L16.5016 11.9809L16.8151 12.6484C17.2601 13.6394 17.7151 14.6203 18.1196 15.6215C18.1702 15.7833 18.3219 15.8642 18.4635 15.9451C18.4433 15.7833 18.3522 15.6417 18.2916 15.49C18.2006 15.2473 18.0893 15.0248 17.9882 14.7821C17.2196 13.0832 16.4005 11.3944 15.5814 9.71567C15.1061 8.77519 14.6409 7.83471 14.0746 6.93468C13.8015 6.50994 13.4981 6.07509 13.1037 5.74138C12.9116 5.5998 12.6891 5.46833 12.4363 5.48856C12.234 5.46833 12.052 5.55935 11.8801 5.66047ZM11.7385 6.25712C11.2228 6.69197 10.8385 7.2684 10.4643 7.83471C10.0902 8.41113 9.75643 9.01789 9.4126 9.60443C9.15978 10.0494 8.90696 10.4842 8.67437 10.9393C8.24964 11.6877 7.83502 12.4461 7.4204 13.2147C7.28893 13.4574 7.16758 13.7203 7.026 13.963C6.92487 14.1653 6.79341 14.3473 6.71251 14.5597L6.26755 15.4597C6.20687 15.581 6.12597 15.6923 6.12597 15.8339C6.25743 15.7631 6.39901 15.6721 6.49003 15.5507C6.59115 15.3788 6.65183 15.1867 6.74284 15.0147L7.2687 13.963C7.56197 13.3866 7.83502 12.8001 8.14851 12.2236C8.31031 11.9304 8.45189 11.6169 8.62381 11.3236L8.99798 10.6359C9.12944 10.373 9.29125 10.1101 9.43283 9.84714C9.75643 9.2606 10.08 8.68418 10.434 8.12798C10.707 7.69313 10.9902 7.25828 11.334 6.88411C11.6071 6.58073 11.9509 6.3178 12.3655 6.25712C12.497 6.24701 12.6284 6.28746 12.7498 6.32791C13.0936 6.46949 13.3566 6.75265 13.579 7.04592C13.7408 7.25828 13.8824 7.49087 14.0341 7.71335C14.5397 8.59316 14.9746 9.50331 15.3993 10.4236C15.5106 10.6258 15.5915 10.8382 15.6926 11.0404C16.1274 11.9607 16.532 12.9012 16.9466 13.8214L17.5129 15.1765C17.5736 15.308 17.6949 15.3889 17.8163 15.4597C17.8264 15.3586 17.7758 15.2676 17.7354 15.1867C17.5028 14.6203 17.2398 14.0641 16.987 13.4978C16.5522 12.5472 16.1173 11.5865 15.6623 10.646C15.2679 9.80669 14.8634 8.97744 14.4285 8.16843C14.1858 7.73358 13.9431 7.29873 13.6498 6.89422C13.4678 6.66163 13.2858 6.41893 13.0532 6.22679C12.9217 6.12566 12.77 6.04476 12.5981 5.98408C12.2947 5.91329 11.9812 6.05487 11.7385 6.25712ZM11.6374 6.86389C11.2531 7.21783 10.97 7.65268 10.6868 8.07741C10.5149 8.37068 10.3329 8.64372 10.1711 8.93699C9.54407 10.0089 8.97775 11.1112 8.3811 12.2034C8.18896 12.5877 7.95637 12.972 7.76423 13.3664C7.51141 13.8315 7.27882 14.3068 7.03611 14.7821C6.95521 14.9743 6.84397 15.1563 6.76307 15.3586C6.95521 15.2979 7.13724 15.1563 7.20803 14.9642L7.40017 14.5597C7.79457 13.7506 8.17885 12.9416 8.59347 12.1528C9.09911 11.1618 9.61485 10.1809 10.1508 9.21004C10.4542 8.7044 10.7475 8.18865 11.1014 7.70324C11.3542 7.39986 11.5969 7.07625 11.9408 6.88411C12.052 6.82344 12.1633 6.76276 12.2846 6.76276C12.4363 6.76276 12.588 6.74253 12.7296 6.81332C13.0633 6.9549 13.306 7.24817 13.5184 7.53133C13.933 8.10775 14.2465 8.74485 14.56 9.37184C14.9645 10.2213 15.3488 11.0809 15.733 11.9405L16.8454 14.5394C16.8859 14.6305 16.9061 14.7316 16.9668 14.8125C17.0275 14.8934 17.1286 14.9439 17.2297 14.9844C17.1286 14.7114 17.0072 14.4585 16.896 14.2057L16.3904 13.0428C16.2083 12.6686 16.0567 12.2742 15.8746 11.9101C15.5106 11.1213 15.1566 10.3325 14.7825 9.55387C14.4184 8.81564 14.0543 8.0673 13.5892 7.37964C13.4273 7.14704 13.2453 6.92456 13.0431 6.74253C12.8711 6.59084 12.6689 6.45938 12.4363 6.46949C12.1228 6.44927 11.8498 6.65152 11.6374 6.86389ZM12.143 6.99535C12.0015 7.05603 11.87 7.14704 11.7587 7.25828C11.5969 7.40997 11.4453 7.56166 11.3239 7.73358C11.0913 8.03696 10.8891 8.36057 10.6868 8.68418C10.2621 9.38195 9.87778 10.1202 9.4935 10.8483L8.36088 13.0326C8.11817 13.5181 7.86536 13.9934 7.63276 14.4788C7.57209 14.6001 7.49118 14.7114 7.49118 14.8428C7.60242 14.7923 7.73389 14.7316 7.78445 14.6102L8.04738 14.0641L8.45189 13.2248L9.22046 11.6775C9.45305 11.2022 9.70587 10.7371 9.94857 10.2618C10.3025 9.58421 10.6666 8.90666 11.1014 8.26955C11.3542 7.91561 11.6273 7.54144 12.0217 7.32907C12.234 7.20772 12.5071 7.18749 12.7296 7.30885C12.9217 7.39986 13.0936 7.54144 13.2251 7.71335C13.579 8.12798 13.8319 8.6235 14.0847 9.10891C14.4487 9.8168 14.7622 10.555 15.0858 11.2831C15.4903 12.2337 15.8949 13.1843 16.2791 14.145C16.3196 14.2361 16.3499 14.3473 16.4207 14.4282C16.4713 14.4889 16.5421 14.5192 16.6129 14.5496C16.6027 14.4181 16.5421 14.3068 16.4915 14.1855C15.8847 12.7697 15.2679 11.3438 14.6206 9.93815L14.1858 9.03812L13.6599 8.08753C13.4375 7.73358 13.2049 7.36952 12.8711 7.10659C12.7599 7.02569 12.6284 6.9549 12.4869 6.9549C12.3756 6.9549 12.2543 6.94479 12.143 6.99535ZM11.9307 7.62234C11.6071 7.88527 11.3542 8.2291 11.1318 8.57294C10.8183 9.05835 10.5351 9.56398 10.2621 10.0696C9.77666 10.9696 9.34181 11.8899 8.87663 12.7899L8.29009 13.9934C8.2193 14.1248 8.14851 14.2563 8.10806 14.408C8.25975 14.3877 8.37099 14.2563 8.42155 14.1248L8.86651 13.1843C9.00809 12.881 9.15978 12.5877 9.29125 12.2843C9.68564 11.4955 10.0598 10.6865 10.4845 9.91793C10.7778 9.40218 11.0509 8.8662 11.425 8.40102C11.6273 8.13809 11.87 7.86505 12.1936 7.75381C12.3251 7.73358 12.4565 7.74369 12.5779 7.75381C12.8307 7.82459 13.0228 8.02685 13.1846 8.21899C13.3869 8.48192 13.5689 8.74485 13.7105 9.03812C14.1656 9.87748 14.5195 10.7674 14.8937 11.6371L15.8342 13.9731C15.8746 14.0844 15.9758 14.1349 16.0668 14.1855C16.0668 14.145 16.0668 14.1046 16.0465 14.0641L15.5207 12.8001L14.6611 10.7977C14.3173 10.0191 13.9633 9.23026 13.5386 8.48192C13.3667 8.21899 13.1948 7.94595 12.9723 7.72347C12.847 7.58707 12.6858 7.4889 12.5071 7.44031C12.2947 7.38975 12.0824 7.49087 11.9206 7.62234H11.9307ZM11.961 8.09764C11.7082 8.29989 11.516 8.56282 11.334 8.83587C11.1014 9.1797 10.8992 9.54376 10.6969 9.91793C10.3531 10.5449 10.0396 11.2022 9.72609 11.8495L8.74516 13.8821L8.70471 14.0237C8.78561 13.9934 8.86651 13.963 8.91708 13.8922L9.0182 13.69C9.11933 13.4574 9.24068 13.2349 9.3317 13.0124L10.1711 11.2022L10.4947 10.5449C10.6261 10.2516 10.798 9.98872 10.9396 9.70556C11.0812 9.45274 11.2329 9.19992 11.4048 8.95722C11.6172 8.65384 11.87 8.33023 12.2442 8.21899C12.406 8.15831 12.5779 8.2291 12.7195 8.29989C12.9217 8.41113 13.0633 8.60327 13.2049 8.7853C13.3464 8.97744 13.4577 9.18981 13.5689 9.40218C14.0038 10.2314 14.3476 11.1011 14.6914 11.9708C14.8836 12.436 15.0454 12.9113 15.2375 13.3664C15.2881 13.4978 15.3184 13.6394 15.3993 13.7506C15.4297 13.8012 15.5005 13.8012 15.5611 13.8214L15.5005 13.6495L14.9341 12.254C14.8431 12.0315 14.7622 11.7989 14.651 11.5764C14.4487 11.0607 14.2364 10.555 14.0038 10.0595C13.751 9.51342 13.488 8.95722 13.1442 8.4617C12.9925 8.24933 12.8105 8.04707 12.5779 7.93583C12.4666 7.9055 12.3554 7.91561 12.2442 7.92572C12.143 7.96617 12.052 8.02685 11.961 8.09764ZM12.0722 8.50215C11.8093 8.69429 11.6172 8.96733 11.4453 9.24037C11.2733 9.49319 11.1216 9.75612 10.9801 10.0292C10.8183 10.3224 10.6666 10.6359 10.5149 10.9393C10.1407 11.6877 9.79688 12.4562 9.45305 13.2147C9.39237 13.3461 9.31147 13.4675 9.27102 13.599C9.31147 13.6697 9.40249 13.6192 9.43283 13.5585C9.54407 13.3967 9.60474 13.2046 9.68564 13.0225L10.3935 11.4652C10.5553 11.0708 10.7677 10.6966 10.9497 10.3022C11.1924 9.85725 11.4351 9.40218 11.779 9.01789C11.9307 8.84598 12.1329 8.71451 12.3655 8.68418C12.6284 8.7044 12.8408 8.87632 12.9925 9.06846C13.3262 9.50331 13.5487 9.98872 13.7712 10.4842C14.1352 11.3337 14.4487 12.2034 14.7723 13.0731C14.8229 13.2248 14.8735 13.3765 14.9645 13.5079H15.0656C14.9443 13.1135 14.7825 12.7394 14.6308 12.3551C14.469 11.9202 14.2869 11.4955 14.115 11.0607C13.9431 10.6562 13.7813 10.2516 13.5892 9.86736C13.4172 9.51342 13.2453 9.15947 13.0127 8.84598C12.8711 8.66395 12.6992 8.47181 12.4768 8.40102C12.3352 8.36057 12.1936 8.44147 12.0722 8.50215ZM11.9104 9.13925C11.5868 9.47297 11.3745 9.90781 11.152 10.3123C10.6874 11.2888 10.2323 12.2698 9.78677 13.2551L9.73621 13.4068C10.3632 13.0529 11.0104 12.7191 11.7082 12.5573C11.9206 12.5068 12.143 12.527 12.3655 12.527C12.6386 12.527 12.9015 12.6079 13.1745 12.6888C13.4375 12.7697 13.7105 12.8607 13.9633 12.9922L14.6409 13.3158C14.6105 13.1237 14.5195 12.9619 14.469 12.7798C14.1049 11.7989 13.7408 10.8078 13.2858 9.86736C13.1644 9.64488 13.0532 9.43252 12.9015 9.24037C12.77 9.05835 12.5981 8.88643 12.3655 8.87632C12.1835 8.89654 12.0318 8.99767 11.9104 9.12913V9.13925ZM11.6981 12.7596C11.5363 12.7798 11.3947 12.8506 11.2329 12.8911C11.0205 12.9619 10.8183 13.063 10.616 13.154L9.98902 13.4776C9.83733 13.5787 9.66542 13.6293 9.55418 13.7709C9.60474 13.781 9.65531 13.781 9.69576 13.7506C9.99914 13.5888 10.2823 13.3967 10.5958 13.245C11.0711 13.0225 11.5767 12.8001 12.1127 12.7697C12.2239 12.7596 12.3251 12.7899 12.4363 12.8001C12.588 12.8102 12.7397 12.8708 12.9015 12.8911C13.4375 13.0225 13.9532 13.2551 14.4487 13.5282C14.56 13.5888 14.6712 13.6697 14.8027 13.69C14.7723 13.6495 14.7622 13.599 14.7117 13.5787C14.5701 13.4776 14.4083 13.4068 14.2465 13.3259C13.9229 13.154 13.579 13.0124 13.2352 12.9012C13.0532 12.8607 12.8813 12.7798 12.6992 12.7697C12.588 12.7495 12.4768 12.7191 12.3554 12.7191C12.143 12.7191 11.9206 12.709 11.6981 12.7596ZM12.0217 12.9922C11.8498 12.9821 11.688 13.0326 11.5363 13.0832C11.0256 13.2282 10.5385 13.4462 10.0902 13.7304L9.52384 14.0743C9.45305 14.1147 9.39237 14.1855 9.35192 14.2563C9.53395 14.2057 9.67553 14.0641 9.83733 13.9832C10.4138 13.6394 11.0104 13.2956 11.6677 13.1237L12.143 13.0428C12.2947 13.0428 12.4464 13.1034 12.6082 13.1135C12.77 13.1135 12.9217 13.1843 13.0734 13.2147C13.2251 13.2551 13.3566 13.3259 13.4981 13.3664C13.8217 13.4877 14.1251 13.6697 14.4386 13.8315C14.6004 13.9226 14.7521 14.0338 14.924 14.1046C14.9139 13.9731 14.7723 13.9327 14.6813 13.872C14.2161 13.6091 13.7408 13.3562 13.2352 13.1843C13.0734 13.1237 12.9015 13.0933 12.7296 13.0428C12.5071 12.972 12.2543 12.9922 12.0217 12.9922ZM11.4958 13.3664C11.243 13.4574 11.0003 13.5484 10.7677 13.6799C10.3227 13.9023 9.89801 14.1552 9.48339 14.4282L9.21035 14.6203C9.18001 14.6507 9.18001 14.7012 9.16989 14.7417C9.29125 14.681 9.40249 14.6001 9.51373 14.5293C9.72609 14.3776 9.95869 14.2361 10.1913 14.0945C10.707 13.7709 11.2632 13.4978 11.8599 13.3562C11.9711 13.3259 12.0925 13.336 12.2138 13.336C12.4869 13.3259 12.7498 13.4169 13.0127 13.4776C13.6903 13.7001 14.3173 14.054 14.9038 14.4484L15.0959 14.5496C15.0757 14.3979 14.9038 14.3473 14.7926 14.2664C14.6105 14.145 14.4184 14.0439 14.2263 13.9428C14.024 13.8113 13.8116 13.7304 13.5993 13.6192C13.4273 13.5585 13.2655 13.4776 13.0936 13.427C12.8711 13.3461 12.6284 13.3158 12.3959 13.2652C12.2846 13.2551 12.1734 13.2248 12.0621 13.245C11.87 13.2753 11.6778 13.3259 11.4958 13.3664ZM11.7284 13.5888C11.3239 13.7001 10.9396 13.872 10.5756 14.0743C10.343 14.2158 10.0902 14.3473 9.86767 14.5192C9.59463 14.7012 9.30136 14.8732 9.03843 15.0855C8.98787 15.126 8.95753 15.1867 8.9373 15.2473C9.14967 15.1563 9.31147 15.0046 9.4935 14.8732C9.75643 14.6911 10.0295 14.499 10.3126 14.3372C10.4947 14.2259 10.6767 14.1046 10.8688 14.0136C11.0711 13.9023 11.2835 13.8214 11.4958 13.7304C11.6071 13.69 11.7183 13.6799 11.8295 13.6495C12.0015 13.5888 12.1835 13.6091 12.3655 13.6091C12.6891 13.6596 13.0026 13.7506 13.306 13.872C13.6903 14.0237 14.0341 14.2361 14.3881 14.4383L14.8229 14.7215C14.9746 14.8226 15.1061 14.9439 15.2679 15.0147C15.2476 14.9642 15.2274 14.9035 15.1768 14.863C15.0252 14.7417 14.8634 14.6507 14.7117 14.5394C14.3881 14.3473 14.0746 14.1349 13.7307 13.9832C13.4981 13.872 13.2554 13.7608 13.0026 13.69C12.861 13.6596 12.7296 13.5787 12.5779 13.5787C12.4464 13.5686 12.3251 13.5282 12.1936 13.5282C12.0318 13.5181 11.8801 13.5686 11.7183 13.5888H11.7284ZM15.0454 13.7911C15.0454 13.9124 15.1667 13.9529 15.2679 13.9832C15.2173 13.8922 15.1566 13.7911 15.0454 13.7911ZM11.7284 13.872C11.516 13.9226 11.3239 14.0136 11.1216 14.1046C10.343 14.4686 9.64519 14.9844 8.95753 15.5001C8.87663 15.5608 8.78561 15.6114 8.72494 15.6923C8.6946 15.7226 8.72494 15.7732 8.73505 15.8035C9.23057 15.4192 9.73621 15.035 10.2621 14.681C10.6362 14.4484 11.0205 14.2057 11.4351 14.0439C11.5868 13.9934 11.7385 13.9226 11.8902 13.9124C12.1329 13.8821 12.3756 13.8922 12.6183 13.9327C13.3566 14.1147 14.0139 14.5091 14.6308 14.9338C14.9038 15.126 15.1566 15.3485 15.4398 15.5103C15.4196 15.4091 15.3488 15.3282 15.2577 15.2777C14.6308 14.8125 13.9734 14.3675 13.2453 14.0641C13.1037 14.0136 12.9723 13.9428 12.8206 13.9124C12.6183 13.872 12.4262 13.7911 12.2138 13.8012C12.052 13.7911 11.8902 13.8113 11.7284 13.872ZM9.03843 14.145C9.14967 14.0945 9.29125 14.0439 9.28113 13.9124C9.18001 13.9428 9.05865 14.0136 9.03843 14.145ZM11.8498 14.1248C11.4857 14.1956 11.152 14.3675 10.8385 14.5496C10.6464 14.6507 10.4643 14.772 10.2924 14.8934C10.08 15.0147 9.8879 15.1765 9.68564 15.3181L8.79572 15.9957C8.67437 16.0968 8.49234 16.1777 8.48223 16.3597C8.64403 16.2889 8.75527 16.1575 8.89685 16.0563L9.43283 15.6316C9.70587 15.4091 9.98902 15.2069 10.2823 14.9945L10.8891 14.6102C11.1419 14.4585 11.4048 14.3271 11.688 14.2462C11.8295 14.1956 11.9711 14.145 12.1127 14.145C12.6712 14.2005 13.2102 14.3801 13.6903 14.6709C14.1913 14.9626 14.6681 15.294 15.1162 15.6619C15.2881 15.7833 15.4398 15.9451 15.6218 16.0563C15.6117 16.0058 15.6218 15.9552 15.5915 15.9249C15.5207 15.844 15.4297 15.7833 15.3488 15.7226C14.7926 15.2777 14.2161 14.8428 13.5892 14.5192C13.2049 14.3271 12.8206 14.1552 12.3959 14.0945C12.2138 14.0945 12.0318 14.0844 11.8498 14.1248ZM15.5106 14.0844C15.551 14.1956 15.642 14.2765 15.7533 14.317C15.7432 14.2664 15.733 14.2259 15.7027 14.1855C15.6521 14.1349 15.5814 14.1046 15.5106 14.0844ZM15.2072 14.2259C15.2274 14.3271 15.3184 14.3979 15.4094 14.4282L15.369 14.2967L15.2072 14.2259ZM8.45189 14.5394C8.58336 14.4889 8.71482 14.3979 8.75527 14.2563C8.62381 14.3068 8.46201 14.3776 8.45189 14.5394ZM11.7992 14.408C11.1159 14.6358 10.4862 15.0005 9.94857 15.4799C9.79688 15.5912 9.63508 15.6923 9.4935 15.8136C9.10922 16.1271 8.70471 16.4305 8.33054 16.7642C8.27998 16.8249 8.2193 16.9058 8.25975 16.9867C8.94742 16.4103 9.60474 15.8136 10.3329 15.2979C10.7778 14.9844 11.2329 14.6709 11.7486 14.499C11.9307 14.4686 12.1026 14.3877 12.2846 14.4282L12.6689 14.5091C12.9925 14.6001 13.2959 14.7316 13.5689 14.9035C14.0341 15.1664 14.4487 15.4799 14.8532 15.8238C15.0353 15.9451 15.187 16.1069 15.3589 16.2485C15.5106 16.3698 15.642 16.5114 15.8038 16.6227C15.7937 16.5721 15.7937 16.5013 15.7432 16.4507C15.642 16.3294 15.5005 16.2384 15.3892 16.1271L14.5802 15.4799C14.1251 15.1462 13.6498 14.8125 13.124 14.6001C12.7195 14.3979 12.2442 14.3068 11.7992 14.408ZM8.8564 14.5192C8.82606 14.5496 8.83617 14.6001 8.83617 14.6406C8.89685 14.6001 8.95753 14.5698 9.00809 14.5192C9.04854 14.4788 9.09911 14.4282 9.05865 14.3776C8.98787 14.4181 8.91708 14.4585 8.8564 14.5192ZM16.0263 14.4282C16.0465 14.4788 16.0567 14.5496 16.1072 14.59L16.2791 14.6709C16.2488 14.5394 16.1477 14.4585 16.0263 14.4282ZM15.6825 14.5496C15.7229 14.681 15.8443 14.7518 15.9656 14.8226C15.9151 14.6911 15.8241 14.5698 15.6825 14.5496ZM11.87 14.6709C11.3846 14.7923 10.97 15.0855 10.5553 15.3586C10.3733 15.5001 10.1711 15.6316 9.98902 15.7934L9.4935 16.1777C9.16989 16.471 8.81595 16.7339 8.50246 17.0272C8.35077 17.1485 8.19907 17.2699 8.06761 17.4114C8.00693 17.462 8.01705 17.5429 8.01705 17.6238L8.6137 17.098C8.76539 16.9362 8.94741 16.8148 9.10922 16.653L9.58452 16.2485C9.78677 16.0563 10.0295 15.8844 10.252 15.7024L10.6261 15.4192C11.0205 15.1462 11.425 14.8732 11.8902 14.7417C12.0217 14.7012 12.1531 14.7215 12.2947 14.7114C12.4869 14.7114 12.6689 14.8024 12.8509 14.8529C12.9925 14.8934 13.1341 14.9743 13.2655 15.0451C13.6599 15.2473 14.0139 15.5204 14.3779 15.7934C14.5499 15.9047 14.6813 16.0665 14.8532 16.1979C15.1465 16.4507 15.4297 16.7137 15.7128 16.9867C15.8038 17.0777 15.905 17.1789 16.0263 17.2395C16.0061 17.1687 15.996 17.098 15.9454 17.0474L15.7027 16.8148C15.551 16.653 15.3589 16.5215 15.1971 16.3698C15.015 16.1878 14.8027 16.026 14.6004 15.8541C14.1959 15.5406 13.7813 15.2271 13.3262 14.9945C13.1442 14.9136 12.9723 14.8125 12.7902 14.7518C12.6386 14.7012 12.4768 14.6709 12.3149 14.6305C12.1633 14.6001 12.0116 14.6203 11.87 14.6709ZM15.3589 14.6507C15.3791 14.7012 15.3791 14.772 15.4297 14.8024C15.4802 14.8529 15.551 14.8934 15.6117 14.9338C15.5915 14.8833 15.5814 14.8226 15.5409 14.772C15.4903 14.7215 15.4196 14.6911 15.3589 14.6507ZM7.83502 14.9642C7.96648 14.9035 8.14851 14.8327 8.15862 14.6608C8.01705 14.7114 7.85524 14.7923 7.83502 14.9642ZM8.20919 15.0754C8.35077 15.0046 8.49234 14.9136 8.54291 14.7417C8.40133 14.8125 8.22941 14.9035 8.20919 15.0754ZM16.5623 14.8024C16.5825 14.9642 16.7342 15.0552 16.8758 15.1159C16.8454 15.0552 16.8252 14.9844 16.7747 14.9338C16.714 14.8833 16.6432 14.8428 16.5623 14.8024ZM8.62381 15.035L8.60358 15.1462C8.72494 15.0956 8.86651 15.0147 8.87663 14.863C8.78561 14.9136 8.68448 14.9541 8.62381 15.035ZM11.0913 15.3282C10.6969 15.5709 10.3329 15.8642 9.97891 16.1474C9.807 16.2889 9.64519 16.4507 9.46316 16.5923L8.97775 17.0171C8.62381 17.3305 8.27998 17.6542 7.91592 17.9474C7.8249 18.0182 7.78445 18.1295 7.79457 18.2407C7.85524 18.2104 7.91592 18.1699 7.96648 18.1193C8.15862 17.9373 8.36088 17.7755 8.54291 17.5935L9.27102 16.9159C9.46316 16.744 9.63508 16.562 9.83733 16.4103C10.0902 16.1676 10.3632 15.9552 10.6261 15.7429C10.7778 15.6215 10.9295 15.5204 11.0913 15.4192C11.3846 15.217 11.7082 15.0451 12.0722 14.9844C12.2947 14.9541 12.5172 15.0248 12.7296 15.0956C12.9217 15.1563 13.0936 15.2574 13.2655 15.3485C13.5892 15.5406 13.8925 15.753 14.1858 16.0058L14.742 16.471C14.9341 16.653 15.1061 16.8552 15.2982 17.0272L15.8241 17.553C15.9758 17.6946 16.0971 17.8564 16.2589 17.9676C16.2286 17.8564 16.2083 17.7249 16.1173 17.6339C15.642 17.1789 15.1667 16.7137 14.6712 16.2788L14.3072 15.9754C14.1049 15.8136 13.8925 15.6721 13.6802 15.5204C13.488 15.3889 13.2858 15.2676 13.0835 15.1664C12.8206 15.0248 12.5374 14.9439 12.2442 14.9136C11.8194 14.8833 11.4453 15.1159 11.0913 15.3282ZM16.1982 14.9035C16.2286 15.0552 16.3499 15.1563 16.4814 15.1968C16.4915 15.035 16.3196 14.9642 16.1982 14.9035ZM15.8645 15.0147C15.8544 15.1664 16.0162 15.2372 16.1274 15.308C16.1274 15.1563 15.9859 15.0653 15.8645 15.0147ZM7.25859 15.2777C7.22825 15.308 7.16758 15.3889 7.23837 15.4192C7.37994 15.3383 7.53164 15.2372 7.57209 15.0754C7.45073 15.0956 7.34961 15.1867 7.25859 15.2777ZM15.5106 15.1361C15.5409 15.2777 15.6623 15.3586 15.7836 15.4091C15.7634 15.2676 15.642 15.1664 15.5106 15.1361ZM7.84513 15.217C7.71366 15.2878 7.5822 15.3889 7.56197 15.5406C7.71366 15.4698 7.87547 15.3687 7.93614 15.1968C7.90581 15.1968 7.87547 15.1968 7.84513 15.217ZM11.8093 15.2473C11.5464 15.3383 11.334 15.49 11.1014 15.6316C10.9093 15.7732 10.6969 15.9047 10.5149 16.0766C10.1306 16.3597 9.77666 16.6934 9.42271 17.0272C9.22046 17.2193 8.99798 17.4013 8.79572 17.6036C8.47212 17.8867 8.16874 18.1901 7.83502 18.4531C7.76423 18.5137 7.68333 18.5744 7.65299 18.6553C7.62265 18.716 7.63276 18.7767 7.62265 18.8272C7.89569 18.6958 8.08783 18.4632 8.31031 18.271L8.9373 17.6744L9.43283 17.1991C9.807 16.835 10.1609 16.4609 10.5756 16.1271C10.7171 16.026 10.8385 15.8945 10.9902 15.8035C11.1216 15.7327 11.2329 15.6215 11.3745 15.5507C11.516 15.4597 11.6677 15.3788 11.8295 15.3181C12.0621 15.2473 12.3149 15.2676 12.5577 15.3181C12.8914 15.4294 13.1948 15.6013 13.4779 15.7934L14.0746 16.2586L14.742 16.8957C15.1465 17.2901 15.5207 17.7148 15.9252 18.1193C16.0668 18.2609 16.2083 18.4126 16.36 18.5441C16.36 18.4834 16.3701 18.4227 16.3499 18.362C16.3196 18.3014 16.269 18.2609 16.2286 18.2104C16.0769 18.0789 15.9454 17.9373 15.8038 17.7957C15.5915 17.5935 15.3993 17.3811 15.187 17.189C14.8634 16.8856 14.5701 16.562 14.2161 16.2788C14.0644 16.1372 13.8925 16.026 13.7307 15.8844C13.3464 15.6013 12.9217 15.3383 12.4464 15.2069C12.234 15.1664 12.0116 15.1563 11.8093 15.2473ZM17.4724 15.5709C17.4623 15.3788 17.2702 15.2979 17.1387 15.2069C17.1387 15.3889 17.3106 15.5103 17.4724 15.5709ZM7.96648 15.6215C8.10806 15.5507 8.29009 15.4496 8.3002 15.2777C8.14851 15.3485 7.97659 15.4395 7.96648 15.6215ZM16.7747 15.3282C16.7747 15.49 16.9365 15.5709 17.0477 15.6619C17.078 15.6215 17.078 15.581 17.0477 15.5507C16.987 15.4395 16.8758 15.3889 16.7747 15.3282ZM8.36088 15.6923C8.46201 15.6417 8.56313 15.581 8.63392 15.49L8.64403 15.3788C8.52268 15.4597 8.34065 15.5305 8.36088 15.6923ZM12.0824 15.4496L11.7587 15.5507C11.3138 15.753 10.9295 16.0766 10.5553 16.3901L9.92835 16.9564C9.73621 17.1182 9.5744 17.3002 9.39237 17.462L8.81595 18.0182L8.3811 18.4429C8.1384 18.6553 7.89569 18.8677 7.62265 19.0396C7.62265 19.1003 7.64288 19.1812 7.71366 19.1609C7.85524 19.1407 7.96648 19.0497 8.07772 18.9688C8.66426 18.4328 9.20023 17.8463 9.76654 17.2901C9.8879 17.1687 9.98902 17.0373 10.1205 16.926C10.2722 16.7845 10.4138 16.6227 10.5857 16.4811C10.7677 16.3395 10.9295 16.1676 11.1216 16.0361C11.3846 15.8238 11.688 15.6518 12.0015 15.5507C12.1734 15.49 12.3554 15.5406 12.5273 15.6013C12.7801 15.6822 13.0228 15.8035 13.2352 15.9653C13.3566 16.0462 13.488 16.1271 13.5892 16.2283C13.8217 16.4204 14.0543 16.6227 14.2566 16.835L14.6004 17.189C14.7723 17.371 14.9443 17.5429 15.1061 17.7351C15.2679 17.8969 15.4196 18.0688 15.5611 18.2407C15.8038 18.4834 16.0162 18.7564 16.2892 18.9587C16.3297 18.9991 16.3904 18.989 16.4308 18.9991C16.4308 18.9486 16.4409 18.898 16.4207 18.8576C16.36 18.7868 16.269 18.7362 16.1881 18.6654C15.8847 18.3722 15.6016 18.0587 15.3083 17.7553L14.8937 17.3103C14.651 17.0575 14.3982 16.8249 14.1454 16.5822C13.9128 16.3901 13.6903 16.1777 13.4375 16.0058C13.1644 15.8238 12.8813 15.6013 12.5475 15.5204C12.3959 15.49 12.2442 15.4294 12.0824 15.4496ZM16.4308 15.4294C16.4409 15.4799 16.4207 15.5507 16.4612 15.5912C16.532 15.6619 16.623 15.7226 16.7039 15.7833C16.7342 15.6013 16.5421 15.5204 16.4308 15.4294ZM6.57093 15.7631C6.53048 15.8035 6.52036 15.8642 6.52036 15.9148C6.69228 15.844 6.88442 15.7327 6.92487 15.5305C6.79341 15.581 6.66194 15.6619 6.57093 15.7631ZM16.087 15.5507L16.0971 15.6822C16.1477 15.753 16.2387 15.8035 16.3095 15.844C16.3095 15.7934 16.3196 15.7327 16.2892 15.7024C16.2286 15.6316 16.1578 15.5912 16.087 15.5507ZM6.90465 15.9957C7.01589 16.0058 7.1069 15.9047 7.1878 15.844C7.25859 15.7934 7.28893 15.7125 7.29904 15.6316C7.12713 15.7024 6.96532 15.8136 6.90465 15.9957ZM15.7128 15.6518C15.7229 15.7226 15.7432 15.8035 15.8139 15.8541C15.8544 15.8844 15.9151 15.9451 15.9758 15.9148C15.9555 15.7732 15.8241 15.7024 15.7128 15.6518ZM17.7253 15.6619C17.7556 15.8541 17.9174 15.9856 18.0893 16.0361C18.0489 15.8541 17.8769 15.7429 17.7253 15.6619ZM7.4204 15.9047C7.34961 15.9552 7.31927 16.0361 7.32938 16.1271C7.44062 16.0462 7.55186 15.9754 7.64288 15.8743C7.68333 15.8339 7.68333 15.7732 7.68333 15.7226C7.59231 15.7732 7.5013 15.8238 7.4204 15.9047ZM17.3915 15.9148C17.4724 16.0159 17.5837 16.0968 17.6949 16.1575C17.6848 16.1069 17.6949 16.0361 17.6545 15.9957C17.5736 15.9047 17.4623 15.844 17.3612 15.7732C17.3713 15.8136 17.3612 15.8743 17.3915 15.9148ZM16.9466 15.8238C16.9769 15.9148 16.987 16.026 17.0679 16.0968L17.3511 16.3092C17.3207 16.2181 17.3106 16.117 17.2297 16.0563C17.1488 15.9653 17.0376 15.9047 16.9466 15.8238ZM7.76423 16.0462C7.72378 16.0867 7.72378 16.1372 7.72378 16.1878C7.87547 16.117 8.02716 16.0159 8.07772 15.8541L8.04738 15.8238C7.94626 15.8844 7.84513 15.9552 7.76423 16.0462ZM8.06761 16.3395C8.16874 16.2788 8.25975 16.208 8.34065 16.1372C8.41144 16.0665 8.45189 15.9754 8.49234 15.8844C8.29009 15.9451 8.08783 16.117 8.06761 16.3395ZM5.97428 16.1575C5.88326 16.2181 5.85292 16.3193 5.8327 16.4204C5.92371 16.38 6.00462 16.3294 6.08552 16.2586C6.19676 16.1878 6.31811 16.0766 6.29788 15.935C6.18664 15.9957 6.0754 16.0665 5.97428 16.1575ZM16.623 15.9957C16.6432 16.1676 16.7848 16.2889 16.9365 16.3496C16.9263 16.1777 16.7645 16.0563 16.623 15.9957ZM16.2589 16.0867C16.2488 16.2283 16.3701 16.3193 16.4612 16.4002C16.4915 16.4305 16.532 16.4305 16.5724 16.4406C16.5522 16.2586 16.3904 16.1676 16.2589 16.0867ZM6.32822 16.3092C6.27766 16.3597 6.27766 16.4305 6.26755 16.4912C6.39901 16.4406 6.50014 16.3597 6.60127 16.2586C6.65183 16.2181 6.65183 16.1575 6.65183 16.0968C6.53048 16.1474 6.41924 16.2181 6.32822 16.3092ZM18.3219 16.117C18.3421 16.1878 18.3522 16.2687 18.4129 16.3294C18.4938 16.4103 18.6051 16.4811 18.7062 16.5519C18.686 16.471 18.6758 16.38 18.6051 16.3193C18.5242 16.2485 18.423 16.1777 18.3219 16.117ZM15.8847 16.1777C15.905 16.3496 16.0567 16.471 16.1982 16.5721C16.1982 16.38 16.0364 16.2485 15.8847 16.1777ZM6.75296 16.3901C6.69228 16.4507 6.66194 16.5418 6.64172 16.6227C6.76307 16.5519 6.87431 16.4912 6.97544 16.3901C7.03611 16.3395 7.04622 16.2586 7.04622 16.1878C6.9451 16.2485 6.84397 16.3092 6.75296 16.3901ZM18.3118 16.6429C18.3017 16.5721 18.2916 16.5013 18.2309 16.4507C18.15 16.3698 18.0489 16.299 17.9477 16.2283C17.968 16.4305 18.15 16.562 18.3118 16.6429ZM7.05634 16.7137C7.15746 16.6631 7.24848 16.6024 7.32938 16.5215C7.40017 16.4609 7.46085 16.38 7.44062 16.2788C7.28893 16.3901 7.05634 16.4912 7.05634 16.7137ZM17.5837 16.3496C17.5736 16.5519 17.7657 16.6631 17.9073 16.7642C17.9073 16.7036 17.9275 16.6328 17.8871 16.5822C17.796 16.4912 17.6848 16.4204 17.5837 16.3496ZM7.44062 16.8148C7.56197 16.7642 7.65299 16.6732 7.744 16.5923C7.80468 16.5418 7.8249 16.4609 7.84513 16.3901C7.6631 16.4609 7.47096 16.6024 7.44062 16.8148ZM5.32706 16.5923C5.26639 16.6429 5.21582 16.7339 5.26639 16.8148C5.3574 16.7541 5.46864 16.6934 5.54954 16.6227C5.62033 16.562 5.63044 16.4811 5.65067 16.4002C5.53943 16.4507 5.42819 16.5215 5.32706 16.5923ZM17.1792 16.4811C17.2095 16.5519 17.2297 16.6328 17.2904 16.6833L17.5634 16.8957C17.5331 16.7845 17.5028 16.6833 17.4118 16.6125C17.3511 16.5519 17.2803 16.471 17.1792 16.4811ZM5.74168 16.7036C5.65067 16.7743 5.62033 16.8755 5.61022 16.9766C5.71135 16.9159 5.82259 16.8552 5.9136 16.7845C6.00461 16.7137 6.06529 16.6024 6.05518 16.4912L5.73157 16.7036H5.74168ZM7.84513 16.8957C7.96648 16.835 8.07772 16.7541 8.16874 16.653C8.20919 16.6024 8.19907 16.5316 8.19907 16.4811C8.03727 16.5721 7.86536 16.6934 7.84513 16.8957ZM16.8859 16.7642C16.9668 16.8552 17.0679 16.926 17.1792 16.9665C17.1488 16.8957 17.1387 16.8047 17.078 16.7541C17.0072 16.6833 16.9263 16.6328 16.8454 16.5721C16.8151 16.6429 16.8454 16.7137 16.8859 16.7642ZM18.9388 16.6833C18.9995 16.7946 19.1107 16.8755 19.232 16.9362L19.2624 16.8957C19.2422 16.7238 19.0601 16.6631 18.9388 16.562C18.9186 16.6024 18.9084 16.6429 18.9388 16.6732V16.6833ZM6.09563 16.8552C6.02484 16.926 5.9945 17.0171 6.01473 17.1081C6.12597 17.0373 6.24732 16.9665 6.34845 16.8755C6.41924 16.8047 6.42935 16.7036 6.45969 16.6227C6.32822 16.6833 6.19676 16.7541 6.09563 16.8654V16.8552ZM16.4308 16.6429C16.451 16.835 16.6129 16.9867 16.7848 17.0676C16.7747 17.0171 16.7747 16.9463 16.7342 16.8957C16.6432 16.7946 16.5421 16.7137 16.4308 16.6429ZM18.5949 16.8755C18.6758 16.9665 18.7871 17.0373 18.8983 17.0878C18.8882 16.8856 18.6961 16.7845 18.5444 16.6934C18.5444 16.7541 18.5545 16.8249 18.5949 16.8755ZM6.51025 16.9665C6.43946 17.0171 6.41924 17.1182 6.41924 17.2092C6.59115 17.098 6.82375 16.9867 6.82375 16.7541C6.71251 16.8148 6.61138 16.8856 6.51025 16.9665ZM16.087 16.7541C16.0971 16.8047 16.0769 16.8755 16.1173 16.9159C16.1982 17.0171 16.2994 17.1081 16.4106 17.1687C16.3803 16.9867 16.2387 16.8552 16.087 16.7541ZM4.73041 16.9766C4.67985 17.0272 4.67985 17.0878 4.66974 17.1586C4.79109 17.1081 4.91244 17.0474 5.01357 16.9564C5.03379 16.9058 5.08436 16.835 5.02368 16.7946C4.92255 16.8451 4.82143 16.9058 4.73041 16.9766ZM18.15 16.8047C18.1399 17.0069 18.332 17.1283 18.5039 17.2092L18.4938 17.0676C18.4028 16.9564 18.2713 16.8755 18.15 16.8047ZM7.01589 16.9968C6.90465 17.0676 6.79341 17.1789 6.81363 17.3204C6.9451 17.2395 7.07656 17.1485 7.17769 17.0272C7.21814 16.9766 7.20803 16.9159 7.21814 16.8552L7.01589 16.9968ZM5.39785 16.9362C5.29672 16.9867 5.20571 17.0474 5.12481 17.1182C5.08436 17.1687 5.04391 17.2395 5.10458 17.28C5.21582 17.2395 5.32706 17.1789 5.40796 17.0878C5.4383 17.0474 5.47875 16.9159 5.39785 16.9362ZM19.4242 16.9463C19.4646 17.098 19.5961 17.2193 19.7579 17.2294V17.1283C19.6467 17.0575 19.5557 16.9463 19.4242 16.9463ZM7.2687 17.2294C7.21814 17.28 7.20803 17.3508 7.20803 17.4216C7.32938 17.3609 7.43051 17.28 7.52152 17.189C7.5822 17.1283 7.59231 17.0474 7.61254 16.9766C7.47096 17.0171 7.36983 17.1182 7.2687 17.2294ZM17.8163 17.1081C17.9073 17.2092 18.0286 17.2901 18.15 17.3609C18.1298 17.2901 18.1095 17.2092 18.059 17.1485C17.9882 17.0676 17.8972 17.0069 17.8062 16.9564L17.8163 17.1081ZM17.4118 17.0474C17.4219 17.1081 17.4016 17.1687 17.4421 17.2193C17.5129 17.3204 17.614 17.3912 17.7151 17.462C17.7354 17.4216 17.7455 17.3811 17.7253 17.3407C17.6646 17.2092 17.523 17.1384 17.4118 17.0474ZM5.45853 17.3811L5.49898 17.4317C5.62033 17.371 5.76191 17.3002 5.82259 17.1687C5.85292 17.1384 5.82259 17.098 5.81247 17.0575C5.68101 17.1485 5.49898 17.2092 5.45853 17.3811ZM7.67321 17.3204C7.62265 17.371 7.62265 17.4418 7.63276 17.5126C7.73389 17.4519 7.8249 17.371 7.91592 17.28C7.96648 17.2294 7.98671 17.1384 8.00693 17.0676C7.87547 17.1283 7.76423 17.2092 7.67321 17.3204ZM4.25512 17.2193V17.3305C4.34613 17.3204 4.43714 17.3002 4.50793 17.2395C4.53827 17.1991 4.53827 17.1384 4.53827 17.0878C4.43714 17.1081 4.34613 17.1586 4.25512 17.2193ZM19.0905 17.098V17.2395C19.1714 17.3002 19.2624 17.3508 19.3635 17.3912L19.3534 17.2598C19.2826 17.1789 19.1815 17.1384 19.0905 17.098ZM5.90349 17.3811C5.8327 17.4418 5.8327 17.5429 5.8327 17.6238C5.94394 17.5631 6.04507 17.5025 6.13608 17.4216C6.21698 17.3609 6.23721 17.2496 6.25743 17.1586C6.13608 17.2193 6.01473 17.3002 5.90349 17.3811ZM17.0174 17.1485C17.0174 17.3508 17.1792 17.4923 17.341 17.5733C17.341 17.5126 17.3612 17.4418 17.3207 17.3912C17.2297 17.3002 17.1185 17.2193 17.0174 17.1485ZM19.8995 17.2092V17.3103H20.0613C20.0208 17.2598 19.9703 17.2092 19.8995 17.2092ZM3.95173 17.3609L4.11354 17.371V17.2598C4.03264 17.2598 3.98207 17.3002 3.95173 17.3609ZM4.61917 17.4013L4.62929 17.5025C4.75064 17.4822 4.89222 17.4418 4.93267 17.3103L4.89222 17.2496C4.79109 17.28 4.70007 17.3305 4.61917 17.4013ZM6.28777 17.5227C6.22709 17.5834 6.22709 17.6744 6.22709 17.7452C6.33833 17.6946 6.45969 17.6339 6.5507 17.5429C6.61138 17.4721 6.62149 17.371 6.62149 17.28C6.51025 17.3609 6.3889 17.4216 6.28777 17.5227ZM16.6533 17.2598C16.6533 17.3305 16.6432 17.4114 16.7039 17.4721C16.7949 17.5631 16.8859 17.6542 16.9971 17.7351C17.0072 17.5126 16.805 17.371 16.6533 17.2598ZM18.7062 17.2598C18.6961 17.4216 18.8579 17.4923 18.9792 17.5429C19.0399 17.5126 18.9995 17.4418 18.9792 17.4114C18.9084 17.3407 18.8174 17.2598 18.7062 17.2598ZM6.69228 17.644C6.62149 17.7047 6.61138 17.8058 6.59115 17.8969C6.71251 17.8564 6.80352 17.7755 6.90465 17.6946C6.99566 17.6238 7.026 17.4923 7.04622 17.3811C6.92487 17.462 6.80352 17.5429 6.69228 17.644ZM16.2589 17.371C16.2791 17.4418 16.2791 17.5328 16.3398 17.5834C16.4207 17.6744 16.5117 17.7553 16.6129 17.8261C16.623 17.6137 16.4409 17.462 16.2589 17.371ZM18.3522 17.5227C18.423 17.6036 18.514 17.6744 18.6253 17.6946L18.6152 17.553C18.5444 17.4822 18.4534 17.4317 18.3725 17.3811C18.3522 17.4216 18.332 17.4721 18.3522 17.5227ZM4.98323 17.6339C5.05402 17.7047 5.14503 17.644 5.21582 17.6036C5.2765 17.5733 5.29672 17.4923 5.30684 17.4216C5.17537 17.4418 5.02368 17.4923 4.98323 17.6339ZM18.0185 17.7047C18.0893 17.7654 18.1702 17.8362 18.2815 17.8463C18.2713 17.6542 18.0792 17.5733 17.9578 17.4721C17.9073 17.553 17.9578 17.644 18.0185 17.7047ZM19.1613 17.5025V17.644C19.2118 17.6542 19.2624 17.6643 19.3129 17.6542L19.3028 17.5631L19.1613 17.5025ZM7.07656 17.7755C7.01589 17.8261 7.03611 17.9171 7.03611 17.9879C7.14735 17.9272 7.25859 17.8463 7.34961 17.7452C7.40017 17.6845 7.39006 17.6036 7.37994 17.5429C7.27882 17.6137 7.17769 17.6845 7.07656 17.7755ZM5.39785 17.6946C5.3574 17.7351 5.36751 17.7856 5.3574 17.8362C5.47875 17.8564 5.56977 17.7654 5.66078 17.7047V17.553C5.56977 17.5935 5.47875 17.6339 5.39785 17.6946ZM4.67985 17.7047L4.85177 17.7148V17.6036C4.78098 17.6238 4.7203 17.6542 4.67985 17.7047ZM17.5837 17.6137V17.7856C17.6545 17.8766 17.7657 17.9373 17.8668 17.998L17.8871 17.9171C17.8466 17.7654 17.6949 17.7047 17.5837 17.6137ZM7.40017 18.0283C7.37994 18.0688 7.39006 18.1092 7.40017 18.1396C7.51141 18.0587 7.63276 17.9778 7.72378 17.8766C7.77434 17.816 7.78445 17.7351 7.78445 17.6643C7.63276 17.7553 7.46085 17.8564 7.40017 18.0283ZM18.7871 17.6643L18.7972 17.7957C18.8275 17.8261 18.8882 17.8362 18.9287 17.8362L18.9792 17.7654L18.7871 17.6643ZM5.78214 17.8564C5.73157 17.8969 5.76191 17.9676 5.78214 18.0182C5.87315 17.9676 5.98439 17.9272 6.04507 17.8463C6.06529 17.7957 6.05518 17.7452 6.05518 17.6946C5.95405 17.7351 5.86304 17.7856 5.78214 17.8564ZM5.05402 17.8969L5.23605 17.907L5.24616 17.7755C5.16526 17.7755 5.09447 17.8261 5.05402 17.8867V17.8969ZM17.2398 17.9373C17.3106 18.0182 17.4016 18.1092 17.523 18.1193C17.5129 17.9474 17.3612 17.8362 17.2196 17.7755C17.1589 17.816 17.2095 17.8867 17.2398 17.9373ZM6.16642 17.998C6.10574 18.0485 6.13608 18.1396 6.12597 18.2104C6.21698 18.1598 6.31811 18.1193 6.39901 18.0485C6.45969 17.998 6.4698 17.907 6.4698 17.8261C6.35856 17.8463 6.25743 17.9171 6.16642 17.998ZM18.3927 17.9171C18.4433 17.9778 18.5039 17.9879 18.5747 17.9879L18.6152 17.9171L18.423 17.816L18.3927 17.9171ZM16.8151 17.8766C16.7949 18.0688 16.9769 18.1901 17.1185 18.2913V18.1193C17.0376 18.0182 16.9365 17.9373 16.8151 17.8766ZM5.41808 18.0485C5.47875 18.0688 5.56977 18.1193 5.62033 18.0485L5.57988 17.9373L5.41808 18.0485ZM16.4308 17.9575C16.4005 18.18 16.6027 18.3216 16.7544 18.4429C16.7747 18.3722 16.7848 18.3014 16.7342 18.2407C16.6533 18.1295 16.5421 18.0384 16.4308 17.9575ZM18.0489 17.9575L18.059 18.1295C18.1298 18.1598 18.2107 18.1699 18.2713 18.0991L18.0489 17.9575ZM6.52036 18.1901C6.52036 18.2306 6.47991 18.3216 6.56081 18.3317C6.65183 18.2913 6.73273 18.2306 6.80352 18.1598C6.83386 18.1092 6.81363 18.0485 6.82375 17.9879C6.71251 18.0283 6.59115 18.089 6.52036 18.1901ZM5.81247 18.2508H5.98439L6.00462 18.1193C5.92371 18.1193 5.79225 18.1497 5.81247 18.2508ZM6.92487 18.3115C6.87431 18.3722 6.85408 18.4531 6.88442 18.5238C7.00577 18.4632 7.12713 18.3924 7.19792 18.2811C7.22825 18.2306 7.20803 18.1699 7.20803 18.1193C7.1069 18.1699 7.00577 18.2306 6.92487 18.3115ZM17.6949 18.2913C17.7657 18.3216 17.8365 18.3014 17.9073 18.271C17.8466 18.2104 17.7859 18.1699 17.7151 18.1295C17.6848 18.18 17.6747 18.2407 17.6949 18.2913ZM7.31927 18.4328C7.25859 18.4935 7.24848 18.5845 7.27882 18.6654C7.39006 18.5946 7.5013 18.5238 7.5822 18.4227C7.62265 18.3722 7.60242 18.3014 7.61254 18.2407C7.5013 18.2913 7.41028 18.3519 7.31927 18.4328ZM17.2904 18.2609C17.3005 18.3317 17.3005 18.4328 17.3713 18.4733C17.432 18.4834 17.4825 18.4632 17.523 18.4429C17.4724 18.3519 17.3915 18.2913 17.2904 18.2609ZM6.14619 18.3924C6.18664 18.4126 6.22709 18.4632 6.27766 18.4531C6.32822 18.4429 6.34845 18.3924 6.37879 18.3722L6.34845 18.2913C6.26755 18.2913 6.20687 18.3317 6.14619 18.3924ZM6.50014 18.5643L6.59115 18.6149C6.65183 18.6351 6.70239 18.5946 6.75296 18.5744L6.74284 18.4227C6.66194 18.4632 6.58104 18.5036 6.50014 18.5643ZM17.0072 18.6452C17.0679 18.6452 17.1589 18.6553 17.1893 18.5845L16.9466 18.4025C16.8859 18.4935 16.9567 18.5744 17.0072 18.6452ZM16.5522 18.534C16.5522 18.5946 16.5421 18.6654 16.5623 18.7261C16.6129 18.7767 16.6836 18.807 16.7443 18.8272L16.8151 18.7261L16.5522 18.534ZM6.87431 18.7362C6.93498 18.7868 7.04622 18.8272 7.1069 18.7564C7.11701 18.6958 7.13724 18.625 7.08668 18.5946C7.00577 18.6351 6.9451 18.6857 6.87431 18.7362ZM7.24848 18.898L7.34961 18.9991C7.40017 18.9688 7.46085 18.9486 7.49118 18.898C7.51141 18.8576 7.5013 18.807 7.51141 18.7666C7.40017 18.7564 7.31927 18.8373 7.24848 18.9081V18.898Z" fill="black"/>
<path d="M19.7073 17.462C19.6669 17.4114 19.6163 17.3811 19.5658 17.3508C19.5455 17.3912 19.5152 17.4317 19.5354 17.4822M4.31579 17.5328C4.37647 17.5631 4.44726 17.553 4.50793 17.5328L4.47759 17.462M11.8397 3.49635C11.9711 3.43568 12.1026 3.39523 12.234 3.375H12.7093C13.0936 3.44579 13.4172 3.67838 13.7004 3.94131C14.1555 4.35593 14.5195 4.86157 14.8532 5.3672C15.3285 6.09532 15.7634 6.85377 16.1881 7.61223C16.6027 8.36057 17.0174 9.11902 17.4219 9.88759C18.3118 11.5562 19.2017 13.2349 19.9804 14.9642C20.1928 15.4496 20.395 15.9552 20.5568 16.471C20.5872 16.6631 20.6579 16.8552 20.6377 17.0575C20.6175 17.1485 20.5872 17.2496 20.5062 17.2901C20.4355 17.3407 20.3444 17.3103 20.2737 17.3305C20.2029 17.371 20.1624 17.4519 20.1017 17.4822L19.9197 17.5025L19.7478 17.6542L19.5961 17.6744C19.4849 17.6744 19.4545 17.8058 19.3635 17.8261C19.3028 17.8463 19.232 17.8362 19.1714 17.8362C19.1208 17.8969 19.0702 17.9676 18.9893 17.998C18.9186 18.0182 18.8579 18.0081 18.7871 18.0081C18.7466 18.0688 18.7062 18.1396 18.6354 18.1699C18.5646 18.1901 18.4938 18.18 18.423 18.1699C18.3826 18.2306 18.3522 18.3115 18.2713 18.3216H18.059C18.0185 18.3823 17.9781 18.4531 17.9073 18.4935C17.8365 18.5137 17.7556 18.4935 17.6747 18.4935C17.6444 18.5441 17.6342 18.6149 17.5736 18.6452H17.3207L17.2095 18.8272L16.9365 18.8171L16.8454 18.9991C16.7544 18.9991 16.6533 18.9991 16.5623 18.9789C16.5522 19.0396 16.5421 19.1104 16.4915 19.1609C16.4207 19.1812 16.3398 19.1711 16.269 19.1407C16.0971 19.0497 15.9555 18.9182 15.8241 18.7767C15.6623 18.625 15.5106 18.4632 15.3589 18.2913C15.2375 18.1699 15.1465 18.0283 15.0252 17.907C14.8735 17.7654 14.742 17.6036 14.6004 17.4519C14.4285 17.2395 14.2263 17.0676 14.0442 16.8755L13.7611 16.6125C13.5689 16.4305 13.3667 16.2788 13.1543 16.1271C12.8711 15.935 12.5577 15.7631 12.2138 15.7226C11.9812 15.7125 11.7588 15.8238 11.5565 15.9451C11.2026 16.1575 10.8891 16.4305 10.5958 16.7137C10.1306 17.1384 9.69576 17.5935 9.2508 18.0283C9.07888 18.2306 8.89685 18.4126 8.70471 18.5946C8.53279 18.7362 8.3811 18.9081 8.19907 19.0497C8.02716 19.1711 7.85524 19.3228 7.64288 19.3329C7.55186 19.2924 7.52152 19.1913 7.47096 19.1104C7.37994 19.1104 7.28893 19.1306 7.19792 19.1003C7.15746 19.0598 7.14735 18.9991 7.11701 18.9486C7.026 18.9385 6.92487 18.9587 6.83386 18.9284C6.78329 18.8879 6.76307 18.8272 6.73273 18.7666H6.47991C6.42935 18.7261 6.40912 18.6553 6.35856 18.6047C6.27766 18.5845 6.19676 18.5946 6.11585 18.5946L5.98439 18.4227C5.9136 18.4227 5.84281 18.4328 5.77202 18.4126C5.70123 18.3823 5.66078 18.3115 5.61022 18.2508L5.42819 18.2407C5.34729 18.2205 5.29672 18.1396 5.23605 18.089L5.06413 18.0587C5.00346 18.0485 4.96301 17.998 4.92255 17.9575C4.85177 17.8665 4.7203 17.9171 4.62929 17.8564L4.48771 17.7351C4.35619 17.6852 4.23068 17.6207 4.11354 17.5429C4.04275 17.5126 3.96185 17.5227 3.89106 17.4924C3.83038 17.4519 3.77982 17.3609 3.69892 17.3508C3.6079 17.3305 3.49666 17.3305 3.43599 17.2496C3.34497 17.1283 3.3652 16.9766 3.3652 16.8451C3.41576 16.4609 3.56745 16.0968 3.70903 15.7429C4.0832 14.863 4.53827 14.0237 5.00346 13.2046C5.14503 12.9315 5.29672 12.6787 5.44842 12.4259C5.61022 12.1225 5.81247 11.8393 5.97428 11.536L6.65183 10.3932C6.78329 10.2011 6.88442 9.99883 7.026 9.80669C7.5822 8.88643 8.15862 7.97629 8.74516 7.07625C9.35192 6.16611 9.94857 5.24585 10.6767 4.42672C11.0205 4.07278 11.3745 3.69861 11.8397 3.49635ZM11.1318 4.24469C10.7273 4.61886 10.3935 5.05371 10.0598 5.48856C9.77666 5.89307 9.48339 6.28746 9.21035 6.7122C7.85453 8.7889 6.54628 10.8963 5.28661 13.0326C5.1956 13.1641 5.13492 13.3057 5.05402 13.4372C4.79109 13.9023 4.53827 14.3877 4.28545 14.8732C4.04275 15.3181 3.84049 15.7833 3.64835 16.2586C3.6079 16.4305 3.51689 16.6024 3.51689 16.7845C3.51689 16.8755 3.50677 16.9665 3.527 17.0575C3.53711 17.1384 3.62813 17.1687 3.69892 17.189C3.75959 17.0777 3.73937 16.9362 3.77982 16.8148C3.81016 16.6833 3.84049 16.5418 3.89106 16.4103C4.06297 15.9249 4.27534 15.4395 4.51805 14.9743C4.8821 14.2462 5.2765 13.5383 5.6709 12.8304L5.9945 12.2337L6.34845 11.6371C6.44957 11.4551 6.5507 11.273 6.66194 11.1112C6.76307 10.9595 6.83386 10.8078 6.92487 10.6562C7.1878 10.2516 7.4204 9.82691 7.68333 9.4224C8.10806 8.71451 8.54291 8.01674 8.98787 7.31896C9.19012 7.0358 9.36204 6.73242 9.55418 6.45938C9.97891 5.82228 10.434 5.2054 10.9497 4.65931C11.2531 4.37616 11.5565 4.08289 11.9408 3.9312C12.1835 3.8503 12.4363 3.7694 12.6891 3.8503C13.1543 3.94131 13.5285 4.26492 13.8521 4.60875C14.115 4.90202 14.3678 5.22563 14.5802 5.55935C15.0959 6.29757 15.5207 7.09648 15.9656 7.87516C16.4005 8.69429 16.8454 9.51342 17.2702 10.3528C17.7859 11.3337 18.2916 12.3248 18.777 13.3158L19.2725 14.3473C19.6163 15.1057 19.9703 15.8743 20.1928 16.6833C20.2433 16.835 20.2332 17.0069 20.2939 17.1485C20.3647 17.1485 20.4557 17.1384 20.4658 17.0575C20.4759 16.8856 20.486 16.7036 20.4253 16.5418C20.2635 16.0058 20.0411 15.5001 19.8186 15.0046C18.9995 13.2248 18.0792 11.5056 17.1589 9.78646C16.5724 8.68418 15.9859 7.592 15.3488 6.52005C15.1465 6.18633 14.9544 5.8425 14.7319 5.52901C14.4588 5.11439 14.1757 4.70988 13.842 4.34582C13.5184 3.99188 13.1341 3.64804 12.6588 3.54692C12.5172 3.5368 12.3756 3.5368 12.2442 3.55703C11.8093 3.65816 11.4351 3.9312 11.1318 4.24469ZM11.5868 4.35593C11.1318 4.69977 10.7677 5.14473 10.4138 5.58968C10.2621 5.80205 10.1003 5.99419 9.9688 6.20656C9.23057 7.24817 8.57324 8.33023 7.91592 9.41229L6.88442 11.1011L6.13608 12.3551L5.81247 12.9113C5.56977 13.3158 5.3574 13.7405 5.12481 14.145C4.92255 14.5293 4.71019 14.9136 4.51805 15.308C4.37647 15.581 4.26523 15.8541 4.13376 16.1271C4.05286 16.299 4.01241 16.4811 3.94162 16.653C3.88094 16.8148 3.86072 16.9766 3.87083 17.1485C3.96185 17.1485 4.06297 17.1485 4.13376 17.0777C4.17421 17.0069 4.17421 16.926 4.20455 16.8451C4.27534 16.5418 4.40681 16.2687 4.50793 15.9754C4.81131 15.2878 5.15515 14.6102 5.50909 13.9428C6.00461 13.0124 6.54059 12.0922 7.06645 11.1719C7.16758 11 7.27882 10.8281 7.35972 10.646L8.00693 9.57409L8.53279 8.69429L9.22046 7.592C9.50361 7.13693 9.79688 6.69197 10.1003 6.25712C10.2317 6.09532 10.343 5.91329 10.4845 5.75149C10.7778 5.37732 11.0913 5.00315 11.4756 4.70988C11.7183 4.51774 12.0116 4.34582 12.3251 4.3256L12.4565 4.31548C12.6588 4.3256 12.861 4.36605 13.033 4.46717C13.4779 4.69977 13.8116 5.09416 14.1251 5.48856C14.6409 6.18633 15.0757 6.94479 15.4903 7.70324C16.8311 10.1822 18.0891 12.7051 19.2624 15.2676C19.3939 15.6417 19.5658 15.9957 19.6871 16.3698C19.7579 16.5519 19.7882 16.7339 19.8489 16.9159C19.8995 17.0171 20.0107 17.0373 20.1017 17.0676L20.122 16.9362C19.9096 16.1372 19.5455 15.3788 19.2118 14.6203C18.6354 13.4169 18.0286 12.2337 17.4219 11.0404C16.9971 10.2314 16.5825 9.4224 16.1376 8.61339C15.6926 7.77403 15.2375 6.94479 14.7319 6.13577C14.4791 5.74138 14.2263 5.34698 13.9229 4.98292C13.7611 4.79078 13.6094 4.59864 13.4172 4.45706C13.1442 4.21436 12.8105 4.0121 12.4363 4.03233C12.1228 4.02221 11.8397 4.1739 11.5969 4.35593H11.5868ZM11.3644 5.0436C10.9194 5.46833 10.5452 5.97397 10.1913 6.4796C9.59463 7.33918 9.04854 8.2291 8.50246 9.11902L7.63276 10.5854C7.31927 11.0809 7.026 11.5865 6.74284 12.0922C6.57093 12.3652 6.41924 12.6484 6.25743 12.9214C6.04507 13.3158 5.80236 13.7001 5.60011 14.1046L5.17537 14.9035C4.91244 15.4192 4.65962 15.935 4.44726 16.471C4.38658 16.6429 4.31579 16.8047 4.30568 16.9867C4.41692 16.9665 4.51805 16.9159 4.59895 16.8451C4.66974 16.7946 4.67985 16.7036 4.71019 16.6227C4.75064 16.4609 4.83154 16.3193 4.89222 16.1575C5.06413 15.7024 5.29672 15.2676 5.49898 14.8226L5.87315 14.1147L6.35856 13.1843C6.53048 12.8304 6.73273 12.5068 6.91476 12.1731C7.34961 11.4146 7.77434 10.6562 8.2193 9.90781C8.75527 8.99767 9.28113 8.08753 9.86767 7.20772C10.1812 6.73242 10.4947 6.25712 10.8688 5.82228C11.1823 5.45822 11.5262 5.10427 11.9711 4.90202C12.2037 4.79078 12.4768 4.77055 12.7296 4.83123C13.0633 4.93236 13.3363 5.16495 13.5892 5.40766C14.0948 5.95374 14.4791 6.60096 14.8532 7.23806C16.1156 9.58951 17.3094 11.9771 18.4331 14.3979C18.7567 15.1159 19.0702 15.8339 19.3332 16.5822C19.4141 16.6833 19.5253 16.7743 19.6568 16.8148C19.5961 16.5822 19.5051 16.3597 19.4242 16.1271C19.0702 15.2473 18.6556 14.3776 18.241 13.5181C17.8264 12.6382 17.3814 11.7686 16.9365 10.8887C16.3297 9.70556 15.7229 8.51226 15.0757 7.3493C14.8735 7.01558 14.6914 6.67175 14.469 6.34814C14.3072 6.08521 14.1454 5.83239 13.9532 5.58968C13.7206 5.2863 13.4678 4.99303 13.1644 4.77055C13.0026 4.65931 12.8307 4.55819 12.6386 4.52785C12.497 4.51774 12.3554 4.51774 12.2239 4.53796C11.8902 4.60875 11.6172 4.83123 11.3745 5.0436H11.3644ZM12.3149 5.00315C11.9711 5.05371 11.688 5.26608 11.4351 5.49867C11.0104 5.90318 10.6666 6.36836 10.3329 6.84366C10.1003 7.19761 9.86767 7.54144 9.64519 7.9055C9.36204 8.34034 9.10922 8.79542 8.83618 9.24037L7.8249 10.9798C7.5822 11.364 7.36983 11.7686 7.14735 12.1629C7.00577 12.4158 6.84397 12.6484 6.71251 12.9012C6.20687 13.8012 5.72146 14.7012 5.2765 15.6215C5.1147 15.9754 4.94278 16.3193 4.82143 16.6833C4.94278 16.653 5.04391 16.5822 5.14503 16.5013C5.25627 16.4103 5.28661 16.2687 5.33718 16.1372C5.68101 15.3485 6.0754 14.5698 6.4698 13.8113C6.54059 13.6495 6.62149 13.5079 6.70239 13.3562L7.62265 11.6674L8.55302 10.0191C8.79572 9.62466 9.00809 9.22015 9.2508 8.82575C9.58452 8.26955 9.91824 7.70324 10.2924 7.16727C10.6261 6.68186 10.97 6.18633 11.4149 5.78183C11.6475 5.57957 11.9003 5.38743 12.1936 5.32675C12.3149 5.30653 12.4363 5.30653 12.5577 5.31664C12.7296 5.31664 12.8813 5.38743 13.0228 5.46833C13.2655 5.62002 13.4577 5.82228 13.6498 6.03464C13.8521 6.27735 14.0442 6.53017 14.206 6.80321C14.7218 7.61223 15.1566 8.4617 15.5915 9.32128C15.7128 9.57409 15.8544 9.8168 15.9758 10.0797L16.623 11.4146C17.1589 12.5371 17.6949 13.6495 18.1904 14.7923C18.3017 15.0653 18.423 15.3181 18.5242 15.5912C18.6152 15.7833 18.6758 15.9754 18.7567 16.1676C18.8377 16.2788 18.9489 16.3496 19.0702 16.3901C19.0702 16.3395 19.0601 16.2788 19.0298 16.2181L18.8073 15.6822C18.2713 14.4383 17.6848 13.2147 17.0882 11.991L15.8746 9.56398C15.4196 8.66395 14.9544 7.76392 14.4386 6.89422C14.1656 6.46949 13.8925 6.04476 13.5588 5.66047C13.397 5.48856 13.2352 5.31664 13.033 5.19529C12.8307 5.05371 12.5678 4.97281 12.3149 5.00315ZM11.8801 5.66047C11.6273 5.80205 11.4351 6.02453 11.2329 6.2369C11.0407 6.42904 10.8891 6.65152 10.7273 6.86389C10.5958 7.06614 10.4441 7.25828 10.3227 7.47065C10.1508 7.69313 10.0194 7.93583 9.86767 8.17854C9.24068 9.19992 8.65415 10.2415 8.0575 11.2831L7.28893 12.6787C7.03611 13.1439 6.76307 13.599 6.52036 14.0641C6.28777 14.5192 6.04507 14.9642 5.8327 15.4192C5.79225 15.5001 5.74168 15.5709 5.71135 15.6518C5.63044 15.8743 5.49898 16.0766 5.4383 16.299C5.55966 16.2485 5.68101 16.1676 5.78214 16.0867C5.84281 16.0361 5.86304 15.9754 5.89338 15.9148C6.04507 15.5507 6.21698 15.1968 6.3889 14.8529C6.49003 14.6608 6.56081 14.4585 6.66194 14.2765L7.00577 13.6091C7.14735 13.3461 7.2687 13.0731 7.43051 12.8102C7.56197 12.5472 7.73389 12.2843 7.85524 12.0113C8.52801 10.743 9.23275 9.49202 9.9688 8.25944C10.2014 7.86505 10.4643 7.48076 10.7273 7.10659C11.0104 6.7122 11.3138 6.33803 11.6981 6.04476C11.8599 5.9234 12.052 5.83239 12.2442 5.79194H12.6082C12.9521 5.87284 13.2352 6.10543 13.4678 6.35825C13.6701 6.59084 13.8521 6.83355 14.0139 7.09648C14.5195 7.88527 14.9341 8.72463 15.3589 9.56398C15.5712 9.99883 15.7735 10.4539 15.996 10.8887L16.5016 11.9809L16.8151 12.6484C17.2601 13.6394 17.7151 14.6203 18.1196 15.6215C18.1702 15.7833 18.3219 15.8642 18.4635 15.9451C18.4433 15.7833 18.3522 15.6417 18.2916 15.49C18.2006 15.2473 18.0893 15.0248 17.9882 14.7821C17.2196 13.0832 16.4005 11.3944 15.5814 9.71567C15.1061 8.77519 14.6409 7.83471 14.0746 6.93468C13.8015 6.50994 13.4981 6.07509 13.1037 5.74138C12.9116 5.5998 12.6891 5.46833 12.4363 5.48856C12.234 5.46833 12.052 5.55935 11.8801 5.66047ZM11.7385 6.25712C11.2228 6.69197 10.8385 7.2684 10.4643 7.83471C10.0902 8.41113 9.75643 9.01789 9.4126 9.60443C9.15978 10.0494 8.90696 10.4842 8.67437 10.9393C8.24964 11.6877 7.83502 12.4461 7.4204 13.2147C7.28893 13.4574 7.16758 13.7203 7.026 13.963C6.92487 14.1653 6.79341 14.3473 6.71251 14.5597L6.26755 15.4597C6.20687 15.581 6.12597 15.6923 6.12597 15.8339C6.25743 15.7631 6.39901 15.6721 6.49003 15.5507C6.59115 15.3788 6.65183 15.1867 6.74284 15.0147L7.2687 13.963C7.56197 13.3866 7.83502 12.8001 8.14851 12.2236C8.31031 11.9304 8.45189 11.6169 8.62381 11.3236L8.99798 10.6359C9.12944 10.373 9.29125 10.1101 9.43283 9.84714C9.75643 9.2606 10.08 8.68418 10.434 8.12798C10.707 7.69313 10.9902 7.25828 11.334 6.88411C11.6071 6.58073 11.9509 6.3178 12.3655 6.25712C12.497 6.24701 12.6284 6.28746 12.7498 6.32791C13.0936 6.46949 13.3566 6.75265 13.579 7.04592C13.7408 7.25828 13.8824 7.49087 14.0341 7.71335C14.5397 8.59316 14.9746 9.50331 15.3993 10.4236C15.5106 10.6258 15.5915 10.8382 15.6926 11.0404C16.1274 11.9607 16.532 12.9012 16.9466 13.8214L17.5129 15.1765C17.5736 15.308 17.6949 15.3889 17.8163 15.4597C17.8264 15.3586 17.7758 15.2676 17.7354 15.1867C17.5028 14.6203 17.2398 14.0641 16.987 13.4978C16.5522 12.5472 16.1173 11.5865 15.6623 10.646C15.2679 9.80669 14.8634 8.97744 14.4285 8.16843C14.1858 7.73358 13.9431 7.29873 13.6498 6.89422C13.4678 6.66163 13.2858 6.41893 13.0532 6.22679C12.9217 6.12566 12.77 6.04476 12.5981 5.98408C12.2947 5.91329 11.9812 6.05487 11.7385 6.25712ZM11.6374 6.86389C11.2531 7.21783 10.97 7.65268 10.6868 8.07741C10.5149 8.37068 10.3329 8.64372 10.1711 8.93699C9.54407 10.0089 8.97775 11.1112 8.3811 12.2034C8.18896 12.5877 7.95637 12.972 7.76423 13.3664C7.51141 13.8315 7.27882 14.3068 7.03611 14.7821C6.95521 14.9743 6.84397 15.1563 6.76307 15.3586C6.95521 15.2979 7.13724 15.1563 7.20803 14.9642L7.40017 14.5597C7.79457 13.7506 8.17885 12.9416 8.59347 12.1528C9.09911 11.1618 9.61485 10.1809 10.1508 9.21004C10.4542 8.7044 10.7475 8.18865 11.1014 7.70324C11.3542 7.39986 11.5969 7.07625 11.9408 6.88411C12.052 6.82344 12.1633 6.76276 12.2846 6.76276C12.4363 6.76276 12.588 6.74253 12.7296 6.81332C13.0633 6.9549 13.306 7.24817 13.5184 7.53133C13.933 8.10775 14.2465 8.74485 14.56 9.37184C14.9645 10.2213 15.3488 11.0809 15.733 11.9405L16.8454 14.5394C16.8859 14.6305 16.9061 14.7316 16.9668 14.8125C17.0275 14.8934 17.1286 14.9439 17.2297 14.9844C17.1286 14.7114 17.0072 14.4585 16.896 14.2057L16.3904 13.0428C16.2083 12.6686 16.0567 12.2742 15.8746 11.9101C15.5106 11.1213 15.1566 10.3325 14.7825 9.55387C14.4184 8.81564 14.0543 8.0673 13.5892 7.37964C13.4273 7.14704 13.2453 6.92456 13.0431 6.74253C12.8711 6.59084 12.6689 6.45938 12.4363 6.46949C12.1228 6.44927 11.8498 6.65152 11.6374 6.86389ZM12.143 6.99535C12.0015 7.05603 11.87 7.14704 11.7588 7.25828C11.5969 7.40997 11.4453 7.56166 11.3239 7.73358C11.0913 8.03696 10.8891 8.36057 10.6868 8.68418C10.2621 9.38195 9.87778 10.1202 9.4935 10.8483L8.36088 13.0326C8.11817 13.5181 7.86535 13.9934 7.63276 14.4788C7.57209 14.6001 7.49118 14.7114 7.49118 14.8428C7.60242 14.7923 7.73389 14.7316 7.78445 14.6102L8.04738 14.0641L8.45189 13.2248L9.22046 11.6775C9.45305 11.2022 9.70587 10.7371 9.94857 10.2618C10.3025 9.58421 10.6666 8.90666 11.1014 8.26955C11.3542 7.91561 11.6273 7.54144 12.0217 7.32907C12.234 7.20772 12.5071 7.18749 12.7296 7.30885C12.9217 7.39986 13.0936 7.54144 13.2251 7.71335C13.579 8.12798 13.8319 8.6235 14.0847 9.10891C14.4487 9.8168 14.7622 10.555 15.0858 11.2831C15.4903 12.2337 15.8949 13.1843 16.2791 14.145C16.3196 14.2361 16.3499 14.3473 16.4207 14.4282C16.4713 14.4889 16.5421 14.5192 16.6129 14.5496C16.6027 14.4181 16.5421 14.3068 16.4915 14.1855C15.8847 12.7697 15.2679 11.3438 14.6206 9.93815L14.1858 9.03812L13.6599 8.08753C13.4375 7.73358 13.2049 7.36952 12.8711 7.10659C12.7599 7.02569 12.6284 6.9549 12.4869 6.9549C12.3756 6.9549 12.2543 6.94479 12.143 6.99535ZM11.9307 7.62234C11.6071 7.88527 11.3542 8.2291 11.1318 8.57294C10.8183 9.05835 10.5351 9.56398 10.2621 10.0696C9.77666 10.9696 9.34181 11.8899 8.87663 12.7899L8.29009 13.9934C8.2193 14.1248 8.14851 14.2563 8.10806 14.408C8.25975 14.3877 8.37099 14.2563 8.42155 14.1248L8.86651 13.1843C9.00809 12.881 9.15978 12.5877 9.29125 12.2843C9.68564 11.4955 10.0598 10.6865 10.4845 9.91793C10.7778 9.40218 11.0509 8.8662 11.425 8.40102C11.6273 8.13809 11.87 7.86505 12.1936 7.75381C12.3251 7.73358 12.4565 7.74369 12.5779 7.75381C12.8307 7.82459 13.0228 8.02685 13.1846 8.21899C13.3869 8.48192 13.5689 8.74485 13.7105 9.03812C14.1656 9.87748 14.5195 10.7674 14.8937 11.6371L15.8342 13.9731C15.8746 14.0844 15.9758 14.1349 16.0668 14.1855C16.0668 14.145 16.0668 14.1046 16.0465 14.0641L15.5207 12.8001L14.6611 10.7977C14.3173 10.0191 13.9633 9.23026 13.5386 8.48192C13.3667 8.21899 13.1948 7.94595 12.9723 7.72347C12.847 7.58707 12.6858 7.4889 12.5071 7.44031C12.2947 7.38975 12.0824 7.49087 11.9206 7.62234H11.9307ZM11.961 8.09764C11.7082 8.29989 11.516 8.56282 11.334 8.83587C11.1014 9.1797 10.8992 9.54376 10.6969 9.91793C10.3531 10.5449 10.0396 11.2022 9.72609 11.8495L8.74516 13.8821L8.70471 14.0237C8.78561 13.9934 8.86651 13.963 8.91708 13.8922L9.0182 13.69C9.11933 13.4574 9.24068 13.2349 9.3317 13.0124L10.1711 11.2022L10.4947 10.5449C10.6261 10.2516 10.798 9.98872 10.9396 9.70556C11.0812 9.45274 11.2329 9.19992 11.4048 8.95722C11.6172 8.65384 11.87 8.33023 12.2442 8.21899C12.406 8.15831 12.5779 8.2291 12.7195 8.29989C12.9217 8.41113 13.0633 8.60327 13.2049 8.7853C13.3464 8.97744 13.4577 9.18981 13.5689 9.40218C14.0038 10.2314 14.3476 11.1011 14.6914 11.9708C14.8836 12.436 15.0454 12.9113 15.2375 13.3664C15.2881 13.4978 15.3184 13.6394 15.3993 13.7506C15.4297 13.8012 15.5005 13.8012 15.5611 13.8214L15.5005 13.6495L14.9341 12.254C14.8431 12.0315 14.7622 11.7989 14.651 11.5764C14.4487 11.0607 14.2364 10.555 14.0038 10.0595C13.751 9.51342 13.488 8.95722 13.1442 8.4617C12.9925 8.24933 12.8105 8.04707 12.5779 7.93583C12.4666 7.9055 12.3554 7.91561 12.2442 7.92572C12.143 7.96617 12.052 8.02685 11.961 8.09764ZM12.0722 8.50215C11.8093 8.69429 11.6172 8.96733 11.4453 9.24037C11.2733 9.49319 11.1216 9.75612 10.9801 10.0292C10.8183 10.3224 10.6666 10.6359 10.5149 10.9393C10.1407 11.6877 9.79688 12.4562 9.45305 13.2147C9.39237 13.3461 9.31147 13.4675 9.27102 13.599C9.31147 13.6697 9.40249 13.6192 9.43283 13.5585C9.54407 13.3967 9.60474 13.2046 9.68564 13.0225L10.3935 11.4652C10.5553 11.0708 10.7677 10.6966 10.9497 10.3022C11.1924 9.85725 11.4351 9.40218 11.779 9.01789C11.9307 8.84598 12.1329 8.71451 12.3655 8.68418C12.6284 8.7044 12.8408 8.87632 12.9925 9.06846C13.3262 9.50331 13.5487 9.98872 13.7712 10.4842C14.1352 11.3337 14.4487 12.2034 14.7723 13.0731C14.8229 13.2248 14.8735 13.3765 14.9645 13.5079H15.0656C14.9443 13.1135 14.7825 12.7394 14.6308 12.3551C14.469 11.9202 14.2869 11.4955 14.115 11.0607C13.9431 10.6562 13.7813 10.2516 13.5892 9.86736C13.4172 9.51342 13.2453 9.15947 13.0127 8.84598C12.8711 8.66395 12.6992 8.47181 12.4768 8.40102C12.3352 8.36057 12.1936 8.44147 12.0722 8.50215ZM11.9104 9.13925C11.5868 9.47297 11.3745 9.90781 11.152 10.3123C10.6874 11.2888 10.2323 12.2698 9.78677 13.2551L9.73621 13.4068C10.3632 13.0529 11.0104 12.7191 11.7082 12.5573C11.9206 12.5068 12.143 12.527 12.3655 12.527C12.6386 12.527 12.9015 12.6079 13.1745 12.6888C13.4375 12.7697 13.7105 12.8607 13.9633 12.9922L14.6409 13.3158C14.6105 13.1237 14.5195 12.9619 14.469 12.7798C14.1049 11.7989 13.7408 10.8078 13.2858 9.86736C13.1644 9.64488 13.0532 9.43252 12.9015 9.24037C12.77 9.05835 12.5981 8.88643 12.3655 8.87632C12.1835 8.89654 12.0318 8.99767 11.9104 9.12913V9.13925ZM11.6981 12.7596C11.5363 12.7798 11.3947 12.8506 11.2329 12.8911C11.0205 12.9619 10.8183 13.063 10.616 13.154L9.98902 13.4776C9.83733 13.5787 9.66542 13.6293 9.55418 13.7709C9.60474 13.781 9.65531 13.781 9.69576 13.7506C9.99914 13.5888 10.2823 13.3967 10.5958 13.245C11.0711 13.0225 11.5767 12.8001 12.1127 12.7697C12.2239 12.7596 12.3251 12.7899 12.4363 12.8001C12.588 12.8102 12.7397 12.8708 12.9015 12.8911C13.4375 13.0225 13.9532 13.2551 14.4487 13.5282C14.56 13.5888 14.6712 13.6697 14.8027 13.69C14.7723 13.6495 14.7622 13.599 14.7117 13.5787C14.5701 13.4776 14.4083 13.4068 14.2465 13.3259C13.9229 13.154 13.579 13.0124 13.2352 12.9012C13.0532 12.8607 12.8813 12.7798 12.6992 12.7697C12.588 12.7495 12.4768 12.7191 12.3554 12.7191C12.143 12.7191 11.9206 12.709 11.6981 12.7596ZM12.0217 12.9922C11.8498 12.9821 11.688 13.0326 11.5363 13.0832C11.0256 13.2282 10.5385 13.4462 10.0902 13.7304L9.52384 14.0743C9.45305 14.1147 9.39237 14.1855 9.35192 14.2563C9.53395 14.2057 9.67553 14.0641 9.83733 13.9832C10.4138 13.6394 11.0104 13.2956 11.6677 13.1237L12.143 13.0428C12.2947 13.0428 12.4464 13.1034 12.6082 13.1135C12.77 13.1135 12.9217 13.1843 13.0734 13.2147C13.2251 13.2551 13.3566 13.3259 13.4981 13.3664C13.8217 13.4877 14.1251 13.6697 14.4386 13.8315C14.6004 13.9226 14.7521 14.0338 14.924 14.1046C14.9139 13.9731 14.7723 13.9327 14.6813 13.872C14.2161 13.6091 13.7408 13.3562 13.2352 13.1843C13.0734 13.1237 12.9015 13.0933 12.7296 13.0428C12.5071 12.972 12.2543 12.9922 12.0217 12.9922ZM11.4958 13.3664C11.243 13.4574 11.0003 13.5484 10.7677 13.6799C10.3227 13.9023 9.89801 14.1552 9.48339 14.4282L9.21035 14.6203C9.18001 14.6507 9.18001 14.7012 9.16989 14.7417C9.29125 14.681 9.40249 14.6001 9.51373 14.5293C9.72609 14.3776 9.95869 14.2361 10.1913 14.0945C10.707 13.7709 11.2632 13.4978 11.8599 13.3562C11.9711 13.3259 12.0925 13.336 12.2138 13.336C12.4869 13.3259 12.7498 13.4169 13.0127 13.4776C13.6903 13.7001 14.3173 14.054 14.9038 14.4484L15.0959 14.5496C15.0757 14.3979 14.9038 14.3473 14.7926 14.2664C14.6105 14.145 14.4184 14.0439 14.2263 13.9428C14.024 13.8113 13.8116 13.7304 13.5993 13.6192C13.4273 13.5585 13.2655 13.4776 13.0936 13.427C12.8711 13.3461 12.6284 13.3158 12.3959 13.2652C12.2846 13.2551 12.1734 13.2248 12.0621 13.245C11.87 13.2753 11.6778 13.3259 11.4958 13.3664ZM11.7284 13.5888C11.3239 13.7001 10.9396 13.872 10.5756 14.0743C10.343 14.2158 10.0902 14.3473 9.86767 14.5192C9.59463 14.7012 9.30136 14.8732 9.03843 15.0855C8.98787 15.126 8.95753 15.1867 8.9373 15.2473C9.14967 15.1563 9.31147 15.0046 9.4935 14.8732C9.75643 14.6911 10.0295 14.499 10.3126 14.3372C10.4947 14.2259 10.6767 14.1046 10.8688 14.0136C11.0711 13.9023 11.2835 13.8214 11.4958 13.7304C11.6071 13.69 11.7183 13.6799 11.8295 13.6495C12.0015 13.5888 12.1835 13.6091 12.3655 13.6091C12.6891 13.6596 13.0026 13.7506 13.306 13.872C13.6903 14.0237 14.0341 14.2361 14.3881 14.4383L14.8229 14.7215C14.9746 14.8226 15.1061 14.9439 15.2679 15.0147C15.2476 14.9642 15.2274 14.9035 15.1768 14.863C15.0252 14.7417 14.8634 14.6507 14.7117 14.5394C14.3881 14.3473 14.0746 14.1349 13.7307 13.9832C13.4981 13.872 13.2554 13.7608 13.0026 13.69C12.861 13.6596 12.7296 13.5787 12.5779 13.5787C12.4464 13.5686 12.3251 13.5282 12.1936 13.5282C12.0318 13.5181 11.8801 13.5686 11.7183 13.5888H11.7284ZM15.0454 13.7911C15.0454 13.9124 15.1667 13.9529 15.2679 13.9832C15.2173 13.8922 15.1566 13.7911 15.0454 13.7911ZM11.7284 13.872C11.516 13.9226 11.3239 14.0136 11.1216 14.1046C10.343 14.4686 9.64519 14.9844 8.95753 15.5001C8.87663 15.5608 8.78561 15.6114 8.72494 15.6923C8.6946 15.7226 8.72494 15.7732 8.73505 15.8035C9.23057 15.4192 9.73621 15.035 10.2621 14.681C10.6362 14.4484 11.0205 14.2057 11.4351 14.0439C11.5868 13.9934 11.7385 13.9226 11.8902 13.9124C12.1329 13.8821 12.3756 13.8922 12.6183 13.9327C13.3566 14.1147 14.0139 14.5091 14.6308 14.9338C14.9038 15.126 15.1566 15.3485 15.4398 15.5103C15.4196 15.4091 15.3488 15.3282 15.2577 15.2777C14.6308 14.8125 13.9734 14.3675 13.2453 14.0641C13.1037 14.0136 12.9723 13.9428 12.8206 13.9124C12.6183 13.872 12.4262 13.7911 12.2138 13.8012C12.052 13.7911 11.8902 13.8113 11.7284 13.872ZM9.03843 14.145C9.14967 14.0945 9.29125 14.0439 9.28113 13.9124C9.18001 13.9428 9.05865 14.0136 9.03843 14.145ZM11.8498 14.1248C11.4857 14.1956 11.152 14.3675 10.8385 14.5496C10.6464 14.6507 10.4643 14.772 10.2924 14.8934C10.08 15.0147 9.8879 15.1765 9.68564 15.3181L8.79572 15.9957C8.67437 16.0968 8.49234 16.1777 8.48223 16.3597C8.64403 16.2889 8.75527 16.1575 8.89685 16.0563L9.43283 15.6316C9.70587 15.4091 9.98902 15.2069 10.2823 14.9945L10.8891 14.6102C11.1419 14.4585 11.4048 14.3271 11.688 14.2462C11.8295 14.1956 11.9711 14.145 12.1127 14.145C12.6712 14.2005 13.2102 14.3801 13.6903 14.6709C14.1913 14.9626 14.6681 15.294 15.1162 15.6619C15.2881 15.7833 15.4398 15.9451 15.6218 16.0563C15.6117 16.0058 15.6218 15.9552 15.5915 15.9249C15.5207 15.844 15.4297 15.7833 15.3488 15.7226C14.7926 15.2777 14.2161 14.8428 13.5892 14.5192C13.2049 14.3271 12.8206 14.1552 12.3959 14.0945C12.2138 14.0945 12.0318 14.0844 11.8498 14.1248ZM15.5106 14.0844C15.551 14.1956 15.642 14.2765 15.7533 14.317C15.7432 14.2664 15.733 14.2259 15.7027 14.1855C15.6521 14.1349 15.5814 14.1046 15.5106 14.0844ZM15.2072 14.2259C15.2274 14.3271 15.3184 14.3979 15.4094 14.4282L15.369 14.2967L15.2072 14.2259ZM8.45189 14.5394C8.58336 14.4889 8.71482 14.3979 8.75527 14.2563C8.62381 14.3068 8.46201 14.3776 8.45189 14.5394ZM11.7992 14.408C11.1159 14.6358 10.4862 15.0005 9.94857 15.4799C9.79688 15.5912 9.63508 15.6923 9.4935 15.8136C9.10922 16.1271 8.70471 16.4305 8.33054 16.7642C8.27998 16.8249 8.2193 16.9058 8.25975 16.9867C8.94742 16.4103 9.60474 15.8136 10.3329 15.2979C10.7778 14.9844 11.2329 14.6709 11.7486 14.499C11.9307 14.4686 12.1026 14.3877 12.2846 14.4282L12.6689 14.5091C12.9925 14.6001 13.2959 14.7316 13.5689 14.9035C14.0341 15.1664 14.4487 15.4799 14.8532 15.8238C15.0353 15.9451 15.187 16.1069 15.3589 16.2485C15.5106 16.3698 15.642 16.5114 15.8038 16.6227C15.7937 16.5721 15.7937 16.5013 15.7432 16.4507C15.642 16.3294 15.5005 16.2384 15.3892 16.1271L14.5802 15.4799C14.1251 15.1462 13.6498 14.8125 13.124 14.6001C12.7195 14.3979 12.2442 14.3068 11.7992 14.408ZM8.8564 14.5192C8.82606 14.5496 8.83618 14.6001 8.83618 14.6406C8.89685 14.6001 8.95753 14.5698 9.00809 14.5192C9.04854 14.4788 9.09911 14.4282 9.05865 14.3776C8.98787 14.4181 8.91708 14.4585 8.8564 14.5192ZM16.0263 14.4282C16.0465 14.4788 16.0567 14.5496 16.1072 14.59L16.2791 14.6709C16.2488 14.5394 16.1477 14.4585 16.0263 14.4282ZM15.6825 14.5496C15.7229 14.681 15.8443 14.7518 15.9656 14.8226C15.9151 14.6911 15.8241 14.5698 15.6825 14.5496ZM11.87 14.6709C11.3846 14.7923 10.97 15.0855 10.5553 15.3586C10.3733 15.5001 10.1711 15.6316 9.98902 15.7934L9.4935 16.1777C9.16989 16.471 8.81595 16.7339 8.50246 17.0272C8.35077 17.1485 8.19907 17.2699 8.06761 17.4114C8.00693 17.462 8.01705 17.5429 8.01705 17.6238L8.6137 17.098C8.76539 16.9362 8.94742 16.8148 9.10922 16.653L9.58452 16.2485C9.78677 16.0563 10.0295 15.8844 10.252 15.7024L10.6261 15.4192C11.0205 15.1462 11.425 14.8732 11.8902 14.7417C12.0217 14.7012 12.1531 14.7215 12.2947 14.7114C12.4869 14.7114 12.6689 14.8024 12.8509 14.8529C12.9925 14.8934 13.1341 14.9743 13.2655 15.0451C13.6599 15.2473 14.0139 15.5204 14.3779 15.7934C14.5499 15.9047 14.6813 16.0665 14.8532 16.1979C15.1465 16.4507 15.4297 16.7137 15.7128 16.9867C15.8038 17.0777 15.905 17.1789 16.0263 17.2395C16.0061 17.1687 15.996 17.098 15.9454 17.0474L15.7027 16.8148C15.551 16.653 15.3589 16.5215 15.1971 16.3698C15.015 16.1878 14.8027 16.026 14.6004 15.8541C14.1959 15.5406 13.7813 15.2271 13.3262 14.9945C13.1442 14.9136 12.9723 14.8125 12.7902 14.7518C12.6386 14.7012 12.4768 14.6709 12.3149 14.6305C12.1633 14.6001 12.0116 14.6203 11.87 14.6709ZM15.3589 14.6507C15.3791 14.7012 15.3791 14.772 15.4297 14.8024C15.4802 14.8529 15.551 14.8934 15.6117 14.9338C15.5915 14.8833 15.5814 14.8226 15.5409 14.772C15.4903 14.7215 15.4196 14.6911 15.3589 14.6507ZM7.83502 14.9642C7.96648 14.9035 8.14851 14.8327 8.15862 14.6608C8.01705 14.7114 7.85524 14.7923 7.83502 14.9642ZM8.20919 15.0754C8.35077 15.0046 8.49234 14.9136 8.54291 14.7417C8.40133 14.8125 8.22941 14.9035 8.20919 15.0754ZM16.5623 14.8024C16.5825 14.9642 16.7342 15.0552 16.8758 15.1159C16.8454 15.0552 16.8252 14.9844 16.7747 14.9338C16.714 14.8833 16.6432 14.8428 16.5623 14.8024ZM8.62381 15.035L8.60358 15.1462C8.72494 15.0956 8.86651 15.0147 8.87663 14.863C8.78561 14.9136 8.68448 14.9541 8.62381 15.035ZM11.0913 15.3282C10.6969 15.5709 10.3329 15.8642 9.97891 16.1474C9.807 16.2889 9.64519 16.4507 9.46316 16.5923L8.97775 17.0171C8.62381 17.3305 8.27998 17.6542 7.91592 17.9474C7.8249 18.0182 7.78445 18.1295 7.79457 18.2407C7.85524 18.2104 7.91592 18.1699 7.96648 18.1193C8.15862 17.9373 8.36088 17.7755 8.54291 17.5935L9.27102 16.9159C9.46316 16.744 9.63508 16.562 9.83733 16.4103C10.0902 16.1676 10.3632 15.9552 10.6261 15.7429C10.7778 15.6215 10.9295 15.5204 11.0913 15.4192C11.3846 15.217 11.7082 15.0451 12.0722 14.9844C12.2947 14.9541 12.5172 15.0248 12.7296 15.0956C12.9217 15.1563 13.0936 15.2574 13.2655 15.3485C13.5892 15.5406 13.8925 15.753 14.1858 16.0058L14.742 16.471C14.9341 16.653 15.1061 16.8552 15.2982 17.0272L15.8241 17.553C15.9758 17.6946 16.0971 17.8564 16.2589 17.9676C16.2286 17.8564 16.2083 17.7249 16.1173 17.6339C15.642 17.1789 15.1667 16.7137 14.6712 16.2788L14.3072 15.9754C14.1049 15.8136 13.8925 15.6721 13.6802 15.5204C13.488 15.3889 13.2858 15.2676 13.0835 15.1664C12.8206 15.0248 12.5374 14.9439 12.2442 14.9136C11.8194 14.8833 11.4453 15.1159 11.0913 15.3282ZM16.1982 14.9035C16.2286 15.0552 16.3499 15.1563 16.4814 15.1968C16.4915 15.035 16.3196 14.9642 16.1982 14.9035ZM15.8645 15.0147C15.8544 15.1664 16.0162 15.2372 16.1274 15.308C16.1274 15.1563 15.9859 15.0653 15.8645 15.0147ZM7.25859 15.2777C7.22825 15.308 7.16758 15.3889 7.23837 15.4192C7.37994 15.3383 7.53164 15.2372 7.57209 15.0754C7.45073 15.0956 7.34961 15.1867 7.25859 15.2777ZM15.5106 15.1361C15.5409 15.2777 15.6623 15.3586 15.7836 15.4091C15.7634 15.2676 15.642 15.1664 15.5106 15.1361ZM7.84513 15.217C7.71366 15.2878 7.5822 15.3889 7.56197 15.5406C7.71366 15.4698 7.87547 15.3687 7.93614 15.1968C7.90581 15.1968 7.87547 15.1968 7.84513 15.217ZM11.8093 15.2473C11.5464 15.3383 11.334 15.49 11.1014 15.6316C10.9093 15.7732 10.6969 15.9047 10.5149 16.0766C10.1306 16.3597 9.77666 16.6934 9.42271 17.0272C9.22046 17.2193 8.99798 17.4013 8.79572 17.6036C8.47212 17.8867 8.16874 18.1901 7.83502 18.4531C7.76423 18.5137 7.68333 18.5744 7.65299 18.6553C7.62265 18.716 7.63276 18.7767 7.62265 18.8272C7.89569 18.6958 8.08783 18.4632 8.31031 18.271L8.9373 17.6744L9.43283 17.1991C9.807 16.835 10.1609 16.4609 10.5756 16.1271C10.7171 16.026 10.8385 15.8945 10.9902 15.8035C11.1216 15.7327 11.2329 15.6215 11.3745 15.5507C11.516 15.4597 11.6677 15.3788 11.8295 15.3181C12.0621 15.2473 12.3149 15.2676 12.5577 15.3181C12.8914 15.4294 13.1948 15.6013 13.4779 15.7934L14.0746 16.2586L14.742 16.8957C15.1465 17.2901 15.5207 17.7148 15.9252 18.1193C16.0668 18.2609 16.2083 18.4126 16.36 18.5441C16.36 18.4834 16.3701 18.4227 16.3499 18.362C16.3196 18.3014 16.269 18.2609 16.2286 18.2104C16.0769 18.0789 15.9454 17.9373 15.8038 17.7957C15.5915 17.5935 15.3993 17.3811 15.187 17.189C14.8634 16.8856 14.5701 16.562 14.2161 16.2788C14.0644 16.1372 13.8925 16.026 13.7307 15.8844C13.3464 15.6013 12.9217 15.3383 12.4464 15.2069C12.234 15.1664 12.0116 15.1563 11.8093 15.2473ZM17.4724 15.5709C17.4623 15.3788 17.2702 15.2979 17.1387 15.2069C17.1387 15.3889 17.3106 15.5103 17.4724 15.5709ZM7.96648 15.6215C8.10806 15.5507 8.29009 15.4496 8.3002 15.2777C8.14851 15.3485 7.97659 15.4395 7.96648 15.6215ZM16.7747 15.3282C16.7747 15.49 16.9365 15.5709 17.0477 15.6619C17.078 15.6215 17.078 15.581 17.0477 15.5507C16.987 15.4395 16.8758 15.3889 16.7747 15.3282ZM8.36088 15.6923C8.46201 15.6417 8.56313 15.581 8.63392 15.49L8.64403 15.3788C8.52268 15.4597 8.34065 15.5305 8.36088 15.6923ZM12.0824 15.4496L11.7588 15.5507C11.3138 15.753 10.9295 16.0766 10.5553 16.3901L9.92835 16.9564C9.73621 17.1182 9.5744 17.3002 9.39237 17.462L8.81595 18.0182L8.3811 18.4429C8.1384 18.6553 7.89569 18.8677 7.62265 19.0396C7.62265 19.1003 7.64288 19.1812 7.71366 19.1609C7.85524 19.1407 7.96648 19.0497 8.07772 18.9688C8.66426 18.4328 9.20023 17.8463 9.76655 17.2901C9.8879 17.1687 9.98902 17.0373 10.1205 16.926C10.2722 16.7845 10.4138 16.6227 10.5857 16.4811C10.7677 16.3395 10.9295 16.1676 11.1216 16.0361C11.3846 15.8238 11.688 15.6518 12.0015 15.5507C12.1734 15.49 12.3554 15.5406 12.5273 15.6013C12.7801 15.6822 13.0228 15.8035 13.2352 15.9653C13.3566 16.0462 13.488 16.1271 13.5892 16.2283C13.8217 16.4204 14.0543 16.6227 14.2566 16.835L14.6004 17.189C14.7723 17.371 14.9443 17.5429 15.1061 17.7351C15.2679 17.8969 15.4196 18.0688 15.5611 18.2407C15.8038 18.4834 16.0162 18.7564 16.2892 18.9587C16.3297 18.9991 16.3904 18.989 16.4308 18.9991C16.4308 18.9486 16.4409 18.898 16.4207 18.8576C16.36 18.7868 16.269 18.7362 16.1881 18.6654C15.8847 18.3722 15.6016 18.0587 15.3083 17.7553L14.8937 17.3103C14.651 17.0575 14.3982 16.8249 14.1454 16.5822C13.9128 16.3901 13.6903 16.1777 13.4375 16.0058C13.1644 15.8238 12.8813 15.6013 12.5475 15.5204C12.3959 15.49 12.2442 15.4294 12.0824 15.4496ZM16.4308 15.4294C16.4409 15.4799 16.4207 15.5507 16.4612 15.5912C16.532 15.6619 16.623 15.7226 16.7039 15.7833C16.7342 15.6013 16.5421 15.5204 16.4308 15.4294ZM6.57093 15.7631C6.53048 15.8035 6.52036 15.8642 6.52036 15.9148C6.69228 15.844 6.88442 15.7327 6.92487 15.5305C6.79341 15.581 6.66194 15.6619 6.57093 15.7631ZM16.087 15.5507L16.0971 15.6822C16.1477 15.753 16.2387 15.8035 16.3095 15.844C16.3095 15.7934 16.3196 15.7327 16.2892 15.7024C16.2286 15.6316 16.1578 15.5912 16.087 15.5507ZM6.90465 15.9957C7.01589 16.0058 7.1069 15.9047 7.1878 15.844C7.25859 15.7934 7.28893 15.7125 7.29904 15.6316C7.12713 15.7024 6.96532 15.8136 6.90465 15.9957ZM15.7128 15.6518C15.7229 15.7226 15.7432 15.8035 15.8139 15.8541C15.8544 15.8844 15.9151 15.9451 15.9758 15.9148C15.9555 15.7732 15.8241 15.7024 15.7128 15.6518ZM17.7253 15.6619C17.7556 15.8541 17.9174 15.9856 18.0893 16.0361C18.0489 15.8541 17.8769 15.7429 17.7253 15.6619ZM7.4204 15.9047C7.34961 15.9552 7.31927 16.0361 7.32938 16.1271C7.44062 16.0462 7.55186 15.9754 7.64288 15.8743C7.68333 15.8339 7.68333 15.7732 7.68333 15.7226C7.59231 15.7732 7.5013 15.8238 7.4204 15.9047ZM17.3915 15.9148C17.4724 16.0159 17.5837 16.0968 17.6949 16.1575C17.6848 16.1069 17.6949 16.0361 17.6545 15.9957C17.5736 15.9047 17.4623 15.844 17.3612 15.7732C17.3713 15.8136 17.3612 15.8743 17.3915 15.9148ZM16.9466 15.8238C16.9769 15.9148 16.987 16.026 17.0679 16.0968L17.3511 16.3092C17.3207 16.2181 17.3106 16.117 17.2297 16.0563C17.1488 15.9653 17.0376 15.9047 16.9466 15.8238ZM7.76423 16.0462C7.72378 16.0867 7.72378 16.1372 7.72378 16.1878C7.87547 16.117 8.02716 16.0159 8.07772 15.8541L8.04738 15.8238C7.94626 15.8844 7.84513 15.9552 7.76423 16.0462ZM8.06761 16.3395C8.16874 16.2788 8.25975 16.208 8.34065 16.1372C8.41144 16.0665 8.45189 15.9754 8.49234 15.8844C8.29009 15.9451 8.08783 16.117 8.06761 16.3395ZM5.97428 16.1575C5.88326 16.2181 5.85292 16.3193 5.8327 16.4204C5.92371 16.38 6.00462 16.3294 6.08552 16.2586C6.19676 16.1878 6.31811 16.0766 6.29788 15.935C6.18664 15.9957 6.0754 16.0665 5.97428 16.1575ZM16.623 15.9957C16.6432 16.1676 16.7848 16.2889 16.9365 16.3496C16.9263 16.1777 16.7645 16.0563 16.623 15.9957ZM16.2589 16.0867C16.2488 16.2283 16.3701 16.3193 16.4612 16.4002C16.4915 16.4305 16.532 16.4305 16.5724 16.4406C16.5522 16.2586 16.3904 16.1676 16.2589 16.0867ZM6.32822 16.3092C6.27766 16.3597 6.27766 16.4305 6.26755 16.4912C6.39901 16.4406 6.50014 16.3597 6.60127 16.2586C6.65183 16.2181 6.65183 16.1575 6.65183 16.0968C6.53048 16.1474 6.41924 16.2181 6.32822 16.3092ZM18.3219 16.117C18.3421 16.1878 18.3522 16.2687 18.4129 16.3294C18.4938 16.4103 18.6051 16.4811 18.7062 16.5519C18.686 16.471 18.6758 16.38 18.6051 16.3193C18.5242 16.2485 18.423 16.1777 18.3219 16.117ZM15.8847 16.1777C15.905 16.3496 16.0567 16.471 16.1982 16.5721C16.1982 16.38 16.0364 16.2485 15.8847 16.1777ZM6.75296 16.3901C6.69228 16.4507 6.66194 16.5418 6.64172 16.6227C6.76307 16.5519 6.87431 16.4912 6.97544 16.3901C7.03611 16.3395 7.04622 16.2586 7.04622 16.1878C6.9451 16.2485 6.84397 16.3092 6.75296 16.3901ZM18.3118 16.6429C18.3017 16.5721 18.2916 16.5013 18.2309 16.4507C18.15 16.3698 18.0489 16.299 17.9477 16.2283C17.968 16.4305 18.15 16.562 18.3118 16.6429ZM7.05634 16.7137C7.15746 16.6631 7.24848 16.6024 7.32938 16.5215C7.40017 16.4609 7.46085 16.38 7.44062 16.2788C7.28893 16.3901 7.05634 16.4912 7.05634 16.7137ZM17.5837 16.3496C17.5736 16.5519 17.7657 16.6631 17.9073 16.7642C17.9073 16.7036 17.9275 16.6328 17.8871 16.5822C17.796 16.4912 17.6848 16.4204 17.5837 16.3496ZM7.44062 16.8148C7.56197 16.7642 7.65299 16.6732 7.744 16.5923C7.80468 16.5418 7.8249 16.4609 7.84513 16.3901C7.6631 16.4609 7.47096 16.6024 7.44062 16.8148ZM5.32706 16.5923C5.26639 16.6429 5.21582 16.7339 5.26639 16.8148C5.3574 16.7541 5.46864 16.6934 5.54954 16.6227C5.62033 16.562 5.63044 16.4811 5.65067 16.4002C5.53943 16.4507 5.42819 16.5215 5.32706 16.5923ZM17.1792 16.4811C17.2095 16.5519 17.2297 16.6328 17.2904 16.6833L17.5634 16.8957C17.5331 16.7845 17.5028 16.6833 17.4118 16.6125C17.3511 16.5519 17.2803 16.471 17.1792 16.4811ZM5.74168 16.7036C5.65067 16.7743 5.62033 16.8755 5.61022 16.9766C5.71135 16.9159 5.82259 16.8552 5.9136 16.7845C6.00461 16.7137 6.06529 16.6024 6.05518 16.4912L5.73157 16.7036H5.74168ZM7.84513 16.8957C7.96648 16.835 8.07772 16.7541 8.16874 16.653C8.20919 16.6024 8.19907 16.5316 8.19907 16.4811C8.03727 16.5721 7.86535 16.6934 7.84513 16.8957ZM16.8859 16.7642C16.9668 16.8552 17.0679 16.926 17.1792 16.9665C17.1488 16.8957 17.1387 16.8047 17.078 16.7541C17.0072 16.6833 16.9263 16.6328 16.8454 16.5721C16.8151 16.6429 16.8454 16.7137 16.8859 16.7642ZM18.9388 16.6833C18.9995 16.7946 19.1107 16.8755 19.232 16.9362L19.2624 16.8957C19.2422 16.7238 19.0601 16.6631 18.9388 16.562C18.9186 16.6024 18.9084 16.6429 18.9388 16.6732V16.6833ZM6.09563 16.8552C6.02484 16.926 5.9945 17.0171 6.01473 17.1081C6.12597 17.0373 6.24732 16.9665 6.34845 16.8755C6.41924 16.8047 6.42935 16.7036 6.45969 16.6227C6.32822 16.6833 6.19676 16.7541 6.09563 16.8654V16.8552ZM16.4308 16.6429C16.4511 16.835 16.6129 16.9867 16.7848 17.0676C16.7747 17.0171 16.7747 16.9463 16.7342 16.8957C16.6432 16.7946 16.5421 16.7137 16.4308 16.6429ZM18.5949 16.8755C18.6758 16.9665 18.7871 17.0373 18.8983 17.0878C18.8882 16.8856 18.6961 16.7845 18.5444 16.6934C18.5444 16.7541 18.5545 16.8249 18.5949 16.8755ZM6.51025 16.9665C6.43946 17.0171 6.41924 17.1182 6.41924 17.2092C6.59115 17.098 6.82375 16.9867 6.82375 16.7541C6.71251 16.8148 6.61138 16.8856 6.51025 16.9665ZM16.087 16.7541C16.0971 16.8047 16.0769 16.8755 16.1173 16.9159C16.1982 17.0171 16.2994 17.1081 16.4106 17.1687C16.3803 16.9867 16.2387 16.8552 16.087 16.7541ZM4.73041 16.9766C4.67985 17.0272 4.67985 17.0878 4.66974 17.1586C4.79109 17.1081 4.91244 17.0474 5.01357 16.9564C5.03379 16.9058 5.08436 16.835 5.02368 16.7946C4.92255 16.8451 4.82143 16.9058 4.73041 16.9766ZM18.15 16.8047C18.1399 17.0069 18.332 17.1283 18.5039 17.2092L18.4938 17.0676C18.4028 16.9564 18.2713 16.8755 18.15 16.8047ZM7.01589 16.9968C6.90465 17.0676 6.79341 17.1789 6.81363 17.3204C6.9451 17.2395 7.07656 17.1485 7.17769 17.0272C7.21814 16.9766 7.20803 16.9159 7.21814 16.8552L7.01589 16.9968ZM5.39785 16.9362C5.29672 16.9867 5.20571 17.0474 5.12481 17.1182C5.08436 17.1687 5.04391 17.2395 5.10458 17.28C5.21582 17.2395 5.32706 17.1789 5.40796 17.0878C5.4383 17.0474 5.47875 16.9159 5.39785 16.9362ZM19.4242 16.9463C19.4646 17.098 19.5961 17.2193 19.7579 17.2294V17.1283C19.6467 17.0575 19.5557 16.9463 19.4242 16.9463ZM7.2687 17.2294C7.21814 17.28 7.20803 17.3508 7.20803 17.4216C7.32938 17.3609 7.43051 17.28 7.52152 17.189C7.5822 17.1283 7.59231 17.0474 7.61254 16.9766C7.47096 17.0171 7.36983 17.1182 7.2687 17.2294ZM17.8163 17.1081C17.9073 17.2092 18.0286 17.2901 18.15 17.3609C18.1298 17.2901 18.1095 17.2092 18.059 17.1485C17.9882 17.0676 17.8972 17.0069 17.8062 16.9564L17.8163 17.1081ZM17.4118 17.0474C17.4219 17.1081 17.4016 17.1687 17.4421 17.2193C17.5129 17.3204 17.614 17.3912 17.7151 17.462C17.7354 17.4216 17.7455 17.3811 17.7253 17.3407C17.6646 17.2092 17.523 17.1384 17.4118 17.0474ZM5.45853 17.3811L5.49898 17.4317C5.62033 17.371 5.76191 17.3002 5.82259 17.1687C5.85292 17.1384 5.82259 17.098 5.81247 17.0575C5.68101 17.1485 5.49898 17.2092 5.45853 17.3811ZM7.67321 17.3204C7.62265 17.371 7.62265 17.4418 7.63276 17.5126C7.73389 17.4519 7.8249 17.371 7.91592 17.28C7.96648 17.2294 7.98671 17.1384 8.00693 17.0676C7.87547 17.1283 7.76423 17.2092 7.67321 17.3204ZM4.25512 17.2193V17.3305C4.34613 17.3204 4.43714 17.3002 4.50793 17.2395C4.53827 17.1991 4.53827 17.1384 4.53827 17.0878C4.43714 17.1081 4.34613 17.1586 4.25512 17.2193ZM19.0905 17.098V17.2395C19.1714 17.3002 19.2624 17.3508 19.3635 17.3912L19.3534 17.2598C19.2826 17.1789 19.1815 17.1384 19.0905 17.098ZM5.90349 17.3811C5.8327 17.4418 5.8327 17.5429 5.8327 17.6238C5.94394 17.5631 6.04507 17.5025 6.13608 17.4216C6.21698 17.3609 6.23721 17.2496 6.25743 17.1586C6.13608 17.2193 6.01473 17.3002 5.90349 17.3811ZM17.0174 17.1485C17.0174 17.3508 17.1792 17.4924 17.341 17.5733C17.341 17.5126 17.3612 17.4418 17.3207 17.3912C17.2297 17.3002 17.1185 17.2193 17.0174 17.1485ZM19.8995 17.2092V17.3103H20.0613C20.0208 17.2598 19.9703 17.2092 19.8995 17.2092ZM3.95173 17.3609L4.11354 17.371V17.2598C4.03264 17.2598 3.98207 17.3002 3.95173 17.3609ZM4.61917 17.4013L4.62929 17.5025C4.75064 17.4822 4.89222 17.4418 4.93267 17.3103L4.89222 17.2496C4.79109 17.28 4.70007 17.3305 4.61917 17.4013ZM6.28777 17.5227C6.22709 17.5834 6.22709 17.6744 6.22709 17.7452C6.33833 17.6946 6.45969 17.6339 6.5507 17.5429C6.61138 17.4721 6.62149 17.371 6.62149 17.28C6.51025 17.3609 6.3889 17.4216 6.28777 17.5227ZM16.6533 17.2598C16.6533 17.3305 16.6432 17.4114 16.7039 17.4721C16.7949 17.5631 16.8859 17.6542 16.9971 17.7351C17.0072 17.5126 16.805 17.371 16.6533 17.2598ZM18.7062 17.2598C18.6961 17.4216 18.8579 17.4924 18.9792 17.5429C19.0399 17.5126 18.9995 17.4418 18.9792 17.4114C18.9084 17.3407 18.8174 17.2598 18.7062 17.2598ZM6.69228 17.644C6.62149 17.7047 6.61138 17.8058 6.59115 17.8969C6.71251 17.8564 6.80352 17.7755 6.90465 17.6946C6.99566 17.6238 7.026 17.4924 7.04622 17.3811C6.92487 17.462 6.80352 17.5429 6.69228 17.644ZM16.2589 17.371C16.2791 17.4418 16.2791 17.5328 16.3398 17.5834C16.4207 17.6744 16.5117 17.7553 16.6129 17.8261C16.623 17.6137 16.4409 17.462 16.2589 17.371ZM18.3522 17.5227C18.423 17.6036 18.514 17.6744 18.6253 17.6946L18.6152 17.553C18.5444 17.4822 18.4534 17.4317 18.3725 17.3811C18.3522 17.4216 18.332 17.4721 18.3522 17.5227ZM4.98323 17.6339C5.05402 17.7047 5.14503 17.644 5.21582 17.6036C5.2765 17.5733 5.29672 17.4924 5.30684 17.4216C5.17537 17.4418 5.02368 17.4924 4.98323 17.6339ZM18.0185 17.7047C18.0893 17.7654 18.1702 17.8362 18.2815 17.8463C18.2713 17.6542 18.0792 17.5733 17.9578 17.4721C17.9073 17.553 17.9578 17.644 18.0185 17.7047ZM19.1613 17.5025V17.644C19.2118 17.6542 19.2624 17.6643 19.3129 17.6542L19.3028 17.5631L19.1613 17.5025ZM7.07656 17.7755C7.01589 17.8261 7.03611 17.9171 7.03611 17.9879C7.14735 17.9272 7.25859 17.8463 7.34961 17.7452C7.40017 17.6845 7.39006 17.6036 7.37994 17.5429C7.27882 17.6137 7.17769 17.6845 7.07656 17.7755ZM5.39785 17.6946C5.3574 17.7351 5.36751 17.7856 5.3574 17.8362C5.47875 17.8564 5.56977 17.7654 5.66078 17.7047V17.553C5.56977 17.5935 5.47875 17.6339 5.39785 17.6946ZM4.67985 17.7047L4.85177 17.7148V17.6036C4.78098 17.6238 4.7203 17.6542 4.67985 17.7047ZM17.5837 17.6137V17.7856C17.6545 17.8766 17.7657 17.9373 17.8668 17.998L17.8871 17.9171C17.8466 17.7654 17.6949 17.7047 17.5837 17.6137ZM7.40017 18.0283C7.37994 18.0688 7.39006 18.1092 7.40017 18.1396C7.51141 18.0587 7.63276 17.9778 7.72378 17.8766C7.77434 17.816 7.78445 17.7351 7.78445 17.6643C7.63276 17.7553 7.46085 17.8564 7.40017 18.0283ZM18.7871 17.6643L18.7972 17.7957C18.8275 17.8261 18.8882 17.8362 18.9287 17.8362L18.9792 17.7654L18.7871 17.6643ZM5.78214 17.8564C5.73157 17.8969 5.76191 17.9676 5.78214 18.0182C5.87315 17.9676 5.98439 17.9272 6.04507 17.8463C6.06529 17.7957 6.05518 17.7452 6.05518 17.6946C5.95405 17.7351 5.86304 17.7856 5.78214 17.8564ZM5.05402 17.8969L5.23605 17.907L5.24616 17.7755C5.16526 17.7755 5.09447 17.8261 5.05402 17.8867V17.8969ZM17.2398 17.9373C17.3106 18.0182 17.4016 18.1092 17.523 18.1193C17.5129 17.9474 17.3612 17.8362 17.2196 17.7755C17.1589 17.816 17.2095 17.8867 17.2398 17.9373ZM6.16642 17.998C6.10574 18.0485 6.13608 18.1396 6.12597 18.2104C6.21698 18.1598 6.31811 18.1193 6.39901 18.0485C6.45969 17.998 6.4698 17.907 6.4698 17.8261C6.35856 17.8463 6.25743 17.9171 6.16642 17.998ZM18.3927 17.9171C18.4433 17.9778 18.5039 17.9879 18.5747 17.9879L18.6152 17.9171L18.423 17.816L18.3927 17.9171ZM16.8151 17.8766C16.7949 18.0688 16.9769 18.1901 17.1185 18.2913V18.1193C17.0376 18.0182 16.9365 17.9373 16.8151 17.8766ZM5.41808 18.0485C5.47875 18.0688 5.56977 18.1193 5.62033 18.0485L5.57988 17.9373L5.41808 18.0485ZM16.4308 17.9575C16.4005 18.18 16.6027 18.3216 16.7544 18.4429C16.7747 18.3722 16.7848 18.3014 16.7342 18.2407C16.6533 18.1295 16.5421 18.0384 16.4308 17.9575ZM18.0489 17.9575L18.059 18.1295C18.1298 18.1598 18.2107 18.1699 18.2713 18.0991L18.0489 17.9575ZM6.52036 18.1901C6.52036 18.2306 6.47991 18.3216 6.56081 18.3317C6.65183 18.2913 6.73273 18.2306 6.80352 18.1598C6.83386 18.1092 6.81363 18.0485 6.82375 17.9879C6.71251 18.0283 6.59115 18.089 6.52036 18.1901ZM5.81247 18.2508H5.98439L6.00462 18.1193C5.92371 18.1193 5.79225 18.1497 5.81247 18.2508ZM6.92487 18.3115C6.87431 18.3722 6.85408 18.4531 6.88442 18.5238C7.00577 18.4632 7.12713 18.3924 7.19792 18.2811C7.22825 18.2306 7.20803 18.1699 7.20803 18.1193C7.1069 18.1699 7.00577 18.2306 6.92487 18.3115ZM17.6949 18.2913C17.7657 18.3216 17.8365 18.3014 17.9073 18.271C17.8466 18.2104 17.7859 18.1699 17.7151 18.1295C17.6848 18.18 17.6747 18.2407 17.6949 18.2913ZM7.31927 18.4328C7.25859 18.4935 7.24848 18.5845 7.27882 18.6654C7.39006 18.5946 7.5013 18.5238 7.5822 18.4227C7.62265 18.3722 7.60242 18.3014 7.61254 18.2407C7.5013 18.2913 7.41028 18.3519 7.31927 18.4328ZM17.2904 18.2609C17.3005 18.3317 17.3005 18.4328 17.3713 18.4733C17.432 18.4834 17.4825 18.4632 17.523 18.4429C17.4724 18.3519 17.3915 18.2913 17.2904 18.2609ZM6.14619 18.3924C6.18664 18.4126 6.22709 18.4632 6.27766 18.4531C6.32822 18.4429 6.34845 18.3924 6.37879 18.3722L6.34845 18.2913C6.26755 18.2913 6.20687 18.3317 6.14619 18.3924ZM6.50014 18.5643L6.59115 18.6149C6.65183 18.6351 6.70239 18.5946 6.75296 18.5744L6.74284 18.4227C6.66194 18.4632 6.58104 18.5036 6.50014 18.5643ZM17.0072 18.6452C17.0679 18.6452 17.1589 18.6553 17.1893 18.5845L16.9466 18.4025C16.8859 18.4935 16.9567 18.5744 17.0072 18.6452ZM16.5522 18.534C16.5522 18.5946 16.5421 18.6654 16.5623 18.7261C16.6129 18.7767 16.6836 18.807 16.7443 18.8272L16.8151 18.7261L16.5522 18.534ZM6.87431 18.7362C6.93498 18.7868 7.04622 18.8272 7.1069 18.7564C7.11701 18.6958 7.13724 18.625 7.08668 18.5946C7.00577 18.6351 6.9451 18.6857 6.87431 18.7362ZM7.24848 18.898L7.34961 18.9991C7.40017 18.9688 7.46085 18.9486 7.49118 18.898C7.51141 18.8576 7.5013 18.807 7.51141 18.7666C7.40017 18.7564 7.31927 18.8373 7.24848 18.9081V18.898Z" stroke="black" stroke-width="0.1" stroke-miterlimit="10"/>
</g>
</g>
<defs>
<clipPath id="clip0_3278_31631">
<rect width="17.4545" height="17.4545" fill="white" transform="translate(3.27344 3.27344)"/>
</clipPath>
</defs>
</svg>
