<svg width="24" height="24" viewBox="0 0 24 24" fill="none" xmlns="http://www.w3.org/2000/svg">
<path d="M12 24.0001C18.6504 24.0001 24 18.6505 24 12.0001C24 5.34961 18.6504 0 12 0C5.34961 0 0 5.34961 0 12.0001C0 18.6505 5.34961 24.0001 12 24.0001Z" fill="#79512F"/>
<path fill-rule="evenodd" clip-rule="evenodd" d="M9.58348 21.912H11.4753H12.8783H14.7701C14.7702 21.729 14.6435 21.2786 14.1365 20.9418C13.5029 20.5207 12.9417 19.3856 12.9417 18.5435C12.9417 18.2663 13.2732 17.5903 13.7181 16.6834C14.6245 14.8355 16.0013 12.0287 16.0013 9.68319C16.0165 9.00853 15.8203 7.66019 15.0013 6.90368V4.32932C15.0013 3.98465 14.7006 3.86062 14.5398 3.86062H13.8062C13.7093 3.86062 13.7286 3.77789 13.7504 3.73652L14.4096 2.46118C14.4568 2.36986 14.4585 2.27338 14.3604 2.24259C14.1367 2.17235 13.5627 2.09687 12.3171 2.08702V2.08594C12.2695 2.08594 12.2227 2.08603 12.1768 2.0862C12.1309 2.08603 12.0841 2.08594 12.0365 2.08594V2.08702C10.7909 2.09687 10.2169 2.17235 9.99321 2.24259C9.89511 2.27338 9.89691 2.36986 9.94411 2.46118L10.6039 3.73766L10.602 3.73652C10.6238 3.77789 10.6431 3.86062 10.5462 3.86062H9.81266C9.65181 3.86062 9.35117 3.98465 9.35117 4.32932V6.90476C8.5331 7.66148 8.3371 9.00886 8.35237 9.68319C8.35237 12.0287 9.72912 14.8355 10.6355 16.6834C11.0804 17.5903 11.412 18.2663 11.412 18.5435C11.412 19.3856 10.8507 20.5207 10.2171 20.9418C9.71017 21.2786 9.58347 21.729 9.58348 21.912ZM10.6313 4.25449C10.6871 4.25449 10.7915 4.28831 10.8387 4.41113C10.9605 5.07964 10.8798 6.00425 9.99761 6.48973C9.90561 6.43585 9.81266 6.34062 9.81266 6.19289V4.4381C9.81549 4.37689 9.8539 4.25449 9.98471 4.25449H10.6313ZM13.7211 4.25449C13.6662 4.25449 13.5641 4.2873 13.5159 4.40561C13.3927 5.07439 13.4713 6.00249 14.3554 6.4894C14.4472 6.43546 14.5398 6.34032 14.5398 6.19289V4.4381C14.537 4.37689 14.4986 4.25449 14.3678 4.25449H13.7211Z" fill="white"/>
</svg>
