<svg width="24" height="24" viewBox="0 0 24 24" fill="none" xmlns="http://www.w3.org/2000/svg">
<circle cx="12" cy="12" r="11.5" fill="white" stroke="#D8DFE9"/>
<g clip-path="url(#clip0_3257_29353)">
<path d="M17.5859 7.60445L12.9419 5.22035C12.3716 4.92696 11.6918 4.92696 11.1215 5.21789L6.42905 7.61185C5.72124 8.02359 5.05926 8.50928 5.03125 9.92445V11.066H6.85679V9.50534L12.033 6.83277L17.1709 9.50534V11.066H18.9965V9.92445C18.9659 8.50188 18.2989 8.01866 17.5859 7.60445Z" fill="#356DF3"/>
<path d="M17.1684 14.6206L12.9445 16.911V15.062C14.4288 14.7242 15.4065 13.5531 15.4065 11.9875C15.4065 10.0891 14.052 8.81445 12.033 8.81445C10.0139 8.81445 8.65941 10.0891 8.65941 11.9875C8.65941 13.5555 9.63456 14.7242 11.1215 15.062V16.9135L6.85933 14.6206V12.9145H5.03125V14.0536C5.0618 15.4663 5.72124 15.9545 6.42905 16.3662L11.1215 18.7601C11.6918 19.0511 12.3741 19.0511 12.9419 18.7577L17.5834 16.3736C18.2963 15.9618 18.9659 15.4762 18.994 14.0536V12.9145H17.1684V14.6206ZM10.3551 11.9875C10.3551 10.9471 10.9509 10.3751 12.033 10.3751C13.1151 10.3751 13.7108 10.9471 13.7108 11.9875C13.7108 12.9959 13.0845 13.5999 12.033 13.5999C10.9814 13.5999 10.3551 12.9983 10.3551 11.9875Z" fill="#356DF3"/>
</g>
<defs>
<clipPath id="clip0_3257_29353">
<rect width="14" height="14" fill="white" transform="translate(5 5)"/>
</clipPath>
</defs>
</svg>
