<svg width="24" height="24" viewBox="0 0 24 24" fill="none" xmlns="http://www.w3.org/2000/svg">
<circle cx="12" cy="12" r="11.5" fill="white" stroke="#D8DFE9"/>
<path d="M7.58145 11.6355L5.62654 13.5904L3.63672 11.6355L5.62654 9.64566L7.58145 11.6355ZM12.364 6.85293L15.7502 10.2391L17.74 8.24929L12.364 2.9082L7.0229 8.24929L9.01272 10.2391L12.364 6.85293ZM19.1014 9.64566L17.1465 11.6355L19.1364 13.6253L21.0913 11.6355L19.1014 9.64566ZM12.364 16.418L8.97781 13.0318L6.98799 15.0217L12.364 20.3627L17.7051 15.0217L15.7502 13.0318L12.364 16.418ZM12.364 13.5904L14.3538 11.6006L12.364 9.64566L10.3742 11.6355L12.364 13.5904Z" fill="#F0B90B"/>
</svg>
