<svg width="24" height="24" viewBox="0 0 24 24" fill="none" xmlns="http://www.w3.org/2000/svg">
<circle cx="12" cy="12" r="11.5" fill="white" stroke="#D8DFE9"/>
<path fill-rule="evenodd" clip-rule="evenodd" d="M15.8281 9H16.7579V13.6256H15.8281V9Z" fill="#F7A600"/>
<path d="M4.99323 14.9986H3V10.373H4.91316C5.84295 10.373 6.3846 10.8797 6.3846 11.6723C6.3846 12.1855 6.03661 12.5171 5.79578 12.6276C6.08336 12.7573 6.45122 13.0497 6.45122 13.667C6.45122 14.5308 5.84295 14.9986 4.99323 14.9986ZM4.83951 11.1789H3.92979V12.2442H4.83951C5.23406 12.2442 5.45482 12.0299 5.45482 11.7115C5.45482 11.3932 5.23406 11.1789 4.83951 11.1789ZM4.89971 13.0563H3.92979V14.1934H4.89971C5.32116 14.1934 5.52144 13.9335 5.52144 13.6215C5.52144 13.3097 5.32075 13.0563 4.89971 13.0563Z" fill="#17181E"/>
<path d="M9.28827 13.1016V14.9986H8.3651V13.1016L6.93359 10.373H7.94366L8.83331 12.2376L9.70951 10.373H10.7194L9.28827 13.1016Z" fill="#17181E"/>
<path d="M13.3526 14.9986H11.3594V10.373H13.2723C14.2021 10.373 14.744 10.8797 14.744 11.6723C14.744 12.1855 14.396 12.5171 14.1552 12.6276C14.4425 12.7573 14.8106 13.0497 14.8106 13.667C14.8106 14.5308 14.2021 14.9986 13.3526 14.9986ZM13.1989 11.1789H12.2892V12.2442H13.1989C13.5934 12.2442 13.8142 12.0299 13.8142 11.7115C13.8142 11.3932 13.5934 11.1789 13.1989 11.1789ZM13.2589 13.0563H12.2892V14.1934H13.2589C13.6805 14.1934 13.8808 13.9335 13.8808 13.6215C13.8808 13.3097 13.6805 13.0563 13.2589 13.0563Z" fill="#17181E"/>
<path d="M19.7559 11.1789V14.999H18.8261V11.1789H17.582V10.373H21.0002V11.1789H19.7559Z" fill="#17181E"/>
</svg>
