<svg width="24" height="24" viewBox="0 0 24 24" fill="none" xmlns="http://www.w3.org/2000/svg">
<path d="M12 0C18.6273 0 24 5.37267 24 12C24 18.6273 18.6273 24 12 24C5.37267 24 0 18.6273 0 12C0 5.37267 5.37267 0 12 0Z" fill="#0052FF"/>
<path d="M12.0028 16.2165C9.67052 16.2165 7.78593 14.3267 7.78593 11.9996C7.78593 9.67248 9.67573 7.78267 12.0028 7.78267C14.0905 7.78267 15.8241 9.30285 16.1573 11.2968H20.4054C20.0462 6.96532 16.4228 3.56055 11.9976 3.56055C7.3382 3.56055 3.55859 7.34016 3.55859 11.9996C3.55859 16.659 7.3382 20.4386 11.9976 20.4386C16.4228 20.4386 20.0462 17.0339 20.4054 12.7024H16.1521C15.8189 14.6963 14.0905 16.2165 12.0028 16.2165Z" fill="white"/>
</svg>
