<svg width="24" height="24" viewBox="0 0 24 24" fill="none" xmlns="http://www.w3.org/2000/svg">
<g clip-path="url(#clip0_3278_31722)">
<path d="M12 0.5C18.3513 0.5 23.5 5.64873 23.5 12C23.5 18.3513 18.3513 23.5 12 23.5C5.64873 23.5 0.5 18.3513 0.5 12C0.5 5.64873 5.64873 0.5 12 0.5Z" fill="white" stroke="#D8DFE9"/>
<path d="M12.9375 6.60078V4.80078H11.1375V6.60078H12.9375Z" fill="#1A0C6D"/>
<path d="M9.26562 12.0008V4.80078H5.66562V12.0008H9.26562Z" fill="#1A0C6D"/>
<path d="M9.26562 19.2V12H5.66562V19.2H9.26562Z" fill="#1A0C6D"/>
<path d="M16.4648 12.0004V8.40039H14.6648V12.0004H16.4648Z" fill="#1A0C6D"/>
<path d="M14.6641 19.1996V15.5996H12.8641V19.1996H14.6641Z" fill="#1A0C6D"/>
<path d="M16.4648 19.1996V15.5996H14.6648V19.1996H16.4648Z" fill="#1A0C6D"/>
<path d="M11.0625 19.1996V15.5996H9.2625V19.1996H11.0625Z" fill="#1A0C6D"/>
<path d="M18.2656 8.40078V4.80078H16.4656V8.40078H18.2656Z" fill="#1A0C6D"/>
<path d="M14.6641 12.0008V4.80078H12.8641V12.0008H14.6641Z" fill="#1A0C6D"/>
<path d="M12.8633 19.2V12H11.0633V19.2H12.8633Z" fill="#1A0C6D"/>
</g>
<defs>
<clipPath id="clip0_3278_31722">
<rect width="24" height="24" rx="12" fill="white"/>
</clipPath>
</defs>
</svg>
