<svg width="24" height="24" viewBox="0 0 24 24" fill="none" xmlns="http://www.w3.org/2000/svg">
<circle cx="12" cy="12" r="11.5" fill="white" stroke="#D8DFE9"/>
<path d="M20.9886 13.1219L20.3079 10.4654C20.2884 10.3873 20.2255 10.3265 20.1475 10.307L17.518 9.65808C17.4985 9.65374 17.4768 9.65157 17.4573 9.65157C17.3944 9.64506 17.3294 9.66459 17.2817 9.71232L12.8443 14.1549L12.2569 11.8588C12.2374 11.7806 12.1745 11.7198 12.0964 11.7003L9.83762 11.1425L14.2729 6.70214C14.2989 6.6761 14.314 6.64351 14.3249 6.61097C14.3444 6.56757 14.3509 6.51767 14.3379 6.46989L13.6572 3.81347C13.6377 3.73534 13.5748 3.67457 13.4968 3.65504L10.8673 3.00612C10.8153 2.9931 10.7633 3.00178 10.7177 3.02348H10.7156C10.7026 3.02999 10.6917 3.03867 10.6787 3.04736C10.6679 3.05603 10.6527 3.06038 10.6441 3.07123L3.07426 10.6455C3.07426 10.6455 3.06125 10.6672 3.05258 10.6781C3.00489 10.7346 2.98755 10.8083 3.00923 10.88L3.7441 13.4474C3.76577 13.5212 3.82214 13.5776 3.89367 13.5972L6.35624 14.3046L7.06292 16.7679C7.0846 16.8418 7.14096 16.8982 7.2125 16.9177L9.68371 17.6274L10.3926 20.1015C10.4143 20.1753 10.4707 20.2317 10.5422 20.2513L13.1174 20.9913C13.137 20.9978 13.1587 21 13.1782 21C13.1825 21 13.1868 20.9978 13.1933 20.9978C13.1933 20.9978 13.1955 20.9978 13.1977 20.9978C13.254 20.9978 13.3104 20.9761 13.3537 20.9327L20.9257 13.3519C20.9517 13.3259 20.9669 13.2933 20.9777 13.2608C20.9972 13.2174 21.0037 13.1674 20.9907 13.1197L20.9886 13.1219ZM17.5939 16.067L17.0411 13.9075L18.2658 12.6834L20.3708 13.289L17.596 16.0691L17.5939 16.067ZM13.2996 20.3663L12.7468 18.2068L14.9622 15.9888L17.0671 16.5943L13.2996 20.3663ZM15.0078 15.3225L14.4788 13.4778L16.3799 13.9466L15.0078 15.3204V15.3225ZM16.6812 14.2678L17.1668 16.1624L15.3177 15.6307L16.6812 14.2656V14.2678ZM16.7441 13.5841L14.5894 13.0524L17.3576 10.281L17.9559 12.3709L16.7441 13.5841ZM14.0539 13.5863L14.6522 15.6763L12.4476 17.8835L10.2929 17.3518L14.0539 13.5863ZM19.9155 10.6976L20.4683 12.8571L18.3786 12.2559L17.7803 10.1703L19.9155 10.6976ZM9.9677 17.0306L9.41495 14.8711L10.2127 14.0724L12.3175 14.678L9.9677 17.0306ZM10.2582 13.4062L9.72927 11.5614L11.6304 12.0302L10.2582 13.404V13.4062ZM12.4173 14.2482L10.5682 13.7165L11.9317 12.3514L12.4173 14.2461V14.2482ZM9.90485 13.7621L9.11796 14.5499L6.96321 14.0182L9.30654 11.6721L9.90485 13.7621ZM7.42494 6.91047L8.02325 9.00049L5.79912 11.2272L3.64438 10.6954L7.42494 6.91047ZM10.7091 3.62248L11.3074 5.71247L10.1151 6.90613L7.96037 6.37443L10.7091 3.62248ZM10.9649 9.38895L10.4121 7.23167L11.6174 6.02497L13.7222 6.62832L10.9649 9.38895ZM8.37874 8.6467L7.84982 6.80194L9.75094 7.27072L8.37874 8.64453V8.6467ZM10.0523 7.59192L10.5378 9.48663L8.6909 8.95488L10.0544 7.58975L10.0523 7.59192ZM8.3354 9.31084L10.4403 9.91414L6.65322 13.7057L6.10044 11.5484L8.3354 9.31084ZM13.267 4.04352L13.8198 6.20298L11.7301 5.60179L11.1318 3.51614L13.267 4.04352ZM3.53599 11.123L5.43711 11.5918L4.06492 12.9656L3.53599 11.1208V11.123ZM4.37491 13.2781L5.73843 11.913L6.224 13.8077L4.37708 13.276L4.37491 13.2781ZM7.45095 16.5314L6.85265 14.4457L8.98789 14.9731L9.54069 17.1326L7.45095 16.5314ZM10.1845 17.7793L12.0856 18.2481L10.7134 19.6219L10.1845 17.7771V17.7793ZM11.0234 19.9344L12.3869 18.5693L12.8725 20.464L11.0234 19.9323V19.9344Z" fill="#655EA8"/>
</svg>
