<svg width="24" height="24" viewBox="0 0 24 24" fill="none" xmlns="http://www.w3.org/2000/svg">
<circle cx="12" cy="12" r="11.5" fill="white" stroke="#D8DFE9"/>
<g clip-path="url(#clip0_3257_29407)">
<path d="M6.79648 14.5977C6.84179 14.6911 6.89058 14.7827 6.94277 14.8725C7.01797 15.0037 7.05488 15.0871 7.04395 15.1049C7.03574 15.1213 6.57363 15.6148 6.01719 16.2041C5.46074 16.7934 5.00547 17.2773 5 17.2896C5.55929 17.8525 6.12766 18.4063 6.70488 18.9508L6.76367 19L7.64551 18.0676L8.65449 16.9984L8.78301 16.8658L8.90469 16.9437C9.07303 17.0524 9.2474 17.1515 9.42695 17.2404C9.53769 16.6594 9.7373 16.092 9.9793 15.541L9.89453 15.5C9.16035 15.1199 8.70918 14.3242 8.44121 13.482C8.2396 13.5606 8.04442 13.6548 7.85742 13.7637C7.46777 14.0275 7.17109 14.3379 6.79648 14.5977ZM9.97656 7.76172C9.86992 7.60039 9.75371 7.4459 9.63887 7.29004C9.38429 7.22718 9.15836 7.08026 8.99766 6.87305L8.86094 6.95781L8.70508 6.80332C8.42512 6.5309 8.14393 6.25974 7.86152 5.98984C7.48418 5.62617 7.09863 5.25566 7.00703 5.16406L6.84023 5L6.00625 5.88594C5.54824 6.37266 5.1709 6.78008 5.1668 6.78828C5.1627 6.79648 5.57559 7.20801 6.08281 7.69609L7.06309 8.64355L7.12188 8.69824L7.0166 8.87324C6.97832 8.93704 6.94186 9.00176 6.90723 9.06738C7.44043 9.41875 7.9873 9.74688 8.54512 10.075C8.90605 9.39688 9.58965 8.81172 10.3662 8.43301C10.2795 8.30344 10.1907 8.17536 10.0996 8.04883C10.0312 7.95312 10.0312 7.85742 9.97656 7.76172ZM17.034 8.90742L16.9615 8.78027L17.9418 7.74121C18.4805 7.17246 18.918 6.69805 18.9139 6.68848C18.9016 6.65293 17.183 5.00957 17.1611 5.00957C17.1475 5.00957 16.7127 5.45527 16.2 6.00078C15.6846 6.54492 15.2566 6.99473 15.2471 6.99883C15.2375 7.00293 15.1924 6.97832 15.1432 6.94414C15.0461 6.87852 14.558 7.09453 14.2408 7.17246C14.0631 7.56895 13.9086 7.975 13.7514 8.37695C13.9224 8.4659 14.0868 8.56687 14.2436 8.6791C14.4979 8.86094 15.1035 9.33809 15.2826 9.59512C15.3264 9.65801 15.3674 9.72363 15.407 9.79063C15.9771 9.55 16.5596 9.33125 17.1297 9.08242C17.0955 9.0168 17.0641 8.95801 17.0354 8.90879L17.034 8.90742ZM17.1447 15.392L16.9123 15.1678L17.0176 14.99C17.0586 14.9217 17.0982 14.852 17.1365 14.7809C16.6498 14.3543 16.1932 13.9305 15.6709 13.5258C15.4822 14.0932 15.1924 14.5977 14.8027 14.9668C14.599 15.1582 14.3488 15.3223 14.0658 15.4549L14.0918 15.582C14.2012 16.1016 14.502 16.498 14.7207 16.9629C14.7481 17.0202 14.771 17.0797 14.7891 17.1406C14.8602 17.1014 14.9299 17.0613 14.9982 17.0203L15.176 16.9109L15.3633 17.0996C16.0094 17.7288 16.6588 18.3545 17.3115 18.9768C17.3293 18.9822 19.0027 17.2104 19 17.1898C18.9986 17.1789 17.8475 16.0633 17.1447 15.3934V15.392Z" fill="black"/>
<path d="M12.0065 17.9915C10.6258 17.9909 9.28775 17.513 8.21908 16.6388C7.15041 15.7646 6.41683 14.5478 6.14265 13.1946C5.86847 11.8414 6.07055 10.435 6.71464 9.21372C7.35873 7.99246 8.40522 7.03142 9.6768 6.49345C11.1392 5.87558 12.7871 5.86394 14.258 6.46108C15.729 7.05823 16.9025 8.21526 17.5204 9.67763C18.1382 11.14 18.1499 12.7879 17.5527 14.2589C16.9556 15.7298 15.7985 16.9033 14.3362 17.5212C13.5992 17.8331 12.8068 17.9931 12.0065 17.9915ZM12.0065 8.3665C9.99946 8.3665 8.36567 10.0003 8.36567 12.0073C8.36567 14.0143 9.99946 15.6481 12.0065 15.6481C14.0135 15.6481 15.6473 14.0143 15.6473 12.0073C15.6473 10.0003 14.0135 8.3665 12.0065 8.3665Z" fill="black"/>
</g>
<defs>
<clipPath id="clip0_3257_29407">
<rect width="14" height="14" fill="white" transform="translate(5 5)"/>
</clipPath>
</defs>
</svg>
