<svg width="24" height="24" viewBox="0 0 24 24" fill="none" xmlns="http://www.w3.org/2000/svg">
<circle cx="12" cy="12" r="11.5" fill="white" stroke="#D8DFE9"/>
<path d="M14.3193 6.82748C13.6007 6.52372 12.8283 6.36784 12.0481 6.36914C11.2422 6.36914 10.4751 6.53201 9.77734 6.82748L11.863 3.20528C11.8817 3.17314 11.9084 3.14646 11.9407 3.12791C11.9729 3.10937 12.0094 3.09961 12.0466 3.09961C12.0837 3.09961 12.1202 3.10937 12.1525 3.12791C12.1847 3.14646 12.2114 3.17314 12.2301 3.20528L14.3171 6.82748H14.3193Z" fill="url(#paint0_linear_3278_31409)"/>
<path d="M9.22401 7.09823C8.53457 7.48117 7.92955 7.99938 7.44522 8.6218C6.9609 9.24422 6.60724 9.95802 6.40546 10.7204L4.85468 6.76093C4.84099 6.72627 4.83667 6.68861 4.84215 6.65175C4.84763 6.61488 4.86272 6.58011 4.88591 6.55093C4.90909 6.52175 4.93955 6.49919 4.97422 6.48551C5.00889 6.47183 5.04654 6.46753 5.08341 6.47302L9.22401 7.09823Z" fill="url(#paint1_linear_3278_31409)"/>
<path d="M7.45443 15.8311L3.24352 14.5282C3.20797 14.5171 3.17594 14.4969 3.15063 14.4696C3.12531 14.4423 3.10758 14.4089 3.09921 14.3726C3.09084 14.3363 3.09211 14.2985 3.10291 14.2629C3.11371 14.2272 3.13365 14.1951 3.16075 14.1695L6.28901 11.2598C6.23692 11.5774 6.21073 11.8987 6.21069 12.2205C6.21069 13.5835 6.6757 14.8375 7.45488 15.8311H7.45443Z" fill="url(#paint2_linear_3278_31409)"/>
<path d="M11.9618 18.0692L8.26974 20.591C8.23904 20.6123 8.20325 20.625 8.16602 20.6279C8.12879 20.6308 8.09146 20.6238 8.05783 20.6075C8.02421 20.5913 7.9955 20.5664 7.97464 20.5354C7.95378 20.5045 7.94152 20.4685 7.93911 20.4312L7.60938 16.0156C8.14648 16.6483 8.81277 17.1588 9.56348 17.5127C10.3142 17.8666 11.1319 18.0557 11.9618 18.0675V18.0692Z" fill="url(#paint3_linear_3278_31409)"/>
<path d="M16.4763 16.0352L16.1484 20.4281C16.1439 20.484 16.1176 20.5359 16.0751 20.5726C16.0326 20.6093 15.9774 20.6277 15.9214 20.6239C15.8842 20.6214 15.8483 20.6091 15.8173 20.5883L12.1328 18.0705C12.9598 18.0596 13.775 17.8725 14.524 17.5215C15.2729 17.1705 15.9388 16.6638 16.4763 16.0352Z" fill="url(#paint4_linear_3278_31409)"/>
<path d="M20.8528 14.5126L16.6602 15.8093C17.4587 14.7827 17.8911 13.5187 17.8888 12.2182C17.8888 11.8867 17.8603 11.561 17.8078 11.2441L20.9343 14.1521C21.0544 14.2638 21.0081 14.4641 20.8528 14.5112V14.5126Z" fill="url(#paint5_linear_3278_31409)"/>
<path d="M19.2449 6.76919L17.6964 10.7278C17.4952 9.96626 17.1428 9.25304 16.6601 8.63064C16.1774 8.00825 15.5743 7.48944 14.8867 7.10515L19.0162 6.48084C19.0531 6.47534 19.0907 6.47965 19.1254 6.49332C19.1601 6.507 19.1905 6.52956 19.2137 6.55874C19.2369 6.58792 19.252 6.62269 19.2575 6.65956C19.2629 6.69642 19.2586 6.73408 19.2449 6.76874V6.76919Z" fill="url(#paint6_linear_3278_31409)"/>
<path d="M12.0475 19.334C11.8425 19.3342 11.6395 19.3748 11.4502 19.4535C11.2608 19.5322 11.0889 19.6474 10.9441 19.7926C10.7993 19.9378 10.6845 20.11 10.6063 20.2996C10.5281 20.4891 10.488 20.6922 10.4883 20.8972H13.6085C13.6088 20.6922 13.5687 20.4891 13.4905 20.2996C13.4123 20.11 13.2975 19.9378 13.1527 19.7926C13.0079 19.6474 12.836 19.5322 12.6466 19.4535C12.4573 19.3748 12.2543 19.3342 12.0493 19.334H12.0475Z" fill="url(#paint7_linear_3278_31409)"/>
<path d="M17.7508 16.7697C17.4927 17.0942 17.3737 17.5077 17.4199 17.9198C17.4661 18.3318 17.6738 18.7087 17.9974 18.968L19.942 16.5228C19.7819 16.3948 19.5981 16.2996 19.4012 16.2428C19.2043 16.1859 18.9981 16.1685 18.7944 16.1915C18.5907 16.2145 18.3936 16.2774 18.2143 16.3767C18.035 16.476 17.877 16.6097 17.7495 16.7702H17.7508V16.7697Z" fill="url(#paint8_linear_3278_31409)"/>
<path d="M19.0319 10.7254C19.077 10.9254 19.1611 11.1146 19.2795 11.2821C19.3978 11.4495 19.548 11.5919 19.7216 11.7012C19.8951 11.8105 20.0884 11.8844 20.2906 11.9188C20.4927 11.9532 20.6997 11.9473 20.8996 11.9015L20.2049 8.85156C20.0049 8.89743 19.8159 8.98227 19.6487 9.10121C19.4815 9.22015 19.3394 9.37088 19.2304 9.54477C19.1215 9.71867 19.0479 9.91232 19.0139 10.1147C18.9798 10.317 18.9859 10.5241 19.0319 10.7241V10.7254Z" fill="url(#paint9_linear_3278_31409)"/>
<path d="M15.2033 5.94379C15.388 6.03297 15.5885 6.08479 15.7932 6.09629C15.998 6.10779 16.203 6.07874 16.3965 6.01081C16.59 5.94288 16.7681 5.83741 16.9208 5.70044C17.0734 5.56348 17.1975 5.39772 17.2859 5.21268L14.4753 3.85547C14.2953 4.22915 14.2711 4.65899 14.4078 5.05056C14.5446 5.44213 14.8312 5.7634 15.2047 5.94379H15.2029H15.2033Z" fill="url(#paint10_linear_3278_31409)"/>
<path d="M8.82517 5.94379C9.19833 5.76307 9.48456 5.44169 9.62104 5.05018C9.75752 4.65867 9.73311 4.22901 9.55317 3.85547L6.74219 5.21268C6.8308 5.39758 6.95503 5.56317 7.10776 5.69997C7.26049 5.83677 7.43871 5.94209 7.63222 6.00988C7.82572 6.07768 8.0307 6.10662 8.23541 6.09505C8.44013 6.08348 8.64054 6.03163 8.82517 5.94246V5.94379Z" fill="url(#paint11_linear_3278_31409)"/>
<path d="M5.10634 10.7256C5.19856 10.3216 5.12663 9.89746 4.90636 9.54644C4.68609 9.19542 4.33548 8.9462 3.93157 8.85352L3.23828 11.903C3.43826 11.9486 3.64527 11.9543 3.84746 11.9198C4.04964 11.8852 4.24303 11.8112 4.41655 11.7018C4.59007 11.5924 4.74031 11.4499 4.85867 11.2824C4.97704 11.1149 5.0612 10.9257 5.10634 10.7256Z" fill="url(#paint12_linear_3278_31409)"/>
<path d="M4.37109 16.5227L6.31702 18.968C6.64071 18.7088 6.84843 18.3319 6.89464 17.9198C6.94085 17.5077 6.82179 17.0941 6.56355 16.7697C6.43594 16.6093 6.27796 16.4757 6.09865 16.3765C5.91933 16.2773 5.7222 16.2144 5.51855 16.1914C5.3149 16.1685 5.10872 16.1859 4.91182 16.2428C4.71493 16.2997 4.53118 16.3948 4.37109 16.5227Z" fill="url(#paint13_linear_3278_31409)"/>
<defs>
<linearGradient id="paint0_linear_3278_31409" x1="9.39065" y1="4.96298" x2="14.3189" y2="4.96298" gradientUnits="userSpaceOnUse">
<stop stop-color="#E35930"/>
<stop offset="1" stop-color="#E84125"/>
</linearGradient>
<linearGradient id="paint1_linear_3278_31409" x1="4.54052" y1="8.59517" x2="9.22401" y2="8.59517" gradientUnits="userSpaceOnUse">
<stop stop-color="#E35930"/>
<stop offset="1" stop-color="#E84125"/>
</linearGradient>
<linearGradient id="paint2_linear_3278_31409" x1="2.95472" y1="13.5452" x2="7.45443" y2="13.5452" gradientUnits="userSpaceOnUse">
<stop stop-color="#E35930"/>
<stop offset="1" stop-color="#E84125"/>
</linearGradient>
<linearGradient id="paint3_linear_3278_31409" x1="7.52661" y1="18.3224" x2="11.9618" y2="18.3224" gradientUnits="userSpaceOnUse">
<stop stop-color="#E35930"/>
<stop offset="1" stop-color="#E84125"/>
</linearGradient>
<linearGradient id="paint4_linear_3278_31409" x1="11.9824" y1="18.3295" x2="16.4763" y2="18.3295" gradientUnits="userSpaceOnUse">
<stop stop-color="#E35930"/>
<stop offset="1" stop-color="#E84125"/>
</linearGradient>
<linearGradient id="paint5_linear_3278_31409" x1="16.3847" y1="13.5265" x2="21.0019" y2="13.5265" gradientUnits="userSpaceOnUse">
<stop stop-color="#E35930"/>
<stop offset="1" stop-color="#E84125"/>
</linearGradient>
<linearGradient id="paint6_linear_3278_31409" x1="14.5169" y1="8.60209" x2="19.2601" y2="8.60209" gradientUnits="userSpaceOnUse">
<stop stop-color="#E35930"/>
<stop offset="1" stop-color="#E84125"/>
</linearGradient>
<linearGradient id="paint7_linear_3278_31409" x1="12.7355" y1="19.492" x2="11.5611" y2="21.5207" gradientUnits="userSpaceOnUse">
<stop stop-color="#E35930"/>
<stop offset="1" stop-color="#E84125"/>
</linearGradient>
<linearGradient id="paint8_linear_3278_31409" x1="18.3057" y1="16.3016" x2="19.1641" y2="18.4838" gradientUnits="userSpaceOnUse">
<stop stop-color="#E35930"/>
<stop offset="1" stop-color="#E84125"/>
</linearGradient>
<linearGradient id="paint9_linear_3278_31409" x1="19.0284" y1="10.0112" x2="21.2658" y2="10.6996" gradientUnits="userSpaceOnUse">
<stop stop-color="#E35930"/>
<stop offset="1" stop-color="#E84125"/>
</linearGradient>
<linearGradient id="paint10_linear_3278_31409" x1="14.6493" y1="5.50281" x2="16.5859" y2="4.18565" gradientUnits="userSpaceOnUse">
<stop stop-color="#E35930"/>
<stop offset="1" stop-color="#E84125"/>
</linearGradient>
<linearGradient id="paint11_linear_3278_31409" x1="8.16704" y1="6.112" x2="8.34281" y2="3.77315" gradientUnits="userSpaceOnUse">
<stop stop-color="#E35930"/>
<stop offset="1" stop-color="#E84125"/>
</linearGradient>
<linearGradient id="paint12_linear_3278_31409" x1="4.84513" y1="11.3601" x2="3.1257" y2="9.76885" gradientUnits="userSpaceOnUse">
<stop stop-color="#E35930"/>
<stop offset="1" stop-color="#E84125"/>
</linearGradient>
<linearGradient id="paint13_linear_3278_31409" x1="6.91242" y1="17.382" x2="4.59804" y2="17.7304" gradientUnits="userSpaceOnUse">
<stop stop-color="#E35930"/>
<stop offset="1" stop-color="#E84125"/>
</linearGradient>
</defs>
</svg>
