<svg width="24" height="24" viewBox="0 0 24 24" fill="none" xmlns="http://www.w3.org/2000/svg">
<circle cx="12" cy="12" r="11.5" fill="white" stroke="#D8DFE9"/>
<path d="M19 6.7503V15.1013C19 16.6203 17.8079 17.8516 16.3379 17.8516C15.626 17.8516 14.9792 17.5625 14.5018 17.0914C13.8515 16.4509 13.113 15.7369 12.2142 15.7369C11.3154 15.7369 10.5902 16.4285 9.9714 17.0893C9.4457 17.6514 8.7086 18 7.8924 18C6.295 18 5 16.6616 5 15.011C5 13.3604 6.295 12.022 7.8924 12.022C8.9508 12.022 9.8762 12.6093 10.3802 13.4857C10.7848 14.1885 11.405 14.871 12.196 14.871C12.987 14.871 13.6765 14.1864 13.6765 13.3415V6.7503C13.6765 5.2313 14.8679 4 16.3379 4C17.8079 4 19 5.2313 19 6.7503Z" fill="#FFD600"/>
</svg>
