<svg width="24" height="24" viewBox="0 0 24 24" fill="none" xmlns="http://www.w3.org/2000/svg">
<g clip-path="url(#clip0_3259_29490)">
<path d="M12 24C18.6274 24 24 18.6274 24 12C24 5.37258 18.6274 0 12 0C5.37258 0 0 5.37258 0 12C0 18.6274 5.37258 24 12 24Z" fill="#141726"/>
<path d="M16.0798 17.0668C14.0758 13.8118 11.0878 11.9668 7.39776 11.1988C6.09276 10.9288 4.78176 10.9318 3.51576 11.4298C2.64876 11.7718 2.51676 12.1318 2.92476 13.0408C5.69676 12.3838 8.27676 12.9958 10.6918 14.3908C13.1248 15.7978 14.9398 17.7568 15.7648 20.5408C16.9228 20.1868 17.0728 19.9918 16.7938 18.9148C16.6288 18.2818 16.4218 17.6218 16.0798 17.0668Z" fill="url(#paint0_linear_3259_29490)"/>
<path d="M18.2742 14.4173C15.7002 10.6673 12.0552 8.57028 7.60019 7.86828C6.42119 7.68228 5.21819 7.73328 4.11419 8.29728C3.58619 8.56728 3.11819 8.91228 2.99219 9.64428C6.46619 8.68728 9.58319 9.53328 12.5172 11.2343C15.4662 12.9443 17.7702 15.2393 18.6672 18.7673C19.2912 18.2153 19.4022 17.5373 19.2402 16.9073C19.0182 16.0433 18.7662 15.1343 18.2742 14.4173Z" fill="url(#paint1_linear_3259_29490)"/>
<path d="M3.14844 14.6581C3.36744 15.1441 3.51144 15.6931 3.83844 16.0861C4.00344 16.2871 4.50444 16.2091 4.85244 16.2571C4.90644 16.2631 4.96044 16.2721 5.01444 16.2781C8.10144 16.7371 10.5374 18.2311 12.2774 20.8381C12.3794 20.9911 12.5444 21.2191 12.6794 21.2191C13.2014 21.2161 13.7264 21.1351 14.2544 21.0841C13.4684 16.7251 6.98244 13.1491 3.14844 14.6581Z" fill="url(#paint2_linear_3259_29490)"/>
<path d="M19.6978 11.0001C17.9968 8.62115 15.6508 7.03715 12.9868 5.90915C11.1418 5.12615 9.23078 4.65515 7.20278 4.89815C6.50078 4.98215 5.84378 5.18315 5.30078 5.63915C12.2278 5.81315 17.4388 8.81315 21.0208 14.7381C21.0268 14.3451 21.0868 13.9071 20.9428 13.5531C20.5828 12.6741 20.2408 11.7591 19.6978 11.0001Z" fill="url(#paint3_linear_3259_29490)"/>
<path d="M21.294 9.75848C19.884 4.39148 14.154 1.80848 9.91797 3.11648C14.481 4.01648 18.225 6.19148 21.294 9.75848Z" fill="url(#paint4_linear_3259_29490)"/>
<path d="M4.66016 17.5163C6.29816 19.5953 8.38016 20.8073 11.0502 21.2003C10.0302 19.2953 6.43616 17.2343 4.66016 17.5163Z" fill="url(#paint5_linear_3259_29490)"/>
</g>
<defs>
<linearGradient id="paint0_linear_3259_29490" x1="17.2475" y1="4.02363" x2="7.45553" y2="19.7304" gradientUnits="userSpaceOnUse">
<stop offset="0.16" stop-color="#C6F462"/>
<stop offset="0.89" stop-color="#33D9FF"/>
</linearGradient>
<linearGradient id="paint1_linear_3259_29490" x1="17.1789" y1="3.97937" x2="7.38718" y2="19.6862" gradientUnits="userSpaceOnUse">
<stop offset="0.16" stop-color="#C6F462"/>
<stop offset="0.89" stop-color="#33D9FF"/>
</linearGradient>
<linearGradient id="paint2_linear_3259_29490" x1="17.3089" y1="4.06305" x2="7.51718" y2="19.7699" gradientUnits="userSpaceOnUse">
<stop offset="0.16" stop-color="#C6F462"/>
<stop offset="0.89" stop-color="#33D9FF"/>
</linearGradient>
<linearGradient id="paint3_linear_3259_29490" x1="17.0706" y1="3.9126" x2="7.2786" y2="19.6194" gradientUnits="userSpaceOnUse">
<stop offset="0.16" stop-color="#C6F462"/>
<stop offset="0.89" stop-color="#33D9FF"/>
</linearGradient>
<linearGradient id="paint4_linear_3259_29490" x1="17.1509" y1="3.96273" x2="7.35889" y2="19.6695" gradientUnits="userSpaceOnUse">
<stop offset="0.16" stop-color="#C6F462"/>
<stop offset="0.89" stop-color="#33D9FF"/>
</linearGradient>
<linearGradient id="paint5_linear_3259_29490" x1="17.3693" y1="4.09993" x2="7.5776" y2="19.8067" gradientUnits="userSpaceOnUse">
<stop offset="0.16" stop-color="#C6F462"/>
<stop offset="0.89" stop-color="#33D9FF"/>
</linearGradient>
<clipPath id="clip0_3259_29490">
<rect width="24" height="24" fill="white"/>
</clipPath>
</defs>
</svg>
