<svg width="24" height="24" viewBox="0 0 24 24" fill="none" xmlns="http://www.w3.org/2000/svg">
<circle cx="12" cy="12" r="11.5" fill="white" stroke="#D8DFE9"/>
<g clip-path="url(#clip0_3257_29223)">
<path d="M20.5725 12.5714C20.5725 11.8969 20.3103 11.2626 19.8328 10.786C19.3665 10.3197 18.7494 10.06 18.092 10.0489C18.5308 9.59457 18.8025 8.97743 18.8025 8.29686C18.8025 6.904 17.6694 5.77086 16.2765 5.77086C15.5968 5.77086 14.9797 6.04257 14.5245 6.48143C14.5134 5.824 14.2537 5.20686 13.7874 4.74057C13.31 4.26229 12.6757 4 12.0011 4C11.3265 4 10.6923 4.26229 10.2148 4.73971C9.74854 5.206 9.48883 5.82314 9.47683 6.48057C9.02254 6.04171 8.4054 5.77086 7.72569 5.77086C6.33283 5.77086 5.19969 6.904 5.19969 8.29686C5.19969 8.97657 5.4714 9.59371 5.91026 10.0489C5.25283 10.06 4.63569 10.3197 4.1694 10.786C3.69197 11.2626 3.42969 11.8969 3.42969 12.5714C3.42969 13.246 3.69197 13.8803 4.1694 14.3577C4.63569 14.824 5.25283 15.0837 5.91026 15.0957C5.4714 15.55 5.20054 16.1671 5.20054 16.8469C5.20054 18.2397 6.33369 19.3729 7.72654 19.3729C8.40626 19.3729 9.0234 19.1011 9.47769 18.6631C9.48883 19.3206 9.74854 19.9377 10.2157 20.404C10.6828 20.8703 11.3274 21.1437 12.002 21.1437C12.6765 21.1437 13.3108 20.8806 13.7874 20.404C14.2537 19.9377 14.5134 19.3206 14.5245 18.6623C14.9788 19.1011 15.596 19.3729 16.2765 19.3729C17.6694 19.3729 18.8025 18.2397 18.8025 16.8469C18.8025 16.1671 18.5308 15.55 18.0928 15.0957C18.7503 15.0846 19.3674 14.8249 19.8337 14.3577C20.3111 13.8803 20.5734 13.246 20.5734 12.5714H20.5725ZM13.7505 14.3209V16.7954L12.0011 15.046L10.2517 16.7954V14.3209H7.77797L9.5274 12.5714L7.77797 10.822H10.2517V8.34829L12.0011 10.0977L13.7505 8.34829V10.822H16.2243L14.4748 12.5714L16.2243 14.3209H13.7505ZM14.6531 8.29686C14.6531 7.402 15.3817 6.67343 16.2765 6.67343C17.1714 6.67343 17.9 7.402 17.9 8.29686C17.9 9.19171 17.1714 9.92029 16.2765 9.92029H14.6531V8.29686ZM10.8534 5.37743C11.1697 5.06114 11.5854 4.90257 12.0011 4.90257C12.4168 4.90257 12.8325 5.06114 13.1488 5.37743C13.7814 6.01086 13.7814 7.04029 13.1488 7.67371L12.0011 8.82143L10.8534 7.67371C10.5465 7.36686 10.3777 6.95971 10.3777 6.526C10.3777 6.09229 10.5465 5.68514 10.8534 5.37829V5.37743ZM7.72654 6.67257C8.6214 6.67257 9.34997 7.40114 9.34997 8.296V9.91943H7.72654C6.83169 9.91943 6.10312 9.19086 6.10312 8.296C6.10312 7.40114 6.83169 6.67257 7.72654 6.67257ZM4.80712 11.4237C5.1234 11.1074 5.53912 10.9489 5.95483 10.9489C6.37054 10.9489 6.78626 11.1074 7.10254 11.4237L8.25026 12.5714L7.10254 13.7191C6.79569 14.026 6.38854 14.1949 5.95483 14.1949C5.52112 14.1949 5.11397 14.026 4.80712 13.7191C4.17454 13.0857 4.17454 12.0563 4.80712 11.4229V11.4237ZM9.34912 16.8469C9.34912 17.7417 8.62054 18.4703 7.72569 18.4703C6.83083 18.4703 6.10226 17.7417 6.10226 16.8469C6.10226 15.952 6.83083 15.2234 7.72569 15.2234H9.34912V16.8469ZM13.1488 19.7654C12.5154 20.3989 11.486 20.398 10.8525 19.7654C10.22 19.132 10.22 18.1026 10.8525 17.4691L12.0003 16.3214L13.148 17.4691C13.4548 17.776 13.6237 18.1831 13.6237 18.6169C13.6237 19.0506 13.4548 19.4586 13.148 19.7646L13.1488 19.7654ZM17.4234 17.9946C17.1165 18.3006 16.7094 18.4703 16.2757 18.4703C15.3808 18.4703 14.6523 17.7417 14.6523 16.8469V15.2234H16.2757C16.7094 15.2234 17.1165 15.3923 17.4234 15.6991C17.7303 16.006 17.8991 16.4131 17.8991 16.8469C17.8991 17.2806 17.7303 17.6886 17.4234 17.9946ZM19.1943 13.72C18.8874 14.0269 18.4803 14.1957 18.0465 14.1957C17.6128 14.1957 17.2048 14.0269 16.8988 13.72L15.7511 12.5723L16.8988 11.4246C17.5323 10.7911 18.5617 10.792 19.1951 11.4246C19.8277 12.058 19.8277 13.0874 19.1951 13.7209L19.1943 13.72Z" fill="black"/>
</g>
<defs>
<clipPath id="clip0_3257_29223">
<rect width="17.1429" height="17.1429" fill="white" transform="translate(3.42969 4)"/>
</clipPath>
</defs>
</svg>
