<svg width="24" height="24" viewBox="0 0 24 24" fill="none" xmlns="http://www.w3.org/2000/svg">
<circle cx="12" cy="12" r="11.5" fill="white" stroke="#D8DFE9"/>
<g clip-path="url(#clip0_3257_29176)">
<mask id="mask0_3257_29176" style="mask-type:luminance" maskUnits="userSpaceOnUse" x="4" y="4" width="16" height="16">
<path d="M20 4H4V20H20V4Z" fill="white"/>
</mask>
<g mask="url(#mask0_3257_29176)">
<path d="M10.7559 4.10629C10.8094 4.43784 10.8626 4.76958 10.9159 5.10113C10.9406 5.25509 10.9653 5.40904 10.9902 5.56318C11.0119 5.6974 11.0334 5.83162 11.0549 5.96584C11.0663 6.03695 11.0777 6.10789 11.0893 6.179C11.1001 6.24584 11.1108 6.31287 11.1214 6.37972C11.1253 6.40424 11.1293 6.42877 11.1333 6.45332C11.1389 6.48692 11.1442 6.52052 11.1495 6.55412C11.1525 6.57284 11.1555 6.5918 11.1586 6.611C11.1655 6.67127 11.1661 6.73012 11.165 6.79072C11.0697 6.819 10.9741 6.84247 10.8772 6.86397C10.8631 6.86717 10.8488 6.87044 10.8345 6.87375C10.8202 6.87708 10.8063 6.88015 10.7931 6.883C10.7808 6.88567 10.7685 6.88852 10.7559 6.89135C10.7322 6.89538 10.6967 6.8974 10.6493 6.8974C10.7547 7.3118 10.8637 7.72532 10.9757 8.13792C10.9908 8.19357 11.0057 8.24904 11.0208 8.30469C11.032 8.34629 11.0434 8.38789 11.0546 8.42949C11.0693 8.48407 11.0841 8.53864 11.0989 8.59322C11.1321 8.71624 11.1657 8.83909 11.2002 8.96175C11.2155 9.01615 11.2308 9.07055 11.2459 9.12512C11.2532 9.15072 11.2605 9.17652 11.2677 9.20212C11.2779 9.23732 11.2878 9.27269 11.2976 9.30807C11.3033 9.32797 11.309 9.34789 11.3149 9.36852C11.325 9.42362 11.3241 9.45792 11.3069 9.51092C11.2862 9.52394 11.2624 9.53444 11.2354 9.54237C11.2206 9.547 11.2057 9.5518 11.1904 9.5566C11.1745 9.56133 11.1585 9.56608 11.1422 9.57082C11.0055 9.61437 10.8857 9.66432 10.7616 9.73687C10.7339 9.75215 10.7082 9.7598 10.6845 9.7598C10.6777 9.74807 10.6709 9.73632 10.664 9.72407C10.541 9.51037 10.4178 9.29704 10.2933 9.08424C10.1956 8.91695 10.0987 8.74932 10.002 8.58132C9.91769 8.435 9.83271 8.28922 9.74756 8.14345C9.69138 8.04744 9.63573 7.95109 9.58045 7.85437C9.56818 7.83304 9.55591 7.81172 9.54383 7.7902C9.52036 7.74912 9.49706 7.70807 9.47361 7.667C9.46311 7.64852 9.45245 7.63002 9.44161 7.611C9.43236 7.59464 9.42293 7.57829 9.41333 7.5614C9.38951 7.52407 9.36623 7.49597 9.33333 7.46629C9.28853 7.49402 9.24373 7.52175 9.19893 7.54967C9.18649 7.55749 9.17386 7.56512 9.16106 7.57312C9.09903 7.61172 9.03965 7.651 8.98186 7.69562C8.9437 7.72063 8.91247 7.73207 8.88818 7.72992C8.84658 7.71232 8.83343 7.69652 8.80853 7.65917C8.80036 7.64727 8.79236 7.63552 8.78401 7.62327C8.77546 7.61029 8.76676 7.59732 8.75786 7.58397C8.73885 7.55624 8.71983 7.52852 8.70081 7.50077C8.69085 7.48637 8.68089 7.4718 8.67076 7.45687C8.62098 7.38522 8.56889 7.31517 8.51681 7.24512C8.43573 7.13562 8.35521 7.02575 8.27573 6.91517C8.19645 6.80495 8.11645 6.69544 8.03573 6.58629C7.95503 6.47712 7.87503 6.36762 7.79573 6.2574C7.71449 6.14469 7.63271 6.03252 7.55023 5.92069C7.53973 5.90647 7.52943 5.89242 7.51858 5.87784C7.47396 5.81722 7.42933 5.75677 7.38401 5.69687C7.37103 5.67944 7.35805 5.66202 7.34471 5.64424C7.33369 5.62984 7.32285 5.61527 7.31146 5.60032C7.29653 5.57627 7.28906 5.54647 7.28906 5.51091C7.30578 5.49515 7.32605 5.47927 7.34986 5.46327C7.36321 5.4542 7.37653 5.44513 7.39023 5.43571C7.40492 5.42599 7.41973 5.41621 7.43466 5.40638C7.44985 5.39618 7.46513 5.38593 7.48053 5.37562C7.70863 5.2238 7.94151 5.07962 8.18026 4.94522C8.19361 4.93758 8.20693 4.93011 8.22081 4.92229C8.28279 4.88804 8.33375 4.87091 8.37369 4.87091C8.37813 4.87998 8.38258 4.88887 8.38721 4.89811C8.46951 5.06398 8.55236 5.22949 8.63929 5.39304C8.70365 5.51447 8.76605 5.6366 8.82703 5.75962C8.88783 5.88192 8.94969 6.00352 9.01369 6.12407C9.08641 6.26095 9.15591 6.39909 9.22489 6.53792C9.27983 6.64815 9.33601 6.75749 9.39361 6.86629C9.4589 6.98978 9.50484 7.07754 9.53138 7.12957C9.53796 7.14255 9.54471 7.15572 9.55146 7.16904C9.56025 7.18932 9.56463 7.2113 9.56463 7.235C9.57831 7.22895 9.59218 7.22309 9.60641 7.21687C9.65885 7.19412 9.71129 7.17135 9.76373 7.14877C9.78613 7.139 9.80871 7.1294 9.83111 7.11962C9.98916 7.05082 10.1483 6.98895 10.3115 6.93295C10.282 6.7806 10.2329 6.63552 10.184 6.48869C10.1748 6.4606 10.1655 6.43269 10.1563 6.4046C10.1367 6.3454 10.1172 6.2862 10.0974 6.227C10.0669 6.13492 10.0365 6.04264 10.0061 5.95055C9.99591 5.9198 9.98578 5.88922 9.97565 5.85847C9.97066 5.84335 9.96569 5.82824 9.96053 5.8126C9.94543 5.76709 9.93049 5.7214 9.91538 5.67589C9.83769 5.44069 9.76036 5.20531 9.68373 4.96975C9.67887 4.95482 9.67396 4.93977 9.66898 4.9246C9.64373 4.84709 9.61849 4.7694 9.59361 4.69171C9.58258 4.6574 9.57138 4.62327 9.56001 4.58913C9.55325 4.56833 9.54649 4.54735 9.53956 4.52602C9.53369 4.50807 9.52783 4.48993 9.52178 4.47144C9.5149 4.44158 9.5174 4.40887 9.52925 4.37331C9.55485 4.36169 9.58477 4.35085 9.61903 4.34078C9.63823 4.33509 9.65725 4.3294 9.67698 4.32353C9.69778 4.31767 9.71876 4.31162 9.74026 4.30558C9.76161 4.29935 9.78293 4.29313 9.80498 4.28673C10.0308 4.22273 10.2592 4.17082 10.4891 4.12442C10.5072 4.12069 10.5252 4.11695 10.5438 4.11304C10.5611 4.10967 10.5785 4.10611 10.5963 4.10273C10.6116 4.09971 10.6269 4.09651 10.6427 4.09331C10.6861 4.08869 10.7141 4.09509 10.7557 4.10664L10.7559 4.10629Z" fill="url(#paint0_linear_3257_29176)"/>
<path d="M18.4521 7.27148C18.5185 7.33408 18.5713 7.39931 18.621 7.47593C18.6285 7.48731 18.636 7.49868 18.6438 7.51043C18.669 7.54918 18.6939 7.58811 18.7188 7.62705C18.7281 7.64145 18.7371 7.65568 18.7467 7.67043C18.8852 7.88748 19.0114 8.10848 19.1277 8.33816C19.0664 8.40945 18.9969 8.44358 18.9137 8.48393C18.8996 8.49088 18.8854 8.4978 18.871 8.50508C18.8258 8.52731 18.7807 8.54953 18.7353 8.57158C18.6765 8.60038 18.6178 8.62936 18.5592 8.65833C18.5444 8.66563 18.5295 8.67291 18.5144 8.68056C18.4001 8.73728 18.287 8.79611 18.1741 8.85585C17.9938 8.95131 17.8116 9.0434 17.6297 9.13603C17.5593 9.17193 17.4888 9.20785 17.4184 9.24358C17.4011 9.25228 17.3841 9.261 17.3663 9.27008C17.2744 9.317 17.1826 9.36448 17.0914 9.41248C17.0726 9.42243 17.0536 9.43244 17.0344 9.44251C16.9981 9.46153 16.962 9.48073 16.9257 9.49993C16.9096 9.50848 16.8934 9.517 16.8769 9.52571C16.8626 9.53336 16.8484 9.54083 16.8337 9.54865C16.8104 9.55944 16.787 9.56483 16.7633 9.56483C16.7693 9.57851 16.7752 9.59238 16.7814 9.6066C16.8041 9.65905 16.8269 9.71148 16.8495 9.76393C16.8593 9.78633 16.8689 9.80891 16.8786 9.83131C16.9474 9.98936 17.0093 10.1485 17.0653 10.3117C17.1983 10.2767 17.3289 10.2375 17.4594 10.1943C17.4783 10.1881 17.4969 10.1821 17.5163 10.1757C17.5778 10.1554 17.6393 10.1351 17.7009 10.1151C17.7441 10.1008 17.7873 10.0866 17.8305 10.0726C17.9206 10.0429 18.0109 10.0134 18.101 9.98368C18.3021 9.91753 18.5033 9.85158 18.7046 9.7858C18.7659 9.76571 18.8273 9.74563 18.8888 9.72536C18.9809 9.69513 19.0731 9.66508 19.1654 9.63523C19.2161 9.61868 19.2665 9.6018 19.317 9.58508C19.3478 9.57496 19.3784 9.565 19.4091 9.55488C19.423 9.55025 19.4367 9.54545 19.4509 9.54065C19.524 9.51694 19.5822 9.51321 19.6255 9.52945C19.6384 9.55505 19.6498 9.58497 19.6598 9.61923C19.6655 9.63843 19.6712 9.65745 19.6769 9.67718C19.6825 9.69798 19.6884 9.71896 19.6943 9.74048C19.7003 9.7618 19.7065 9.78331 19.7128 9.80536C19.7981 10.1106 19.876 10.4224 19.9097 10.7383C19.7766 10.7696 19.6429 10.7924 19.5078 10.8139C19.4838 10.8178 19.4596 10.8215 19.4356 10.8255C19.3707 10.8359 19.3058 10.8463 19.2409 10.8566C19.1867 10.8653 19.1325 10.8738 19.0781 10.8825C18.9501 10.903 18.8221 10.9234 18.6943 10.9437C18.5624 10.9647 18.4305 10.9858 18.2985 11.0068C18.1851 11.0249 18.0717 11.0431 17.9581 11.0612C17.8904 11.072 17.8228 11.0827 17.7551 11.0935C17.6916 11.1037 17.628 11.1138 17.5643 11.1239C17.5298 11.1295 17.4955 11.135 17.4612 11.1405C17.4406 11.1437 17.4201 11.1469 17.399 11.1503C17.3812 11.1531 17.3634 11.1559 17.3451 11.1588C17.2985 11.1645 17.2543 11.1659 17.2073 11.1648C17.1748 11.0566 17.1497 10.9472 17.1252 10.837C17.1211 10.8189 17.117 10.8007 17.1128 10.7823C17.1028 10.738 17.0929 10.6935 17.0829 10.6493C16.4774 10.808 15.8728 10.97 15.2687 11.1337C15.2548 11.1375 15.2409 11.1412 15.2267 11.1451C15.1499 11.1659 15.0729 11.1867 14.9961 11.2077C14.9618 11.2169 14.9275 11.2262 14.8932 11.2354C14.8456 11.2484 14.7983 11.2615 14.7508 11.2751C14.7387 11.2785 14.7265 11.2819 14.7142 11.2854C14.6808 11.2948 14.6473 11.3044 14.6139 11.3138C14.562 11.3243 14.5353 11.328 14.4873 11.3072C14.4756 11.2866 14.4657 11.2628 14.4575 11.2358C14.4527 11.221 14.4481 11.2061 14.4431 11.1908C14.4382 11.1749 14.4333 11.1588 14.4283 11.1426C14.3841 11.0063 14.3337 10.8859 14.2612 10.762C14.2459 10.7343 14.2383 10.7085 14.2383 10.6848C14.2595 10.6698 14.2852 10.6536 14.3154 10.6363C14.3323 10.6266 14.3493 10.6167 14.3666 10.6068C14.3851 10.5963 14.4038 10.5856 14.4228 10.5748C14.442 10.5638 14.4612 10.5527 14.4809 10.5414C14.5217 10.5179 14.5624 10.4946 14.6033 10.4713C14.6818 10.4263 14.7604 10.381 14.8388 10.3359C14.8774 10.3136 14.916 10.2914 14.9545 10.2692C15.1549 10.1538 15.3545 10.0372 15.554 9.92056C15.6244 9.87948 15.6948 9.83825 15.7652 9.79718C15.7825 9.78705 15.7997 9.77691 15.8175 9.7666C15.9138 9.71043 16.0104 9.6546 16.1073 9.59913C16.1284 9.58705 16.1496 9.57478 16.1709 9.56268C16.2114 9.5394 16.252 9.51628 16.2927 9.49336C16.311 9.48288 16.3295 9.47238 16.3483 9.46153C16.3645 9.45228 16.3807 9.44305 16.3974 9.43363C16.4454 9.40358 16.4884 9.37016 16.532 9.33388C16.5042 9.28908 16.4765 9.24428 16.4486 9.19948C16.4408 9.18705 16.4331 9.17443 16.4251 9.16163C16.3865 9.09958 16.3473 9.0402 16.3026 8.98243C16.2776 8.94427 16.2661 8.91315 16.268 8.88908C16.2863 8.84625 16.3046 8.83185 16.3428 8.80536C16.3554 8.79648 16.3681 8.78758 16.381 8.77833C16.3949 8.76891 16.4086 8.75948 16.4228 8.74971C16.4521 8.72908 16.4817 8.70828 16.511 8.68768C16.5263 8.677 16.5414 8.66633 16.557 8.65531C16.6294 8.60411 16.7005 8.55131 16.7716 8.49851C16.8808 8.4178 16.9903 8.3378 17.1005 8.25851C17.2674 8.13833 17.4329 8.01638 17.5983 7.89408C17.8049 7.74136 18.0123 7.58971 18.2209 7.43948C18.298 7.38385 18.3748 7.32785 18.4516 7.27185L18.4521 7.27148Z" fill="#E962A6"/>
<path d="M9.51188 12.6931C9.52363 12.7138 9.53358 12.7376 9.54175 12.7646C9.54655 12.7794 9.55118 12.7943 9.55615 12.8096C9.56095 12.8254 9.56593 12.8414 9.57091 12.8578C9.61518 12.9941 9.66548 13.1145 9.73803 13.2384C9.75331 13.2661 9.76095 13.2918 9.76095 13.3155C9.73974 13.3306 9.71403 13.3468 9.6838 13.3641C9.66691 13.3739 9.65003 13.3836 9.6326 13.3936C9.61411 13.4041 9.59545 13.4147 9.57643 13.4256C9.55723 13.4366 9.53803 13.4476 9.51828 13.459C9.47758 13.4825 9.43687 13.5058 9.39598 13.5291C9.3174 13.574 9.23883 13.6194 9.16043 13.6645C9.12185 13.6867 9.08327 13.709 9.04468 13.7312C8.84433 13.8466 8.64468 13.9632 8.44523 14.0798C8.37483 14.1209 8.30443 14.1621 8.23403 14.2032C8.21671 14.2133 8.19929 14.2235 8.18175 14.2338C8.0854 14.2899 7.98887 14.3458 7.89198 14.4012C7.87083 14.4133 7.84967 14.4256 7.82833 14.4377C7.7878 14.461 7.74727 14.4841 7.70655 14.507C7.68825 14.5175 7.66975 14.528 7.65091 14.5388C7.63473 14.5481 7.61855 14.5573 7.60185 14.5667C7.55385 14.5968 7.51083 14.6302 7.46727 14.6665C7.495 14.7113 7.52273 14.7561 7.55065 14.8009C7.55847 14.8133 7.56611 14.8259 7.57411 14.8387C7.61268 14.9008 7.65198 14.9602 7.6966 15.0179C7.72161 15.0561 7.73316 15.0872 7.73127 15.1113C7.71295 15.1541 7.69465 15.1685 7.65643 15.195C7.6438 15.2039 7.63118 15.2128 7.6182 15.222C7.60433 15.2315 7.59065 15.2409 7.57643 15.2507C7.54708 15.2713 7.51758 15.2921 7.48825 15.3127C7.47295 15.3234 7.45785 15.334 7.4422 15.3451C7.36985 15.3963 7.29873 15.4491 7.22763 15.5019C7.10531 15.5922 6.98247 15.6816 6.85908 15.7705C6.7622 15.8403 6.66585 15.9109 6.56985 15.9819C6.46068 16.0626 6.35118 16.1426 6.24095 16.2219C6.11385 16.3134 5.98745 16.406 5.86158 16.499C5.75723 16.576 5.65268 16.6526 5.54762 16.7285C5.48131 16.6659 5.42851 16.6007 5.37873 16.5241C5.37127 16.5127 5.3638 16.5013 5.35598 16.4896C5.21287 16.2702 5.07473 16.0475 4.94531 15.8197C4.93761 15.8063 4.92978 15.7928 4.92184 15.7792C4.90371 15.7468 4.88771 15.7132 4.87189 15.6796C4.89358 15.6144 4.90709 15.6119 4.96647 15.5817C4.98282 15.5733 4.999 15.565 5.01589 15.5563C5.03367 15.5474 5.05144 15.5385 5.06975 15.5292C5.08807 15.5198 5.10655 15.5104 5.1254 15.5008C5.16398 15.4811 5.20256 15.4615 5.24113 15.4419C5.29447 15.4149 5.3478 15.3877 5.40095 15.3605C5.48487 15.3175 5.56878 15.2747 5.65287 15.2318C5.74371 15.1856 5.83455 15.1392 5.92523 15.093C5.94318 15.0837 5.96113 15.0747 5.97963 15.0652C6.13643 14.9852 6.29305 14.9049 6.44948 14.8242C6.4611 14.8181 6.47284 14.8121 6.48468 14.806C6.61055 14.7411 6.73643 14.6761 6.86193 14.6103C6.89553 14.5927 6.92931 14.5751 6.96291 14.5577C6.9942 14.5413 7.02548 14.5248 7.05678 14.5084C7.07527 14.4988 7.09393 14.4891 7.11278 14.4791C7.12895 14.4706 7.14513 14.462 7.16185 14.4533C7.18767 14.4412 7.21246 14.4352 7.23615 14.4352C7.23011 14.4215 7.22425 14.4076 7.21803 14.3934C7.19527 14.341 7.17251 14.2885 7.14993 14.2361C7.14015 14.2137 7.13055 14.1911 7.12078 14.1687C7.05198 14.0107 6.99011 13.8515 6.93411 13.6883C6.79988 13.7235 6.66798 13.7634 6.53625 13.8069C6.51723 13.8131 6.49803 13.8194 6.47847 13.8259C6.41625 13.8464 6.3542 13.8668 6.29198 13.8873C6.24843 13.9015 6.20487 13.9159 6.16131 13.9301C6.07188 13.9595 5.98247 13.9888 5.89305 14.0183C5.60505 14.1129 5.31687 14.2069 5.02851 14.3008C4.94353 14.3285 4.85855 14.3563 4.77375 14.3845C4.72167 14.4018 4.66958 14.419 4.61749 14.4361C4.60024 14.4419 4.583 14.4478 4.56522 14.4539C4.54993 14.4588 4.53464 14.4638 4.51882 14.469C4.50614 14.4732 4.49328 14.4775 4.48024 14.4818C4.43687 14.4898 4.41411 14.4896 4.37411 14.4706C4.36119 14.445 4.34975 14.415 4.3398 14.3808C4.33411 14.3616 4.32842 14.3426 4.32273 14.3228C4.31704 14.302 4.31118 14.2811 4.30531 14.2595C4.29915 14.2381 4.29298 14.2165 4.28682 14.1947C4.20149 13.8894 4.12362 13.5776 4.08984 13.2617C4.223 13.2304 4.35669 13.2076 4.4918 13.1861C4.5158 13.1822 4.53998 13.1785 4.56398 13.1746C4.62887 13.1641 4.69375 13.1538 4.75864 13.1435C4.81287 13.1347 4.86709 13.1262 4.92149 13.1175C5.04949 13.0971 5.17749 13.0766 5.30531 13.0563C5.43722 13.0354 5.56913 13.0142 5.70105 12.9932C5.81447 12.9751 5.92788 12.957 6.04148 12.9388C6.10923 12.928 6.17678 12.9173 6.24451 12.9065C6.30798 12.8963 6.37163 12.8862 6.43527 12.8761C6.46975 12.8706 6.50407 12.8651 6.53838 12.8595C6.55887 12.8563 6.57963 12.8531 6.6006 12.8498C6.61838 12.8469 6.63615 12.8441 6.65447 12.8412C6.70105 12.8355 6.74531 12.8341 6.79225 12.8352C6.82478 12.9435 6.84985 13.0528 6.87438 13.163C6.87847 13.1811 6.88255 13.1993 6.88683 13.2178C6.89678 13.262 6.90673 13.3065 6.91668 13.3507C7.5222 13.192 8.12683 13.03 8.73091 12.8663C8.74478 12.8625 8.75876 12.8587 8.77287 12.8549C8.84967 12.8341 8.92665 12.8133 9.00345 12.7923C9.03775 12.7831 9.07207 12.7739 9.10638 12.7646C9.15403 12.7516 9.20131 12.7385 9.24878 12.725C9.26087 12.7216 9.27295 12.7182 9.2854 12.7147C9.31883 12.7052 9.35225 12.6956 9.38567 12.6862C9.43758 12.6757 9.46425 12.672 9.51225 12.6928L9.51188 12.6931Z" fill="url(#paint1_linear_3257_29176)"/>
<path d="M13.3164 14.2394C13.3435 14.2863 13.3707 14.3332 13.3977 14.3802C13.4217 14.4216 13.4455 14.4632 13.4695 14.5046C13.5301 14.6097 13.5908 14.7149 13.6514 14.8202C13.7996 15.0774 13.9488 15.3341 14.0987 15.5905C14.1397 15.6609 14.181 15.7313 14.222 15.8017C14.2322 15.8189 14.2421 15.8362 14.2526 15.8539C14.3092 15.9506 14.3652 16.0477 14.4206 16.145C14.4329 16.1663 14.4452 16.1876 14.4572 16.209C14.4807 16.25 14.504 16.2909 14.5273 16.332C14.5378 16.3505 14.5485 16.3691 14.5593 16.388C14.5685 16.4043 14.578 16.4207 14.5876 16.4376C14.6114 16.4749 14.6347 16.503 14.6676 16.5327C14.7124 16.505 14.7572 16.4772 14.802 16.4493C14.8144 16.4415 14.827 16.4338 14.8398 16.4258C14.9019 16.3873 14.9612 16.348 15.019 16.3034C15.0572 16.2783 15.0884 16.2669 15.1127 16.269C15.1543 16.2866 15.1675 16.3025 15.1924 16.3398C15.2005 16.3517 15.2085 16.3634 15.2169 16.3757C15.2255 16.3886 15.2343 16.4017 15.243 16.415C15.262 16.4427 15.2811 16.4705 15.3001 16.4982C15.31 16.5126 15.32 16.5272 15.3301 16.5421C15.3799 16.6138 15.432 16.6838 15.4841 16.7538C15.5652 16.8634 15.6457 16.9732 15.7252 17.0838C15.8044 17.194 15.8844 17.3035 15.9652 17.4127C16.0459 17.5218 16.1259 17.6314 16.2052 17.7416C16.2864 17.8543 16.3682 17.9665 16.4507 18.0783C16.4612 18.0925 16.4715 18.1066 16.4823 18.1211C16.5269 18.1818 16.5716 18.2422 16.6169 18.3021C16.6299 18.3195 16.643 18.3371 16.6562 18.3547C16.6672 18.3691 16.678 18.3837 16.6894 18.3986C16.7044 18.4227 16.7118 18.4525 16.7118 18.4881C16.6951 18.5038 16.6748 18.5197 16.651 18.5357C16.6378 18.5448 16.6243 18.554 16.6107 18.5633C16.5961 18.5729 16.5813 18.5826 16.5662 18.5926C16.5511 18.6027 16.536 18.6129 16.5204 18.6234C16.2923 18.7752 16.0594 18.9194 15.8206 19.0538C15.8073 19.0614 15.794 19.0689 15.7801 19.0767C15.7181 19.1109 15.6671 19.1281 15.6272 19.1281C15.6228 19.119 15.6183 19.1101 15.6137 19.1009C15.5314 18.935 15.4485 18.7695 15.3616 18.6059C15.2885 18.4682 15.2185 18.3291 15.1492 18.1894C15.0892 18.069 15.0272 17.9499 14.9641 17.8312C14.9033 17.7163 14.8452 17.6002 14.7874 17.4836C14.7355 17.3791 14.6818 17.2756 14.6272 17.1725C14.4998 16.9317 14.4361 16.7954 14.4361 16.7636C14.4224 16.7697 14.4085 16.7755 14.3943 16.7818C14.3419 16.8045 14.2894 16.8273 14.237 16.8498C14.2146 16.8596 14.192 16.8692 14.1696 16.879C14.0116 16.9478 13.8524 17.0097 13.6892 17.0657C13.7188 17.218 13.7678 17.3631 13.8167 17.5099C13.826 17.538 13.8352 17.5659 13.8444 17.594C13.864 17.6532 13.8836 17.7124 13.9033 17.7716C13.9339 17.8637 13.9643 17.956 13.9947 18.0481C14.0048 18.0788 14.0149 18.1094 14.0251 18.1402C14.03 18.1553 14.035 18.1704 14.0402 18.186C14.0553 18.2315 14.0702 18.2772 14.0853 18.3227C14.163 18.5579 14.2404 18.7933 14.317 19.0289C14.3218 19.0438 14.3268 19.0589 14.3317 19.074C14.357 19.1515 14.3822 19.2292 14.4071 19.3069C14.4181 19.3412 14.4293 19.3754 14.4407 19.4095C14.4475 19.4303 14.4542 19.4513 14.4612 19.4726C14.467 19.4906 14.4729 19.5087 14.4789 19.5272C14.4858 19.557 14.4833 19.5898 14.4715 19.6253C14.4459 19.6369 14.4159 19.6478 14.3817 19.6578C14.3625 19.6635 14.3435 19.6692 14.3237 19.6751C14.3029 19.681 14.282 19.687 14.2604 19.693C14.2391 19.6993 14.2176 19.7055 14.1956 19.7119C13.8905 19.7983 13.5785 19.876 13.2626 19.9098C13.2244 19.7914 13.2066 19.6706 13.187 19.548C13.1831 19.524 13.1794 19.5 13.1755 19.476C13.165 19.4111 13.1547 19.3462 13.1444 19.2813C13.1356 19.2271 13.1271 19.1729 13.1184 19.1185C13.098 18.9905 13.0775 18.8625 13.0572 18.7345C13.0363 18.6026 13.0151 18.4706 12.9941 18.3389C12.976 18.2255 12.9579 18.1121 12.9397 17.9986C12.9289 17.9309 12.9182 17.8634 12.9074 17.7956C12.8972 17.732 12.8871 17.6683 12.877 17.6047C12.8715 17.5704 12.866 17.5361 12.8604 17.5016C12.8448 17.4024 12.8313 17.3078 12.8361 17.2074C12.9314 17.1791 13.027 17.1556 13.1239 17.1341C13.138 17.1309 13.1522 17.1277 13.1666 17.1243C13.1809 17.121 13.1947 17.1179 13.208 17.1151C13.2203 17.1124 13.2325 17.1096 13.2452 17.1067C13.2689 17.1027 13.3044 17.1007 13.3518 17.1007C13.2464 16.6863 13.1374 16.2728 13.0254 15.8602C13.0103 15.8045 12.9954 15.749 12.9803 15.6934C12.9691 15.6518 12.9577 15.6102 12.9465 15.5686C12.9317 15.514 12.917 15.4594 12.9022 15.4049C12.869 15.2818 12.8354 15.159 12.8009 15.0363C12.7856 14.9819 12.7703 14.9275 12.7552 14.873C12.7479 14.8474 12.7406 14.8216 12.7333 14.796C12.7232 14.7608 12.7132 14.7254 12.7035 14.69C12.6978 14.6701 12.6921 14.6502 12.6862 14.6296C12.6761 14.5745 12.677 14.5402 12.6942 14.4872C12.7148 14.4741 12.7387 14.4637 12.7657 14.4557C12.7804 14.4511 12.7954 14.4463 12.8107 14.4415C12.8265 14.4369 12.8425 14.4321 12.8588 14.4273C12.9956 14.3837 13.1154 14.3338 13.2395 14.2612C13.2672 14.2459 13.2929 14.2383 13.3166 14.2383L13.3164 14.2394Z" fill="url(#paint2_linear_3257_29176)"/>
<path d="M14.2409 13.2793C14.3682 13.3408 14.4905 13.4084 14.6121 13.4804C14.7723 13.5744 14.933 13.6674 15.0943 13.7593C15.2671 13.8578 15.4392 13.9572 15.6109 14.0576C15.7414 14.1339 15.8722 14.2094 16.0032 14.2848C16.2109 14.4043 16.4173 14.5257 16.6233 14.6482C16.5679 14.7657 16.5064 14.8734 16.4312 14.9792C16.4223 14.992 16.4134 15.0048 16.4041 15.018C16.3824 15.0489 16.3608 15.0796 16.3389 15.1104C16.41 15.168 16.4824 15.2233 16.5556 15.2782C16.568 15.2875 16.5803 15.2967 16.5931 15.3063C16.7382 15.4148 16.8852 15.5204 17.0322 15.626C17.1974 15.7447 17.362 15.864 17.5256 15.9849C17.6413 16.0704 17.7577 16.1548 17.8749 16.2382C17.9908 16.3207 18.1062 16.4041 18.2214 16.4876C18.2564 16.5131 18.2914 16.5381 18.3266 16.5632C18.3462 16.5774 18.3659 16.5916 18.3855 16.6059C18.4024 16.618 18.4192 16.6302 18.4367 16.6427C18.4484 16.6533 18.46 16.6638 18.472 16.6747C18.472 16.7532 18.4248 16.798 18.3787 16.858C18.3691 16.8706 18.3594 16.8834 18.3496 16.8962C18.208 17.0805 18.0541 17.2535 17.8964 17.424C17.8267 17.4994 17.7583 17.5758 17.6898 17.6523C17.5442 17.5858 17.4324 17.4507 17.3211 17.339C17.3062 17.3241 17.2911 17.309 17.2756 17.2937C17.2344 17.2524 17.1931 17.2112 17.1519 17.17C17.1072 17.1253 17.0626 17.0807 17.018 17.0361C16.9408 16.9589 16.8637 16.8816 16.7865 16.8044C16.6751 16.6928 16.5634 16.5812 16.4518 16.4695C16.2706 16.2884 16.0896 16.1072 15.9087 15.926C15.7328 15.75 15.557 15.5742 15.3812 15.3982C15.3704 15.3874 15.3595 15.3765 15.3483 15.3653C15.2939 15.3109 15.2395 15.2564 15.1851 15.202C14.7341 14.7508 14.2831 14.2994 13.832 13.848C13.8489 13.8252 13.8658 13.8027 13.8829 13.7799C13.8924 13.7672 13.9019 13.7545 13.9115 13.7417C13.9449 13.6976 13.9807 13.6556 14.0166 13.6137C14.1035 13.5086 14.1725 13.3968 14.2409 13.2793Z" fill="url(#paint3_linear_3257_29176)"/>
<path d="M6.31171 6.3457C6.36523 6.36953 6.40061 6.39548 6.44061 6.43796C6.48221 6.48188 6.52558 6.5217 6.57145 6.56098C6.6511 6.6305 6.72576 6.70393 6.80025 6.77876C6.81483 6.79316 6.82923 6.80773 6.84416 6.82268C6.89233 6.87085 6.94051 6.91921 6.9887 6.96738C7.02336 7.00206 7.05803 7.03673 7.09288 7.07156C7.16736 7.14606 7.24185 7.22073 7.31633 7.29521C7.42408 7.40313 7.53181 7.51086 7.63953 7.61858C7.81448 7.79353 7.98923 7.96846 8.16398 8.14338C8.33376 8.31334 8.50353 8.48313 8.67331 8.65308C8.68381 8.66356 8.6943 8.67406 8.70513 8.6849C8.75776 8.73753 8.81021 8.79013 8.86283 8.84258C9.29838 9.27833 9.73393 9.71423 10.1695 10.1501C10.1249 10.2182 10.0806 10.2783 10.0239 10.3368C9.93998 10.428 9.87598 10.5267 9.81128 10.6317C9.78934 10.6662 9.76653 10.6953 9.74283 10.719C9.50513 10.5837 9.26763 10.4483 9.03171 10.3101C8.8783 10.2202 8.72398 10.1315 8.5695 10.0435C8.39776 9.9457 8.22673 9.84685 8.05625 9.74693C7.95705 9.68881 7.8575 9.63156 7.75741 9.57503C7.74585 9.56846 7.73448 9.56206 7.72256 9.5553C7.66621 9.5233 7.60968 9.49148 7.55313 9.45966C7.53288 9.44828 7.51278 9.43673 7.49198 9.42498C7.47397 9.41479 7.45571 9.40454 7.43723 9.39423C7.40997 9.37681 7.39041 9.35625 7.37856 9.33254C7.40096 9.28953 7.42408 9.24916 7.44968 9.2081C7.45696 9.19618 7.46425 9.18428 7.47171 9.17201C7.53181 9.07476 7.59545 8.98036 7.66301 8.8881C7.51651 8.76633 7.36221 8.65593 7.20736 8.54498C7.14016 8.49681 7.07331 8.44863 7.0063 8.40028C6.99313 8.39086 6.98016 8.38143 6.96665 8.37166C6.86798 8.30036 6.76985 8.22818 6.6719 8.15583C6.55598 8.07013 6.43953 7.9857 6.32203 7.90214C6.19368 7.81076 6.06603 7.71833 5.93856 7.62588C5.9235 7.61497 5.90822 7.6039 5.8927 7.59263C5.84683 7.55938 5.80096 7.52596 5.7551 7.49253C5.74105 7.48223 5.72683 7.4721 5.71225 7.46161C5.63936 7.4081 5.57341 7.35423 5.51172 7.2881C5.70941 7.02978 5.91491 6.78178 6.13393 6.54143C6.15048 6.5233 6.16683 6.50516 6.18336 6.48703C6.22621 6.43993 6.26888 6.39281 6.31171 6.34588V6.3457Z" fill="#4CC8AE"/>
<path d="M10.1521 13.8306C10.1749 13.8475 10.1974 13.8644 10.2202 13.8815C10.2328 13.8909 10.2454 13.9003 10.2584 13.9101C10.3027 13.9437 10.3452 13.9792 10.3877 14.0152C10.4881 14.098 10.5935 14.1695 10.7032 14.2395C10.6929 14.3067 10.6741 14.3547 10.6392 14.4128C10.6294 14.4292 10.6198 14.4455 10.6099 14.4624C10.5992 14.48 10.5887 14.4978 10.5777 14.516C10.5549 14.5545 10.532 14.5931 10.5093 14.6315C10.4973 14.6516 10.4854 14.6719 10.473 14.6927C10.4184 14.7853 10.3653 14.8788 10.3121 14.9723C10.2083 15.1549 10.1032 15.3368 9.99708 15.5179C9.92348 15.6436 9.85094 15.77 9.77894 15.8964C9.72561 15.9899 9.67209 16.0834 9.61858 16.1769C9.61254 16.1874 9.60668 16.1977 9.60046 16.2086C9.55991 16.2792 9.51938 16.3497 9.47849 16.4203C9.46801 16.4386 9.45751 16.4569 9.44668 16.4758C9.43708 16.4925 9.42729 16.509 9.41751 16.5261C9.4091 16.5407 9.40057 16.5554 9.39191 16.5703C9.37698 16.5925 9.35767 16.6095 9.33396 16.6214C9.29094 16.599 9.25058 16.5759 9.20951 16.5503C9.19761 16.543 9.18569 16.5357 9.17343 16.5282C9.07618 16.4681 8.98178 16.4045 8.88951 16.3369C8.75886 16.5039 8.63388 16.6743 8.51031 16.8466C8.46196 16.9138 8.41343 16.981 8.36508 17.048C8.34588 17.0747 8.32649 17.1014 8.30729 17.128C8.26871 17.1814 8.23031 17.2347 8.19174 17.288C8.18214 17.3012 8.17271 17.3144 8.16294 17.328C8.14374 17.3547 8.12436 17.3814 8.10516 17.408C8.05716 17.4745 8.00916 17.5408 7.96134 17.6073C7.86161 17.7458 7.76116 17.884 7.65966 18.0214C7.54564 18.1751 7.43417 18.3306 7.32526 18.488C7.23476 18.4603 7.17218 18.4045 7.10089 18.3448C7.07529 18.3236 7.04988 18.3024 7.02428 18.2815C7.01183 18.2712 6.99956 18.2608 6.98676 18.2502C6.94196 18.213 6.89646 18.1768 6.85094 18.1403C6.74766 18.0559 6.65076 17.965 6.55334 17.874C6.48561 17.8111 6.41646 17.7497 6.34766 17.688C6.37431 17.6256 6.41023 17.5855 6.45823 17.5378C6.47399 17.522 6.48988 17.5062 6.50588 17.4902C6.52329 17.4729 6.54089 17.4555 6.55831 17.4383C6.57663 17.42 6.59511 17.4016 6.61343 17.3832C6.65289 17.3437 6.69254 17.3042 6.73218 17.2648C6.79494 17.2024 6.85769 17.1398 6.92028 17.0774C7.01948 16.9784 7.11868 16.8795 7.21806 16.7807C7.39566 16.604 7.57308 16.4271 7.75049 16.25C7.81271 16.188 7.87494 16.1259 7.93716 16.064C7.97609 16.0253 8.01486 15.9865 8.05378 15.9478C8.07174 15.93 8.08969 15.912 8.10748 15.8943C8.19494 15.8073 8.27974 15.7199 8.36009 15.6262C8.42606 15.5519 8.49734 15.4825 8.56774 15.4125C8.58516 15.3951 8.60241 15.3778 8.61983 15.3604C8.66658 15.3136 8.71334 15.2671 8.76009 15.2203C8.80916 15.1714 8.85806 15.1224 8.90711 15.0735C8.99974 14.981 9.09236 14.8884 9.18498 14.796C9.29058 14.6905 9.39601 14.5853 9.50143 14.4799C9.71831 14.2631 9.93521 14.0466 10.1521 13.8301V13.8306Z" fill="url(#paint4_linear_3257_29176)"/>
<path d="M16.6768 5.51172C16.7673 5.53945 16.8299 5.59528 16.9012 5.65501C16.9268 5.67616 16.9522 5.69731 16.9778 5.7183C16.9902 5.72861 17.0025 5.73891 17.0153 5.74958C17.0601 5.78674 17.1056 5.82301 17.1511 5.85946C17.2544 5.9439 17.3513 6.03474 17.4487 6.12576C17.5164 6.1887 17.5856 6.25003 17.6544 6.31171C17.6274 6.37501 17.5904 6.41554 17.5419 6.46408C17.5257 6.48026 17.5095 6.49643 17.4928 6.51314C17.4748 6.53091 17.4569 6.5487 17.4389 6.56666C17.4201 6.5855 17.4011 6.60434 17.3822 6.62318C17.3415 6.6639 17.3008 6.70443 17.2601 6.74496C17.1956 6.80914 17.131 6.8735 17.0667 6.93786C16.9646 7.03971 16.8626 7.14141 16.7604 7.2431C16.5778 7.42496 16.3952 7.60683 16.2128 7.78888C16.1488 7.8527 16.0848 7.91651 16.0208 7.98016C15.9808 8.01998 15.9408 8.05981 15.9008 8.09963C15.8823 8.11794 15.864 8.13626 15.8455 8.15474C15.7565 8.2431 15.6699 8.33216 15.5883 8.42746C15.5241 8.49998 15.4546 8.56754 15.386 8.63581C15.3691 8.6527 15.3524 8.66941 15.3355 8.6863C15.2901 8.73163 15.2448 8.77678 15.1995 8.82194C15.152 8.86941 15.1045 8.91688 15.0569 8.96434C14.9671 9.05394 14.8773 9.14371 14.7876 9.23331C14.6852 9.33536 14.5829 9.43758 14.4807 9.53981C14.2706 9.74976 14.0603 9.95971 13.85 10.1697C13.8272 10.1528 13.8046 10.1359 13.7819 10.1188C13.7692 10.1093 13.7565 10.0998 13.7437 10.0902C13.6996 10.0568 13.6576 10.0211 13.6157 9.98514C13.5106 9.89821 13.3988 9.82923 13.2812 9.76078C13.3495 9.62016 13.4228 9.48398 13.5024 9.34976C13.5245 9.31226 13.5465 9.27474 13.5685 9.23706C13.5797 9.21786 13.5911 9.19866 13.6027 9.17891C13.6581 9.08416 13.7131 8.98923 13.7678 8.89411C13.7789 8.8751 13.7899 8.8559 13.8011 8.83634C13.8894 8.6831 13.9771 8.5295 14.0645 8.3759C14.1582 8.21181 14.2528 8.04808 14.3483 7.88506C14.3973 7.80131 14.4462 7.71741 14.4942 7.63296C14.5033 7.61714 14.5124 7.60131 14.5216 7.58514C14.5385 7.55546 14.5554 7.52594 14.5721 7.49608C14.5796 7.4831 14.5868 7.47011 14.5945 7.45678C14.6009 7.44541 14.6073 7.43403 14.6139 7.42248C14.6258 7.40493 14.6437 7.39024 14.6674 7.37838C14.7104 7.40078 14.7508 7.4239 14.7918 7.4495C14.8037 7.45678 14.8156 7.46408 14.8279 7.47154C14.9252 7.53163 15.0196 7.59528 15.1118 7.66283C15.2425 7.4959 15.3675 7.32541 15.491 7.15314C15.5394 7.08594 15.5879 7.01874 15.6363 6.95171C15.6555 6.92506 15.6748 6.89838 15.694 6.87171C15.7326 6.81838 15.771 6.76506 15.8096 6.71171C15.8191 6.69856 15.8287 6.68523 15.8384 6.67171C15.8576 6.64506 15.877 6.61838 15.8962 6.59171C15.9442 6.52523 15.9922 6.45891 16.04 6.39243C16.1397 6.25394 16.2402 6.11581 16.3417 5.97838C16.4557 5.82467 16.5672 5.6691 16.6761 5.51172H16.6768Z" fill="#CC7EAC"/>
<path d="M11.326 14.5059L11.5393 14.5414C11.6977 14.559 11.8561 14.5766 12.0193 14.5947V19.9992C11.6089 19.9992 11.3318 19.991 11.1882 19.9747C11.1658 19.9723 11.1434 19.9702 11.1203 19.9679C10.9974 19.9551 10.8776 19.9368 10.7571 19.9103C10.7844 19.6456 10.826 19.3832 10.8675 19.1203C10.8772 19.0575 10.887 18.9947 10.897 18.932C10.9133 18.8269 10.9299 18.7219 10.9464 18.617C10.9654 18.4957 10.9844 18.3743 11.0033 18.2531C11.0216 18.1359 11.0399 18.0186 11.0582 17.9014C11.066 17.8516 11.0739 17.802 11.0815 17.7523C11.0924 17.6831 11.1032 17.6139 11.114 17.5448C11.1172 17.5242 11.1204 17.5037 11.1238 17.4826C11.1268 17.4637 11.1297 17.4449 11.1329 17.4255C11.1354 17.4091 11.138 17.3928 11.1407 17.3761C11.1475 17.3373 11.156 17.2996 11.1661 17.2616C11.1434 17.2595 11.1206 17.2571 11.0972 17.2548C11.0067 17.2447 10.9185 17.2275 10.8294 17.2083C10.8144 17.2051 10.7991 17.2019 10.7837 17.1987C10.71 17.1829 10.6597 17.1683 10.6328 17.1549C10.6438 17.0467 10.6657 16.9455 10.6938 16.8406C10.6982 16.8239 10.7025 16.8074 10.7071 16.7901C10.7217 16.7352 10.7363 16.6803 10.751 16.6253C10.7613 16.5864 10.7716 16.5476 10.782 16.5087C10.8092 16.4059 10.8365 16.3034 10.8639 16.2008C10.8911 16.0989 10.9181 15.9969 10.9452 15.895C11.0067 15.6632 11.0685 15.4314 11.1306 15.1995C11.1352 15.1821 11.14 15.1647 11.1448 15.1466C11.1706 15.0502 11.1965 14.9537 11.2225 14.8573C11.2301 14.8287 11.2378 14.8003 11.2454 14.7716C11.2557 14.7331 11.2662 14.6945 11.2765 14.6559C11.2822 14.6346 11.2881 14.6131 11.294 14.591C11.3036 14.5579 11.3143 14.5296 11.3261 14.5059H11.326Z" fill="#A2DCD2"/>
<path d="M11.981 4C12.3914 4 12.6685 4.00818 12.8121 4.02453C12.8345 4.02684 12.8569 4.02898 12.88 4.03129C13.0029 4.04409 13.1227 4.0624 13.2432 4.08889C13.2158 4.3536 13.1742 4.616 13.1328 4.87893C13.123 4.94169 13.1133 5.00444 13.1033 5.0672C13.0869 5.17227 13.0704 5.27733 13.0539 5.38222C13.0349 5.50347 13.0158 5.6249 12.997 5.74613C12.9787 5.8633 12.9604 5.98062 12.9421 6.09778C12.9342 6.14755 12.9264 6.19715 12.9188 6.24693C12.9079 6.3161 12.8971 6.38525 12.8862 6.4544C12.883 6.47502 12.8798 6.49547 12.8765 6.51662C12.8734 6.53547 12.8706 6.5543 12.8674 6.5737C12.8649 6.59005 12.8622 6.6064 12.8596 6.6231C12.8528 6.66187 12.8443 6.69955 12.8341 6.7376C12.8565 6.73955 12.8788 6.7415 12.9019 6.74365C13.0004 6.75467 13.0948 6.77707 13.1908 6.8009C13.2078 6.80498 13.2249 6.80925 13.2425 6.8135C13.2841 6.82365 13.3257 6.83395 13.3675 6.84427C13.3572 6.93938 13.341 7.02987 13.3159 7.1223C13.3125 7.1351 13.3092 7.1479 13.3056 7.16125C13.2944 7.20355 13.283 7.24587 13.2717 7.28818C13.2637 7.3184 13.2557 7.34862 13.2477 7.37885C13.2261 7.45955 13.2046 7.54027 13.1829 7.62098C13.1605 7.70435 13.1385 7.7879 13.1163 7.8713C13.0763 8.02133 13.0363 8.17138 12.9961 8.32142C12.9618 8.4496 12.9277 8.57778 12.8935 8.70595C12.8686 8.7993 12.8437 8.89262 12.8189 8.98578C12.8075 9.02845 12.7961 9.0711 12.7847 9.1136C12.7693 9.17173 12.7536 9.23005 12.738 9.28818C12.7335 9.30507 12.7289 9.32195 12.7243 9.33938C12.7202 9.35467 12.7161 9.36978 12.7118 9.38542C12.7083 9.39858 12.7047 9.41186 12.7012 9.42525C12.6948 9.4467 12.6857 9.46928 12.6738 9.49298C12.6034 9.48125 12.533 9.4695 12.4605 9.45742C12.3021 9.43989 12.1421 9.42211 11.9805 9.4041V4H11.981Z" fill="url(#paint5_linear_3257_29176)"/>
<path d="M14.5947 12.0004H19.9991C19.9991 12.3972 19.9909 12.6679 19.9746 12.8126C19.9723 12.835 19.9701 12.8576 19.9678 12.8807C19.955 13.0037 19.9369 13.1241 19.9102 13.2448C19.757 13.2343 19.6064 13.2151 19.4548 13.1909C19.4316 13.1874 19.4084 13.1836 19.3845 13.1799C19.3216 13.1701 19.2588 13.1602 19.1959 13.1502C19.13 13.1397 19.0638 13.1294 18.9979 13.1191C18.8873 13.1017 18.7765 13.0844 18.666 13.0668C18.5381 13.0468 18.4101 13.0267 18.2823 13.0066C18.1589 12.9872 18.0356 12.9678 17.9124 12.9484C17.8599 12.9403 17.8075 12.9319 17.7552 12.9237C17.6821 12.9124 17.6092 12.9008 17.5362 12.8892C17.5145 12.8859 17.4926 12.8825 17.4702 12.8789C17.4505 12.8757 17.4306 12.8727 17.4101 12.8693C17.393 12.8666 17.3755 12.8639 17.3579 12.8612C17.3291 12.8558 17.2969 12.8472 17.2613 12.8354C17.2594 12.8576 17.2574 12.8796 17.2553 12.9026C17.2441 13.0039 17.2213 13.1019 17.198 13.2011C17.194 13.219 17.1897 13.237 17.1854 13.2555C17.1753 13.2992 17.165 13.3429 17.1547 13.3867C16.5726 13.2404 15.9932 13.0846 15.4135 12.9296C15.117 12.8503 14.8203 12.7717 14.5236 12.6933C14.5022 12.6208 14.5132 12.5708 14.5291 12.4967C14.56 12.3326 14.5771 12.166 14.5947 12V12.0004Z" fill="#E970B0"/>
<path d="M6.84445 10.6133C7.4265 10.7596 8.00587 10.9153 8.5856 11.0704C8.88213 11.1496 9.17885 11.2282 9.47555 11.3066C9.4969 11.3792 9.48587 11.4291 9.47005 11.5032C9.4391 11.6673 9.42205 11.8339 9.40445 12H4C4 11.6032 4.00818 11.3324 4.02453 11.1877C4.02684 11.1653 4.02898 11.1427 4.03129 11.1196C4.04409 10.9966 4.06222 10.8762 4.08889 10.7555C4.24213 10.766 4.39271 10.7852 4.54436 10.8094C4.56747 10.8129 4.59076 10.8167 4.61458 10.8204C4.67751 10.8302 4.74027 10.8401 4.8032 10.8501C4.86916 10.8606 4.93529 10.8709 5.00124 10.8812C5.11182 10.8986 5.22258 10.9159 5.33316 10.9335C5.46098 10.9536 5.58898 10.9736 5.7168 10.9937C5.84018 11.0131 5.96355 11.0325 6.08675 11.0519C6.1392 11.06 6.19165 11.0684 6.2439 11.0766C6.31698 11.088 6.38987 11.0995 6.46293 11.1111C6.48462 11.1144 6.5065 11.1178 6.5289 11.1214C6.54862 11.1246 6.56853 11.1276 6.58898 11.131C6.60622 11.1336 6.62347 11.1365 6.64125 11.1392C6.67005 11.1445 6.70222 11.1531 6.73778 11.1649C6.7385 11.1544 6.7392 11.1438 6.7401 11.1329C6.75005 11.0151 6.77245 10.9038 6.80107 10.7893C6.80515 10.7722 6.80942 10.7553 6.8137 10.7377C6.82382 10.6963 6.83413 10.6551 6.84445 10.6136V10.6133Z" fill="url(#paint6_linear_3257_29176)"/>
<path d="M9.60167 16.6934C9.61217 16.698 9.62247 16.7026 9.63332 16.7074C9.88078 16.8171 10.1298 16.9197 10.3839 17.0134C10.3553 17.1586 10.3101 17.2976 10.2641 17.4381C10.2555 17.4644 10.247 17.4907 10.2385 17.5168C10.2155 17.5874 10.1924 17.6578 10.1695 17.7284C10.1309 17.8466 10.0923 17.965 10.0538 18.0834C10.039 18.1287 10.0242 18.1743 10.0093 18.2196C9.94852 18.4063 9.88807 18.5931 9.82834 18.7801C9.8159 18.8192 9.80327 18.8585 9.79065 18.8976C9.78247 18.9229 9.77447 18.9483 9.7663 18.9735C9.76239 18.9858 9.75847 18.9981 9.75438 19.0107C9.73127 19.0831 9.70817 19.1554 9.68505 19.2279C9.66762 19.2829 9.64985 19.3378 9.63225 19.3928C9.62598 19.4125 9.61969 19.4325 9.6134 19.4527C9.60772 19.4706 9.60185 19.4884 9.59598 19.5069C9.591 19.5224 9.58602 19.5381 9.58105 19.554C9.5711 19.5789 9.55426 19.6032 9.53057 19.6269C9.13322 19.4959 8.7455 19.3423 8.375 19.1469C8.39918 19.069 8.42958 18.9979 8.46602 18.925C8.47154 18.9142 8.47687 18.9033 8.48257 18.8919C8.49412 18.8688 8.50567 18.8459 8.5174 18.8228C8.53447 18.7888 8.55154 18.7549 8.5686 18.7209C8.63225 18.594 8.6975 18.4681 8.76398 18.3426C8.8566 18.1677 8.94497 17.9908 9.03278 17.8135C9.12825 17.6208 9.22514 17.429 9.32577 17.239C9.38762 17.122 9.44737 17.0043 9.5062 16.8857C9.51562 16.8669 9.52487 16.848 9.53465 16.8287C9.55705 16.7837 9.57945 16.7385 9.60185 16.6935L9.60167 16.6934Z" fill="#8DD7C7"/>
<path d="M17.0114 13.6177C17.1608 13.6529 17.306 13.6956 17.4516 13.7441C17.4843 13.755 17.5172 13.7658 17.5499 13.7765C17.5846 13.7878 17.6191 13.7994 17.6535 13.8108C17.7625 13.8469 17.8717 13.8828 17.9808 13.9187C18.0056 13.9269 18.0303 13.935 18.0552 13.943C18.336 14.0355 18.6176 14.1258 18.8996 14.2152C19.1421 14.2924 19.3837 14.372 19.6248 14.4531C19.496 14.8581 19.3432 15.2501 19.1448 15.6264C19.076 15.6158 19.0235 15.5951 18.9622 15.5624C18.9437 15.5526 18.9252 15.543 18.9064 15.5329C18.8864 15.5222 18.8665 15.5118 18.8459 15.5007C18.8027 15.478 18.7593 15.4552 18.7161 15.4326C18.7048 15.4268 18.6935 15.4207 18.6818 15.4147C18.5497 15.3455 18.416 15.2794 18.2825 15.2129C18.1216 15.1329 17.9613 15.052 17.8029 14.9674C17.6589 14.891 17.5129 14.819 17.367 14.7462C17.1396 14.6331 16.9708 14.5475 16.8603 14.4895C16.8468 14.4826 16.8333 14.4755 16.8194 14.4682C16.7711 14.4426 16.7302 14.4206 16.6914 14.3816C16.696 14.3717 16.7007 14.3619 16.7055 14.3516C16.8182 14.1103 16.92 13.8671 17.0114 13.6172V13.6177Z" fill="#DE81B4"/>
<path d="M14.4529 4.37322C14.8583 4.49998 15.2503 4.655 15.6263 4.85322C15.6021 4.93109 15.5717 5.0022 15.5352 5.07509C15.5297 5.08594 15.5244 5.09678 15.5187 5.10816C15.5071 5.13127 15.4956 5.1542 15.4839 5.17731C15.4668 5.21127 15.4497 5.24522 15.4327 5.27918C15.369 5.40611 15.3038 5.53198 15.2373 5.65749C15.1447 5.83242 15.0563 6.00932 14.9685 6.18656C14.873 6.37927 14.7761 6.57109 14.6755 6.76114C14.6136 6.87812 14.5539 6.9958 14.4951 7.11439C14.4856 7.13322 14.4764 7.15207 14.4666 7.17144C14.4442 7.21642 14.4218 7.26159 14.3994 7.30656C14.3889 7.30194 14.3786 7.29732 14.3678 7.29252C14.1203 7.18282 13.8712 7.08024 13.6172 6.98656C13.6458 6.84132 13.691 6.70229 13.737 6.56184C13.7455 6.53554 13.7541 6.50922 13.7626 6.48309C13.7809 6.42709 13.7991 6.37109 13.8174 6.31509C13.8462 6.22709 13.8748 6.13909 13.9034 6.05127L13.9326 5.96167C13.9374 5.94674 13.9422 5.93199 13.9471 5.91669C13.9619 5.87136 13.9767 5.82584 13.9916 5.78052C14.0568 5.58051 14.1215 5.38051 14.1859 5.18016C14.19 5.16718 14.1943 5.15438 14.1985 5.14105C14.2343 5.02994 14.27 4.91882 14.3057 4.80754C14.3272 4.74069 14.3487 4.67402 14.3703 4.60718C14.3767 4.58745 14.3829 4.56771 14.3895 4.54727C14.3951 4.52931 14.401 4.51154 14.4069 4.49305C14.4119 4.47758 14.4168 4.46194 14.422 4.44594C14.4305 4.42105 14.4407 4.39675 14.4526 4.37305L14.4529 4.37322Z" fill="#C27DA8"/>
<path d="M4.85518 8.37305C4.91722 8.38319 4.96576 8.39882 5.02087 8.42852C5.03598 8.43652 5.05091 8.44452 5.06656 8.45287C5.08291 8.46177 5.09944 8.47065 5.11633 8.47972C5.29607 8.57519 5.4774 8.66692 5.65962 8.75741C5.82762 8.84097 5.99527 8.92522 6.16077 9.01377C6.31082 9.09341 6.46317 9.16842 6.61517 9.24417C6.85648 9.36446 7.032 9.45335 7.14175 9.51082C7.15509 9.51777 7.16842 9.5247 7.18212 9.53182C7.22994 9.55705 7.26994 9.57892 7.30834 9.61749C7.30015 9.63402 7.29197 9.65039 7.28344 9.66727C7.16984 9.89962 7.07882 10.1398 6.98834 10.3819C6.839 10.3467 6.69375 10.3041 6.54815 10.2555C6.51544 10.2447 6.48255 10.2338 6.44984 10.2232C6.41517 10.2118 6.38069 10.2002 6.3462 10.1889C6.23722 10.1528 6.12807 10.1169 6.01892 10.081C5.9942 10.0728 5.96949 10.0646 5.9446 10.0566C5.66372 9.96417 5.38211 9.87385 5.10016 9.78442C4.85767 9.70727 4.61607 9.62762 4.375 9.54657C4.50371 9.14159 4.6566 8.74959 4.855 8.37322L4.85518 8.37305Z" fill="#2EC1A1"/>
</g>
</g>
<defs>
<linearGradient id="paint0_linear_3257_29176" x1="9.30522" y1="4.0918" x2="9.30522" y2="9.7598" gradientUnits="userSpaceOnUse">
<stop stop-color="#E970B0"/>
<stop offset="0.388375" stop-color="#8D98A9"/>
<stop offset="0.79224" stop-color="#2EC1A1"/>
</linearGradient>
<linearGradient id="paint1_linear_3257_29176" x1="10.783" y1="12.6754" x2="4.08984" y2="15.5115" gradientUnits="userSpaceOnUse">
<stop stop-color="#B1F6E7"/>
<stop offset="0.84728" stop-color="#2EC1A1"/>
</linearGradient>
<linearGradient id="paint2_linear_3257_29176" x1="12.6797" y1="14.944" x2="16.7118" y2="19.204" gradientUnits="userSpaceOnUse">
<stop stop-color="#B1F6E7"/>
<stop offset="0.427173" stop-color="#8DD7C7"/>
<stop offset="0.865334" stop-color="#E970B0"/>
</linearGradient>
<linearGradient id="paint3_linear_3257_29176" x1="11.5743" y1="14.4082" x2="18.472" y2="16.8948" gradientUnits="userSpaceOnUse">
<stop stop-color="#F4A7D0"/>
<stop offset="0.275" stop-color="#B1F6E7"/>
<stop offset="0.887776" stop-color="#E962A6"/>
</linearGradient>
<linearGradient id="paint4_linear_3257_29176" x1="8.52543" y1="13.8301" x2="8.52543" y2="18.488" gradientUnits="userSpaceOnUse">
<stop stop-color="#B1F6E7"/>
<stop offset="1" stop-color="#2EC1A1"/>
</linearGradient>
<linearGradient id="paint5_linear_3257_29176" x1="12.674" y1="4" x2="12.674" y2="9.49298" gradientUnits="userSpaceOnUse">
<stop stop-color="#E970B0"/>
<stop offset="0.388375" stop-color="#8D98A9"/>
<stop offset="0.79224" stop-color="#2EC1A1"/>
</linearGradient>
<linearGradient id="paint6_linear_3257_29176" x1="10.4763" y1="10.6125" x2="7.3385" y2="14.3707" gradientUnits="userSpaceOnUse">
<stop stop-color="#B1F6E7"/>
<stop offset="0.84728" stop-color="#2EC1A1"/>
</linearGradient>
<clipPath id="clip0_3257_29176">
<rect width="16" height="16" fill="white" transform="translate(4 4)"/>
</clipPath>
</defs>
</svg>
