<svg width="24" height="24" viewBox="0 0 24 24" fill="none" xmlns="http://www.w3.org/2000/svg">
<circle cx="12" cy="12" r="11.5" fill="white" stroke="#D8DFE9"/>
<g clip-path="url(#clip0_3278_31470)">
<mask id="mask0_3278_31470" style="mask-type:luminance" maskUnits="userSpaceOnUse" x="4" y="4" width="16" height="14">
<path d="M20 4H4V18H20V4Z" fill="white"/>
</mask>
<g mask="url(#mask0_3278_31470)">
<path fill-rule="evenodd" clip-rule="evenodd" d="M12.2635 4.03404C12.3905 4.02309 12.5183 4.01208 12.6466 4L12.6373 11.009H12.4468C12.2072 11.0356 11.9769 11.1141 11.7729 11.2386C10.68 12.038 10.2917 13.2141 9.89079 14.4283L9.88124 14.4573C9.53741 15.5619 8.83488 16.5296 7.87801 17.2167C7.00309 17.7975 6.04832 17.8791 5.04574 17.9648C4.91391 17.9761 4.78125 17.9874 4.64784 18H4.11328V11.0045H4.39219C4.78737 10.9947 5.17379 10.8899 5.51691 10.6998C5.86003 10.5096 6.14912 10.2401 6.35819 9.91509C6.8259 9.17816 7.17978 8.37894 7.40858 7.54276C7.75267 6.43831 8.45719 5.47166 9.41644 4.78778C10.2916 4.20404 11.2547 4.12101 12.2635 4.03404ZM12.6466 10.9177H19.8414V18H12.6466V10.9177Z" fill="black"/>
</g>
</g>
<defs>
<clipPath id="clip0_3278_31470">
<rect width="16" height="14" fill="white" transform="translate(4 4)"/>
</clipPath>
</defs>
</svg>
