<svg width="24" height="24" viewBox="0 0 24 24" fill="none" xmlns="http://www.w3.org/2000/svg">
<g clip-path="url(#clip0_3259_29511)">
<path d="M12 24C18.6274 24 24 18.6274 24 12C24 5.37258 18.6274 0 12 0C5.37258 0 0 5.37258 0 12C0 18.6274 5.37258 24 12 24Z" fill="#0C9790"/>
<path d="M20.8351 9.1164C20.8351 7.32851 19.32 6.08008 17.1511 6.08008C15.3877 6.08008 14.1723 6.95429 12.7647 7.96669C12.5292 8.13584 12.2858 8.3112 12.0348 8.48576C11.3107 8.9888 10.5583 9.47952 9.8717 9.91304C9.80314 9.95648 9.7177 9.96224 9.64418 9.92856C9.09802 9.67928 8.01626 9.27976 6.68615 9.27976C3.73295 9.27976 3.11328 10.9082 3.11328 12.2744C3.11328 13.3594 3.76261 14.2629 4.99045 14.8869C5.36801 15.0786 5.7438 15.215 6.0501 15.3081C6.28823 15.3807 6.47723 15.5618 6.55735 15.7974C6.63746 16.033 6.73218 16.2854 6.84947 16.545C6.97917 16.8319 7.13408 17.1468 7.30892 17.4812C7.49615 17.8382 7.86663 18.0472 8.24954 18.0472C8.38762 18.0472 8.52746 18.0202 8.66074 17.963C10.6233 17.1229 13.7 16.0764 17.2135 15.8612C17.8239 15.8235 18.2869 15.3147 18.2679 14.7022C18.2591 14.4157 18.2444 14.1486 18.225 13.909C18.2103 13.7293 18.1908 13.5517 18.1705 13.3878C18.132 13.0769 18.2551 12.7682 18.4976 12.5702C18.7402 12.3723 19.0186 12.1314 19.3019 11.8533C20.3195 10.8546 20.8355 9.93392 20.8355 9.1164H20.8351ZM8.7501 16.8718C8.65586 16.9094 8.5549 16.9311 8.45354 16.9236C8.20698 16.905 7.98259 16.7514 7.88168 16.5131C7.82812 16.3864 7.77766 16.2642 7.72499 16.1486C7.61389 15.9028 7.52139 15.6508 7.45056 15.4374C7.3824 15.2314 7.47491 15.0065 7.66922 14.9108C8.10298 14.6969 8.8085 14.4374 9.49106 14.2567C9.55698 14.2394 9.61458 14.1965 9.64506 14.1358C9.89522 13.6415 9.4937 13.2554 9.11218 13.3617C9.08786 13.3683 8.50714 13.5295 7.90204 13.7625C7.54307 13.9006 7.25492 14.0313 7.0283 14.1614C6.69766 14.3514 6.30195 14.3914 5.94475 14.2571C5.12457 13.9489 4.07422 13.3448 4.07422 12.2753C4.07422 11.3294 4.37078 10.2439 6.68438 10.2439C7.25625 10.2439 7.77811 10.3316 8.21498 10.4454C8.42522 10.5003 8.46506 10.782 8.27826 10.894C7.68471 11.2506 7.30228 11.4698 7.29255 11.4755C7.06194 11.6074 6.98183 11.902 7.11372 12.1327C7.24563 12.3634 7.53997 12.4436 7.77058 12.3116C7.78607 12.3028 8.75322 11.7478 10.0222 10.9556C10.0288 10.9516 10.0355 10.9472 10.0421 10.9432C10.826 10.4538 11.7227 9.87456 12.5815 9.27848C12.8391 9.09952 13.0861 8.92192 13.3247 8.75056C14.6494 7.79795 15.6958 7.04508 17.1494 7.04508C18.7773 7.04508 19.8711 7.87811 19.8711 9.11816C19.8711 10.018 18.6755 11.185 17.8479 11.8577C17.6212 12.0419 17.3282 12.1207 17.0383 12.0835C16.9551 12.073 16.8714 12.0636 16.7877 12.0557C16.6111 12.0393 16.5093 11.847 16.5947 11.6912C17.0082 10.9396 17.1817 10.4769 17.1914 10.4507C17.2835 10.2014 17.1569 9.92504 16.9077 9.83248C16.6589 9.73944 16.3819 9.86656 16.2889 10.1154C16.2863 10.123 16.0149 10.8395 15.3355 11.9383C15.2943 12.0047 15.2235 12.0477 15.1451 12.0539C14.9765 12.0672 14.8468 11.9082 14.8919 11.7457C15.0106 11.3192 15.031 11.1238 15.0336 11.0924C15.0562 10.8276 14.8606 10.5911 14.5954 10.5685C14.3294 10.5464 14.0975 10.739 14.0749 11.0043C14.0749 11.0078 14.0373 11.3245 13.7712 12.1066C13.7425 12.1916 13.6695 12.2554 13.5814 12.2731C12.9612 12.3954 12.5465 12.5189 12.5027 12.5322C12.2482 12.6092 12.1043 12.8776 12.1813 13.1322C12.2579 13.3865 12.5262 13.5313 12.7811 13.4542C12.7926 13.4506 13.2861 13.3046 14.0036 13.1761L14.0258 13.173C14.0678 13.1694 14.2855 13.1287 14.2953 13.127C14.9827 13.0194 15.8211 12.9422 16.6306 13.0091C16.9364 13.0344 17.1839 13.2686 17.2207 13.5734C17.2366 13.7071 17.2511 13.8479 17.2631 13.9897C17.2737 14.119 17.2826 14.2571 17.2901 14.4028C17.2976 14.5486 17.2574 14.8674 16.9285 14.8829C16.6377 14.8966 15.3647 14.9033 12.817 15.514C10.873 15.9798 9.13914 16.7177 8.74882 16.874L8.7501 16.8718Z" fill="white"/>
</g>
<defs>
<clipPath id="clip0_3259_29511">
<rect width="24" height="24" fill="white"/>
</clipPath>
</defs>
</svg>
