<svg width="24" height="24" viewBox="0 0 24 24" fill="none" xmlns="http://www.w3.org/2000/svg">
<path d="M12 24C18.6274 24 24 18.6274 24 12C24 5.37258 18.6274 0 12 0C5.37258 0 0 5.37258 0 12C0 18.6274 5.37258 24 12 24Z" fill="url(#paint0_linear_3278_31536)"/>
<path d="M20.5977 12.1533H18.4793C18.4793 7.81884 14.981 4.30664 10.6604 4.30664C6.38169 4.30664 2.89737 7.72128 2.81375 12C2.73013 16.3763 6.85556 20.1812 11.2458 20.1812H11.8033C15.6779 20.1812 20.8765 17.1568 21.6848 13.4774C21.8103 12.8781 21.42 12.3066 20.8207 12.1812C20.751 12.1533 20.6813 12.1533 20.5977 12.1533ZM7.49668 12.3485C7.49668 12.9338 7.02281 13.3937 6.43744 13.3937C5.85208 13.3937 5.39215 12.9199 5.39215 12.3485V10.6481C5.39215 10.0627 5.86602 9.60281 6.45138 9.60281C7.03675 9.60281 7.49668 10.0767 7.49668 10.6481V12.3485ZM11.1482 12.3485C11.1482 12.9338 10.6744 13.3937 10.089 13.3937C9.50364 13.3937 9.04371 12.9199 9.04371 12.3485V10.6481C9.04371 10.0627 9.51758 9.60281 10.1029 9.60281C10.6883 9.60281 11.1482 10.0767 11.1482 10.6481V12.3485Z" fill="url(#paint1_linear_3278_31536)"/>
<defs>
<linearGradient id="paint0_linear_3278_31536" x1="12.0056" y1="0" x2="12.0056" y2="24.0112" gradientUnits="userSpaceOnUse">
<stop stop-color="#534BB1"/>
<stop offset="1" stop-color="#551BF9"/>
</linearGradient>
<linearGradient id="paint1_linear_3278_31536" x1="12.2596" y1="4.34288" x2="12.2596" y2="20.1798" gradientUnits="userSpaceOnUse">
<stop stop-color="white"/>
<stop offset="1" stop-color="white" stop-opacity="0.82"/>
</linearGradient>
</defs>
</svg>
