<svg width="24" height="24" viewBox="0 0 24 24" fill="none" xmlns="http://www.w3.org/2000/svg">
<g clip-path="url(#clip0_3280_31524)">
<path d="M12 24C18.6274 24 24 18.6274 24 12C24 5.37258 18.6274 0 12 0C5.37258 0 0 5.37258 0 12C0 18.6274 5.37258 24 12 24Z" fill="#515BE7"/>
<path fill-rule="evenodd" clip-rule="evenodd" d="M10.223 4.88693C10.175 4.60348 10.574 4.48892 10.6837 4.75466L10.8975 5.27284C10.9042 5.28894 10.9093 5.30528 10.9129 5.32164C11.4257 5.19803 11.9423 5.13576 12.4538 5.13092C12.4533 5.11406 12.4543 5.09689 12.4569 5.07953L12.5384 4.52633C12.5803 4.24191 12.9952 4.25627 13.0175 4.5429L13.0606 5.10041C13.0619 5.11798 13.0617 5.13523 13.06 5.15209C13.5803 5.19336 14.0915 5.29365 14.5841 5.44871C14.5889 5.43251 14.5951 5.41648 14.6029 5.40075L14.8519 4.89887C14.9797 4.64134 15.3699 4.7832 15.3024 5.06265L15.1709 5.6073C15.1668 5.62434 15.1612 5.64064 15.1545 5.65607C15.6331 5.85426 16.0893 6.10599 16.5134 6.40693C16.5227 6.39349 16.5333 6.38061 16.5451 6.36848L16.937 5.96809C17.1382 5.76264 17.4654 6.01815 17.3149 6.26306L17.0215 6.74038C17.0128 6.75456 17.0031 6.7677 16.9926 6.77976C17.4234 7.1466 17.8121 7.56926 18.1462 8.04225C18.1454 7.99671 18.1451 7.95144 18.1449 7.90699V7.90676L18.1448 7.89889C18.1438 7.67207 18.3489 7.49771 18.5813 7.46522C18.6924 7.45048 18.8053 7.47302 18.9021 7.52929C18.999 7.58556 19.0746 7.67241 19.1169 7.77619C19.2491 8.11269 19.2714 8.48244 19.1807 8.83243C19.1732 8.86397 19.1646 8.89547 19.1546 8.93117V8.93136L19.1544 8.93209C19.1507 8.94546 19.1468 8.95943 19.1428 8.97422C19.4826 9.16571 19.7488 9.46474 19.8999 9.82429C20.0214 10.1138 19.9063 10.4095 19.6388 10.5269C19.5009 10.5861 19.3659 10.5705 19.2424 10.5058C19.3515 10.987 19.407 11.471 19.4121 11.9507C19.4265 11.9506 19.4409 11.9517 19.4558 11.9538L20.0089 12.0354C20.2933 12.0773 20.2789 12.4923 19.9922 12.5144L19.4348 12.5576C19.4201 12.5587 19.4057 12.5588 19.3914 12.5577C19.3506 13.0787 19.2506 13.5906 19.0956 14.084C19.1087 14.0883 19.1216 14.0936 19.1344 14.0999L19.6363 14.3489C19.8938 14.4766 19.752 14.8669 19.4724 14.7994L18.9279 14.6679C18.9143 14.6646 18.9009 14.6603 18.8882 14.6553C18.69 15.1348 18.438 15.5918 18.1367 16.0165C18.1471 16.0242 18.1571 16.0328 18.1667 16.0422L18.5671 16.434C18.7725 16.6351 18.517 16.9624 18.2721 16.8119L17.7948 16.5186C17.7837 16.5117 17.7732 16.5043 17.7634 16.4963C17.4294 16.8885 17.0492 17.2457 16.6269 17.5587C16.6341 17.569 16.6407 17.5799 16.6467 17.5914L16.9059 18.0868C17.0391 18.3415 16.695 18.5738 16.5086 18.3549L16.146 17.9293C16.1376 17.9194 16.1299 17.9092 16.1231 17.8986C15.7663 18.1169 15.3844 18.3056 14.9795 18.4604C14.8909 18.4942 14.802 18.5261 14.713 18.5561C14.7166 18.5679 14.7195 18.5801 14.7216 18.5926L14.8152 19.1452C14.8632 19.4287 14.4641 19.5432 14.3545 19.2775L14.1407 18.7593C14.1359 18.7479 14.132 18.7363 14.1288 18.7246C13.6149 18.8487 13.0971 18.9112 12.5844 18.9159C12.5842 18.9281 12.5832 18.9402 12.5814 18.9528L12.4998 19.5057C12.4579 19.7902 12.0429 19.7759 12.0207 19.4892L11.9776 18.9318C11.9766 18.9192 11.9765 18.9069 11.9771 18.8945C11.4558 18.8529 10.9435 18.7522 10.4499 18.5964C10.4458 18.6082 10.441 18.6199 10.4352 18.6315L10.1863 19.1334C10.0585 19.3908 9.66831 19.2489 9.73577 18.9695L9.86727 18.425C9.87034 18.4122 9.87421 18.3999 9.87876 18.3881C9.39942 18.1891 8.94265 17.9364 8.51824 17.6343C8.51059 17.6445 8.50217 17.6544 8.49297 17.6638L8.10111 18.064C7.90002 18.2695 7.57276 18.014 7.72328 17.7691L8.01661 17.2919C8.02347 17.2807 8.03097 17.2701 8.03899 17.2602C7.6474 16.9258 7.29079 16.5452 6.97847 16.1224C6.9676 16.1302 6.95605 16.1373 6.94383 16.1437L6.44841 16.4028C6.19367 16.5361 5.96138 16.1919 6.18023 16.0055L6.60584 15.643C6.61664 15.6338 6.62787 15.6256 6.63949 15.6182C6.46853 15.3379 6.31579 15.0421 6.18344 14.7319L5.24386 15.9775C5.11932 16.1426 4.87643 16.1603 4.74634 15.9995C3.85593 14.8988 3.74588 13.443 3.83316 12.5537C3.85416 12.3398 4.07804 12.2219 4.27602 12.3055L5.68319 12.8991C5.64798 12.6259 5.62954 12.353 5.62728 12.0815C5.61254 12.0816 5.59758 12.0805 5.58248 12.0783L5.02934 11.9968C4.74492 11.9548 4.75928 11.5399 5.04591 11.5177L5.60337 11.4746C5.61889 11.4734 5.63419 11.4734 5.64918 11.4746C5.69112 10.9541 5.79214 10.4427 5.94796 9.94989C5.93303 9.94532 5.91826 9.93947 5.90374 9.93223L5.40188 9.68325C5.14435 9.55551 5.28623 9.1653 5.56568 9.23276L6.11028 9.36428C6.12629 9.36814 6.14164 9.37326 6.15625 9.37946C6.35515 8.90094 6.6076 8.44498 6.90925 8.02127C6.89605 8.0121 6.88341 8.00168 6.87147 7.98999L6.4711 7.5981C6.26566 7.39701 6.52116 7.06974 6.76609 7.22027L7.24339 7.51363C7.25759 7.52235 7.27073 7.53208 7.28281 7.54266C7.61676 7.15164 7.99677 6.79551 8.4187 6.48353C8.40861 6.47036 8.39948 6.45615 8.39151 6.44087L8.13233 5.9454C7.99909 5.69064 8.34323 5.45837 8.52964 5.67722L8.89223 6.10288C8.90359 6.11623 8.91351 6.13026 8.92197 6.14481C9.27721 5.92796 9.65723 5.74035 10.06 5.58645C10.1496 5.55219 10.2396 5.51993 10.3297 5.48964C10.3239 5.47373 10.3195 5.45704 10.3166 5.43968L10.223 4.88693ZM6.97628 14.1417C8.14622 17.2034 11.5766 18.7369 14.6381 17.5669C17.6709 16.408 19.2043 13.031 18.0956 9.99154C17.7279 10.3004 17.2866 10.5802 16.7736 10.7683C15.6222 11.1903 14.7431 11.3741 14.0012 11.4468C13.1576 12.6068 11.7234 13.0908 11.0295 13.1904L11.118 11.4533C10.6662 11.4722 10.1806 11.5317 9.61291 11.6775C8.54654 11.9515 7.55328 12.3983 6.65176 12.9171C6.7147 13.3277 6.82197 13.7379 6.97628 14.1417ZM8.48877 14.2912C8.20446 14.3417 7.93296 14.1523 7.88237 13.868C7.83179 13.5837 8.02124 13.3122 8.30554 13.2616C8.58985 13.211 8.86135 13.4005 8.91192 13.6847C8.96251 13.9691 8.77308 14.2406 8.48877 14.2912ZM10.8992 14.3545C10.7137 14.3875 10.5365 14.2638 10.5035 14.0783C10.4705 13.8927 10.5941 13.7155 10.7797 13.6825C10.9652 13.6495 11.1424 13.7731 11.1755 13.9587C11.2084 14.1442 11.0848 14.3214 10.8992 14.3545ZM13.9602 14.2347C13.7747 14.2677 13.5975 14.1441 13.5645 13.9585C13.5314 13.7729 13.6551 13.5958 13.8406 13.5627C14.0262 13.5298 14.2034 13.6534 14.2364 13.839C14.2695 14.0245 14.1458 14.2017 13.9602 14.2347ZM14.5976 15.8694C14.6306 16.055 14.8079 16.1786 14.9934 16.1456C15.1789 16.1126 15.3026 15.9354 15.2696 15.7499C15.2366 15.5643 15.0594 15.4407 14.8738 15.4736C14.6883 15.5067 14.5646 15.6839 14.5976 15.8694ZM11.0205 16.7024C10.8349 16.7355 10.6577 16.6118 10.6247 16.4263C10.5917 16.2407 10.7154 16.0635 10.9009 16.0305C11.0865 15.9975 11.2636 16.1211 11.2967 16.3067C11.3297 16.4923 11.206 16.6695 11.0205 16.7024ZM9.17875 15.2601C9.21181 15.4456 9.38901 15.5693 9.57458 15.5363C9.76009 15.5033 9.88375 15.326 9.85075 15.1405C9.81771 14.9549 9.64056 14.8313 9.45499 14.8643C9.26941 14.8973 9.14577 15.0746 9.17875 15.2601ZM12.5108 15.3701C12.3252 15.4031 12.148 15.2794 12.1151 15.0938C12.082 14.9083 12.2057 14.7311 12.3912 14.6981C12.5768 14.665 12.7539 14.7887 12.787 14.9742C12.82 15.1598 12.6963 15.337 12.5108 15.3701ZM15.4239 13.9741C15.4745 14.2584 15.746 14.4479 16.0303 14.3973C16.3146 14.3467 16.504 14.0752 16.4534 13.7909C16.4029 13.5066 16.1314 13.3171 15.8471 13.3677C15.5627 13.4183 15.3733 13.6898 15.4239 13.9741ZM12.4971 16.6243C12.5477 16.9087 12.8192 17.0981 13.1035 17.0475C13.3878 16.9969 13.5772 16.7254 13.5266 16.4411C13.4761 16.1568 13.2046 15.9674 12.9203 16.0179C12.6359 16.0685 12.4465 16.34 12.4971 16.6243ZM16.495 8.60138C16.5997 9.06114 16.3283 9.51491 15.8889 9.61496C15.4495 9.71496 15.0084 9.42332 14.9038 8.96353C14.7992 8.50376 15.0705 8.04998 15.51 7.94996C15.9493 7.84995 16.3904 8.14161 16.495 8.60138Z" fill="white"/>
<path d="M15.9217 9.21587C16.1196 9.17084 16.2379 8.94919 16.1859 8.72084C16.1339 8.49246 15.9314 8.34387 15.7335 8.3889C15.5356 8.43394 15.4173 8.65559 15.4693 8.88394C15.5213 9.1123 15.7238 9.26091 15.9217 9.21587Z" fill="white"/>
</g>
<defs>
<clipPath id="clip0_3280_31524">
<rect width="24" height="24" fill="white"/>
</clipPath>
</defs>
</svg>
