<svg width="24" height="24" viewBox="0 0 24 24" fill="none" xmlns="http://www.w3.org/2000/svg">
<circle cx="12" cy="12" r="12" fill="#C4FF61"/>
<g clip-path="url(#clip0_3280_31491)">
<path d="M20.998 12.8301C20.998 12.8443 20.9933 12.8632 20.9933 12.8773C20.6013 17.1919 17.1732 20.5565 12.999 20.9913C12.9707 20.996 12.9424 20.996 12.9141 21.0007L20.998 12.8301Z" fill="black"/>
<path d="M15.9758 3.91205C15.7492 3.80336 15.5178 3.6994 15.2817 3.60961C14.8237 3.43003 14.3421 3.28826 13.851 3.18903C13.2608 3.06616 12.6469 3 12.0189 3C11.7167 3 11.4192 3.01418 11.1217 3.04253C9.04407 3.24573 7.1789 4.15778 5.7576 5.52822L5.75288 5.53295C5.65844 5.62746 5.564 5.72198 5.46956 5.81649L5.46484 5.82122C4.10965 7.25309 3.21721 9.13389 3.03305 11.2179C3.00944 11.4826 3 11.7519 3 12.0213C3 12.6971 3.07555 13.3539 3.21249 13.9824C3.31637 14.4597 3.46275 14.9276 3.64218 15.3718C3.74134 15.6175 3.84995 15.8585 3.968 16.0948C4.17576 16.5012 4.41186 16.8934 4.67629 17.262L6.15896 15.764L15.702 6.11893L17.1847 4.6209C16.8022 4.35626 16.4009 4.11998 15.9758 3.91205ZM5.28069 13.7225C5.26652 13.6611 5.25236 13.5996 5.23819 13.5382V13.5334C5.12959 13.042 5.07293 12.5316 5.07293 12.0213C5.07293 10.235 5.73871 8.55264 6.95697 7.26254L6.96169 7.25781L7.20724 7.00735L7.21196 7.00262C8.51049 5.75033 10.2151 5.06511 12.0236 5.06511C12.5006 5.06511 12.9774 5.11237 13.4402 5.20688C13.511 5.22106 13.5818 5.23996 13.6574 5.25413L5.28069 13.7225Z" fill="black"/>
<path d="M8.90784 20.4953C8.6859 20.415 8.4687 20.3204 8.25149 20.2259C7.80762 20.0227 7.38265 19.7817 6.97656 19.5076L19.4425 6.9043C19.7116 7.2918 19.9524 7.70766 20.1554 8.13769C20.2641 8.35979 20.3585 8.59135 20.4482 8.82291L8.90784 20.4953Z" fill="black"/>
</g>
<defs>
<clipPath id="clip0_3280_31491">
<rect width="18" height="18" fill="white" transform="translate(3 3)"/>
</clipPath>
</defs>
</svg>
