<svg fill="none" height="128" viewBox="0 0 128 128" width="128" xmlns="http://www.w3.org/2000/svg" xmlns:xlink="http://www.w3.org/1999/xlink"><clipPath id="a"><path d="m0 0h128v128h-128z"/></clipPath><g clip-path="url(#a)"><path clip-rule="evenodd" d="m113.789 20.2257c-3.002-8.0255-11.943-12.09093-19.9687-9.0891l-.0091-.0023c-4.0128 1.5009-7.0357 4.4915-8.6837 8.1006-1.639 3.6114-1.9067 7.8551-.4059 11.8678l2.3856 6.3705c5.4485 14.5432 2.1424 30.61-7.9003 41.7716l-.0112.0133-.0186.0086c-.0774.0949-.1622.185-.247.2746-.0234.0256-.0474.0507-.0709.0758-.3312.4448-.4251 1.0517-.2171 1.6074.3398.9062 1.335 1.3611 2.2411 1.0214l9.1803-3.4358c22.1155-8.28 33.3305-32.9254 25.0505-55.0409zm-102.7403 13.8678c-3.00294-8.0209 1.0683-16.9655 9.0892-19.9685l3.5434-1.3253c22.1155-8.28029 46.7608 2.9349 55.0414 25.0504l3.4352 9.1802c.3397.9063-.1152 1.9016-1.0214 2.2413-.5557.2077-1.1626.1141-1.6074-.2174l-.0752-.0708c-.0896-.0845-.1798-.1695-.2752-.2468l-.0027-.006s-.0085-.0212-.0192-.0239c-11.1611-10.0426-27.2283-13.3488-41.7714-7.9005l-6.3705 2.3856c-4.0128 1.5009-8.2564 1.2333-11.8679-.4056-3.609-1.648-6.5997-4.6707-8.1006-8.6835zm2.9943 73.6755c3.0019 8.026 11.943 12.091 19.9685 9.089l.0092.003c4.0127-1.501 7.0355-4.492 8.6835-8.101 1.6389-3.611 1.9065-7.855.4056-11.8677l-2.3856-6.3707c-5.4483-14.5429-2.1421-30.6101 7.9005-41.7715.0027-.0106.0239-.0192.0239-.0192l.006-.0026c.0773-.0951.1623-.1853.2467-.2749l.0709-.0756c.3315-.4447.4251-1.0517.2174-1.6072-.3397-.9063-1.335-1.3612-2.2413-1.0216l-9.1802 3.4356c-22.1156 8.2805-33.3307 32.9258-25.0504 55.0414zm93.64 6.101c8.025-3.002 12.091-11.943 9.089-19.9681l.002-.0096c-1.501-4.0123-4.491-7.0352-8.1-8.6832-3.612-1.639-7.856-1.9067-11.8681-.4059l-6.3707 2.3856c-14.5435 5.4485-30.6101 2.1424-41.7717-7.9003-.0106-.0026-.0192-.024-.0192-.024l-.0026-.0058c-.0951-.0774-.1853-.1622-.2749-.247l-.0756-.0709c-.4447-.3312-1.0517-.4251-1.6073-.2171-.9063.3398-1.3611 1.335-1.0215 2.2411l3.4356 9.1803c8.2801 22.1159 32.9255 33.3309 55.041 25.0509z" fill="#000" fill-rule="evenodd"/></g></svg>