<svg width="24" height="24" viewBox="0 0 24 24" fill="none" xmlns="http://www.w3.org/2000/svg">
<circle cx="12" cy="12" r="11.5" fill="white" stroke="#D8DFE9"/>
<path fill-rule="evenodd" clip-rule="evenodd" d="M16.2661 4.51158C16.5657 4.54631 16.7556 4.8502 16.6555 5.13473L15.1903 9.29824C15.0595 9.66996 14.5568 9.72552 14.348 9.39132L14.0353 8.89088L8.38065 12.4243L7.79909 11.4936C6.87023 10.0071 7.32228 8.04908 8.80877 7.12022L11.7719 5.26867L11.4287 4.71956C11.2199 4.38536 11.4902 3.95795 11.8817 4.00333L16.2661 4.51158ZM10.3377 14.1653C8.29485 15.3448 7.59489 17.957 8.77437 20L14.528 16.6781C16.046 15.8017 16.5661 13.8606 15.6897 12.3426L15.1409 11.3922L10.3377 14.1653Z" fill="#07C166"/>
</svg>
