<svg width="24" height="24" viewBox="0 0 24 24" fill="none" xmlns="http://www.w3.org/2000/svg">
<circle cx="12" cy="12" r="11.5" fill="white" stroke="#D8DFE9"/>
<path d="M5.33203 16.7324L12.125 20.2012V13.4082L5.33203 16.7324Z" fill="url(#paint0_linear_3153_25814)"/>
<path d="M12.125 20.2012L18.918 16.7485L12.125 13.4082V20.2012Z" fill="url(#paint1_linear_3153_25814)"/>
<path d="M12.125 13.4078L18.918 16.748L16.1398 11.4486L12.125 13.4078Z" fill="url(#paint2_linear_3153_25814)"/>
<path d="M5.33203 16.7324L12.125 13.4082L8.11026 11.4329L5.33203 16.7324Z" fill="url(#paint3_linear_3153_25814)"/>
<path d="M8.125 11.4329L12.1398 13.4082V3.78882L8.125 11.4329Z" fill="url(#paint4_linear_3153_25814)"/>
<path d="M12.125 13.4082L16.1398 11.449L12.125 3.78882V13.4082Z" fill="url(#paint5_linear_3153_25814)"/>
<path d="M5.33203 16.7324L12.125 20.2012V13.4082L5.33203 16.7324Z" fill="url(#paint6_linear_3153_25814)"/>
<path d="M12.125 20.2012L18.918 16.7485L12.125 13.4082V20.2012Z" fill="url(#paint7_linear_3153_25814)"/>
<path d="M12.125 13.4078L18.918 16.748L16.1398 11.4486L12.125 13.4078Z" fill="url(#paint8_linear_3153_25814)"/>
<path d="M5.33203 16.7324L12.125 13.4082L8.11026 11.4329L5.33203 16.7324Z" fill="url(#paint9_linear_3153_25814)"/>
<path d="M8.125 11.4329L12.1398 13.4082V3.78882L8.125 11.4329Z" fill="url(#paint10_linear_3153_25814)"/>
<path d="M12.125 13.4082L16.1398 11.449L12.125 3.78882V13.4082Z" fill="url(#paint11_linear_3153_25814)"/>
<defs>
<linearGradient id="paint0_linear_3153_25814" x1="6.76259" y1="14.1034" x2="13.6238" y2="17.5594" gradientUnits="userSpaceOnUse">
<stop stop-color="#8277A6"/>
<stop offset="1" stop-color="#655880"/>
</linearGradient>
<linearGradient id="paint1_linear_3153_25814" x1="11.5945" y1="20.835" x2="16.5797" y2="13.5235" gradientUnits="userSpaceOnUse">
<stop stop-color="#665A82"/>
<stop offset="0.2371" stop-color="#73638D"/>
<stop offset="1" stop-color="#B4A6D1"/>
</linearGradient>
<linearGradient id="paint2_linear_3153_25814" x1="15.3582" y1="15.26" x2="20.5995" y2="9.47791" gradientUnits="userSpaceOnUse">
<stop stop-color="#B0A0CE"/>
<stop offset="1" stop-color="#CEC6E2"/>
</linearGradient>
<linearGradient id="paint3_linear_3153_25814" x1="8.83149" y1="14.7726" x2="9.57071" y2="12.5551" gradientUnits="userSpaceOnUse">
<stop stop-color="#887CAE"/>
<stop offset="1" stop-color="#7A6E9B"/>
</linearGradient>
<linearGradient id="paint4_linear_3153_25814" x1="13.047" y1="8.59702" x2="9.56559" y2="8.59702" gradientUnits="userSpaceOnUse">
<stop stop-color="#B0A0CE"/>
<stop offset="1" stop-color="#887CAE"/>
</linearGradient>
<linearGradient id="paint5_linear_3153_25814" x1="13.3315" y1="9.74553" x2="15.7876" y2="12.0767" gradientUnits="userSpaceOnUse">
<stop stop-color="#B0A0CE"/>
<stop offset="1" stop-color="#CEC6E2"/>
</linearGradient>
<linearGradient id="paint6_linear_3153_25814" x1="6.76259" y1="14.1034" x2="13.6238" y2="17.5594" gradientUnits="userSpaceOnUse">
<stop stop-color="#8277A6"/>
<stop offset="1" stop-color="#655880"/>
</linearGradient>
<linearGradient id="paint7_linear_3153_25814" x1="11.5945" y1="20.835" x2="16.5797" y2="13.5235" gradientUnits="userSpaceOnUse">
<stop stop-color="#665A82"/>
<stop offset="0.2371" stop-color="#73638D"/>
<stop offset="1" stop-color="#B4A6D1"/>
</linearGradient>
<linearGradient id="paint8_linear_3153_25814" x1="15.3582" y1="15.26" x2="20.5995" y2="9.47791" gradientUnits="userSpaceOnUse">
<stop stop-color="#B0A0CE"/>
<stop offset="1" stop-color="#CEC6E2"/>
</linearGradient>
<linearGradient id="paint9_linear_3153_25814" x1="8.83149" y1="14.7726" x2="9.57071" y2="12.5551" gradientUnits="userSpaceOnUse">
<stop stop-color="#887CAE"/>
<stop offset="1" stop-color="#7A6E9B"/>
</linearGradient>
<linearGradient id="paint10_linear_3153_25814" x1="13.047" y1="8.59702" x2="9.56559" y2="8.59702" gradientUnits="userSpaceOnUse">
<stop stop-color="#B0A0CE"/>
<stop offset="1" stop-color="#887CAE"/>
</linearGradient>
<linearGradient id="paint11_linear_3153_25814" x1="13.3315" y1="9.74553" x2="15.7876" y2="12.0767" gradientUnits="userSpaceOnUse">
<stop stop-color="#B0A0CE"/>
<stop offset="1" stop-color="#CEC6E2"/>
</linearGradient>
</defs>
</svg>
