<svg width="498" height="498" viewBox="0 0 498 498" fill="none" xmlns="http://www.w3.org/2000/svg">
<path d="M218.589 8.67545C238.807 -2.89181 263.716 -2.89182 283.934 8.67544L444.952 100.798C465.17 112.366 477.625 133.743 477.625 156.877V341.123C477.625 364.257 465.17 385.634 444.952 397.202L283.934 489.325C263.716 500.892 238.807 500.892 218.589 489.325L57.5712 397.202C37.3532 385.634 24.8984 364.257 24.8984 341.123V156.877C24.8984 133.743 37.3532 112.366 57.5712 100.798L218.589 8.67545Z" fill="#FFE81C"/>
<path opacity="0.6" d="M251.253 301.018L333.925 251.545L251.253 213.559L168.68 251.545L251.253 301.018Z" fill="black"/>
<path opacity="0.45" d="M251.252 213.514V112.654L168.68 251.501L251.252 300.973V213.514Z" fill="black"/>
<path opacity="0.8" d="M251.258 300.973L333.93 251.501L251.258 112.654V213.514V300.973Z" fill="black"/>
<path opacity="0.45" d="M251.252 316.835L168.68 267.463L251.252 385.351V316.835Z" fill="black"/>
<path opacity="0.8" d="M333.93 267.463L251.258 316.835V385.351L333.93 267.463Z" fill="black"/>
</svg>
