<svg width="501" height="498" viewBox="0 0 501 498" fill="none" xmlns="http://www.w3.org/2000/svg">
<path d="M249.004 9.95996C381.022 9.95996 488.044 116.982 488.044 249C488.044 381.018 381.022 488.04 249.004 488.04C116.986 488.04 9.96387 381.018 9.96387 249C9.96388 116.982 116.986 9.95996 249.004 9.95996Z" fill="white" stroke="#0000FF" stroke-width="19.92"/>
<path d="M247.871 313.272L246.835 314.541L247.169 379.132L248.228 382.16L331.839 263.109L247.871 313.272Z" fill="#6697FF"/>
<path d="M248.223 382.157L247.866 313.269L163.43 263.979L248.223 382.157Z" fill="#0052FF"/>
<path d="M246.809 107.897L245.009 114.162L245.949 295.503L247.791 297.326L331.711 247.131L246.809 107.897Z" fill="#6697FF"/>
<path d="M246.811 107.898L163.357 248.005L247.793 297.327L246.811 107.914L246.811 107.898Z" fill="#0052FF"/>
<path d="M247.784 297.331L331.705 247.137L247.328 209.314L247.784 297.331Z" fill="#CCDCFF"/>
<path d="M163.374 248.001L247.81 297.323L247.354 209.306L163.374 248.001Z" fill="#6697FF"/>
</svg>
