<svg width="498" height="498" viewBox="0 0 498 498" fill="none" xmlns="http://www.w3.org/2000/svg">
<circle cx="249" cy="249" r="249" fill="white"/>
<g clip-path="url(#clip0_3903_33062)">
<path fill-rule="evenodd" clip-rule="evenodd" d="M498 249C498 386.518 386.518 498 249 498C111.481 498 0 386.518 0 249C0 111.481 111.481 0 249 0C386.518 0 498 111.481 498 249ZM355.699 443.733L443.733 355.699L401.864 313.83C385.071 353.378 353.378 385.071 313.83 401.864L355.699 443.733ZM195.734 406.268C154.654 392.362 120.789 362.808 101.228 324.706L67.2848 358.65L155.319 446.684L195.734 406.268ZM96.1359 184.171C112.929 144.622 144.622 112.929 184.171 96.1359L150.285 62.25L62.25 150.285L96.1359 184.171ZM324.706 101.228L360.734 65.1994L448.768 153.234L406.268 195.734C392.362 154.654 362.808 120.789 324.706 101.228Z" fill="#060710"/>
<mask id="mask0_3903_33062" style="mask-type:luminance" maskUnits="userSpaceOnUse" x="124" y="124" width="250" height="250">
<path d="M373.5 124.5H124.5V373.5H373.5V124.5Z" fill="white"/>
</mask>
<g mask="url(#mask0_3903_33062)">
<path d="M249.019 124.5L247.348 130.174V294.816L249.019 296.484L325.442 251.308L249.019 124.5Z" fill="#B7B7B7"/>
<path d="M249.014 124.5L172.59 251.308L249.014 296.484V216.571V124.5Z" fill="white"/>
<path d="M249.068 310.958L248.125 312.106V370.753L249.068 373.502L325.538 265.807L249.068 310.958Z" fill="#939090"/>
<path d="M249.014 373.502V310.958L172.59 265.807L249.014 373.502Z" fill="white"/>
<path d="M249.039 296.467L325.462 251.29L249.039 216.553V296.467Z" fill="#939090"/>
<path d="M172.59 251.29L249.014 296.467V216.553L172.59 251.29Z" fill="#B1B1B1"/>
</g>
</g>
<defs>
<clipPath id="clip0_3903_33062">
<rect width="498" height="498" fill="white"/>
</clipPath>
</defs>
</svg>
