<svg width="498" height="498" viewBox="0 0 498 498" fill="none" xmlns="http://www.w3.org/2000/svg">
<circle cx="249" cy="249" r="244.02" fill="white" stroke="#ECEDEF" stroke-width="9.96"/>
<path d="M249 498C386.519 498 498 386.519 498 249C498 111.481 386.519 0 249 0C111.481 0 0 111.481 0 249C0 386.519 111.481 498 249 498Z" fill="#DCE376"/>
<path d="M367.359 222.144C359.996 214.781 350.336 211.091 340.677 211.044C347.486 204.172 351.698 194.734 351.698 184.315C351.698 163.366 334.659 146.328 313.709 146.328C303.305 146.328 293.883 150.524 287.01 157.317C286.963 147.246 283.02 137.777 275.878 130.651C268.705 123.478 259.156 119.52 249.005 119.52C238.855 119.52 229.322 123.478 222.133 130.651C214.769 138.014 211.08 147.658 211.032 157.333C204.16 150.524 194.722 146.312 184.318 146.312C163.368 146.312 146.329 163.35 146.329 184.299C146.329 194.702 150.541 204.156 157.35 211.012C147.675 211.06 138.031 214.749 130.668 222.112C123.304 229.475 119.52 238.865 119.52 249.015C119.52 259.165 123.478 268.698 130.652 275.887C137.778 283.012 147.247 286.955 157.319 287.019C150.525 293.891 146.329 303.312 146.329 313.716C146.329 334.665 163.368 351.703 184.318 351.703C194.722 351.703 204.175 347.491 211.048 340.682C211.096 350.357 214.785 360 222.149 367.364C229.56 374.774 239.283 378.48 249.021 378.48C258.76 378.48 268.483 374.774 275.894 367.364C283.257 360 286.947 350.357 286.995 340.682C293.867 347.491 303.305 351.703 313.725 351.703C334.675 351.703 351.714 334.665 351.714 313.716C351.714 303.312 347.502 293.859 340.692 286.987C350.368 286.939 360.012 283.25 367.375 275.887C382.181 261.081 382.181 236.965 367.375 222.16L367.359 222.144ZM275.704 275.697V313.447L249.005 286.749L222.307 313.447V275.697H184.555L211.254 249L184.555 222.302H222.307V184.552L249.005 211.25L275.704 184.552V222.302H313.455L286.757 249L313.455 275.697H275.704ZM288.372 184.315C288.372 170.349 299.726 158.995 313.693 158.995C327.66 158.995 339.014 170.349 339.014 184.315C339.014 198.281 327.66 209.635 313.693 209.635H288.372V184.315ZM231.096 139.614C235.878 134.832 242.244 132.203 249.005 132.203C255.767 132.203 262.133 134.832 266.915 139.614C271.698 144.396 274.326 150.761 274.326 157.523C274.326 164.284 271.698 170.65 266.915 175.432L249.005 193.341L231.096 175.432C221.214 165.551 221.214 149.495 231.096 139.614ZM184.318 158.995C198.285 158.995 209.639 170.349 209.639 184.315V209.635H184.318C170.351 209.635 158.997 198.281 158.997 184.315C158.997 170.349 170.351 158.995 184.318 158.995ZM132.188 249.015C132.188 242.254 134.817 235.888 139.599 231.106C144.539 226.166 151.016 223.696 157.509 223.696C164.001 223.696 170.478 226.166 175.418 231.106L193.328 249.015L175.418 266.924C170.636 271.706 164.27 274.335 157.509 274.335C150.747 274.335 144.381 271.706 139.599 266.924C134.817 262.142 132.188 255.777 132.188 249.015ZM209.639 313.7C209.639 327.666 198.285 339.02 184.318 339.02C170.351 339.02 158.997 327.666 158.997 313.7C158.997 299.734 170.351 288.38 184.318 288.38H209.639V313.7ZM266.915 358.401C257.05 368.282 240.977 368.282 231.096 358.401C221.214 348.52 221.214 332.464 231.096 322.583L249.005 304.674L266.915 322.583C276.797 332.464 276.797 348.52 266.915 358.401ZM313.693 339.02C299.726 339.02 288.372 327.666 288.372 313.7V288.38H313.693C327.66 288.38 339.014 299.734 339.014 313.7C339.014 327.666 327.66 339.02 313.693 339.02ZM358.396 266.909C348.515 276.789 332.458 276.789 322.577 266.909L304.667 249L322.577 231.091C332.458 221.226 348.515 221.21 358.396 231.091C368.278 240.971 368.278 257.028 358.396 266.909Z" fill="black"/>
</svg>
