<svg width="498" height="498" viewBox="0 0 498 498" fill="none" xmlns="http://www.w3.org/2000/svg">
<circle cx="249" cy="249" r="244.02" fill="white" stroke="#ECEDEF" stroke-width="9.96"/>
<g clip-path="url(#clip0_3903_32958)">
<path d="M183.734 216.753L253.226 182.705V89.6406L183.734 216.753Z" fill="#FF596E"/>
<path d="M253.219 182.703V256.856L322.71 216.751L253.219 182.703Z" fill="#FF596E"/>
<path d="M253.226 182.703V256.856L183.734 216.751L253.226 182.703Z" fill="#800010"/>
<path d="M322.71 216.753L253.219 182.705V89.6406L322.71 216.753Z" fill="#800010"/>
<path d="M253.218 285.485V364.519L182.391 244.604L253.218 285.485Z" fill="#FF596E"/>
<path d="M253.219 285.485V364.519L324.046 244.604L253.219 285.485Z" fill="#800010"/>
<path d="M335.762 262.722L351.807 310.284L386.948 248.279L335.762 262.722Z" fill="#800010"/>
<path d="M351.789 310.284L386.93 299.287V248.279L351.789 310.284Z" fill="#FF596E"/>
<path d="M386.923 299.287L335.737 389.624L296.855 407.206L351.783 310.284L386.923 299.287Z" fill="#800010"/>
<path d="M119.52 299.287L170.706 389.623L209.587 407.206L154.66 310.284L119.52 299.287Z" fill="#FF596E"/>
<path d="M253.216 407.218L170.697 262.734L154.652 310.296L209.579 407.218H253.216Z" fill="#800010"/>
<path d="M170.706 262.722L154.66 310.284L119.52 248.279L170.706 262.722Z" fill="#FF596E"/>
<path d="M154.66 310.284L119.52 299.287V248.279L154.66 310.284Z" fill="#800010"/>
<path d="M253.219 407.218L335.737 262.734L351.782 310.296L296.855 407.218H253.219Z" fill="#FF596E"/>
</g>
<defs>
<clipPath id="clip0_3903_32958">
<rect width="267.418" height="317.559" fill="white" transform="translate(119.52 89.6406)"/>
</clipPath>
</defs>
</svg>
