<svg width="498" height="498" viewBox="0 0 498 498" fill="none" xmlns="http://www.w3.org/2000/svg">
<path d="M249.835 497.998C387.354 497.538 498.461 385.683 497.999 248.165C497.538 110.648 385.684 -0.459395 248.165 0.0014283C110.648 0.462252 -0.459395 112.316 0.0014283 249.835C0.462252 387.353 112.316 498.46 249.835 497.998Z" fill="#0074F0"/>
<path opacity="0.2" d="M404.64 403.622C490.015 317.676 489.588 178.71 403.641 93.3354C317.696 7.96014 178.731 8.38774 93.3555 94.333L404.64 403.622Z" fill="white"/>
<path d="M238.844 150.664C242.185 150.322 245.577 150.147 249.01 150.147C303.588 150.147 347.833 194.392 347.833 248.969C347.833 291.531 320.929 327.806 283.2 341.72L249.668 388.876C326.635 388.52 388.916 326.018 388.916 248.969C388.916 176.62 333.999 117.097 263.575 109.812L238.844 150.664Z" fill="white"/>
<path d="M245.825 109.113C170.023 110.801 109.094 172.777 109.094 248.984C109.094 320.28 162.422 379.12 231.366 387.791L260.246 347.175C256.555 347.593 252.803 347.807 249 347.807C194.422 347.807 150.177 303.562 150.177 248.984C150.177 205.248 178.589 168.148 217.962 155.134L245.825 109.113Z" fill="white"/>
<path d="M283.19 341.709C320.919 327.798 347.824 291.52 347.824 248.961H388.909C388.909 326.009 326.625 388.512 249.66 388.865L283.19 341.709Z" fill="url(#paint0_linear_3903_33034)"/>
<path d="M245.825 109.113C170.024 110.801 109.094 172.777 109.094 248.984C109.094 248.984 150.177 249.575 150.177 248.984C150.177 205.248 178.589 168.148 217.962 155.134L245.825 109.113Z" fill="url(#paint1_linear_3903_33034)"/>
<path d="M248.75 363.351L318.997 264.426L248.75 305.884L178.539 264.426L248.75 363.351Z" fill="white"/>
<path opacity="0.1" d="M248.727 363.351L318.975 264.426L248.727 305.884V363.351Z" fill="#0074F0"/>
<path d="M248.536 292.733L319.132 251.201L248.536 134.596L177.938 251.201L248.536 292.733Z" fill="url(#paint2_linear_3903_33034)"/>
<path d="M248.536 292.733L319.132 251.201L248.536 134.596L177.938 251.201L248.536 292.733Z" fill="white"/>
<path opacity="0.1" d="M248.535 292.731L177.938 251.201L248.535 134.596V292.731Z" fill="#0074F0"/>
<path opacity="0.1" d="M248.535 292.721V218.09L177.938 251.186L248.535 292.721Z" fill="#0074F0"/>
<path opacity="0.1" d="M248.531 292.721V218.09L319.128 251.186L248.531 292.721Z" fill="#0074F0"/>
<defs>
<linearGradient id="paint0_linear_3903_33034" x1="156.888" y1="424.261" x2="310.969" y2="323.328" gradientUnits="userSpaceOnUse">
<stop stop-color="#1A82FF" stop-opacity="0.5"/>
<stop offset="1" stop-color="white"/>
</linearGradient>
<linearGradient id="paint1_linear_3903_33034" x1="324.506" y1="44.714" x2="177.08" y2="151.234" gradientUnits="userSpaceOnUse">
<stop stop-color="#1A82FF" stop-opacity="0.5"/>
<stop offset="1" stop-color="white"/>
</linearGradient>
<linearGradient id="paint2_linear_3903_33034" x1="98.3407" y1="176.821" x2="222.022" y2="252.298" gradientUnits="userSpaceOnUse">
<stop stop-color="#1C313F"/>
<stop offset="1" stop-color="white"/>
</linearGradient>
</defs>
</svg>
