<svg width="498" height="498" viewBox="0 0 498 498" fill="none" xmlns="http://www.w3.org/2000/svg">
<circle cx="249" cy="249" r="244.02" fill="white" stroke="#E4E6F8" stroke-width="9.96"/>
<path d="M247.51 378.556L140.297 323.815L247.51 271.234V378.556Z" fill="url(#paint0_linear_3903_32870)"/>
<path d="M247.51 378.556L140.297 323.923L247.619 271.234V378.556H247.51Z" stroke="#5A9DDB" stroke-width="0.536308" stroke-miterlimit="10"/>
<path d="M247.523 271.234L354.738 324.139L247.523 378.556V271.234Z" fill="url(#paint1_linear_3903_32870)"/>
<path d="M247.523 271.234L354.738 324.139L247.631 378.556V271.234H247.523Z" stroke="url(#paint2_linear_3903_32870)" stroke-width="0.536308" stroke-miterlimit="10"/>
<path d="M310.901 240.344L354.738 324.02L247.523 271.115L310.901 240.344Z" fill="url(#paint3_linear_3903_32870)"/>
<path d="M311.009 240.354L354.738 324.03L247.523 271.233L310.901 240.246L311.009 240.354Z" stroke="#3FAEFF" stroke-width="0.536308" stroke-miterlimit="10"/>
<path d="M184.27 240.148L247.54 271.244L140.219 323.717L184.27 240.148Z" fill="url(#paint4_linear_3903_32870)"/>
<path d="M184.241 240.148L247.619 271.136L140.297 323.825L184.241 240.148Z" stroke="#69A5FF" stroke-width="0.536308" stroke-miterlimit="10"/>
<path d="M247.537 271.237V119.539L184.375 240.249L247.754 271.237H247.537Z" fill="url(#paint5_linear_3903_32870)"/>
<path d="M247.531 271.228V119.422L184.477 240.133L247.747 271.228H247.531Z" stroke="#88AABD" stroke-width="0.536308" stroke-miterlimit="10"/>
<path d="M247.523 271.237V119.539L310.901 240.358L247.523 271.237Z" fill="url(#paint6_linear_3903_32870)"/>
<path d="M247.523 271.228V119.422L311.009 240.348L247.523 271.119V271.228Z" stroke="#51A2ED" stroke-width="0.536308" stroke-miterlimit="10"/>
<path d="M247.51 378.556L140.297 323.815L247.51 271.234V378.556Z" fill="url(#paint7_linear_3903_32870)"/>
<path d="M247.51 378.556L140.297 323.923L247.619 271.234V378.556H247.51Z" stroke="#5A9DDB" stroke-width="0.536308" stroke-miterlimit="10"/>
<path d="M247.523 271.234L354.738 324.139L247.523 378.556V271.234Z" fill="url(#paint8_linear_3903_32870)"/>
<path d="M247.523 271.234L354.738 324.139L247.631 378.556V271.234H247.523Z" stroke="url(#paint9_linear_3903_32870)" stroke-width="0.536308" stroke-miterlimit="10"/>
<path d="M310.901 240.344L354.738 324.02L247.523 271.115L310.901 240.344Z" fill="url(#paint10_linear_3903_32870)"/>
<path d="M311.009 240.354L354.738 324.03L247.523 271.233L310.901 240.246L311.009 240.354Z" stroke="#3FAEFF" stroke-width="0.536308" stroke-miterlimit="10"/>
<path d="M184.27 240.148L247.54 271.244L140.219 323.717L184.27 240.148Z" fill="url(#paint11_linear_3903_32870)"/>
<path d="M184.241 240.148L247.619 271.136L140.297 323.825L184.241 240.148Z" stroke="#69A5FF" stroke-width="0.536308" stroke-miterlimit="10"/>
<path d="M247.537 271.237V119.539L184.375 240.249L247.754 271.237H247.537Z" fill="url(#paint12_linear_3903_32870)"/>
<path d="M247.531 271.228V119.422L184.477 240.133L247.747 271.228H247.531Z" stroke="#88AABD" stroke-width="0.536308" stroke-miterlimit="10"/>
<path d="M247.523 271.237V119.539L310.901 240.358L247.523 271.237Z" fill="url(#paint13_linear_3903_32870)"/>
<path d="M247.523 271.228V119.422L311.009 240.348L247.523 271.119V271.228Z" stroke="#51A2ED" stroke-width="0.536308" stroke-miterlimit="10"/>
<path d="M247.51 378.556L140.297 323.815L247.51 271.234V378.556Z" fill="url(#paint14_linear_3903_32870)"/>
<path d="M247.51 378.556L140.297 323.923L247.619 271.234V378.556H247.51Z" stroke="#5A9DDB" stroke-width="0.536308" stroke-miterlimit="10"/>
<path d="M247.523 271.234L354.738 324.139L247.523 378.556V271.234Z" fill="url(#paint15_linear_3903_32870)"/>
<path d="M247.523 271.234L354.738 324.139L247.631 378.556V271.234H247.523Z" stroke="url(#paint16_linear_3903_32870)" stroke-width="0.536308" stroke-miterlimit="10"/>
<path d="M310.901 240.344L354.738 324.02L247.523 271.115L310.901 240.344Z" fill="url(#paint17_linear_3903_32870)"/>
<path d="M311.009 240.354L354.738 324.03L247.523 271.233L310.901 240.246L311.009 240.354Z" stroke="#3FAEFF" stroke-width="0.536308" stroke-miterlimit="10"/>
<path d="M184.27 240.148L247.54 271.244L140.219 323.717L184.27 240.148Z" fill="url(#paint18_linear_3903_32870)"/>
<path d="M184.241 240.148L247.619 271.136L140.297 323.825L184.241 240.148Z" stroke="#69A5FF" stroke-width="0.536308" stroke-miterlimit="10"/>
<path d="M247.537 271.237V119.539L184.375 240.249L247.754 271.237H247.537Z" fill="url(#paint19_linear_3903_32870)"/>
<path d="M247.531 271.228V119.422L184.477 240.133L247.747 271.228H247.531Z" stroke="#88AABD" stroke-width="0.536308" stroke-miterlimit="10"/>
<path d="M247.523 271.237V119.539L310.901 240.358L247.523 271.237Z" fill="url(#paint20_linear_3903_32870)"/>
<path d="M247.523 271.228V119.422L311.009 240.348L247.523 271.119V271.228Z" stroke="#51A2ED" stroke-width="0.536308" stroke-miterlimit="10"/>
<path d="M247.51 378.556L140.297 323.815L247.51 271.234V378.556Z" fill="url(#paint21_linear_3903_32870)"/>
<path d="M247.51 378.556L140.297 323.923L247.619 271.234V378.556H247.51Z" stroke="#5A9DDB" stroke-width="0.536308" stroke-miterlimit="10"/>
<path d="M247.523 271.234L354.738 324.139L247.523 378.556V271.234Z" fill="url(#paint22_linear_3903_32870)"/>
<path d="M247.523 271.234L354.738 324.139L247.631 378.556V271.234H247.523Z" stroke="url(#paint23_linear_3903_32870)" stroke-width="0.536308" stroke-miterlimit="10"/>
<path d="M310.901 240.344L354.738 324.02L247.523 271.115L310.901 240.344Z" fill="url(#paint24_linear_3903_32870)"/>
<path d="M311.009 240.354L354.738 324.03L247.523 271.233L310.901 240.246L311.009 240.354Z" stroke="#3FAEFF" stroke-width="0.536308" stroke-miterlimit="10"/>
<path d="M184.27 240.148L247.54 271.244L140.219 323.717L184.27 240.148Z" fill="url(#paint25_linear_3903_32870)"/>
<path d="M184.241 240.148L247.619 271.136L140.297 323.825L184.241 240.148Z" stroke="#69A5FF" stroke-width="0.536308" stroke-miterlimit="10"/>
<path d="M247.537 271.237V119.539L184.375 240.249L247.754 271.237H247.537Z" fill="url(#paint26_linear_3903_32870)"/>
<path d="M247.531 271.228V119.422L184.477 240.133L247.747 271.228H247.531Z" stroke="#88AABD" stroke-width="0.536308" stroke-miterlimit="10"/>
<path d="M247.523 271.237V119.539L310.901 240.358L247.523 271.237Z" fill="url(#paint27_linear_3903_32870)"/>
<path d="M247.523 271.228V119.422L311.009 240.348L247.523 271.119V271.228Z" stroke="#51A2ED" stroke-width="0.536308" stroke-miterlimit="10"/>
<defs>
<linearGradient id="paint0_linear_3903_32870" x1="163.51" y1="287.754" x2="273.1" y2="342.926" gradientUnits="userSpaceOnUse">
<stop stop-color="#45C7FF"/>
<stop offset="1" stop-color="#0E2450"/>
</linearGradient>
<linearGradient id="paint1_linear_3903_32870" x1="246.66" y1="389.245" x2="326.341" y2="272.53" gradientUnits="userSpaceOnUse">
<stop stop-color="#3B9CF7"/>
<stop offset="0.2" stop-color="#579CED"/>
<stop offset="0.703125" stop-color="#3789D7"/>
<stop offset="1" stop-color="#A5C4DA"/>
</linearGradient>
<linearGradient id="paint2_linear_3903_32870" x1="247.631" y1="-818.614" x2="354.845" y2="-818.614" gradientUnits="userSpaceOnUse">
<stop stop-color="#4FB8D9"/>
<stop offset="0.6" stop-color="#39D8FB"/>
<stop offset="1" stop-color="#3F5FBC"/>
</linearGradient>
<linearGradient id="paint3_linear_3903_32870" x1="293.951" y1="295.948" x2="377.627" y2="203.634" gradientUnits="userSpaceOnUse">
<stop stop-color="#33B6FF"/>
<stop offset="1" stop-color="#6562FD"/>
</linearGradient>
<linearGradient id="paint4_linear_3903_32870" x1="194.42" y1="291.758" x2="206.188" y2="256.344" gradientUnits="userSpaceOnUse">
<stop stop-color="#4AB0EA"/>
<stop offset="1" stop-color="#6D7F9B"/>
</linearGradient>
<linearGradient id="paint5_linear_3903_32870" x1="262.006" y1="195.334" x2="206.401" y2="195.334" gradientUnits="userSpaceOnUse">
<stop stop-color="#695CFB"/>
<stop offset="1" stop-color="#479AFD"/>
</linearGradient>
<linearGradient id="paint6_linear_3903_32870" x1="265.554" y1="212.825" x2="304.856" y2="250.074" gradientUnits="userSpaceOnUse">
<stop stop-color="#5577EE"/>
<stop offset="1" stop-color="#84A6FF"/>
</linearGradient>
<linearGradient id="paint7_linear_3903_32870" x1="163.51" y1="287.754" x2="273.1" y2="342.926" gradientUnits="userSpaceOnUse">
<stop stop-color="#45C7FF"/>
<stop offset="1" stop-color="#0E2450"/>
</linearGradient>
<linearGradient id="paint8_linear_3903_32870" x1="246.66" y1="389.245" x2="326.341" y2="272.53" gradientUnits="userSpaceOnUse">
<stop stop-color="#3B9CF7"/>
<stop offset="0.2" stop-color="#579CED"/>
<stop offset="0.703125" stop-color="#3789D7"/>
<stop offset="1" stop-color="#A5C4DA"/>
</linearGradient>
<linearGradient id="paint9_linear_3903_32870" x1="247.631" y1="-818.614" x2="354.845" y2="-818.614" gradientUnits="userSpaceOnUse">
<stop stop-color="#4FB8D9"/>
<stop offset="0.6" stop-color="#39D8FB"/>
<stop offset="1" stop-color="#3F5FBC"/>
</linearGradient>
<linearGradient id="paint10_linear_3903_32870" x1="293.951" y1="295.948" x2="377.627" y2="203.634" gradientUnits="userSpaceOnUse">
<stop stop-color="#33B6FF"/>
<stop offset="1" stop-color="#6562FD"/>
</linearGradient>
<linearGradient id="paint11_linear_3903_32870" x1="194.42" y1="291.758" x2="206.188" y2="256.344" gradientUnits="userSpaceOnUse">
<stop stop-color="#4AB0EA"/>
<stop offset="1" stop-color="#6D7F9B"/>
</linearGradient>
<linearGradient id="paint12_linear_3903_32870" x1="262.006" y1="195.334" x2="206.401" y2="195.334" gradientUnits="userSpaceOnUse">
<stop stop-color="#695CFB"/>
<stop offset="1" stop-color="#479AFD"/>
</linearGradient>
<linearGradient id="paint13_linear_3903_32870" x1="265.554" y1="212.825" x2="304.856" y2="250.074" gradientUnits="userSpaceOnUse">
<stop stop-color="#5577EE"/>
<stop offset="1" stop-color="#84A6FF"/>
</linearGradient>
<linearGradient id="paint14_linear_3903_32870" x1="163.51" y1="287.754" x2="273.1" y2="342.926" gradientUnits="userSpaceOnUse">
<stop stop-color="#45C7FF"/>
<stop offset="1" stop-color="#0E2450"/>
</linearGradient>
<linearGradient id="paint15_linear_3903_32870" x1="246.66" y1="389.245" x2="326.341" y2="272.53" gradientUnits="userSpaceOnUse">
<stop stop-color="#3B9CF7"/>
<stop offset="0.2" stop-color="#579CED"/>
<stop offset="0.703125" stop-color="#3789D7"/>
<stop offset="1" stop-color="#A5C4DA"/>
</linearGradient>
<linearGradient id="paint16_linear_3903_32870" x1="247.631" y1="-818.614" x2="354.845" y2="-818.614" gradientUnits="userSpaceOnUse">
<stop stop-color="#4FB8D9"/>
<stop offset="0.6" stop-color="#39D8FB"/>
<stop offset="1" stop-color="#3F5FBC"/>
</linearGradient>
<linearGradient id="paint17_linear_3903_32870" x1="293.951" y1="295.948" x2="377.627" y2="203.634" gradientUnits="userSpaceOnUse">
<stop stop-color="#33B6FF"/>
<stop offset="1" stop-color="#6562FD"/>
</linearGradient>
<linearGradient id="paint18_linear_3903_32870" x1="194.42" y1="291.758" x2="206.188" y2="256.344" gradientUnits="userSpaceOnUse">
<stop stop-color="#4AB0EA"/>
<stop offset="1" stop-color="#6D7F9B"/>
</linearGradient>
<linearGradient id="paint19_linear_3903_32870" x1="262.006" y1="195.334" x2="206.401" y2="195.334" gradientUnits="userSpaceOnUse">
<stop stop-color="#695CFB"/>
<stop offset="1" stop-color="#479AFD"/>
</linearGradient>
<linearGradient id="paint20_linear_3903_32870" x1="265.554" y1="212.825" x2="304.856" y2="250.074" gradientUnits="userSpaceOnUse">
<stop stop-color="#5577EE"/>
<stop offset="1" stop-color="#84A6FF"/>
</linearGradient>
<linearGradient id="paint21_linear_3903_32870" x1="163.51" y1="287.754" x2="273.1" y2="342.926" gradientUnits="userSpaceOnUse">
<stop stop-color="#45C7FF"/>
<stop offset="1" stop-color="#0E2450"/>
</linearGradient>
<linearGradient id="paint22_linear_3903_32870" x1="246.66" y1="389.245" x2="326.341" y2="272.53" gradientUnits="userSpaceOnUse">
<stop stop-color="#3B9CF7"/>
<stop offset="0.2" stop-color="#579CED"/>
<stop offset="0.703125" stop-color="#3789D7"/>
<stop offset="1" stop-color="#A5C4DA"/>
</linearGradient>
<linearGradient id="paint23_linear_3903_32870" x1="247.631" y1="-818.614" x2="354.845" y2="-818.614" gradientUnits="userSpaceOnUse">
<stop stop-color="#4FB8D9"/>
<stop offset="0.6" stop-color="#39D8FB"/>
<stop offset="1" stop-color="#3F5FBC"/>
</linearGradient>
<linearGradient id="paint24_linear_3903_32870" x1="293.951" y1="295.948" x2="377.627" y2="203.634" gradientUnits="userSpaceOnUse">
<stop stop-color="#33B6FF"/>
<stop offset="1" stop-color="#6562FD"/>
</linearGradient>
<linearGradient id="paint25_linear_3903_32870" x1="194.42" y1="291.758" x2="206.188" y2="256.344" gradientUnits="userSpaceOnUse">
<stop stop-color="#4AB0EA"/>
<stop offset="1" stop-color="#6D7F9B"/>
</linearGradient>
<linearGradient id="paint26_linear_3903_32870" x1="262.006" y1="195.334" x2="206.401" y2="195.334" gradientUnits="userSpaceOnUse">
<stop stop-color="#695CFB"/>
<stop offset="1" stop-color="#479AFD"/>
</linearGradient>
<linearGradient id="paint27_linear_3903_32870" x1="265.554" y1="212.825" x2="304.856" y2="250.074" gradientUnits="userSpaceOnUse">
<stop stop-color="#5577EE"/>
<stop offset="1" stop-color="#84A6FF"/>
</linearGradient>
</defs>
</svg>
