<svg width="498" height="498" viewBox="0 0 498 498" fill="none" xmlns="http://www.w3.org/2000/svg">
<path d="M249 498C386.519 498 498 386.519 498 249C498 111.481 386.519 0 249 0C111.481 0 0 111.481 0 249C0 386.519 111.481 498 249 498Z" fill="url(#paint0_radial_3903_32923)"/>
<mask id="mask0_3903_32923" style="mask-type:alpha" maskUnits="userSpaceOnUse" x="0" y="0" width="498" height="498">
<path d="M249 498C386.519 498 498 386.519 498 249C498 111.481 386.519 0 249 0C111.481 0 0 111.481 0 249C0 386.519 111.481 498 249 498Z" fill="url(#paint1_radial_3903_32923)"/>
</mask>
<g mask="url(#mask0_3903_32923)">
<path opacity="0.2" d="M-8.28516 136.95C-8.28516 131.45 -3.82591 126.99 1.67484 126.99H137.795C143.295 126.99 147.755 131.45 147.755 136.95V368.52C147.755 374.021 143.295 378.48 137.795 378.48H1.67484C-3.82591 378.48 -8.28516 374.021 -8.28516 368.52V136.95Z" fill="url(#paint2_linear_3903_32923)"/>
<path opacity="0.2" d="M300.477 337.804C300.477 332.303 304.936 327.844 310.437 327.844H488.057C493.557 327.844 498.017 332.303 498.017 337.804V424.124C498.017 429.624 493.557 434.084 488.057 434.084H310.437C304.936 434.084 300.477 429.624 300.477 424.124V337.804Z" fill="#E74310"/>
<path opacity="0.2" d="M415.846 364.357C421.347 364.357 425.806 368.817 425.806 374.317V541.977C425.806 547.478 421.347 551.937 415.846 551.937H350.276C344.776 551.937 340.316 547.478 340.316 541.977V374.317C340.316 368.817 344.776 364.357 350.276 364.357H415.846Z" fill="#DF3600"/>
<path opacity="0.1" d="M201.697 161.85C207.198 161.85 211.657 166.309 211.657 171.81V305.44C211.657 310.94 207.198 315.4 201.697 315.4H127.827C122.327 315.4 117.867 310.94 117.867 305.44V171.81C117.867 166.309 122.327 161.85 127.827 161.85H201.697Z" fill="url(#paint3_linear_3903_32923)"/>
<path opacity="0.1" d="M47.332 201.69C47.332 196.19 51.7913 191.73 57.292 191.73H178.472C183.972 191.73 188.432 196.19 188.432 201.69V328.68C188.432 334.181 183.972 338.64 178.472 338.64H57.292C51.7913 338.64 47.332 334.181 47.332 328.68V201.69Z" fill="url(#paint4_linear_3903_32923)"/>
<path opacity="0.2" d="M498.02 68.0469C503.52 68.0469 507.98 72.5061 507.98 78.0069V245.667C507.98 251.167 503.52 255.627 498.02 255.627H343.64C338.139 255.627 333.68 251.167 333.68 245.667V78.0069C333.68 72.5061 338.139 68.0469 343.64 68.0469H498.02Z" fill="#FF9776"/>
<path opacity="0.2" d="M404.225 -43.166C409.726 -43.166 414.185 -38.7068 414.185 -33.206V151.054C414.185 156.554 409.726 161.014 404.225 161.014H317.905C312.405 161.014 307.945 156.554 307.945 151.054V-33.206C307.945 -38.7068 312.405 -43.166 317.905 -43.166H404.225Z" fill="#FFCA8C"/>
<path opacity="0.2" d="M449.052 -9.95898C454.552 -9.95898 459.012 -5.49973 459.012 0.00102425V205.011C459.012 210.511 454.552 214.971 449.052 214.971H261.472C255.971 214.971 251.512 210.511 251.512 205.011V0.00102139C251.512 -5.49973 255.971 -9.95898 261.472 -9.95898H449.052Z" fill="url(#paint5_linear_3903_32923)"/>
<path opacity="0.1" d="M175.967 -68.0664C181.468 -68.0664 185.927 -63.6071 185.927 -58.1064V79.6736C185.927 85.174 181.468 89.6336 175.967 89.6336H110.398C104.897 89.6336 100.438 85.174 100.438 79.6736V-58.1064C100.438 -63.6071 104.897 -68.0664 110.398 -68.0664H175.967Z" fill="#DF3600"/>
<path opacity="0.1" d="M183.446 359.377C188.947 359.377 193.406 363.837 193.406 369.337V488.027C193.406 493.527 188.947 497.987 183.446 497.987H16.6163C11.1155 497.987 6.65625 493.527 6.65625 488.027L6.65626 369.337C6.65626 363.837 11.1155 359.377 16.6163 359.377H183.446Z" fill="#DF3600"/>
<path opacity="0.1" d="M330.36 292.984C335.86 292.984 340.32 297.444 340.32 302.944V488.034C340.32 493.535 335.86 497.994 330.36 497.994H139.46C133.96 497.994 129.5 493.535 129.5 488.034V302.944C129.5 297.444 133.96 292.984 139.46 292.984H330.36Z" fill="#FFD494"/>
<path opacity="0.2" d="M267.269 8.70728e-06C272.77 8.94773e-06 277.229 4.45925 277.229 9.96V58.1C277.229 63.6007 272.77 68.06 267.269 68.06H68.0694C62.5686 68.06 58.1094 63.6007 58.1094 58.1V9.96C58.1094 4.45924 62.5686 -2.40446e-07 68.0694 0L267.269 8.70728e-06Z" fill="#FFD494"/>
<path opacity="0.1" d="M110.19 493.152L483.199 120.143L470.406 107.35L97.397 480.359L110.19 493.152Z" fill="#DF3600"/>
<path opacity="0.1" d="M82.2134 465.996L455.223 92.9863L438.567 76.3304L65.5575 449.34L82.2134 465.996Z" fill="#DF3600"/>
<path opacity="0.1" d="M66.479 448.585L439.488 75.5762L422.832 58.9203L49.8231 431.93L66.479 448.585Z" fill="#F45C2C"/>
<path opacity="0.2" d="M51.5376 430.337L424.547 57.3281L410.839 43.6199L37.8294 416.629L51.5376 430.337Z" fill="#F45C2C"/>
<path opacity="0.1" d="M37.8032 416.583L410.812 43.5742L397.104 29.866L24.095 402.875L37.8032 416.583Z" fill="#FFBC6E"/>
<path opacity="0.1" d="M28.6626 398.337L401.672 25.3281L387.964 11.6199L14.9544 384.629L28.6626 398.337Z" fill="#DF3600"/>
<path opacity="0.09" d="M-15.3166 288.772L278.805 -5.34961L265.096 -19.0578L-29.0248 275.064L-15.3166 288.772Z" fill="#FFD5A4"/>
<path opacity="0.08" d="M-31.094 272.139L263.027 -21.9824L249.319 -35.6906L-44.8022 258.431L-31.094 272.139Z" fill="#FFD5A4"/>
<path opacity="0.05" d="M-45.2151 253.037L248.906 -41.084L235.198 -54.7922L-58.9233 239.329L-45.2151 253.037Z" fill="#FFD5A4"/>
<path opacity="0.2" d="M7.91126 328.745L349.516 -12.8594L335.807 -26.5676L-5.79693 315.037L7.91126 328.745Z" fill="#FFD5A4"/>
<path opacity="0.2" d="M17.0363 350.319L358.641 8.71484L344.932 -4.99335L3.32807 336.611L17.0363 350.319Z" fill="#FFD5A4"/>
<path opacity="0.1" d="M2.09647 303.71L305.281 0.525391L291.573 -13.1828L-11.6117 290.002L2.09647 303.71Z" fill="#FFD5A4"/>
<path opacity="0.1" d="M109.643 493.423L482.652 120.414L455.304 93.0655L82.2945 466.075L109.643 493.423Z" fill="#DF3600"/>
<path opacity="0.1" d="M109.643 493.423L482.652 120.414L455.164 92.9262L82.1552 465.935L109.643 493.423Z" fill="#DF3600"/>
</g>
<path d="M248.636 389.138L157.977 260.826L248.807 314.758L339.885 261.244L248.636 389.138Z" fill="white"/>
<g filter="url(#filter0_d_3903_32923)">
<path d="M248.851 297.53L158.021 243.517L249.321 92.8435L339.847 243.934L248.851 297.53Z" fill="white"/>
</g>
<defs>
<filter id="filter0_d_3903_32923" x="149.02" y="81.8437" width="201.828" height="224.686" filterUnits="userSpaceOnUse" color-interpolation-filters="sRGB">
<feFlood flood-opacity="0" result="BackgroundImageFix"/>
<feColorMatrix in="SourceAlpha" type="matrix" values="0 0 0 0 0 0 0 0 0 0 0 0 0 0 0 0 0 0 127 0" result="hardAlpha"/>
<feOffset dx="1" dy="-1"/>
<feGaussianBlur stdDeviation="5"/>
<feComposite in2="hardAlpha" operator="out"/>
<feColorMatrix type="matrix" values="0 0 0 0 0 0 0 0 0 0 0 0 0 0 0 0 0 0 0.05 0"/>
<feBlend mode="normal" in2="BackgroundImageFix" result="effect1_dropShadow_3903_32923"/>
<feBlend mode="normal" in="SourceGraphic" in2="effect1_dropShadow_3903_32923" result="shape"/>
</filter>
<radialGradient id="paint0_radial_3903_32923" cx="0" cy="0" r="1" gradientUnits="userSpaceOnUse" gradientTransform="translate(162.68 119.105) rotate(54.1675) scale(412.578)">
<stop stop-color="#FFD794"/>
<stop offset="1" stop-color="#ED5A37"/>
</radialGradient>
<radialGradient id="paint1_radial_3903_32923" cx="0" cy="0" r="1" gradientUnits="userSpaceOnUse" gradientTransform="translate(162.68 119.105) rotate(54.1675) scale(412.578)">
<stop stop-color="#FFD794"/>
<stop offset="1" stop-color="#ED5A37"/>
</radialGradient>
<linearGradient id="paint2_linear_3903_32923" x1="69.7348" y1="126.99" x2="69.7348" y2="378.48" gradientUnits="userSpaceOnUse">
<stop stop-color="#FFE090"/>
<stop offset="1" stop-color="#FFE090" stop-opacity="0"/>
</linearGradient>
<linearGradient id="paint3_linear_3903_32923" x1="164.347" y1="161.85" x2="164.347" y2="303.78" gradientUnits="userSpaceOnUse">
<stop stop-color="#DF3600"/>
<stop offset="1" stop-color="#DF3600" stop-opacity="0"/>
</linearGradient>
<linearGradient id="paint4_linear_3903_32923" x1="47.332" y1="265.835" x2="177.754" y2="265.835" gradientUnits="userSpaceOnUse">
<stop stop-color="#DF3600"/>
<stop offset="1" stop-color="#DF3600" stop-opacity="0"/>
</linearGradient>
<linearGradient id="paint5_linear_3903_32923" x1="355.262" y1="-9.95898" x2="355.262" y2="214.971" gradientUnits="userSpaceOnUse">
<stop stop-color="#DF3600"/>
<stop offset="1" stop-color="#DF3600" stop-opacity="0"/>
</linearGradient>
</defs>
</svg>
