<svg width="498" height="498" viewBox="0 0 498 498" fill="none" xmlns="http://www.w3.org/2000/svg">
<path d="M249 498C215.391 498 182.784 491.412 152.074 478.429C122.418 465.885 95.8017 447.929 72.9273 425.073C50.0706 402.216 32.1154 375.582 19.5714 345.926C6.58823 315.216 0 282.609 0 249C0 215.391 6.58823 182.784 19.5714 152.074C32.1154 122.418 50.0706 95.8017 72.9273 72.9273C95.8017 50.0706 122.418 32.1154 152.074 19.5714C182.784 6.58823 215.391 0 249 0C282.609 0 315.216 6.58823 345.926 19.5714C375.582 32.1154 402.198 50.0706 425.073 72.9273C447.929 95.7841 465.885 122.418 478.429 152.074C491.412 182.784 498 215.391 498 249C498 282.609 491.412 315.216 478.429 345.926C465.885 375.582 447.929 402.198 425.073 425.073C402.216 447.929 375.582 465.885 345.926 478.429C315.216 491.429 282.609 498 249 498Z" fill="white"/>
<path d="M248.993 484.821C379.225 484.821 484.799 379.247 484.799 249.015C484.799 118.783 379.225 13.209 248.993 13.209C118.761 13.209 13.1875 118.783 13.1875 249.015C13.1875 379.247 118.761 484.821 248.993 484.821Z" fill="black"/>
<path d="M254.801 155.203C286.301 158.014 311.091 184.103 311.864 216.148L360.195 236.229L335.002 195.154L388.568 141.587L356.558 109.577L310.669 155.484L254.818 64.4082V155.203H254.801Z" fill="white"/>
<path d="M311.038 228.086C306.4 255.985 283.35 277.647 254.801 280.212V313.382L361.161 248.922L311.038 228.086Z" fill="white"/>
<path d="M187.252 228.086L137.129 248.905L243.489 313.364V280.194C214.94 277.647 191.89 255.985 187.252 228.086Z" fill="white"/>
<path d="M359.967 282.711L254.801 346.45V430.867L298.072 369.886L343.241 415.055L375.251 383.045L324.654 332.448L359.967 282.711Z" fill="white"/>
<path d="M243.474 346.45L138.308 282.711L173.621 332.448L123.023 383.045L155.033 415.055L200.202 369.904L243.474 430.85V346.45Z" fill="white"/>
<path d="M138.092 236.247L186.423 216.166C187.196 184.121 211.986 158.031 243.486 155.22V64.4082L187.636 155.484L141.729 109.577L109.719 141.605L163.285 195.171L138.092 236.247Z" fill="white"/>
<path d="M251.362 210.493C235.849 205.732 235.849 203.096 235.849 200.97C235.849 198.019 240.312 193.943 248.692 193.943C253.646 193.943 261.974 195.173 261.974 203.465H277.065C277.065 188.743 265.663 178.852 248.692 178.852C230.544 178.852 220.758 190.254 220.758 200.97C220.758 215.623 233.618 220.823 246.83 224.899C262.343 229.66 262.431 232.33 262.431 234.456C262.431 237.408 257.968 241.484 249.588 241.484C244.616 241.484 236.306 240.254 236.306 231.961H221.215C221.215 246.684 232.617 256.575 249.588 256.575C267.736 256.575 277.522 245.173 277.522 234.456C277.54 219.786 264.592 214.551 251.362 210.493Z" fill="white"/>
</svg>
