<svg width="498" height="498" viewBox="0 0 498 498" fill="none" xmlns="http://www.w3.org/2000/svg">
<rect width="498" height="498" rx="249" fill="url(#paint0_linear_3903_33080)"/>
<path d="M251.456 426.199L169.392 291.38C194.018 291.461 222.849 288.029 251.456 277.421V426.199ZM251.456 237.992C247.931 239.089 244.443 240.302 241.003 241.64C207.541 254.652 172.955 255.587 148.664 253.161L251.456 84.2891V237.992Z" fill="white"/>
<path d="M254.475 276.277C277.812 267.202 305.833 265.015 332.299 266.457C337.651 266.749 342.876 267.186 347.912 267.729L251.453 426.199V277.423C252.46 277.049 253.468 276.669 254.475 276.277ZM339.967 229.704C338.1 229.57 336.217 229.451 334.321 229.348C308.432 227.937 278.852 229.463 251.453 237.994V84.2891L339.967 229.704Z" fill="#7592F2"/>
<defs>
<linearGradient id="paint0_linear_3903_33080" x1="249" y1="0" x2="249" y2="498" gradientUnits="userSpaceOnUse">
<stop stop-color="#2042CA"/>
<stop offset="1" stop-color="#3064EC"/>
</linearGradient>
</defs>
</svg>
