<svg width="498" height="498" viewBox="0 0 498 498" fill="none" xmlns="http://www.w3.org/2000/svg">
<circle cx="249" cy="249" r="249" fill="url(#paint0_linear_3903_33012)"/>
<path d="M245.298 210.689V101.156L155.625 251.941L245.298 305.668V210.689Z" fill="#868686"/>
<path d="M245.324 305.668L335.105 251.941L245.324 101.156V210.689V305.668Z" fill="#312706"/>
<path d="M245.298 322.887L155.625 269.27L245.298 397.294V322.887Z" fill="#868686"/>
<path d="M335.086 269.27L245.305 322.887V397.294L335.086 269.27Z" fill="#312807"/>
<path opacity="0.6" d="M245.298 305.696L335.078 251.969L245.298 210.717L155.625 251.969L245.298 305.696Z" fill="black"/>
<path d="M73.1873 402.567C35.2759 359.164 14.7592 303.272 15.5866 245.649C16.4139 188.025 38.5269 132.745 77.6688 90.4481L98.2213 109.468C63.7748 146.691 44.3144 195.34 43.5863 246.051C42.8582 296.761 60.9137 345.949 94.2774 384.146L73.1873 402.567Z" fill="white"/>
<path d="M98.0631 70.9238C142.025 33.6618 198.217 13.9783 255.821 15.6622C313.425 17.3461 368.371 40.2784 410.081 80.0448L390.758 100.312C354.052 65.3162 305.697 45.1348 255.003 43.6528C204.308 42.1709 154.858 59.4933 116.169 92.2854L98.0631 70.9238Z" fill="white"/>
<path d="M426.306 97.1594C463.791 140.931 483.76 197.022 482.37 254.634C480.979 312.246 458.326 367.308 418.772 409.22L398.407 390C433.216 353.116 453.151 304.66 454.375 253.958C455.599 203.257 438.026 153.895 405.037 115.374L426.306 97.1594Z" fill="white"/>
<path d="M403.049 424.391C359.75 462.421 303.914 483.091 246.289 482.422C188.664 481.753 133.323 459.791 90.9188 420.766L109.882 400.161C147.199 434.505 195.902 453.832 246.614 454.421C297.327 455.01 346.465 436.82 384.57 403.351L403.049 424.391Z" fill="white"/>
<defs>
<linearGradient id="paint0_linear_3903_33012" x1="0" y1="249" x2="498" y2="249" gradientUnits="userSpaceOnUse">
<stop stop-color="#F8D339"/>
<stop offset="1" stop-color="#F0BA0D"/>
</linearGradient>
</defs>
</svg>
