<svg width="498" height="498" viewBox="0 0 498 498" fill="none" xmlns="http://www.w3.org/2000/svg">
<g clip-path="url(#clip0_3903_33089)">
<path d="M498 249C498 111.481 386.519 0 249 0C111.481 0 0 111.481 0 249C0 386.519 111.481 498 249 498C386.519 498 498 386.519 498 249Z" fill="#00A3FF"/>
<path opacity="0.6" d="M351.141 231.307L353.928 235.583C385.371 283.816 378.348 346.985 337.045 387.453C312.747 411.262 280.901 423.167 249.055 423.17C249.055 423.17 249.055 423.17 351.141 231.307Z" fill="white"/>
<path opacity="0.2" d="M249.039 289.619L351.125 231.307C249.04 423.17 249.039 423.17 249.039 423.17C249.039 381.384 249.039 333.502 249.039 289.619Z" fill="white"/>
<path d="M146.86 231.307L144.072 235.583C112.63 283.816 119.652 346.985 160.955 387.453C185.253 411.262 217.099 423.167 248.946 423.17C248.946 423.17 248.946 423.17 146.86 231.307Z" fill="white"/>
<path opacity="0.6" d="M248.914 289.619L146.828 231.307C248.914 423.17 248.914 423.17 248.914 423.17C248.914 381.384 248.914 333.502 248.914 289.619Z" fill="white"/>
<path opacity="0.2" d="M249.078 159.35V259.922L337.014 209.668L249.078 159.35Z" fill="white"/>
<path opacity="0.6" d="M249.054 159.35L161.055 209.667L249.054 259.922V159.35Z" fill="white"/>
<path d="M249.054 74.7773L161.055 209.708L249.054 159.25V74.7773Z" fill="white"/>
<path opacity="0.6" d="M249.078 159.227L337.081 209.688L249.078 74.6895V159.227Z" fill="white"/>
</g>
<defs>
<clipPath id="clip0_3903_33089">
<rect width="498" height="498" fill="white"/>
</clipPath>
</defs>
</svg>
