<svg width="498" height="498" viewBox="0 0 498 498" fill="none" xmlns="http://www.w3.org/2000/svg">
<path d="M249 4.98047C383.769 4.98047 493.02 114.231 493.02 249C493.02 383.769 383.769 493.02 249 493.02C114.231 493.02 4.98047 383.769 4.98047 249C4.98047 114.231 114.231 4.98047 249 4.98047Z" fill="white" stroke="#ECEDEF" stroke-width="9.96"/>
<path d="M249 90.5352V207.682L350.819 251.926L249 90.5352Z" fill="black" fill-opacity="0.602"/>
<path d="M248.977 90.5352L147.145 251.926L248.977 207.682V90.5352Z" fill="black"/>
<path d="M249 327.837V407.436L350.887 270.359L249 327.837Z" fill="black" fill-opacity="0.602"/>
<path d="M248.977 407.436V327.824L147.145 270.359L248.977 407.436Z" fill="black"/>
<path d="M249 309.429L350.819 251.938L249 207.721V309.429Z" fill="black" fill-opacity="0.2"/>
<path d="M147.145 251.938L248.977 309.429V207.721L147.145 251.938Z" fill="black" fill-opacity="0.602"/>
</svg>
