<svg width="24" height="24" viewBox="0 0 24 24" fill="none" xmlns="http://www.w3.org/2000/svg">
<rect width="24" height="24" rx="12" fill="#121212"/>
<mask id="mask0_3655_21545" style="mask-type:luminance" maskUnits="userSpaceOnUse" x="3" y="4" width="18" height="16">
<path d="M20.6139 4.09766H3.21875V19.6833H20.6139V4.09766Z" fill="white"/>
</mask>
<g mask="url(#mask0_3655_21545)">
<path d="M20.5243 16.3858L17.6527 19.471C17.5903 19.538 17.5148 19.5914 17.4308 19.628C17.3469 19.6645 17.2564 19.6833 17.1649 19.6833H3.55212C3.48717 19.6833 3.42363 19.6642 3.36931 19.6286C3.315 19.5929 3.27227 19.5421 3.24638 19.4824C3.22049 19.4227 3.21256 19.3568 3.22358 19.2926C3.23459 19.2285 3.26407 19.169 3.30838 19.1214L6.18214 16.0362C6.24439 15.9694 6.3197 15.916 6.40335 15.8795C6.48699 15.8431 6.57726 15.8241 6.66852 15.824H20.2806C20.3455 15.824 20.409 15.843 20.4634 15.8787C20.5177 15.9143 20.5604 15.9651 20.5863 16.0248C20.6122 16.0845 20.6201 16.1505 20.6091 16.2146C20.5981 16.2787 20.5686 16.3382 20.5243 16.3858ZM17.6527 10.1731C17.5903 10.1061 17.5148 10.0526 17.4308 10.0161C17.3469 9.97959 17.2564 9.96077 17.1649 9.9608H3.55212C3.48717 9.9608 3.42363 9.97982 3.36931 10.0155C3.315 10.0512 3.27227 10.102 3.24638 10.1617C3.22049 10.2213 3.21256 10.2873 3.22358 10.3514C3.23459 10.4155 3.26407 10.4751 3.30838 10.5226L6.18214 13.6078C6.24439 13.6747 6.3197 13.728 6.40335 13.7645C6.48699 13.801 6.57726 13.8199 6.66852 13.8201H20.2806C20.3455 13.8201 20.409 13.8011 20.4634 13.7654C20.5177 13.7297 20.5604 13.6789 20.5863 13.6192C20.6122 13.5596 20.6201 13.4936 20.6091 13.4295C20.5981 13.3654 20.5686 13.3058 20.5243 13.2583L17.6527 10.1731ZM3.55212 7.95694H17.1649C17.2564 7.957 17.3469 7.93818 17.4308 7.90166C17.5148 7.86513 17.5903 7.81171 17.6527 7.74469L20.5243 4.65948C20.5686 4.6119 20.5981 4.5524 20.6091 4.48827C20.6201 4.42414 20.6122 4.35819 20.5863 4.29851C20.5604 4.23883 20.5177 4.18803 20.4634 4.15235C20.409 4.11667 20.3455 4.09766 20.2806 4.09766H6.66852C6.57726 4.09781 6.48699 4.11673 6.40335 4.15324C6.3197 4.18975 6.24439 4.24308 6.18214 4.30992L3.30912 7.39511C3.26485 7.44264 3.23539 7.50209 3.22435 7.56615C3.21331 7.63022 3.22117 7.6961 3.24697 7.75575C3.27277 7.8154 3.31538 7.86621 3.36959 7.90195C3.42379 7.93769 3.48723 7.9568 3.55212 7.95694Z" fill="url(#paint0_linear_3655_21545)"/>
</g>
<defs>
<linearGradient id="paint0_linear_3655_21545" x1="4.6871" y1="20.0547" x2="18.991" y2="3.95892" gradientUnits="userSpaceOnUse">
<stop offset="0.08" stop-color="#9945FF"/>
<stop offset="0.3" stop-color="#8752F3"/>
<stop offset="0.5" stop-color="#5497D5"/>
<stop offset="0.6" stop-color="#43B4CA"/>
<stop offset="0.72" stop-color="#28E0B9"/>
<stop offset="0.97" stop-color="#19FB9B"/>
</linearGradient>
</defs>
</svg>
