<svg width="24" height="24" viewBox="0 0 24 24" fill="none" xmlns="http://www.w3.org/2000/svg">
<g clip-path="url(#clip0_3951_32403)">
<mask id="mask0_3951_32403" style="mask-type:luminance" maskUnits="userSpaceOnUse" x="0" y="0" width="76" height="24">
<path d="M75.2 0H0V24H75.2V0Z" fill="white"/>
</mask>
<g mask="url(#mask0_3951_32403)">
<path d="M23.9693 11.1861C23.5201 4.57328 17.7961 -0.421124 11.1853 0.0280752C7.89212 0.252475 5.00012 1.78648 2.98171 4.08448L2.97571 4.08048C2.96131 4.09888 2.94891 4.11728 2.93651 4.13568C0.932112 6.44808 -0.195889 9.52048 0.0281108 12.8145C0.0489108 13.1289 0.0857108 13.4369 0.130911 13.7425C0.130911 13.7573 0.134911 13.7693 0.136911 13.7837C0.167711 13.9849 0.202911 14.1865 0.241711 14.3837C0.278489 14.566 0.319567 14.7473 0.364911 14.9277C1.75131 20.4541 6.92852 24.3681 12.8141 23.9677C19.4249 23.5181 24.4213 17.7945 23.9717 11.1821L23.9693 11.1861ZM21.3573 11.3645C21.4129 12.1781 21.3613 12.9749 21.2157 13.7429C21.2157 13.7389 21.2117 13.7349 21.2117 13.7305C20.3405 11.6049 18.6197 10.0689 17.1081 9.22048C17.4141 5.61848 16.1921 4.09888 14.8081 3.85248C14.5399 3.8021 14.2643 3.80707 13.9981 3.86709C13.7319 3.92711 13.4808 4.04092 13.2602 4.20152C13.0396 4.36208 12.8542 4.56608 12.7153 4.80096C12.5764 5.0358 12.487 5.2966 12.4525 5.56728C12.4188 5.8284 12.4369 6.0936 12.5058 6.34768C12.5748 6.60176 12.6931 6.8398 12.8542 7.04808C13.0152 7.25636 13.2157 7.43084 13.4443 7.56152C13.6728 7.69224 13.9249 7.77656 14.1861 7.80968C14.2825 7.82208 14.3769 7.82608 14.4693 7.82408C14.476 7.95264 14.4795 8.08136 14.4797 8.21008C13.2001 7.89408 12.0049 7.83008 10.9145 7.92888C10.5045 7.95576 10.0964 8.0072 9.69252 8.08288C9.82852 6.86688 10.2861 5.49928 11.1713 4.50128C12.0273 3.53408 13.3009 2.98168 14.6889 3.12328C14.9521 3.15008 15.2333 3.21568 15.4857 3.30008C15.4981 3.30408 15.5105 3.30808 15.5209 3.31008C18.7369 4.62048 21.1049 7.67408 21.3553 11.3645H21.3573ZM12.9929 13.1965C12.9929 13.1965 12.9929 13.1985 12.9909 13.2005C12.6875 13.6365 12.3437 14.043 11.9641 14.4145C11.3892 13.8072 10.9024 13.122 10.5181 12.3793C10.4997 12.3401 10.4793 12.3053 10.4605 12.2661V12.2621C10.2353 11.7807 10.0552 11.2795 9.92252 10.7649C10.7745 10.5637 11.6105 10.4897 12.4097 10.5289L12.5369 10.5349H12.5409C13.0421 10.5761 13.5637 10.6685 14.1037 10.8165C13.853 11.6594 13.4794 12.4606 12.9949 13.1945L12.9929 13.1965ZM8.89372 3.14808L8.88772 3.15608C7.48092 4.97168 7.01252 7.22848 7.03332 8.96168C3.75971 10.4977 3.05731 12.3153 3.53371 13.6377C3.54571 13.6749 3.56051 13.7097 3.57491 13.7449C3.78016 14.2352 4.17168 14.6239 4.6634 14.8257C5.15512 15.0274 5.70684 15.0257 6.19732 14.8209C6.6876 14.6156 7.07632 14.2241 7.27808 13.7324C7.47988 13.2406 7.47812 12.6889 7.27332 12.1985C7.23604 12.1114 7.19288 12.0269 7.14412 11.9457C7.24692 11.8777 7.35772 11.8105 7.47692 11.7405C7.84212 13.0077 8.38252 14.0777 9.01292 14.9729C9.24092 15.3117 9.48732 15.6381 9.75612 15.9525C8.63492 16.4433 7.22212 16.7309 5.91372 16.4637C4.64892 16.2053 3.53371 15.3797 2.96091 14.1061C2.85118 13.8563 2.76857 13.5955 2.71451 13.3281C2.68074 13.0984 2.65539 12.8676 2.63851 12.6361C2.34651 8.33768 5.01252 4.51168 8.89372 3.14808ZM12.6353 21.3577C10.0829 21.5321 7.69652 20.6617 5.89332 19.1129C8.16892 19.4233 10.3581 18.7001 11.8493 17.8153C14.8165 19.8833 16.7429 19.5833 17.6505 18.5093C17.8283 18.302 17.9619 18.0606 18.043 17.7998C18.1242 17.539 18.1511 17.2644 18.1223 16.9928C18.0934 16.7212 18.0094 16.4584 17.8753 16.2205C17.7412 15.9826 17.5599 15.7746 17.3425 15.6093C17.1331 15.4496 16.8943 15.3328 16.6398 15.2656C16.3852 15.1982 16.1199 15.1818 15.859 15.2171C15.598 15.2524 15.3466 15.3387 15.1191 15.4712C14.8916 15.6037 14.6924 15.7798 14.5329 15.9893C14.4757 16.0653 14.4241 16.1477 14.3789 16.2297C14.2701 16.1741 14.1549 16.1125 14.0381 16.0449C14.8742 15.1823 15.5593 14.1854 16.0649 13.0957C16.2459 12.7268 16.405 12.3476 16.5413 11.9601C17.5273 12.6873 18.4841 13.7653 18.9073 15.0321C19.3161 16.2561 19.1597 17.6361 18.3425 18.7681C18.1811 18.9877 17.9966 19.1894 17.7921 19.3697L17.7841 19.3777C16.3074 20.5409 14.5134 21.2304 12.6377 21.3557L12.6353 21.3577Z" fill="url(#paint0_linear_3951_32403)"/>
<path style="mix-blend-mode:overlay" opacity="0.9" d="M14.809 3.85061C14.5838 3.80787 14.353 3.80516 14.127 3.84261C15.2754 4.46659 16.111 6.20619 15.6718 9.63979C15.5263 10.7565 15.1982 11.8416 14.7006 12.8518C14.2717 13.7736 13.7135 14.6296 13.043 15.3938C13.3608 15.633 13.6935 15.8518 14.039 16.049C14.8751 15.1866 15.5604 14.1898 16.0662 13.1002C16.565 12.0905 16.8932 11.0052 17.0374 9.88819C17.5614 5.80139 16.2758 4.11339 14.8094 3.85221L14.809 3.85061Z" fill="url(#paint1_radial_3951_32403)"/>
<g style="mix-blend-mode:overlay" opacity="0.8">
<path d="M15.6712 9.63744C16.1108 6.20544 15.2748 4.46424 14.1268 3.83984C14.0816 3.84584 14.0388 3.85624 13.9932 3.86664C15.1168 4.51344 15.9256 6.25064 15.4924 9.63744C15.347 10.7541 15.0189 11.8393 14.5212 12.8494C14.1078 13.7386 13.5736 14.5665 12.9336 15.3094C12.9704 15.3382 13.0056 15.365 13.0424 15.3914C13.7124 14.6267 14.2704 13.7707 14.6996 12.849C15.1986 11.8394 15.5269 10.7544 15.6712 9.63744Z" fill="white"/>
</g>
<path style="mix-blend-mode:overlay" opacity="0.5" d="M11.306 17.4228C11.1972 17.3408 11.0944 17.2544 10.99 17.168C9.29563 17.8748 6.94803 18.318 4.61523 17.776C4.99511 18.2626 5.42227 18.7104 5.89043 19.1128C8.16603 19.4232 10.3552 18.7 11.8464 17.8152C11.6632 17.6871 11.4823 17.5556 11.304 17.4208L11.306 17.4228Z" fill="url(#paint2_radial_3951_32403)"/>
<path style="mix-blend-mode:overlay" opacity="0.6" d="M10.9921 17.1683C10.9409 17.1251 10.8877 17.0823 10.8385 17.0391C9.13171 17.7207 6.77211 18.1295 4.44531 17.5483C4.50291 17.6243 4.56051 17.7023 4.61771 17.7763C6.94891 18.3183 9.29771 17.8751 10.9921 17.1683Z" fill="url(#paint3_linear_3951_32403)"/>
<path style="mix-blend-mode:overlay" opacity="0.9" d="M3.53571 13.6406C3.54771 13.6774 3.56251 13.7126 3.57691 13.7474C3.65291 13.9282 3.75131 14.0902 3.87051 14.2362C3.83771 12.9302 4.92611 11.3342 8.11731 9.99936C9.15699 9.56692 10.2609 9.3088 11.3845 9.23536C12.3976 9.14504 13.4184 9.2004 14.4157 9.39976C14.4673 8.96856 14.4877 8.56616 14.4837 8.21056C13.3188 7.91732 12.1129 7.82224 10.9165 7.92936C9.79275 8.00296 8.68879 8.26108 7.64891 8.69336C3.84811 10.283 3.02851 12.2402 3.53611 13.6426L3.53571 13.6406Z" fill="url(#paint4_radial_3951_32403)"/>
<g style="mix-blend-mode:overlay" opacity="0.8">
<path d="M8.11669 10.0024C4.92549 11.3376 3.83667 12.9332 3.86987 14.2392C3.89867 14.274 3.92947 14.3072 3.96027 14.34C3.95787 13.044 5.05869 11.4752 8.20709 10.1564C9.24677 9.724 10.3507 9.46588 11.4743 9.39244C12.4511 9.30604 13.4351 9.35448 14.3987 9.53644C14.4051 9.49136 14.4106 9.44616 14.4151 9.40084C13.4176 9.2026 12.3969 9.1474 11.3839 9.23684C10.2603 9.31048 9.15645 9.5686 8.11669 10.0008V10.0024Z" fill="white"/>
</g>
<path style="mix-blend-mode:overlay" opacity="0.4" d="M17.0401 9.8863C17.0241 10.0219 17.0013 10.1531 16.9785 10.2867C18.4365 11.3999 19.9953 13.2131 20.6937 15.5027C20.9245 14.9298 21.0986 14.3356 21.2133 13.7287C20.3445 11.6031 18.6237 10.0687 17.1121 9.2207C17.0937 9.4367 17.0709 9.6563 17.0421 9.8863H17.0401Z" fill="url(#paint5_radial_3951_32403)"/>
<path style="mix-blend-mode:overlay" opacity="0.5" d="M16.9786 10.2871C16.9662 10.3527 16.9558 10.4207 16.9434 10.4863C18.3874 11.6239 19.9214 13.4623 20.5806 15.7683C20.6194 15.6803 20.6566 15.5915 20.6914 15.5035C19.9934 13.2135 18.4366 11.4023 16.9762 10.2871H16.9786Z" fill="url(#paint6_linear_3951_32403)"/>
<path style="mix-blend-mode:overlay" opacity="0.9" d="M17.6507 18.5079C17.7991 18.333 17.9171 18.1346 17.9999 17.9207C16.8847 18.6023 14.9599 18.4567 12.2063 16.3595C11.3111 15.6757 10.5353 14.8486 9.9103 13.9115C9.32546 13.0796 8.86278 12.1682 8.5363 11.2051C8.1379 11.3755 7.7787 11.5603 7.4707 11.7411C7.7999 12.8964 8.32042 13.9883 9.0107 14.9715C9.6267 15.8915 10.3947 16.7235 11.3067 17.4195C14.5843 19.9167 16.6895 19.6475 17.6483 18.5075L17.6507 18.5079Z" fill="url(#paint7_radial_3951_32403)"/>
<g style="mix-blend-mode:overlay" opacity="0.8">
<path d="M12.2071 16.3583C14.9587 18.4547 16.8851 18.6007 17.9999 17.9187C18.0163 17.8759 18.0307 17.8327 18.0431 17.7915C16.9219 18.4427 15.0119 18.2719 12.2971 16.2043C11.4019 15.5206 10.6261 14.6934 10.0011 13.7563C9.43782 12.9539 8.98798 12.0777 8.66426 11.1523C8.62106 11.1707 8.58026 11.1871 8.53906 11.2055C8.86538 12.1687 9.32794 13.0803 9.91266 13.9123C10.5287 14.8323 11.2967 15.6643 12.2087 16.3603L12.2071 16.3583Z" fill="white"/>
</g>
<path style="mix-blend-mode:overlay" opacity="0.3" d="M7.64591 8.68876C7.77111 8.63716 7.89631 8.58996 8.02351 8.54276C8.25791 6.72316 9.04831 4.46636 10.6835 2.71875C10.0715 2.80675 9.46951 2.95075 8.88631 3.15395C7.47911 4.96956 7.01111 7.22636 7.03191 8.95996C7.22671 8.86796 7.43031 8.77716 7.64391 8.68916L7.64591 8.68876Z" fill="url(#paint8_radial_3951_32403)"/>
<path style="mix-blend-mode:overlay" opacity="0.4" d="M8.02344 8.54284C8.08744 8.52044 8.14904 8.49564 8.21264 8.47324C8.47544 6.65324 9.30104 4.40684 10.9666 2.68164C10.8722 2.69204 10.7774 2.70444 10.683 2.71684C9.04824 4.46644 8.25784 6.72124 8.02384 8.54084V8.54284H8.02344Z" fill="url(#paint9_linear_3951_32403)"/>
<path style="mix-blend-mode:multiply" opacity="0.4" d="M11.1847 0.0288538C7.89073 0.252854 4.99953 1.78685 2.98075 4.08487L2.93555 4.13607C3.32755 4.52647 4.61313 5.29447 5.13273 5.61487C6.16813 4.49939 7.45961 3.65287 8.89553 3.14845C8.99633 3.01685 9.10273 2.88765 9.21393 2.76245C10.5691 1.23245 12.4195 0.425255 14.5675 0.425255C14.8059 0.425255 15.2927 0.464455 15.3027 0.464455C13.9662 0.0799645 12.5726 -0.0675955 11.1851 0.0284538L11.1847 0.0288538Z" fill="url(#paint10_linear_3951_32403)"/>
<path style="mix-blend-mode:multiply" opacity="0.4" d="M12.6356 21.3596C10.0832 21.534 7.69683 20.6636 5.89363 19.1152C5.72427 19.0931 5.55579 19.065 5.38843 19.0308C3.38603 18.622 1.75963 17.4228 0.687635 15.5644C0.569595 15.3591 0.461991 15.1479 0.365234 14.9316C1.75163 20.458 6.92883 24.3724 12.8124 23.9716C12.8392 23.366 12.6604 21.9596 12.6336 21.3596H12.6356Z" fill="url(#paint11_linear_3951_32403)"/>
<path style="mix-blend-mode:multiply" opacity="0.4" d="M23.9699 11.1858C23.6003 11.1486 21.8011 11.2906 21.3579 11.3642C21.4131 12.1778 21.3619 12.9746 21.2159 13.7426C21.2775 13.8946 21.3371 14.0506 21.3903 14.2086C22.0375 16.1474 21.8115 18.1538 20.7395 20.0142C20.6209 20.2192 20.492 20.4181 20.3535 20.6102C20.3535 20.6102 20.3595 20.6058 20.3615 20.6018C22.7995 18.2298 24.2183 14.8454 23.9699 11.1878V11.1858Z" fill="url(#paint12_linear_3951_32403)"/>
<path style="mix-blend-mode:multiply" opacity="0.5" d="M14.6921 3.12118C14.9549 3.14798 15.2361 3.21358 15.4889 3.29798C15.5009 3.30198 15.5137 3.30598 15.5237 3.30798C16.5538 3.72844 17.5015 4.3278 18.3229 5.0784C18.3229 5.0784 18.3269 5.0804 18.3289 5.0824C18.7233 4.6328 19.4809 4.138 19.4809 4.138C19.4809 4.138 18.3209 2.95078 16.5445 2.58118C15.3021 2.32238 12.4989 2.07398 10.7305 5.0824L10.7469 5.0664C10.8785 4.8688 11.0161 4.676 11.1741 4.4992C12.0305 3.53198 13.3037 2.97918 14.6921 3.12118Z" fill="url(#paint13_linear_3951_32403)"/>
<path style="mix-blend-mode:multiply" opacity="0.5" d="M18.3422 18.7706C18.1807 18.9902 17.9962 19.1919 17.7918 19.3722C17.7838 19.3802 17.7734 19.3886 17.765 19.397C16.8857 20.0784 15.893 20.5991 14.8326 20.935C14.8306 20.935 14.8286 20.935 14.8262 20.937C15.0194 21.5038 15.0686 22.4074 15.0686 22.4074C15.0686 22.4074 16.6766 21.997 17.8846 20.6434C18.7286 19.6966 20.3466 17.3926 18.6254 14.3574C18.6254 14.3574 18.6278 14.3674 18.6318 14.3798C18.7386 14.5918 18.835 14.809 18.909 15.033C19.3178 16.257 19.1614 17.637 18.3442 18.7686L18.3422 18.7706Z" fill="url(#paint14_linear_3951_32403)"/>
<path style="mix-blend-mode:multiply" opacity="0.5" d="M2.96438 14.1107C2.85449 13.8608 2.77174 13.5998 2.71758 13.3323C2.71558 13.3203 2.71158 13.3075 2.70958 13.2951C2.55758 12.1883 2.60678 11.0671 2.84318 9.98708V9.98068C2.25558 9.86548 1.44878 9.45508 1.44878 9.45508C1.44878 9.45508 1.00078 11.0551 1.56998 12.7759C1.96838 13.9811 3.15318 16.5339 6.64198 16.5607C6.64198 16.5607 6.63198 16.5583 6.61958 16.5543C6.38358 16.5399 6.14758 16.5155 5.91558 16.4683C4.65038 16.2095 3.53518 15.3839 2.96198 14.1107H2.96438Z" fill="url(#paint15_linear_3951_32403)"/>
<path style="mix-blend-mode:multiply" opacity="0.6" d="M14.1853 7.80809C14.2817 7.82009 14.3761 7.82409 14.4685 7.82209C14.4685 7.82209 14.4049 6.57569 14.2529 5.93489C14.0989 5.29609 13.8729 4.87089 13.6265 4.63089C13.4481 4.45849 12.8873 4.24449 12.4521 5.56289C12.4183 5.82401 12.4364 6.08921 12.5052 6.34333C12.5741 6.59745 12.6924 6.83549 12.8534 7.04381C13.0144 7.25217 13.2149 7.42669 13.4435 7.55741C13.672 7.68817 13.9241 7.77253 14.1853 7.80569V7.80769V7.80809Z" fill="url(#paint16_linear_3951_32403)"/>
<path style="mix-blend-mode:multiply" opacity="0.5" d="M7.27677 12.2016C7.23933 12.1147 7.19601 12.0303 7.14717 11.9492C7.14717 11.9492 6.09757 12.6268 5.62117 13.0784C5.14477 13.5304 4.88997 13.9392 4.80597 14.2736C4.74637 14.514 4.84077 15.1056 6.20037 14.824C6.69065 14.6188 7.07937 14.2273 7.28113 13.7355C7.48289 13.2438 7.48117 12.6921 7.27637 12.2016H7.27677Z" fill="url(#paint17_linear_3951_32403)"/>
<path style="mix-blend-mode:multiply" opacity="0.6" d="M14.5349 15.9869C14.4773 16.0629 14.4261 16.1453 14.3809 16.2269C14.3809 16.2269 15.4921 16.7961 16.1225 16.9829C16.7529 17.1701 17.2333 17.1865 17.5641 17.0917C17.8025 17.0241 18.2665 16.6441 17.3441 15.6093C17.1347 15.4498 16.8959 15.333 16.6414 15.2657C16.3869 15.1985 16.1216 15.182 15.8607 15.2173C15.5999 15.2526 15.3485 15.3389 15.121 15.4714C14.8935 15.6039 14.6943 15.7798 14.5349 15.9893V15.9869Z" fill="url(#paint18_linear_3951_32403)"/>
<path style="mix-blend-mode:multiply" opacity="0.3" d="M14.1044 10.8184C13.8524 11.6564 13.4988 12.4184 13.0656 13.0896C13.0428 13.1244 13.0204 13.1596 12.9956 13.1964C12.9956 13.1964 12.9956 13.1984 12.9936 13.2004C12.6902 13.6364 12.3464 14.0428 11.9668 14.4144C12.242 14.706 12.5376 14.9892 12.8644 15.2584C13.2355 15.5503 13.6281 15.8138 14.0388 16.0468C14.875 15.1844 15.5603 14.1875 16.066 13.098C16.2469 12.729 16.4058 12.3497 16.542 11.962C16.1192 11.652 15.692 11.4036 15.298 11.2352C14.9096 11.0687 14.5101 10.9294 14.1024 10.8184H14.1048H14.1044Z" fill="url(#paint19_linear_3951_32403)"/>
<path style="mix-blend-mode:multiply" opacity="0.3" d="M5.89411 19.1153C8.16931 19.4253 10.3585 18.7025 11.8497 17.8173C11.6664 17.6892 11.4856 17.5578 11.3073 17.4229C10.7402 16.989 10.22 16.497 9.75527 15.9549C8.63367 16.4453 7.22087 16.7329 5.91247 16.4657C4.64767 16.2073 3.53249 15.3817 2.95929 14.1085C2.84953 13.8586 2.76693 13.5976 2.71289 13.3301C3.04369 15.6505 4.21407 17.6753 5.89207 19.1149L5.89411 19.1153Z" fill="url(#paint20_linear_3951_32403)"/>
<path style="mix-blend-mode:multiply" opacity="0.3" d="M11.9657 14.4148C11.3909 13.8076 10.9043 13.1226 10.5201 12.38C10.5017 12.3408 10.4809 12.306 10.4625 12.2668V12.2628C10.2373 11.7815 10.0572 11.2802 9.92452 10.7656C9.53412 10.858 9.14212 10.9732 8.74772 11.1212C8.30988 11.2962 7.88564 11.5034 7.47852 11.7412C7.84412 13.0084 8.38412 14.0784 9.01452 14.9736C9.24252 15.3124 9.48932 15.6388 9.75852 15.9532C10.2385 15.7436 10.6681 15.4952 11.0105 15.2384C11.3478 14.9851 11.6676 14.7093 11.9677 14.4128L11.9657 14.4148Z" fill="url(#paint21_linear_3951_32403)"/>
<path style="mix-blend-mode:multiply" opacity="0.3" d="M8.88826 3.15683C7.48146 4.97242 7.01306 7.22922 7.03386 8.96242C7.23658 8.86722 7.4413 8.77626 7.64786 8.68962C8.30614 8.41466 8.9917 8.21018 9.69306 8.07962C9.82906 6.86362 10.2867 5.49602 11.1719 4.49802C12.0279 3.53083 13.3015 2.97803 14.6899 3.12003C14.9527 3.14683 15.2339 3.21243 15.4867 3.29683C15.4987 3.30083 15.5111 3.30483 15.5215 3.30683C14.2037 2.7691 12.7801 2.54085 11.3603 2.63963C10.4979 2.69923 9.67226 2.87363 8.89186 3.14883C8.88986 3.15083 8.88786 3.15483 8.88586 3.15683H8.88826Z" fill="url(#paint22_linear_3951_32403)"/>
<path style="mix-blend-mode:multiply" opacity="0.3" d="M21.213 13.7268C20.3426 11.6012 18.6214 10.0648 17.1098 9.2168C17.0914 9.4328 17.069 9.6544 17.0378 9.8864C16.9461 10.5938 16.7802 11.2897 16.543 11.9624C17.529 12.6896 18.4858 13.7676 18.909 15.0348C19.3174 16.2588 19.1614 17.6388 18.3442 18.7704C18.1827 18.99 17.9982 19.1917 17.7938 19.372L17.7858 19.38C19.5478 17.996 20.7938 16 21.2214 13.7412C21.2214 13.7372 21.2174 13.7328 21.2174 13.7288L21.213 13.7268Z" fill="url(#paint23_linear_3951_32403)"/>
<path style="mix-blend-mode:multiply" opacity="0.3" d="M9.68696 9.52516C9.7372 9.94356 9.81608 10.358 9.92296 10.7656C10.7754 10.5644 11.611 10.4904 12.4102 10.5296L12.5374 10.5356H12.5414C13.0426 10.5768 13.5642 10.6692 14.1046 10.8172C14.2194 10.4332 14.3162 10.0344 14.3858 9.61956C14.4618 9.10236 14.4842 8.62356 14.4822 8.20676C13.203 7.89076 12.0078 7.82676 10.9174 7.92556C10.5073 7.95244 10.0992 8.00388 9.69536 8.07956C9.63776 8.60116 9.63536 9.09596 9.68896 9.52356L9.68696 9.52516Z" fill="url(#paint24_linear_3951_32403)"/>
</g>
</g>
<defs>
<linearGradient id="paint0_linear_3951_32403" x1="3.81091" y1="20.1893" x2="19.1105" y2="4.88768" gradientUnits="userSpaceOnUse">
<stop stop-color="#E6007A"/>
<stop offset="0.21" stop-color="#703AC2"/>
<stop offset="0.46" stop-color="#0070EB"/>
<stop offset="0.77" stop-color="#0297FB"/>
<stop offset="1" stop-color="#0AE2FF"/>
</linearGradient>
<radialGradient id="paint1_radial_3951_32403" cx="0" cy="0" r="1" gradientUnits="userSpaceOnUse" gradientTransform="translate(15.421 9.56979) scale(4.5632)">
<stop stop-color="white"/>
<stop offset="1" stop-color="white" stop-opacity="0"/>
</radialGradient>
<radialGradient id="paint2_radial_3951_32403" cx="0" cy="0" r="1" gradientUnits="userSpaceOnUse" gradientTransform="translate(8.67563 18.0348) scale(2.65535 2.65536)">
<stop stop-color="white"/>
<stop offset="1" stop-color="white" stop-opacity="0"/>
</radialGradient>
<linearGradient id="paint3_linear_3951_32403" x1="4.69171" y1="17.5855" x2="7.25091" y2="17.5503" gradientUnits="userSpaceOnUse">
<stop stop-color="white" stop-opacity="0"/>
<stop offset="1" stop-color="white"/>
</linearGradient>
<radialGradient id="paint4_radial_3951_32403" cx="0" cy="0" r="1" gradientUnits="userSpaceOnUse" gradientTransform="translate(8.18579 10.2514) rotate(-120) scale(4.5632)">
<stop stop-color="white"/>
<stop offset="1" stop-color="white" stop-opacity="0"/>
</radialGradient>
<radialGradient id="paint5_radial_3951_32403" cx="0" cy="0" r="1" gradientUnits="userSpaceOnUse" gradientTransform="translate(18.8888 11.8595) rotate(-120) scale(2.65535)">
<stop stop-color="white"/>
<stop offset="1" stop-color="white" stop-opacity="0"/>
</radialGradient>
<linearGradient id="paint6_linear_3951_32403" x1="20.4906" y1="15.5335" x2="19.1806" y2="13.3351" gradientUnits="userSpaceOnUse">
<stop stop-color="white" stop-opacity="0"/>
<stop offset="1" stop-color="white"/>
</linearGradient>
<radialGradient id="paint7_radial_3951_32403" cx="0" cy="0" r="1" gradientUnits="userSpaceOnUse" gradientTransform="translate(12.1765 15.9651) rotate(120) scale(4.5632)">
<stop stop-color="white"/>
<stop offset="1" stop-color="white" stop-opacity="0"/>
</radialGradient>
<radialGradient id="paint8_radial_3951_32403" cx="0" cy="0" r="1" gradientUnits="userSpaceOnUse" gradientTransform="translate(8.43207 6.10396) rotate(120) scale(2.65535)">
<stop stop-color="white"/>
<stop offset="1" stop-color="white" stop-opacity="0"/>
</radialGradient>
<linearGradient id="paint9_linear_3951_32403" x1="10.8122" y1="2.87724" x2="9.56464" y2="5.11204" gradientUnits="userSpaceOnUse">
<stop stop-color="white" stop-opacity="0"/>
<stop offset="1" stop-color="white"/>
</linearGradient>
<linearGradient id="paint10_linear_3951_32403" x1="11.3699" y1="1.74165" x2="7.45953" y2="2.87925" gradientUnits="userSpaceOnUse">
<stop stop-color="#231F20"/>
<stop offset="1" stop-color="white"/>
</linearGradient>
<linearGradient id="paint11_linear_3951_32403" x1="3.98364" y1="16.6508" x2="7.25323" y2="20.0636" gradientUnits="userSpaceOnUse">
<stop stop-color="#231F20"/>
<stop offset="1" stop-color="white"/>
</linearGradient>
<linearGradient id="paint12_linear_3951_32403" x1="21.5303" y1="16.137" x2="22.6679" y2="12.6786" gradientUnits="userSpaceOnUse">
<stop stop-color="#231F20"/>
<stop offset="1" stop-color="white"/>
</linearGradient>
<linearGradient id="paint13_linear_3951_32403" x1="13.1517" y1="3.72078" x2="18.3929" y2="4.9204" gradientUnits="userSpaceOnUse">
<stop stop-color="#231F20"/>
<stop offset="1" stop-color="white"/>
</linearGradient>
<linearGradient id="paint14_linear_3951_32403" x1="18.5942" y1="17.1366" x2="14.9322" y2="21.0766" gradientUnits="userSpaceOnUse">
<stop stop-color="#231F20"/>
<stop offset="1" stop-color="white"/>
</linearGradient>
<linearGradient id="paint15_linear_3951_32403" x1="4.25238" y1="15.1447" x2="2.67238" y2="10.0051" gradientUnits="userSpaceOnUse">
<stop stop-color="#231F20"/>
<stop offset="1" stop-color="white"/>
</linearGradient>
<linearGradient id="paint16_linear_3951_32403" x1="14.2961" y1="5.65329" x2="12.6389" y2="7.31289" gradientUnits="userSpaceOnUse">
<stop stop-color="#231F20"/>
<stop offset="1" stop-color="white"/>
</linearGradient>
<linearGradient id="paint17_linear_3951_32403" x1="5.35637" y1="13.1796" x2="7.62117" y2="13.788" gradientUnits="userSpaceOnUse">
<stop stop-color="#231F20"/>
<stop offset="1" stop-color="white"/>
</linearGradient>
<linearGradient id="paint18_linear_3951_32403" x1="16.3441" y1="17.1609" x2="15.7373" y2="14.8969" gradientUnits="userSpaceOnUse">
<stop stop-color="#231F20"/>
<stop offset="1" stop-color="white"/>
</linearGradient>
<linearGradient id="paint19_linear_3951_32403" x1="12.8972" y1="15.1472" x2="13.8932" y2="13.7736" gradientUnits="userSpaceOnUse">
<stop stop-color="#231F20"/>
<stop offset="1" stop-color="white"/>
</linearGradient>
<linearGradient id="paint20_linear_3951_32403" x1="9.47167" y1="14.5521" x2="7.48167" y2="15.5009" gradientUnits="userSpaceOnUse">
<stop stop-color="#231F20"/>
<stop offset="1" stop-color="white"/>
</linearGradient>
<linearGradient id="paint21_linear_3951_32403" x1="8.74772" y1="11.24" x2="9.36372" y2="12.5196" gradientUnits="userSpaceOnUse">
<stop stop-color="#231F20"/>
<stop offset="1" stop-color="white"/>
</linearGradient>
<linearGradient id="paint22_linear_3951_32403" x1="11.6135" y1="7.28882" x2="11.1883" y2="5.82042" gradientUnits="userSpaceOnUse">
<stop stop-color="#231F20"/>
<stop offset="1" stop-color="white"/>
</linearGradient>
<linearGradient id="paint23_linear_3951_32403" x1="16.2086" y1="14.014" x2="17.4406" y2="14.2976" gradientUnits="userSpaceOnUse">
<stop stop-color="#231F20"/>
<stop offset="1" stop-color="white"/>
</linearGradient>
<linearGradient id="paint24_linear_3951_32403" x1="14.277" y1="9.85196" x2="12.7142" y2="9.56836" gradientUnits="userSpaceOnUse">
<stop stop-color="#231F20"/>
<stop offset="1" stop-color="white"/>
</linearGradient>
<clipPath id="clip0_3951_32403">
<rect width="24" height="24" fill="white"/>
</clipPath>
</defs>
</svg>
