<svg width="24" height="24" viewBox="0 0 24 24" fill="none" xmlns="http://www.w3.org/2000/svg">
<circle cx="12" cy="12" r="12" fill="#E3453D"/>
<path d="M15.6231 12.332C15.9776 11.7094 16.5451 11.7093 16.8995 12.332L19.1065 16.2431C19.4607 16.8555 19.1675 17.366 18.4591 17.3662H14.0235C13.3249 17.3662 13.0308 16.8555 13.3848 16.2431L15.6231 12.332ZM11.3682 4.76753C11.7226 4.1452 12.2893 4.1452 12.6436 4.76753L13.1397 5.6562L14.3048 7.72847C14.5883 8.24918 14.5883 9.09733 14.3048 9.59761L10.3956 16.4169C10.1019 16.9376 9.37258 17.3564 8.78522 17.3564H5.53522C4.82636 17.3564 4.53235 16.8561 4.88679 16.2334L11.3682 4.76753Z" fill="white"/>
</svg>
