<svg width="24" height="24" viewBox="0 0 24 24" fill="none" xmlns="http://www.w3.org/2000/svg">
<g clip-path="url(#clip0_3952_32443)">
<path d="M12 24C18.6274 24 24 18.6274 24 12C24 5.37258 18.6274 0 12 0C5.37258 0 0 5.37258 0 12C0 18.6274 5.37258 24 12 24Z" fill="#814625"/>
<path d="M11.5529 11.392C11.5397 11.3521 11.5305 11.3112 11.5234 11.2699C11.5201 11.2508 11.5163 11.2318 11.512 11.2129C11.5025 11.1718 11.4921 11.131 11.4808 11.0904C11.6679 10.8175 12.5625 9.39431 11.5445 8.48088C10.4147 7.46711 9.09463 8.79588 9.09463 8.79588L9.09872 8.80177C8.50539 8.62811 7.86204 8.60774 7.23613 8.79581C7.2284 8.78804 5.91264 7.47007 4.78618 8.48088C3.65933 9.49199 4.87614 11.1278 4.88248 11.1364C4.86954 11.1748 4.85908 11.2141 4.85218 11.254C4.73027 11.954 3.90039 12.1701 3.90039 13.3894C3.90039 14.6087 4.76855 15.6117 6.54058 15.6117H7.2677C7.27097 15.6161 7.57044 16.0248 8.18518 16.0244C8.75585 16.024 9.13273 15.6151 9.13599 15.6117H9.82982C11.6018 15.6117 12.47 14.6323 12.47 13.3894C12.47 12.2539 11.7503 11.9884 11.5529 11.392Z" fill="white"/>
<path d="M20.0208 9.99868C20.0208 9.99868 20.1526 8.82347 19.1508 8.57095V8.09961H18.375V8.55917C17.3183 8.78432 17.4545 9.99868 17.4545 9.99868V10.2002C17.4545 10.2002 17.3182 11.4148 18.3754 11.6397L18.3753 12.6486C17.2615 12.844 17.4022 14.0983 17.4022 14.0983V14.2997C17.4022 14.2997 17.266 15.5141 18.3227 15.7392V16.1988H19.0985V15.7275C20.1003 15.475 19.9685 14.2997 19.9685 14.2997C20.0123 14.2997 20.0478 14.2655 20.0478 14.2234V14.1746C20.0478 14.1325 20.0123 14.0983 19.9685 14.0983C19.9685 14.0983 20.0992 12.9332 19.1115 12.6739V11.6397H19.0998C20.157 11.4148 20.0208 10.2002 20.0208 10.2002C20.0645 10.2002 20.1 10.166 20.1 10.1238V10.075C20.1 10.0329 20.0646 9.99868 20.0208 9.99868ZM19.3886 14.0983H19.3176C19.2738 14.0983 19.2383 14.1325 19.2383 14.1746V14.2234C19.2383 14.2655 19.2738 14.2997 19.3176 14.2997H19.3886C19.3886 15.0287 19.1372 15.1514 19.0527 15.1721C19.0387 15.1754 19.0252 15.1655 19.0252 15.1517V14.9194C19.0252 14.7909 18.9403 14.7205 18.8553 14.6822C18.7479 14.6339 18.6228 14.6339 18.5154 14.6822C18.4304 14.7205 18.3454 14.7909 18.3454 14.9194V15.1517C18.3454 15.1653 18.3321 15.1755 18.3184 15.1721C18.2344 15.1519 17.9821 15.0302 17.9821 14.2997V14.0983C17.9821 13.3693 18.2334 13.2466 18.318 13.226C18.3319 13.2226 18.3454 13.2325 18.3454 13.2463V13.4787C18.3454 13.6071 18.4304 13.6775 18.5154 13.7158C18.6228 13.7641 18.7479 13.7641 18.8553 13.7158C18.9403 13.6775 19.0252 13.6071 19.0252 13.4787V13.2463C19.0252 13.2327 19.0385 13.2225 19.0522 13.2259C19.1363 13.2461 19.3886 13.3679 19.3886 14.0983ZM19.3699 10.2002H19.4409C19.4409 10.9306 19.1886 11.0523 19.1045 11.0726C19.0908 11.0759 19.0776 11.0657 19.0776 11.0521V10.8197C19.0776 10.6913 18.9926 10.6209 18.9076 10.5826C18.8002 10.5343 18.6751 10.5343 18.5676 10.5826C18.4827 10.6209 18.3977 10.6913 18.3977 10.8197V11.0521C18.3977 11.0659 18.3842 11.0758 18.3703 11.0725C18.2857 11.0518 18.0344 10.9292 18.0344 10.2002V9.99868C18.0344 9.26826 18.2866 9.1465 18.3708 9.12625C18.3844 9.12295 18.3977 9.13318 18.3977 9.14672V9.37907C18.3977 9.50755 18.4827 9.5779 18.5676 9.61618C18.6751 9.66456 18.8002 9.66456 18.9076 9.61618C18.9926 9.5779 19.0776 9.50755 19.0776 9.37907V9.14672C19.0776 9.13292 19.0911 9.12298 19.105 9.12636C19.1895 9.14702 19.4409 9.26968 19.4409 9.99868H19.3699C19.3261 9.99868 19.2906 10.0329 19.2906 10.075V10.1238C19.2906 10.166 19.3261 10.2002 19.3699 10.2002Z" fill="white"/>
<path d="M16.1392 12.074C16.1392 12.074 16.2762 10.8526 15.2094 10.6327V9.53533C16.2478 9.30096 16.1131 8.09961 16.1131 8.09961C16.1131 8.09961 15.5307 8.09961 15.5331 8.09961C15.5331 8.83003 15.2809 8.95176 15.1968 8.97201C15.1831 8.97535 15.1698 8.96511 15.1698 8.95157V8.71918C15.1698 8.59075 15.0849 8.5204 14.9999 8.48211C14.8925 8.43373 14.7674 8.43373 14.6599 8.48211C14.5749 8.5204 14.49 8.59075 14.49 8.71918V8.95157C14.49 8.96537 14.4765 8.97531 14.4626 8.97193C14.378 8.95127 14.1267 8.82861 14.1267 8.09961C14.1291 8.09961 13.5467 8.09961 13.5467 8.09961C13.5467 8.09961 13.4069 9.34626 14.5098 9.54745V10.6312C13.4353 10.8472 13.5729 12.074 13.5729 12.074V12.2755C13.5729 12.2755 13.4353 13.5023 14.5098 13.7183V14.7517C13.4069 14.9529 13.5467 16.1995 13.5467 16.1995C13.5467 16.1995 14.1291 16.1995 14.1267 16.1995C14.1267 15.4691 14.3789 15.3473 14.463 15.3271C14.4767 15.3237 14.49 15.3339 14.49 15.3475V15.5799C14.49 15.7083 14.5749 15.7787 14.6599 15.817C14.7674 15.8653 14.8925 15.8653 14.9999 15.817C15.0849 15.7787 15.1698 15.7083 15.1698 15.5799V15.3475C15.1698 15.3337 15.1833 15.3238 15.1973 15.3272C15.2818 15.3478 15.5331 15.4705 15.5331 16.1995C15.5307 16.1995 16.1131 16.1995 16.1131 16.1995C16.1131 16.1995 16.2478 14.9981 15.2094 14.7637V13.7168C16.2762 13.4968 16.1392 12.2754 16.1392 12.2754C16.183 12.2754 16.2185 12.2412 16.2185 12.1991V12.1503C16.2185 12.1081 16.183 12.074 16.1392 12.074ZM15.4883 12.2755H15.5593C15.5593 13.0059 15.307 13.1277 15.2229 13.1479C15.2092 13.1513 15.196 13.1411 15.196 13.1275V12.8951C15.196 12.7667 15.111 12.6963 15.026 12.658C14.9186 12.6097 14.7935 12.6097 14.6861 12.658C14.6011 12.6963 14.5161 12.7667 14.5161 12.8951V13.1275C14.5161 13.1413 14.5026 13.1512 14.4887 13.1478C14.4041 13.1272 14.1528 13.0045 14.1528 12.2755V12.074C14.1528 11.3436 14.4051 11.2219 14.4892 11.2016C14.5029 11.1983 14.5161 11.2085 14.5161 11.2221V11.4544C14.5161 11.5829 14.6011 11.6533 14.6861 11.6915C14.7935 11.7399 14.9186 11.7399 15.026 11.6915C15.111 11.6533 15.196 11.5829 15.196 11.4544V11.2221C15.196 11.2083 15.2095 11.1983 15.2234 11.2017C15.308 11.2224 15.5593 11.345 15.5593 12.074H15.4883C15.4446 12.074 15.4091 12.1082 15.4091 12.1504V12.1991C15.4091 12.2413 15.4446 12.2755 15.4883 12.2755Z" fill="white"/>
</g>
<defs>
<clipPath id="clip0_3952_32443">
<rect width="24" height="24" fill="white"/>
</clipPath>
</defs>
</svg>
