<svg width="24" height="24" viewBox="0 0 24 24" fill="none" xmlns="http://www.w3.org/2000/svg">
<g clip-path="url(#clip0_3952_32449)">
<path d="M12 24C18.6274 24 24 18.6274 24 12C24 5.37258 18.6274 0 12 0C5.37258 0 0 5.37258 0 12C0 18.6274 5.37258 24 12 24Z" fill="url(#paint0_radial_3952_32449)"/>
<path fill-rule="evenodd" clip-rule="evenodd" d="M13.1121 19.57C13.4792 17.9686 13.7344 15.7264 13.796 13.1914L14.3583 13.2051C14.2961 15.7645 14.0384 18.0465 13.6604 19.6957C13.472 20.518 13.2503 21.198 12.9998 21.6791C12.8747 21.9192 12.7354 22.1238 12.5781 22.2717C12.4196 22.4206 12.225 22.5278 11.9991 22.5278C11.7399 22.5278 11.5229 22.3873 11.3516 22.2025C11.1797 22.0169 11.027 21.7593 10.8897 21.4539C10.6144 20.8413 10.3745 19.9747 10.1797 18.9313L10.7326 18.8281C10.924 19.8528 11.154 20.6696 11.4028 21.2234C11.5277 21.5012 11.6506 21.6975 11.7642 21.8202C11.8784 21.9434 11.9568 21.9653 11.9991 21.9653C12.0364 21.9653 12.1 21.949 12.1928 21.8618C12.2867 21.7735 12.3914 21.6294 12.5009 21.4193C12.7193 20.9998 12.9281 20.373 13.1121 19.57Z" fill="url(#paint1_linear_3952_32449)"/>
<path fill-rule="evenodd" clip-rule="evenodd" d="M11.0635 3.74138C10.7269 4.91852 10.4595 6.59482 10.3129 8.56317L9.75195 8.52138C9.90013 6.53229 10.1716 4.81442 10.5226 3.58674C10.6976 2.97499 10.8967 2.46898 11.1198 2.10971C11.3319 1.768 11.6209 1.47266 12.0004 1.47266C12.2262 1.47266 12.4209 1.57989 12.5793 1.72882C12.7366 1.8767 12.876 2.08126 13.001 2.3214C13.2515 2.80249 13.4732 3.48251 13.6617 4.30481C14.0397 5.95397 14.2974 8.23596 14.3596 10.7954L13.7972 10.8091C13.7356 8.27405 13.4804 6.03188 13.1134 4.43049C12.9294 3.62752 12.7205 3.00066 12.5021 2.5812C12.3927 2.37106 12.2879 2.22693 12.194 2.13868C12.1013 2.05148 12.0376 2.03516 12.0004 2.03516C11.9346 2.03516 11.7919 2.09368 11.5976 2.40645C11.4143 2.70164 11.2324 3.1507 11.0635 3.74138Z" fill="url(#paint2_linear_3952_32449)"/>
<path fill-rule="evenodd" clip-rule="evenodd" d="M10.3133 8.56327C10.2333 9.6365 10.1895 10.7939 10.1895 12.0009C10.1895 14.6359 10.3985 17.0315 10.7342 18.8293L10.1813 18.9325C9.83782 17.0932 9.62695 14.6619 9.62695 12.0009C9.62695 10.7805 9.6713 9.60912 9.75232 8.52148L10.3133 8.56327Z" fill="url(#paint3_linear_3952_32449)"/>
<path fill-rule="evenodd" clip-rule="evenodd" d="M10.0501 12.9545C8.22545 11.8406 6.64902 10.7111 5.47823 9.71289L5.11328 10.141C6.3115 11.1625 7.91317 12.309 9.75705 13.4346L10.0501 12.9545Z" fill="url(#paint4_linear_3952_32449)"/>
<path fill-rule="evenodd" clip-rule="evenodd" d="M17.9883 16.7487C16.4181 16.2659 14.3489 15.366 12.1228 14.152L11.8535 14.6458C14.101 15.8715 16.2059 16.7892 17.823 17.2864C18.6293 17.5343 19.329 17.6823 19.8709 17.7059C20.1413 17.7176 20.3881 17.6992 20.5948 17.6369C20.803 17.5742 20.9932 17.4592 21.1061 17.2636C21.2966 16.9337 21.1837 16.5339 20.9921 16.1777C20.7906 15.803 20.449 15.3752 20.0029 14.9152C19.1076 13.9921 17.7448 12.8918 16.0841 11.7637L15.768 12.229C17.4114 13.3454 18.7403 14.4213 19.599 15.3068C20.0299 15.7511 20.3309 16.1357 20.4967 16.4442C20.6726 16.7711 20.652 16.9251 20.619 16.9824C20.6004 17.0146 20.5544 17.0616 20.4325 17.0984C20.3091 17.1355 20.132 17.1542 19.8953 17.1439C19.4229 17.1233 18.7756 16.9908 17.9883 16.7487Z" fill="url(#paint5_linear_3952_32449)"/>
<path fill-rule="evenodd" clip-rule="evenodd" d="M12.8946 10.432C13.9238 11.0262 14.89 11.6332 15.7685 12.23L16.0846 11.7647C15.1944 11.1599 14.2164 10.5457 13.1759 9.94489C10.7137 8.52339 8.35768 7.44109 6.53839 6.83673C5.63093 6.5353 4.84303 6.34799 4.23605 6.30212C3.93331 6.27925 3.6593 6.29014 3.43189 6.34947C3.20405 6.4089 2.99309 6.52572 2.87136 6.73658C2.74074 6.96282 2.75508 7.22319 2.83114 7.46572C2.9075 7.70929 3.05677 7.97275 3.25587 8.24699C3.65536 8.79721 4.29572 9.44511 5.11381 10.1426L5.47873 9.71453C4.67503 9.02933 4.07278 8.41471 3.71105 7.91652C3.52957 7.66656 3.41862 7.45932 3.36786 7.29744C3.31678 7.13457 3.33718 7.05477 3.35848 7.01783C3.37843 6.98331 3.4306 6.93114 3.57387 6.89375C3.71757 6.85628 3.92269 6.84254 4.19365 6.86303C4.73407 6.90386 5.47189 7.07518 6.36106 7.37057C8.13497 7.95983 10.4558 9.02397 12.8946 10.432Z" fill="url(#paint6_linear_3952_32449)"/>
<path fill-rule="evenodd" clip-rule="evenodd" d="M12.1984 9.81957C14.0878 8.79219 15.8632 7.99159 17.3138 7.48187L17.1273 6.95117C15.6421 7.47305 13.839 8.28725 11.9297 9.32539L12.1984 9.81957Z" fill="url(#paint7_linear_3952_32449)"/>
<path fill-rule="evenodd" clip-rule="evenodd" d="M4.88686 14.8328C6.0814 13.7199 7.88337 12.3842 10.0352 11.0677L9.74166 10.5879C7.56907 11.9171 5.73387 13.2749 4.50342 14.4212C3.8899 14.9927 3.41536 15.5221 3.12631 15.9776C2.982 16.2049 2.87541 16.4269 2.82659 16.6364C2.77741 16.8473 2.78227 17.0687 2.89477 17.2635C3.08499 17.593 3.48677 17.6953 3.8902 17.7077C4.31454 17.7208 4.85456 17.6393 5.47446 17.4837C6.71852 17.1714 8.34884 16.5435 10.1523 15.6724L9.90764 15.1658C8.12295 16.028 6.53065 16.6386 5.33752 16.9381C4.73883 17.0884 4.2566 17.1563 3.90755 17.1455C3.53763 17.1341 3.41489 17.0394 3.38191 16.9823C3.36335 16.9501 3.3457 16.8872 3.37442 16.7641C3.40345 16.6395 3.4751 16.4777 3.60122 16.279C3.85296 15.8823 4.28787 15.3908 4.88686 14.8328Z" fill="url(#paint8_linear_3952_32449)"/>
<path fill-rule="evenodd" clip-rule="evenodd" d="M12.9166 13.5693C11.8816 14.1668 10.8672 14.7028 9.90625 15.167L10.1509 15.6735C11.1248 15.2031 12.1514 14.6606 13.1979 14.0564C15.66 12.6349 17.7753 11.1357 19.2084 9.86227C19.9232 9.22711 20.4793 8.63843 20.8225 8.13567C20.9937 7.88496 21.1213 7.6422 21.1836 7.41558C21.2461 7.18856 21.2504 6.94746 21.1286 6.7366C20.9995 6.51296 20.7706 6.39528 20.5259 6.33914C20.2806 6.28282 19.9827 6.27889 19.6515 6.31203C18.9872 6.37849 18.122 6.60153 17.127 6.95117L17.3135 7.48184C18.2906 7.1385 19.1076 6.93176 19.7076 6.87174C20.0085 6.84162 20.2383 6.85027 20.4001 6.88739C20.5627 6.92471 20.6204 6.98133 20.6415 7.01785C20.6614 7.05237 20.6805 7.12364 20.6413 7.2664C20.6019 7.4096 20.5112 7.59408 20.358 7.81852C20.0524 8.2661 19.5351 8.81942 18.8347 9.44178C17.4374 10.6834 15.3555 12.1612 12.9166 13.5693Z" fill="url(#paint9_linear_3952_32449)"/>
<path d="M10.5453 19.5906C10.9511 19.5906 11.2801 19.2617 11.2801 18.8559C11.2801 18.4501 10.9511 18.1211 10.5453 18.1211C10.1395 18.1211 9.81055 18.4501 9.81055 18.8559C9.81055 19.2617 10.1395 19.5906 10.5453 19.5906Z" fill="white"/>
<path d="M4.68847 9.46287C4.89137 9.11143 5.34075 8.99102 5.69219 9.19392C6.04363 9.39683 6.16404 9.84621 5.96114 10.1976C5.75824 10.5491 5.30885 10.6695 4.95741 10.4666C4.60598 10.2637 4.48556 9.81431 4.68847 9.46287Z" fill="white"/>
<path d="M17.8588 6.94648C18.0617 7.29792 17.9413 7.7473 17.5899 7.9502C17.2384 8.15311 16.789 8.0327 16.5861 7.68126C16.3832 7.32982 16.5036 6.88044 16.8551 6.67753C17.2065 6.47463 17.6559 6.59504 17.8588 6.94648Z" fill="white"/>
<path fill-rule="evenodd" clip-rule="evenodd" d="M11.9999 10.7207C12.7064 10.7207 13.2791 11.2934 13.2791 11.9999C13.2791 12.7064 12.7064 13.2791 11.9999 13.2791C11.2934 13.2791 10.7207 12.7064 10.7207 11.9999C10.7207 11.2934 11.2934 10.7207 11.9999 10.7207Z" fill="white"/>
</g>
<defs>
<radialGradient id="paint0_radial_3952_32449" cx="0" cy="0" r="1" gradientUnits="userSpaceOnUse" gradientTransform="translate(12 12) rotate(90) scale(12)">
<stop offset="0.0909055" stop-color="#7C7C7C"/>
<stop offset="0.233848" stop-color="#3E3E3E"/>
<stop offset="0.817221"/>
</radialGradient>
<linearGradient id="paint1_linear_3952_32449" x1="12.269" y1="22.5278" x2="14.9867" y2="13.378" gradientUnits="userSpaceOnUse">
<stop offset="0.377307" stop-color="white" stop-opacity="0.6"/>
<stop offset="0.992239" stop-color="white" stop-opacity="0"/>
</linearGradient>
<linearGradient id="paint2_linear_3952_32449" x1="12.0558" y1="1.47266" x2="15.5612" y2="10.3367" gradientUnits="userSpaceOnUse">
<stop offset="0.634963" stop-color="white" stop-opacity="0.81"/>
<stop offset="1" stop-color="white" stop-opacity="0"/>
</linearGradient>
<linearGradient id="paint3_linear_3952_32449" x1="10.7234" y1="8.52148" x2="10.7234" y2="18.9445" gradientUnits="userSpaceOnUse">
<stop stop-color="white" stop-opacity="0.81"/>
<stop offset="0.646422" stop-color="white"/>
</linearGradient>
<linearGradient id="paint4_linear_3952_32449" x1="5.49348" y1="9.64014" x2="10.09" y2="12.8825" gradientUnits="userSpaceOnUse">
<stop stop-color="white" stop-opacity="0.6"/>
<stop offset="1" stop-color="white" stop-opacity="0"/>
</linearGradient>
<linearGradient id="paint5_linear_3952_32449" x1="21.6421" y1="17.227" x2="11.4502" y2="15.5309" gradientUnits="userSpaceOnUse">
<stop offset="0.60731" stop-color="white" stop-opacity="0.81"/>
<stop offset="1" stop-color="white" stop-opacity="0"/>
</linearGradient>
<linearGradient id="paint6_linear_3952_32449" x1="15.812" y1="11.6679" x2="2.58176" y2="6.76234" gradientUnits="userSpaceOnUse">
<stop stop-color="white" stop-opacity="0.81"/>
<stop offset="0.478389" stop-color="white"/>
</linearGradient>
<linearGradient id="paint7_linear_3952_32449" x1="17.419" y1="7.52124" x2="11.907" y2="10.0824" gradientUnits="userSpaceOnUse">
<stop stop-color="white" stop-opacity="0.6"/>
<stop offset="1" stop-color="white" stop-opacity="0"/>
</linearGradient>
<linearGradient id="paint8_linear_3952_32449" x1="2.5887" y1="17.3009" x2="9.48865" y2="10.1053" gradientUnits="userSpaceOnUse">
<stop offset="0.54518" stop-color="white" stop-opacity="0.81"/>
<stop offset="1" stop-color="white" stop-opacity="0"/>
</linearGradient>
<linearGradient id="paint9_linear_3952_32449" x1="21.412" y1="6.47597" x2="10.2711" y2="15.7423" gradientUnits="userSpaceOnUse">
<stop offset="0.518582" stop-color="white"/>
<stop offset="1" stop-color="white" stop-opacity="0.81"/>
</linearGradient>
<clipPath id="clip0_3952_32449">
<rect width="24" height="24" fill="white"/>
</clipPath>
</defs>
</svg>
