<svg width="26" height="26" viewBox="0 0 26 26" fill="none" xmlns="http://www.w3.org/2000/svg">
<rect x="0.5" y="0.5" width="25" height="25" rx="12.5" stroke="#D8DFE9"/>
<path d="M13 25C19.6274 25 25 19.6274 25 13C25 6.37258 19.6274 1 13 1C6.37258 1 1 6.37258 1 13C1 19.6274 6.37258 25 13 25Z" fill="#F1F7F5"/>
<path d="M13.373 4V10.6525L18.9958 13.165L13.373 4Z" fill="black" fill-opacity="0.602"/>
<path d="M12.626 10.167L9.65039 11.4961L12.626 6.64746V10.167Z" fill="#121212" stroke="#121212" stroke-width="1.49538"/>
<path d="M13.373 17.4769V21.9971L18.9995 14.2129L13.373 17.4769Z" fill="black" fill-opacity="0.602"/>
<path d="M12.626 17.9062V19.6855L10.4131 16.6221L12.626 17.9062Z" fill="#121212" stroke="#121212" stroke-width="1.49538"/>
<path d="M13.373 16.43L18.9958 13.1653L13.373 10.6543V16.43Z" fill="black" fill-opacity="0.2"/>
<path d="M7.75 13.1653L13.3735 16.43V10.6543L7.75 13.1653Z" fill="black" fill-opacity="0.602"/>
</svg>
