<svg width="24" height="24" viewBox="0 0 24 24" fill="none" xmlns="http://www.w3.org/2000/svg">
<g clip-path="url(#clip0_3902_32567)">
<path d="M12.0007 23.9389C18.594 23.9389 23.9389 18.594 23.9389 12.0007C23.9389 5.40741 18.594 0.0625 12.0007 0.0625C5.40741 0.0625 0.0625 5.40741 0.0625 12.0007C0.0625 18.594 5.40741 23.9389 12.0007 23.9389Z" fill="white"/>
<path d="M12.0003 22.9225C18.0325 22.9225 22.9225 18.0325 22.9225 12.0003C22.9225 5.96815 18.0325 1.07812 12.0003 1.07812C5.96815 1.07812 1.07812 5.96815 1.07812 12.0003C1.07812 18.0325 5.96815 22.9225 12.0003 22.9225Z" fill="black"/>
<path d="M19.8875 8.21438H17.7124C17.5693 7.75294 17.3145 7.3169 16.9479 6.94944C16.588 6.5896 16.1545 6.32882 15.6829 6.18319V4.00977H14.1377V6.11546C13.5925 6.23399 13.0938 6.50409 12.6916 6.90626L11.662 7.93582C11.3606 8.23724 11.3606 8.72662 11.662 9.02889C11.9635 9.3303 12.4528 9.3303 12.7551 9.02889L13.7847 7.99932C14.0522 7.73177 14.4137 7.58784 14.8007 7.59207C15.1961 7.59715 15.5703 7.75717 15.8556 8.0425C16.4382 8.62502 16.4576 9.55468 15.8988 10.1135L13.7339 12.2784C13.175 12.8373 12.2454 12.8178 11.6629 12.2353C11.3615 11.9338 10.8721 11.9338 10.5698 12.2353C10.2684 12.5367 10.2684 13.0261 10.5698 13.3283C11.1701 13.9286 11.9567 14.23 12.7382 14.23C13.4985 14.23 14.2537 13.9447 14.8269 13.3715L16.9919 11.2065C17.4025 10.7959 17.6641 10.2921 17.781 9.76042H19.8892V8.21523L19.8875 8.21438Z" fill="white"/>
<path d="M11.1235 14.8888L10.094 15.9184C9.53514 16.4772 8.60634 16.4577 8.02297 15.8752C7.44046 15.2927 7.42098 14.363 7.97979 13.8042L10.1448 11.6393C10.7036 11.0804 11.6332 11.0999 12.2157 11.6824C12.5172 11.9839 13.0065 11.9839 13.3088 11.6824C13.6102 11.381 13.6102 10.8916 13.3088 10.5894C12.1234 9.40402 10.2142 9.38455 9.05254 10.5462L6.88757 12.7112C6.47693 13.1218 6.21531 13.6256 6.09847 14.1573H3.99023V15.7025H6.16536C6.30844 16.1639 6.5633 16.6 6.92991 16.9674C7.29652 17.334 7.73256 17.5889 8.19485 17.732V19.9079H9.74004V17.7997C10.2726 17.6837 10.7764 17.4212 11.1862 17.0106L12.2157 15.981C12.5172 15.6796 12.5172 15.1902 12.2157 14.888C11.9143 14.5865 11.4249 14.5865 11.1227 14.888L11.1235 14.8888Z" fill="white"/>
</g>
<defs>
<clipPath id="clip0_3902_32567">
<rect width="24" height="24" fill="white"/>
</clipPath>
</defs>
</svg>
