<svg width="24" height="25" viewBox="0 0 24 25" fill="none" xmlns="http://www.w3.org/2000/svg">
<mask id="mask0_3904_33132" style="mask-type:luminance" maskUnits="userSpaceOnUse" x="0" y="0" width="24" height="25">
<path d="M24 0.078125H0V24.0781H24V0.078125Z" fill="white"/>
</mask>
<g mask="url(#mask0_3904_33132)">
<path d="M3.9496 10.6384C3.93866 9.94302 4.16478 9.26461 4.59079 8.71484L8.96376 13.0878C8.41258 13.5111 7.73513 13.7369 7.04017 13.729C6.22155 13.7256 5.43743 13.3989 4.85856 12.8201C4.27969 12.2412 3.953 11.4571 3.9496 10.6384Z" fill="#0D0D0D"/>
<path d="M16.9596 13.7261C17.369 13.7278 17.7747 13.6484 18.1534 13.4926C18.532 13.3368 18.8761 13.1076 19.1657 12.8182C19.4554 12.5289 19.6849 12.1851 19.8411 11.8066C19.9973 11.4281 20.0771 11.0225 20.0758 10.613C20.0835 9.91815 19.8577 9.24079 19.4346 8.68945L15.0488 13.0752C15.594 13.5017 16.2675 13.7311 16.9596 13.7261Z" fill="#0D0D0D"/>
<path d="M20.342 7.8015C21.0162 8.59319 21.3866 9.59897 21.3871 10.6388C21.3863 11.8082 20.9211 12.9295 20.0939 13.7561C19.2667 14.5827 18.1451 15.047 16.9757 15.047C15.9413 15.0482 14.9397 14.6837 14.148 14.0179L12.0257 16.1403L9.90329 14.0179C9.11103 14.6849 8.10804 15.0495 7.07241 15.047C6.49203 15.0491 5.91691 14.9367 5.38007 14.7162C4.84319 14.4956 4.35514 14.1713 3.94385 13.7618C3.53255 13.3522 3.20609 12.8656 2.98319 12.3297C2.76031 11.7938 2.64536 11.2192 2.64495 10.6388C2.64577 9.60375 3.01001 8.60188 3.67406 7.80791L2.68342 6.81726L1.73767 5.85547C0.598375 7.72863 -0.00285158 9.87946 1.01686e-05 12.0719C-0.000411289 13.6477 0.309724 15.2082 0.912671 16.6641C1.51562 18.12 2.39956 19.4428 3.51399 20.557C4.62842 21.6711 5.9515 22.5547 7.40756 23.1573C8.86366 23.7598 10.4242 24.0695 12 24.0687C15.1801 24.0678 18.2299 22.805 20.4798 20.5576C22.7297 18.3101 23.9958 15.2616 24 12.0815C24.0198 9.88943 23.4244 7.73578 22.2816 5.86509L20.342 7.8015Z" fill="#0D0D0D"/>
<path d="M20.6904 3.79706C19.5714 2.62052 18.2246 1.68405 16.732 1.04469C15.2395 0.405339 13.6324 0.0764741 12.0086 0.0781312C10.3846 0.0773454 8.77726 0.406589 7.2843 1.04588C5.79134 1.68517 4.44383 2.62117 3.32363 3.79706C3.03188 4.11766 2.74657 4.43826 2.48047 4.7813L11.999 14.2967L21.5176 4.77168C21.2663 4.42688 20.9898 4.10112 20.6904 3.79706ZM12.0086 12.0749L4.63487 4.70115C5.59895 3.72682 6.74765 2.95447 8.01376 2.42931C9.27987 1.90415 10.638 1.63672 12.0086 1.64265C13.3796 1.6351 14.7381 1.9018 16.0045 2.42705C17.2708 2.9523 18.4193 3.7255 19.3824 4.70115L12.0086 12.0749Z" fill="#0D0D0D"/>
</g>
</svg>
