<svg width="24" height="24" viewBox="0 0 24 24" fill="none" xmlns="http://www.w3.org/2000/svg">
<rect x="0.5" y="0.5" width="23" height="23" rx="11.5" fill="white"/>
<rect x="0.5" y="0.5" width="23" height="23" rx="11.5" stroke="#D8DFE9"/>
<g clip-path="url(#clip0_3954_32472)">
<path d="M16.5484 4C15.6346 3.99929 14.7578 4.3622 14.1105 5.00908C13.4632 5.65595 13.0984 6.53393 13.096 7.45028V11.2758C12.7404 11.2999 12.3769 11.315 12 11.315C11.6231 11.315 11.2613 11.3302 10.904 11.3516V7.45028C10.8895 6.54188 10.5194 5.67561 9.87358 5.03836C9.22779 4.40111 8.35805 4.04396 7.452 4.04396C6.54595 4.04396 5.67621 4.40111 5.03042 5.03836C4.38462 5.67561 4.01454 6.54188 4 7.45028V16.5934C4.01454 17.5018 4.38462 18.3681 5.03042 19.0053C5.67621 19.6426 6.54595 19.9997 7.452 19.9997C8.35805 19.9997 9.22779 19.6426 9.87358 19.0053C10.5194 18.3681 10.8895 17.5018 10.904 16.5934V12.7679C11.2596 12.7438 11.6231 12.7287 12 12.7287C12.3769 12.7287 12.7387 12.7135 13.096 12.6921V16.5934C13.1105 17.5018 13.4806 18.3681 14.1264 19.0053C14.7722 19.6426 15.6419 19.9997 16.548 19.9997C17.4541 19.9997 18.3238 19.6426 18.9696 19.0053C19.6154 18.3681 19.9855 17.5018 20 16.5934V7.45028C19.9976 6.53408 19.6329 5.65624 18.9858 5.00939C18.3387 4.36254 17.4622 3.99953 16.5484 4ZM7.45156 5.41363C7.99089 5.41339 8.50828 5.62769 8.89023 6.00951C9.27218 6.39133 9.48748 6.90948 9.48889 7.45028V11.5013C8.47892 11.6481 7.49264 11.9277 6.55556 12.3329C6.14954 12.5116 5.76733 12.7403 5.41778 13.0139V7.45028C5.41919 6.9101 5.634 6.39248 6.01518 6.01077C6.39636 5.62905 6.91284 5.41433 7.45156 5.41363ZM9.48889 16.5934C9.48889 17.1352 9.27424 17.6548 8.89217 18.0379C8.51009 18.4211 7.99189 18.6363 7.45156 18.6363C6.91122 18.6363 6.39302 18.4211 6.01094 18.0379C5.62887 17.6548 5.41422 17.1352 5.41422 16.5934V15.6762C5.41422 14.866 6.05422 14.0986 7.12711 13.6209C7.88309 13.2938 8.6763 13.0612 9.48889 12.9283V16.5934ZM16.5484 18.63C16.0091 18.6303 15.4917 18.416 15.1098 18.0342C14.7278 17.6523 14.5125 17.1342 14.5111 16.5934V12.5424C15.5211 12.3956 16.5074 12.116 17.4444 11.7108C17.8505 11.5321 18.2327 11.3033 18.5822 11.0298V16.5934C18.5808 17.1336 18.366 17.6512 17.9848 18.0329C17.6036 18.4146 17.0872 18.6293 16.5484 18.63ZM16.8729 10.4175C16.1169 10.7445 15.3237 10.9771 14.5111 11.11V7.45028C14.5111 6.90847 14.7258 6.38885 15.1078 6.00574C15.4899 5.62262 16.0081 5.40739 16.5484 5.40739C17.0888 5.40739 17.607 5.62262 17.9891 6.00574C18.3711 6.38885 18.5858 6.90847 18.5858 7.45028V8.36745C18.5858 9.17409 17.9458 9.94151 16.8729 10.4175Z" fill="url(#paint0_linear_3954_32472)"/>
</g>
<defs>
<linearGradient id="paint0_linear_3954_32472" x1="5.01333" y1="18.8077" x2="18.9333" y2="4.88769" gradientUnits="userSpaceOnUse">
<stop stop-color="#00AEE9"/>
<stop offset="1" stop-color="#69FABD"/>
</linearGradient>
<clipPath id="clip0_3954_32472">
<rect width="16" height="16" fill="white" transform="translate(4 4)"/>
</clipPath>
</defs>
</svg>
