<svg width="24" height="24" viewBox="0 0 24 24" fill="none" xmlns="http://www.w3.org/2000/svg">
<rect x="0.5" y="0.5" width="23" height="23" rx="11.5" fill="white"/>
<rect x="0.5" y="0.5" width="23" height="23" rx="11.5" stroke="#D8DFE9"/>
<path d="M21 12.4636C21 18.0839 17.5606 19.8873 15.7484 18.2815C14.2567 16.9721 13.8129 14.2053 11.5692 13.9212C8.72154 13.563 8.47498 17.3551 6.60117 17.3551C4.41914 17.3551 4 14.1806 4 12.5501C4 10.8825 4.46846 8.6097 6.32994 8.6097C8.49964 8.6097 8.62291 11.8583 11.335 11.6854C14.0348 11.5001 14.0841 8.1156 15.8347 6.67039C17.3633 5.4228 21 6.7692 21 12.4636Z" fill="#97FCE4"/>
</svg>
