<svg width="24" height="25" viewBox="0 0 24 25" fill="none" xmlns="http://www.w3.org/2000/svg">
<g clip-path="url(#clip0_3955_32487)">
<path d="M24 12.5195C24 5.89211 18.6274 0.519531 12 0.519531C5.37258 0.519531 0 5.89211 0 12.5195C0 19.1469 5.37258 24.5195 12 24.5195C18.6274 24.5195 24 19.1469 24 12.5195Z" fill="white"/>
<path fill-rule="evenodd" clip-rule="evenodd" d="M7.71957 18.2565C5.97391 16.9521 4.8413 14.8673 4.8413 12.5195C4.8413 8.56735 8.04783 5.36083 12 5.36083C15.263 5.36083 18.8261 7.31083 19.687 10.2978C18.7239 6.96083 15.6478 4.51953 12 4.51953C7.58261 4.51953 4 8.10214 4 12.5195C4 16.9369 7.58261 20.5195 12 20.5195C16.4174 20.5195 20 16.9369 20 12.5195V12.0978H19.5609C19.5478 12.0978 19.5283 12.0978 19.5022 12.0978C19.45 12.0978 19.3761 12.0956 19.2804 12.0912C19.0913 12.0847 18.8304 12.0717 18.537 12.0456C17.937 11.9934 17.2522 11.8912 16.787 11.7043C16.037 11.4043 15.613 11.0086 15.1304 10.5434L15.1022 10.5173C14.6174 10.0521 14.0739 9.52822 13.1283 9.08475C12.1978 8.64779 11.1696 8.71736 10.4152 8.87388C10.0326 8.95214 9.70217 9.05649 9.46957 9.14127C9.35217 9.18257 9.2587 9.2217 9.19348 9.24779C8.81304 9.40866 8.44348 9.59779 8.07174 9.77388C8.07174 9.77388 8.80435 9.97388 9.16522 10.0869C9.17826 10.0912 9.19783 10.0978 9.22609 10.1065C9.28044 10.1238 9.3587 10.1521 9.45217 10.1912C9.64348 10.2695 9.89348 10.3847 10.1413 10.5456C10.5326 10.7956 10.8565 11.113 10.9891 11.4999C10.1609 11.6086 9.38261 11.9738 8.8 12.3152C8.44783 12.5217 8.15435 12.7304 7.94783 12.8847C7.84565 12.963 7.76304 13.0282 7.70652 13.0738C7.6587 13.113 6.91087 13.7717 6.91087 13.7717C6.91087 13.7717 7.87609 13.8738 8.35217 13.9695C8.66957 14.0325 9.09565 14.1369 9.54348 14.2912C9.9913 14.4478 10.4435 14.6521 10.8196 14.9152C11.1957 15.1782 11.4717 15.4804 11.6065 15.8282C12.0022 16.8412 11.613 17.826 10.8326 18.3804C10.0609 18.9282 8.88913 19.0586 7.71739 18.2543L7.71957 18.2565ZM10.45 19.5086C10.7652 19.4065 11.0587 19.2565 11.3239 19.0695C12.3848 18.3152 12.9435 16.9325 12.3935 15.5238C12.1761 14.9695 11.763 14.5478 11.3043 14.226C10.8435 13.9043 10.3152 13.6695 9.82391 13.4978C9.50217 13.3847 9.18913 13.2978 8.91739 13.2325C9.01522 13.1695 9.11739 13.1043 9.22826 13.0391C9.87609 12.6586 10.6935 12.3086 11.4761 12.3086C12.6565 12.3086 13.5348 12.6717 14.3739 13.0586C14.45 13.0934 14.5261 13.1304 14.6043 13.1652C15.3543 13.5173 16.1413 13.8869 17.0565 13.8869C17.9717 13.8869 18.6348 13.6369 19.1109 13.376C18.687 16.9238 15.6674 19.676 12.0043 19.676C11.4717 19.676 10.9522 19.6173 10.4543 19.5086H10.45ZM18.1978 12.8608C17.8826 12.9673 17.5 13.0456 17.0543 13.0456C16.337 13.0456 15.7196 12.7586 14.937 12.3934C14.8674 12.3608 14.7978 12.3282 14.7261 12.2956C13.9413 11.9325 13.0348 11.5478 11.8543 11.4782C11.6957 10.6978 11.1043 10.163 10.5957 9.83692C10.5391 9.79996 10.4826 9.76518 10.4261 9.73257C10.4761 9.7217 10.5283 9.70866 10.5826 9.69779C11.2652 9.55649 12.0783 9.5217 12.7674 9.84779C13.5848 10.2325 14.0478 10.676 14.5283 11.1369L14.5457 11.1521C15.0391 11.626 15.563 12.1238 16.4739 12.4891C16.9804 12.6912 17.637 12.7999 18.1978 12.8608Z" fill="black"/>
</g>
<rect x="0.5" y="0.5" width="23" height="24" rx="11.5" stroke="#D8DFE9"/>
<defs>
<clipPath id="clip0_3955_32487">
<rect width="24" height="25" rx="12" fill="white"/>
</clipPath>
</defs>
</svg>
