<svg width="42" height="42" viewBox="0 0 42 42" fill="none" xmlns="http://www.w3.org/2000/svg">
<g clip-path="url(#clip0_3957_32492)">
<path d="M34 0H8C3.58172 0 0 3.58172 0 8V34C0 38.4183 3.58172 42 8 42H34C38.4183 42 42 38.4183 42 34V8C42 3.58172 38.4183 0 34 0Z" fill="#D9D9D9"/>
<path d="M34 0H8C3.58172 0 0 3.58172 0 8V34C0 38.4183 3.58172 42 8 42H34C38.4183 42 42 38.4183 42 34V8C42 3.58172 38.4183 0 34 0Z" fill="url(#paint0_linear_3957_32492)"/>
<path fill-rule="evenodd" clip-rule="evenodd" d="M21.0004 33.5984C27.9592 33.5984 33.6004 27.9572 33.6004 20.9984C33.6004 14.0396 27.9592 8.39844 21.0004 8.39844C14.0416 8.39844 8.40039 14.0396 8.40039 20.9984C8.40039 24.1697 9.57196 27.0673 11.5059 29.2821L17.9111 23.3429C18.1613 22.9834 18.3647 22.593 18.5161 22.181L14.8779 21.6402C14.4489 21.5765 14.4489 20.9578 14.8779 20.894L18.1462 20.4082L14.363 15.304C14.1047 14.9556 14.5422 14.5181 14.8907 14.7763L19.9957 18.5602L20.4818 15.2901C20.5456 14.8611 21.1643 14.8611 21.228 15.2901L21.7138 18.5586L26.8167 14.7763C27.1652 14.5181 27.6027 14.9556 27.3444 15.304L23.5614 20.4079L26.8319 20.894C27.261 20.9578 27.261 21.5765 26.8319 21.6402L23.5615 22.1263L27.3444 27.2301C27.6027 27.5785 27.1652 28.016 26.8167 27.7578L21.7139 23.9755L21.228 27.2442C21.1643 27.6732 20.5456 27.6732 20.4818 27.2442L19.9379 23.585C19.5909 23.6899 19.2657 23.8535 18.9758 24.0676L12.8958 30.6463C15.0866 32.4886 17.9139 33.5984 21.0004 33.5984Z" fill="white"/>
</g>
<defs>
<linearGradient id="paint0_linear_3957_32492" x1="2.5" y1="3" x2="42" y2="32" gradientUnits="userSpaceOnUse">
<stop stop-color="#2A2CBF"/>
<stop offset="1" stop-color="#AA68FF"/>
</linearGradient>
<clipPath id="clip0_3957_32492">
<rect width="42" height="42" rx="21" fill="white"/>
</clipPath>
</defs>
</svg>
