<svg width="24" height="24" viewBox="0 0 24 24" fill="none" xmlns="http://www.w3.org/2000/svg">
<rect x="0.5" y="0.5" width="23" height="23" rx="11.5" fill="white"/>
<rect x="0.5" y="0.5" width="23" height="23" rx="11.5" stroke="#D8DFE9"/>
<g clip-path="url(#clip0_3958_32503)">
<path fill-rule="evenodd" clip-rule="evenodd" d="M19.1718 11.29C19.2055 11.5721 19.2242 11.8598 19.2242 12.1521C19.2242 16.1178 15.9883 19.3336 11.9959 19.3336C9.08886 19.3336 6.58353 17.6287 5.43547 15.1702L6.59193 14.592C7.52606 16.631 9.59422 18.0482 11.9959 18.0482C15.2728 18.0482 17.9304 15.4088 17.9304 12.1521C17.9304 12.0918 17.9295 12.0315 17.9276 11.9712L19.1718 11.29ZM11.9959 4.9707C15.0402 4.9707 17.6455 6.84076 18.7104 9.48857L17.4736 9.88021C16.5787 7.75214 14.4629 6.25608 11.9959 6.25608C8.71894 6.25608 6.06135 8.89553 6.06135 12.1521C6.06135 12.192 6.06227 12.2329 6.06321 12.2728L4.85258 13.2566C4.79654 12.8965 4.76758 12.528 4.76758 12.1521C4.76851 8.18554 8.00434 4.9707 11.9959 4.9707Z" fill="#010E35"/>
<path fill-rule="evenodd" clip-rule="evenodd" d="M3.94336 15.0241L11.0128 9.2793L10.7195 11.6682L14.8456 9.34518L14.6363 11.6134L20.0487 9.90111L12.7083 13.9178L13.2566 11.632L9.01568 14.1016L9.29593 12.3484L3.94336 15.0241Z" fill="#010E35"/>
</g>
<defs>
<clipPath id="clip0_3958_32503">
<rect width="18" height="16" fill="white" transform="translate(3 4)"/>
</clipPath>
</defs>
</svg>
