<svg width="24" height="24" viewBox="0 0 24 24" fill="none" xmlns="http://www.w3.org/2000/svg">
<rect x="0.5" y="0.5" width="23" height="23" rx="11.5" fill="white"/>
<rect x="0.5" y="0.5" width="23" height="23" rx="11.5" stroke="#D8DFE9"/>
<mask id="mask0_3958_32513" style="mask-type:luminance" maskUnits="userSpaceOnUse" x="3" y="3" width="18" height="18">
<path d="M20.25 3.75H3.5V20.5H20.25V3.75Z" fill="white"/>
<path d="M19.4958 12.0399C19.4097 7.75233 15.8676 4.35632 11.6097 4.50468C7.4506 4.64923 4.16185 8.16293 4.2518 12.3648C4.31744 15.3996 6.11317 17.9858 8.6685 19.1829C8.77192 19.2314 8.8953 19.2006 8.95797 19.1051C9.2836 18.6089 9.5504 17.8658 9.6904 17.4314C9.81758 17.1098 9.95065 16.7943 10.089 16.486C10.1418 16.3683 10.2761 16.3133 10.4021 16.3405C11.1439 16.5009 12.0493 16.2357 12.5649 15.6687L12.5862 15.6449C12.5868 15.6442 12.5863 15.6432 12.5854 15.6432L12.585 15.6431C12.1966 15.4709 11.7258 15.4461 11.2768 15.5447C11.019 15.6013 10.6767 15.2717 10.8029 15.0399C10.8315 14.9873 10.8604 14.9349 10.8894 14.8828C10.9502 14.7736 11.0826 14.7293 11.2033 14.7618C11.9385 14.9602 12.858 14.7389 13.4023 14.1952L13.4247 14.1725C13.4253 14.1719 13.4249 14.1709 13.4241 14.1709L13.4236 14.1708C13.0734 13.9954 12.6475 13.9414 12.2281 13.9943C11.9625 14.0278 11.6329 13.6498 11.7837 13.4286C11.7919 13.4165 11.8001 13.4045 11.8083 13.3924C11.8699 13.3026 11.9827 13.266 12.0893 13.2877C12.8499 13.4427 13.779 13.1369 14.2828 12.5311L14.3028 12.5073C14.3034 12.5066 14.3029 12.5055 14.302 12.5055L14.3015 12.5054C13.6903 12.2669 12.8966 12.3887 12.3038 12.766C12.288 12.776 12.2673 12.7544 12.2786 12.7396C12.4161 12.5583 12.5567 12.3822 12.6994 12.2093C12.7313 12.1706 12.7745 12.143 12.8223 12.1273C13.7232 11.8331 14.513 10.8996 14.6425 9.93578L14.6472 9.89958C14.6474 9.89776 14.646 9.89613 14.6441 9.89613L14.6435 9.89618C13.6895 10.089 12.8052 11.0302 12.6155 12.0317C12.6121 12.0497 12.6044 12.0664 12.5927 12.0805C12.5157 12.1732 12.2948 12.0667 12.3038 11.9465C12.3391 11.4688 12.2424 10.9845 12.0063 10.6126L12.0062 10.6122C12.0062 10.6114 12.0052 10.611 12.0047 10.6116L11.9834 10.6367C11.4801 11.2771 11.3777 12.3017 11.7195 13.0288C11.7535 13.1012 11.7512 13.1853 11.7057 13.2511C11.5743 13.4417 11.0851 13.3029 11.022 13.08C10.9158 12.7053 10.7258 12.3628 10.4639 12.1161C10.4634 12.1156 10.4628 12.1154 10.4622 12.1154C10.4613 12.1154 10.4604 12.1159 10.46 12.1168L10.4467 12.1448C10.1217 12.8834 10.269 13.8879 10.7659 14.5073C10.8157 14.5694 10.8275 14.6537 10.7887 14.7231C10.6863 14.906 10.1702 14.7994 10.1035 14.6007C9.97965 14.2317 9.77685 13.8986 9.50925 13.6618C9.50805 13.6606 9.506 13.661 9.50537 13.6626L9.49403 13.6912C9.2026 14.4537 9.3914 15.468 9.90998 16.0821C9.97815 16.1629 10.0005 16.2752 9.9571 16.3715C9.8686 16.5684 9.78198 16.7677 9.6976 16.9705C9.6736 17.0282 9.59575 17.0424 9.53585 17.0246C9.37748 16.9773 9.15833 16.8941 8.91635 16.747C8.75672 16.6511 8.58698 16.5718 8.41087 16.513C7.72297 16.2853 7.82432 15.9501 7.4658 15.2799C7.443 15.2364 7.15795 14.9371 7.09715 14.8834C7.08195 14.8706 6.9008 14.7631 6.8083 14.5674C6.72342 14.3871 6.67655 14.2208 6.65882 14.0571C6.63602 13.8383 6.54607 13.6951 6.33577 13.6222C5.32355 13.2691 5.7771 11.9427 5.81257 11.7662C5.84297 11.6153 5.71247 11.2878 5.66435 11.1074C5.65927 11.0857 5.6542 11.0588 5.64787 11.0269C5.5744 10.6713 5.73907 10.3707 5.8607 10.2466C5.98232 10.1225 6.40165 9.92556 6.49032 9.80916C6.57647 9.69531 6.64615 9.56483 6.73482 9.45356C6.85265 9.30518 7.2137 9.01483 7.70017 8.75133C7.99407 8.59271 8.0473 8.17573 8.15877 8.04911C8.35133 7.83036 8.64145 7.83036 8.85808 7.63338C8.96703 7.53361 9.12538 7.48501 9.22673 7.38013C9.7284 6.86081 10.3998 6.65103 11.0649 6.52568C11.5121 6.44126 12.0113 6.57173 12.4788 6.65103C12.5359 6.66066 12.5914 6.67386 12.645 6.68913C12.6659 6.69508 12.6872 6.69871 12.7089 6.69953C13.7526 6.73876 14.9969 6.96011 15.4482 7.40571C15.7333 7.68711 15.8727 7.99281 15.941 8.20386C16.017 8.43923 16.1222 8.66436 16.2502 8.87541L16.5314 9.33716C16.7088 9.62878 16.7683 9.98056 16.691 10.3144C16.648 10.505 16.6251 10.7045 16.6809 10.8158C16.7683 10.9885 17.0382 11.2712 17.2003 11.4323C17.2789 11.5104 17.365 11.5794 17.4587 11.6396C17.6754 11.7777 18.0846 12.0425 18.0858 12.0655C18.0858 12.0962 18.12 12.2279 17.9389 12.3866C17.8265 12.485 17.6522 12.6198 17.5361 12.708C17.4622 12.764 17.422 12.8569 17.454 12.9439C17.4618 12.9651 17.4709 12.9866 17.4816 13.0069C17.5297 13.099 17.6475 13.2372 17.612 13.3612C17.5766 13.4853 17.3245 13.5851 17.3967 13.7232C17.4689 13.8614 17.6462 13.9049 17.5956 14.0302C17.5436 14.1556 17.2941 14.3705 17.3194 14.4638C17.3447 14.5572 17.5462 15.4155 17.08 15.5651C16.7278 15.6777 15.7624 15.7417 15.3089 15.766C15.1125 15.7762 14.9364 15.8888 14.8427 16.0614C14.7718 16.1919 14.7033 16.371 14.6678 16.6102C14.5838 17.1947 14.0295 18.5097 13.9875 18.6086C13.9857 18.613 13.984 18.6166 13.9819 18.6209C13.9757 18.6336 13.9607 18.6646 13.9407 18.7079C13.8888 18.8333 13.8153 19.0315 13.8254 19.1108C13.8318 19.1633 13.9027 19.2643 14.0053 19.3884C14.0864 19.4869 14.2207 19.5253 14.341 19.483C17.3979 18.4291 19.5681 15.4743 19.4984 12.0399" fill="black"/>
</mask>
<g mask="url(#mask0_3958_32513)">
<path d="M18.746 12.055C18.7543 12.4691 19.0968 12.7981 19.5109 12.7898C19.925 12.7814 20.254 12.439 20.2457 12.0249L18.746 12.055ZM9.6904 17.4314L8.99298 17.1555L8.98403 17.1781L8.97655 17.2013L9.6904 17.4314ZM12.5649 15.6687L13.1198 16.1733L13.1223 16.1706L13.1248 16.1678L12.5649 15.6687ZM13.4023 14.1952L13.9323 14.7258L13.9338 14.7244L13.9352 14.723L13.4023 14.1952ZM14.2828 12.5311L13.709 12.0481L13.7075 12.0498L13.7061 12.0516L14.2828 12.5311ZM12.8742 13.1954C13.1259 12.8665 13.0633 12.3957 12.7344 12.144C12.4055 11.8923 11.9347 11.9548 11.683 12.2838L12.8742 13.1954ZM14.6425 9.93579L15.3859 10.0357L15.3862 10.0333L15.3865 10.0309L14.6425 9.93579ZM11.9834 10.6367L11.4117 10.1514L11.4025 10.1621L11.3937 10.1733L11.9834 10.6367ZM10.4467 12.1448L9.7689 11.8237L9.76443 11.8332L9.76023 11.8427L10.4467 12.1448ZM8.97638 14.1896C9.26788 14.4839 9.74275 14.4862 10.037 14.1947C10.3313 13.9032 10.3336 13.4283 10.0421 13.134L8.97638 14.1896ZM9.49403 13.6912L8.79675 13.415L8.7951 13.4192L8.79348 13.4235L9.49403 13.6912ZM9.74935 16.3056C9.35228 16.1877 8.9348 16.414 8.81688 16.8111C8.69895 17.2082 8.92525 17.6256 9.32233 17.7436L9.74935 16.3056ZM8.91635 16.747L9.30595 16.1062L9.30433 16.1052L9.3027 16.1042L8.91635 16.747ZM8.41088 16.513L8.64858 15.8016L8.64655 15.8009L8.41088 16.513ZM7.4658 15.2799L6.80158 15.6282L6.80303 15.6309L6.80448 15.6336L7.4658 15.2799ZM7.09715 14.8834L7.59373 14.3213L7.58695 14.3153L7.58003 14.3095L7.09715 14.8834ZM6.8083 14.5674L6.1297 14.8868L6.1302 14.8879L6.8083 14.5674ZM6.65883 14.0571L5.91285 14.1348L5.91318 14.1378L6.65883 14.0571ZM6.33578 13.6222L6.08878 14.3303L6.0901 14.3308L6.33578 13.6222ZM5.81258 11.7662L5.07733 11.6181L5.07728 11.6184L5.81258 11.7662ZM5.66435 11.1074L4.93393 11.2777L4.93663 11.2893L4.9397 11.3009L5.66435 11.1074ZM5.64788 11.0269L6.38358 10.8811L6.38298 10.8781L6.38235 10.8751L5.64788 11.0269ZM6.49033 9.80917L7.08693 10.2637L7.0884 10.2617L6.49033 9.80917ZM6.73483 9.45357L7.32138 9.92097L7.32218 9.91994L6.73483 9.45357ZM7.70018 8.75134L7.344 8.09132L7.34298 8.09187L7.70018 8.75134ZM8.85808 7.63339L9.36265 8.18829L9.3646 8.18652L8.85808 7.63339ZM12.4788 6.65104L12.3533 7.39047L12.3543 7.39064L12.4788 6.65104ZM15.9411 8.20387L16.6548 7.97337L16.6545 7.97262L15.9411 8.20387ZM16.2502 8.87542L15.6088 9.26422L15.6096 9.26554L16.2502 8.87542ZM16.5314 9.33717L17.1722 8.94747L17.172 8.94704L16.5314 9.33717ZM16.691 10.3144L15.9604 10.1453L15.9599 10.1472L15.9595 10.1491L16.691 10.3144ZM16.6809 10.8158L16.0103 11.1517L16.0118 11.1545L16.6809 10.8158ZM17.4587 11.6396L17.0539 12.2709L17.0555 12.2719L17.4587 11.6396ZM18.0858 12.0655H18.8358V12.0449L18.8347 12.0243L18.0858 12.0655ZM17.5956 14.0302L18.2884 14.3173L18.2897 14.3143L18.2909 14.3113L17.5956 14.0302ZM17.08 15.5651L17.3083 16.2795L17.3092 16.2792L17.08 15.5651ZM15.3089 15.766L15.3479 16.5149L15.349 16.5149L15.3089 15.766ZM14.8427 16.0614L15.5016 16.4197L15.5018 16.4193L14.8427 16.0614ZM14.6679 16.6102L13.926 16.5001L13.9255 16.5034L14.6679 16.6102ZM13.9407 18.7079L13.2599 18.3932L13.2536 18.4069L13.2478 18.4208L13.9407 18.7079ZM13.8254 19.1108L14.57 19.0209L14.5697 19.0183L14.5694 19.0157L13.8254 19.1108ZM14.0053 19.3884L14.5844 18.9117L14.5833 18.9104L14.0053 19.3884ZM14.341 19.483L14.0966 18.774L14.0947 18.7747L14.0928 18.7753L14.341 19.483ZM20.2482 12.0247C20.2398 11.6106 19.8973 11.2817 19.4832 11.2901C19.069 11.2985 18.7401 11.641 18.7485 12.0551L20.2482 12.0247ZM9.53585 17.0246L9.32108 17.7432L9.32233 17.7436L9.53585 17.0246ZM9.50925 13.6618L8.97638 14.1896L8.99378 14.2072L9.0123 14.2236L9.50925 13.6618ZM10.1342 14.3568C9.9319 14.7182 10.0609 15.1752 10.4223 15.3776C10.7838 15.5799 11.2408 15.4509 11.4431 15.0895L10.1342 14.3568ZM10.4622 11.3654C10.048 11.3654 9.7122 11.7012 9.7122 12.1154C9.7122 12.5296 10.048 12.8654 10.4622 12.8654V11.3654ZM11.2562 10.6122C11.2562 11.0264 11.592 11.3622 12.0062 11.3622C12.4204 11.3622 12.7562 11.0264 12.7562 10.6122H11.2562ZM13.1699 12.5594C13.4344 12.2406 13.3905 11.7678 13.0717 11.5033C12.7529 11.2388 12.2801 11.2828 12.0156 11.6015L13.1699 12.5594ZM14.6441 9.14614C14.2299 9.14614 13.8941 9.48192 13.8941 9.89614C13.8941 10.3103 14.2299 10.6461 14.6441 10.6461V9.14614ZM12.2786 12.7396L12.8742 13.1954L12.8761 13.1928L12.2786 12.7396ZM14.302 11.7555C13.8877 11.7555 13.552 12.0913 13.552 12.5055C13.552 12.9197 13.8877 13.2555 14.302 13.2555V11.7555ZM13.4241 13.4209C13.0098 13.4209 12.6741 13.7567 12.6741 14.1709C12.6741 14.5851 13.0098 14.9209 13.4241 14.9209V13.4209ZM12.3231 13.6769C12.5583 13.3359 12.4725 12.8689 12.1316 12.6337C11.7906 12.3985 11.3235 12.4843 11.0883 12.8253L12.3231 13.6769ZM12.5854 16.3932C12.9996 16.3932 13.3354 16.0574 13.3354 15.6432C13.3354 15.2289 12.9996 14.8932 12.5854 14.8932V16.3932ZM20.2457 12.0249C20.1513 7.32631 16.2672 3.59194 11.5836 3.75515L11.6357 5.25424C15.4679 5.12069 18.6681 8.17839 18.746 12.055L20.2457 12.0249ZM11.5836 3.75515C7.0075 3.91418 3.4034 7.77574 3.50197 12.3809L5.00163 12.3488C4.92033 8.55017 7.89365 5.38429 11.6357 5.25424L11.5836 3.75515ZM3.50197 12.3809C3.57395 15.7085 5.5439 18.5474 8.35033 19.8621L8.98665 18.5037C6.68245 17.4243 5.06093 15.0908 5.00163 12.3488L3.50197 12.3809ZM9.585 19.5166C9.97158 18.9275 10.2637 18.0974 10.4043 17.6614L8.97655 17.2013C8.83708 17.6341 8.59563 18.2903 8.33095 18.6936L9.585 19.5166ZM10.3878 17.7072C10.5109 17.396 10.6396 17.0908 10.7732 16.7931L9.40468 16.179C9.26168 16.4977 9.12423 16.8237 8.99298 17.1555L10.3878 17.7072ZM10.2437 17.0736C11.2314 17.2871 12.4138 16.9498 13.1198 16.1733L12.01 15.1642C11.6849 15.5217 11.0564 15.7147 10.5606 15.6075L10.2437 17.0736ZM13.1248 16.1678L13.146 16.1439L12.0263 15.1458L12.005 15.1697L13.1248 16.1678ZM12.889 14.9575C12.3258 14.7077 11.687 14.6867 11.1159 14.8121L11.4377 16.2772C11.7645 16.2054 12.0674 16.234 12.2809 16.3287L12.889 14.9575ZM11.4616 15.3985C11.4892 15.3479 11.5169 15.2975 11.5448 15.2474L10.234 14.5181C10.2039 14.5723 10.1739 14.6267 10.1441 14.6814L11.4616 15.3985ZM11.0079 15.4859C11.9872 15.7501 13.1876 15.4698 13.9323 14.7258L12.8722 13.6646C12.5284 14.008 11.8897 14.1702 11.3986 14.0377L11.0079 15.4859ZM13.9352 14.723L13.9576 14.7003L12.8919 13.6448L12.8694 13.6674L13.9352 14.723ZM13.7595 13.5002C13.2514 13.2457 12.6704 13.1826 12.1343 13.2502L12.322 14.7384C12.6246 14.7002 12.8955 14.7451 13.0878 14.8414L13.7595 13.5002ZM12.4035 13.8508C12.4113 13.8393 12.4192 13.8278 12.4271 13.8163L11.1896 12.9685C11.181 12.9811 11.1724 12.9937 11.1638 13.0063L12.4035 13.8508ZM11.9396 14.0226C12.9593 14.2304 14.1717 13.8378 14.8594 13.0106L13.7061 12.0516C13.3865 12.4359 12.7406 12.655 12.2391 12.5528L11.9396 14.0226ZM14.8565 13.0141L14.8765 12.9903L13.729 12.0243L13.709 12.0481L14.8565 13.0141ZM14.5742 11.8067C13.7012 11.4661 12.6576 11.6518 11.9011 12.1333L12.7065 13.3987C13.1356 13.1256 13.6793 13.0677 14.0289 13.2041L14.5742 11.8067ZM12.8761 13.1928C13.0063 13.0212 13.1403 12.8532 13.2777 12.6868L12.121 11.7318C11.973 11.9111 11.8259 12.0954 11.681 12.2864L12.8761 13.1928ZM13.0552 12.8403C14.2281 12.4572 15.2178 11.2867 15.3859 10.0357L13.8992 9.83592C13.8083 10.5126 13.2183 11.209 12.5895 11.4144L13.0552 12.8403ZM15.3865 10.0309L15.3911 9.99469L13.9032 9.80452L13.8986 9.84072L15.3865 10.0309ZM14.4949 9.16107C13.8362 9.29419 13.2452 9.67294 12.7982 10.1451C12.3501 10.6186 12.0039 11.2307 11.8786 11.8921L13.3524 12.1713C13.4168 11.8312 13.6077 11.472 13.8876 11.1763C14.1687 10.8792 14.4968 10.691 14.7921 10.6313L14.4949 9.16107ZM13.0517 12.0019C13.0964 11.399 12.9795 10.7461 12.6395 10.2107L11.3732 11.0146C11.5054 11.223 11.5819 11.5385 11.5558 11.8911L13.0517 12.0019ZM11.433 10.1263L11.4117 10.1514L12.5552 11.1221L12.5765 11.097L11.433 10.1263ZM11.3937 10.1733C10.7104 11.0427 10.5816 12.3711 11.0408 13.3479L12.3982 12.7097C12.1738 12.2323 12.2497 11.5116 12.5731 11.1002L11.3937 10.1733ZM11.7436 12.8756C11.608 12.3971 11.3572 11.9272 10.9782 11.5701L9.94963 12.662C10.0943 12.7983 10.2236 13.0134 10.3004 13.2845L11.7436 12.8756ZM9.78218 11.7957L9.7689 11.8237L11.1245 12.4659L11.1378 12.4379L9.78218 11.7957ZM9.76023 11.8427C9.31943 12.8446 9.51403 14.1454 10.1809 14.9766L11.3509 14.038C11.0239 13.6304 10.9241 12.9222 11.1332 12.4469L9.76023 11.8427ZM10.8145 14.3621C10.6576 13.8946 10.391 13.4405 10.0062 13.1001L9.0123 14.2236C9.1627 14.3566 9.30168 14.5688 9.39245 14.8393L10.8145 14.3621ZM8.8081 13.3864L8.79675 13.415L10.1913 13.9675L10.2027 13.9389L8.8081 13.3864ZM8.79348 13.4235C8.40135 14.4493 8.64798 15.7501 9.33698 16.566L10.483 15.5982C10.1348 15.1859 10.0038 14.4581 10.1946 13.959L8.79348 13.4235ZM9.27308 16.064C9.18195 16.2666 9.0925 16.4725 9.00515 16.6824L10.3901 17.2586C10.4715 17.063 10.5553 16.8701 10.6411 16.6791L9.27308 16.064ZM9.7506 16.306C9.64133 16.2733 9.48323 16.2139 9.30595 16.1062L8.52675 17.3879C8.8334 17.5743 9.11365 17.6812 9.32108 17.7432L9.7506 16.306ZM9.3027 16.1042C9.09853 15.9815 8.87913 15.8787 8.64858 15.8016L8.1732 17.2243C8.29483 17.2649 8.41493 17.3207 8.53 17.3899L9.3027 16.1042ZM8.64655 15.8009C8.52985 15.7623 8.494 15.7345 8.49055 15.7317C8.4894 15.7308 8.48933 15.7307 8.4898 15.7311C8.49028 15.7316 8.49048 15.7319 8.49025 15.7316C8.48988 15.7311 8.48495 15.725 8.4753 15.707C8.4482 15.6567 8.42538 15.5974 8.3644 15.4449C8.30943 15.3074 8.23643 15.1305 8.12715 14.9261L6.80448 15.6336C6.87445 15.7645 6.92323 15.8808 6.97158 16.0017C7.01393 16.1077 7.07598 16.2721 7.15435 16.4177C7.2438 16.584 7.36713 16.7547 7.5563 16.9053C7.73853 17.0503 7.94795 17.1498 8.17523 17.225L8.64655 15.8009ZM8.13003 14.9316C8.087 14.8495 8.03153 14.784 8.0285 14.7802C8.00913 14.7564 7.98828 14.7322 7.96965 14.7111C7.93158 14.6679 7.88603 14.6184 7.84235 14.572C7.76595 14.4906 7.6551 14.3755 7.59373 14.3213L6.60058 15.4454C6.5927 15.4385 6.59223 15.4376 6.60405 15.4492C6.61345 15.4584 6.62625 15.4713 6.642 15.4873C6.67338 15.5192 6.7116 15.5591 6.7491 15.599C6.78715 15.6395 6.82095 15.6764 6.84463 15.7032C6.8503 15.7097 6.85483 15.7149 6.85828 15.7189C6.86183 15.7231 6.86338 15.725 6.86333 15.7249C6.86325 15.7248 6.86238 15.7237 6.86085 15.7218C6.85938 15.7199 6.8566 15.7163 6.8529 15.7112C6.84943 15.7064 6.84335 15.6979 6.8359 15.6866C6.82938 15.6767 6.8162 15.6561 6.80158 15.6282L8.13003 14.9316ZM7.58003 14.3095C7.5617 14.2941 7.54643 14.2827 7.54075 14.2786C7.53348 14.2732 7.52738 14.2689 7.52405 14.2665C7.51813 14.2624 7.51128 14.2576 7.50998 14.2567C7.50463 14.2531 7.50195 14.2512 7.4992 14.2492C7.49385 14.2453 7.48858 14.2412 7.48368 14.2367C7.4813 14.2346 7.4794 14.2327 7.47798 14.2313C7.47655 14.2298 7.47595 14.229 7.47603 14.2291C7.47613 14.2292 7.47723 14.2306 7.479 14.2334C7.48078 14.2362 7.48345 14.2407 7.4864 14.247L6.1302 14.8879C6.23285 15.1051 6.3761 15.2579 6.47973 15.3512C6.5336 15.3998 6.58225 15.4371 6.61803 15.4631C6.63585 15.476 6.65055 15.4862 6.65835 15.4916C6.66365 15.4952 6.66233 15.4943 6.66078 15.4932C6.65965 15.4924 6.65543 15.4894 6.64975 15.4852C6.64565 15.4822 6.63165 15.4719 6.6143 15.4573L7.58003 14.3095ZM7.48693 14.2481C7.43368 14.1349 7.41233 14.0489 7.40445 13.9763L5.91318 14.1378C5.9408 14.3927 6.0132 14.6392 6.1297 14.8868L7.48693 14.2481ZM7.40478 13.9793C7.38503 13.7898 7.32923 13.5608 7.1779 13.349C7.0201 13.1281 6.80548 12.9912 6.58145 12.9136L6.0901 14.3308C6.0865 14.3295 6.06653 14.3221 6.03903 14.3027C6.01023 14.2823 5.98143 14.2546 5.95733 14.2209C5.90925 14.1536 5.9098 14.1056 5.91285 14.1348L7.40478 13.9793ZM6.58275 12.914C6.50023 12.8852 6.48455 12.8561 6.47593 12.8408C6.45715 12.8073 6.43385 12.7366 6.4311 12.6116C6.42483 12.3242 6.50685 12.118 6.54788 11.914L5.07728 11.6184C5.0828 11.5909 4.92035 12.1361 4.93148 12.6444C4.93743 12.9171 4.98833 13.2553 5.16808 13.5753C5.358 13.9135 5.66523 14.1826 6.08878 14.3303L6.58275 12.914ZM6.5478 11.9143C6.582 11.7445 6.5629 11.5902 6.54968 11.5071C6.5343 11.4104 6.5105 11.3177 6.48965 11.2439C6.46843 11.1688 6.4448 11.0947 6.427 11.0385C6.40688 10.9751 6.3956 10.9389 6.38898 10.914L4.9397 11.3009C4.95715 11.3662 4.98025 11.4386 4.99718 11.492C5.01643 11.5527 5.03255 11.6036 5.04618 11.6518C5.06018 11.7013 5.06628 11.73 5.06833 11.7428C5.0692 11.7483 5.06778 11.7417 5.06728 11.7257C5.06683 11.7115 5.06643 11.6723 5.07733 11.6181L6.5478 11.9143ZM6.39478 10.9372C6.3949 10.9378 6.39418 10.9347 6.39195 10.9236C6.39093 10.9184 6.38978 10.9126 6.38833 10.9053C6.38698 10.8984 6.3853 10.8899 6.38358 10.8811L4.91218 11.1726C4.9161 11.1925 4.9251 11.2398 4.93393 11.2777L6.39478 10.9372ZM6.38235 10.8751C6.37735 10.8509 6.37928 10.8256 6.38918 10.7972C6.39425 10.7827 6.40035 10.7708 6.40513 10.763C6.41078 10.7538 6.41005 10.7576 6.3963 10.7716L5.3251 9.72162C5.0703 9.98154 4.7784 10.5253 4.9134 11.1786L6.38235 10.8751ZM6.3963 10.7716C6.36458 10.804 6.35273 10.8063 6.4079 10.7703C6.4521 10.7415 6.5047 10.7099 6.57603 10.6668C6.63938 10.6284 6.72165 10.5785 6.7955 10.5279C6.83315 10.5021 6.87768 10.47 6.92198 10.4332C6.9618 10.4002 7.02663 10.3428 7.08693 10.2637L5.89375 9.35464C5.91488 9.32692 5.93315 9.30794 5.94318 9.29804C5.95378 9.28762 5.96125 9.28129 5.96363 9.27932C5.96755 9.27607 5.96383 9.27944 5.94778 9.29042C5.91428 9.31337 5.86748 9.34227 5.79973 9.38327C5.73993 9.41944 5.65935 9.46764 5.58793 9.51427C5.52753 9.55372 5.41765 9.62719 5.3251 9.72162L6.3963 10.7716ZM7.0884 10.2617C7.1519 10.1778 7.20748 10.0902 7.2415 10.0375C7.28195 9.97497 7.30315 9.94384 7.32138 9.92097L6.1483 8.98617C6.07785 9.07457 6.01985 9.16432 5.98175 9.22327C5.93725 9.29214 5.9149 9.32667 5.89228 9.35659L7.0884 10.2617ZM7.32218 9.91994C7.32055 9.92199 7.37883 9.85819 7.52863 9.74609C7.66493 9.64409 7.84598 9.52532 8.05738 9.41082L7.34298 8.09187C7.0679 8.24087 6.8252 8.39899 6.6299 8.54514C6.4481 8.68119 6.26693 8.83677 6.14748 8.98719L7.32218 9.91994ZM8.05635 9.41137C8.42805 9.21077 8.60048 8.87392 8.67995 8.70014C8.71515 8.62317 8.76335 8.50284 8.77158 8.48352C8.80063 8.41522 8.78433 8.47357 8.7217 8.54469L7.59585 7.55352C7.52833 7.63022 7.4838 7.70654 7.45723 7.75644C7.42933 7.80882 7.40703 7.85934 7.39125 7.89637C7.34895 7.99582 7.3446 8.01339 7.31583 8.07632C7.26733 8.18234 7.2662 8.13329 7.344 8.09132L8.05635 9.41137ZM8.7217 8.54469C8.69308 8.57722 8.66543 8.57684 8.78993 8.52454C8.88045 8.48652 9.14013 8.39064 9.36265 8.18829L8.3535 7.07849C8.3594 7.07314 8.3657 7.07577 8.20888 7.14164C8.086 7.19327 7.81705 7.30227 7.59585 7.55352L8.7217 8.54469ZM9.3646 8.18652C9.34858 8.20119 9.34 8.20564 9.35035 8.19904C9.3635 8.19067 9.37778 8.18254 9.41803 8.15949C9.4741 8.12737 9.63075 8.04134 9.76608 7.90129L8.68738 6.85899C8.70903 6.83659 8.72433 6.82677 8.72105 6.82899C8.7161 6.83234 8.70553 6.83897 8.67248 6.85789C8.64685 6.87257 8.5948 6.90184 8.54443 6.93392C8.49128 6.96779 8.42205 7.01572 8.35155 7.08027L9.3646 8.18652ZM9.76608 7.90129C10.1018 7.55377 10.5811 7.38009 11.2039 7.26272L10.926 5.78867C10.2186 5.92199 9.35498 6.16789 8.68738 6.85899L9.76608 7.90129ZM11.2039 7.26272C11.3136 7.24202 11.4593 7.24287 11.6648 7.27034C11.8925 7.30079 12.0678 7.34204 12.3533 7.39047L12.6042 5.91162C12.4223 5.88074 12.1142 5.81709 11.8637 5.78359C11.5909 5.74712 11.2635 5.72494 10.926 5.78867L11.2039 7.26272ZM12.3543 7.39064C12.3792 7.39482 12.4072 7.40124 12.4396 7.41047L12.8505 5.96784C12.7756 5.94649 12.6927 5.92652 12.6032 5.91144L12.3543 7.39064ZM12.6807 7.44902C13.1664 7.46727 13.6893 7.52794 14.1306 7.63069C14.6122 7.74284 14.8547 7.87369 14.9213 7.93944L15.9752 6.87199C15.5904 6.49214 14.9851 6.28952 14.4708 6.16977C13.9162 6.04064 13.2951 5.97104 12.7371 5.95007L12.6807 7.44902ZM14.9213 7.93944C15.0986 8.11447 15.1852 8.30439 15.2276 8.43514L16.6545 7.97262C16.5601 7.68124 16.368 7.25979 15.9752 6.87199L14.9213 7.93944ZM15.2274 8.43437C15.3225 8.72899 15.4529 9.00697 15.6088 9.26422L16.8915 8.48659C16.7916 8.32174 16.7116 8.14947 16.6548 7.97337L15.2274 8.43437ZM15.6096 9.26554L15.8909 9.72729L17.172 8.94704L16.8907 8.48527L15.6096 9.26554ZM15.8906 9.72687C15.9684 9.85482 15.9925 10.0065 15.9604 10.1453L17.4217 10.4835C17.5441 9.95467 17.4491 9.40279 17.1722 8.94747L15.8906 9.72687ZM15.9595 10.1491C15.933 10.2663 15.9067 10.4111 15.8997 10.5596C15.8937 10.6874 15.8952 10.9219 16.0103 11.1517L17.3515 10.4799C17.369 10.5149 17.3794 10.5452 17.3856 10.5674C17.3919 10.5896 17.3948 10.6068 17.3962 10.6172C17.3988 10.6365 17.3975 10.6424 17.3981 10.63C17.3986 10.6189 17.4003 10.5999 17.4046 10.5724C17.4088 10.5453 17.4148 10.5143 17.4226 10.4797L15.9595 10.1491ZM16.0118 11.1545C16.1024 11.3336 16.2492 11.5095 16.3489 11.6231C16.4631 11.7533 16.5842 11.8774 16.6716 11.9643L17.729 10.9004C17.6542 10.8261 17.5594 10.7283 17.4763 10.6336C17.4347 10.5864 17.4007 10.5449 17.3753 10.5113C17.3469 10.4734 17.3432 10.4636 17.3501 10.4771L16.0118 11.1545ZM16.6716 11.9643C16.788 12.0799 16.9158 12.1823 17.0539 12.2709L17.8636 11.0082C17.8142 10.9765 17.7697 10.9408 17.729 10.9004L16.6716 11.9643ZM17.0555 12.2719C17.1623 12.34 17.3138 12.4376 17.4371 12.5198C17.4999 12.5616 17.5487 12.5951 17.5792 12.6171C17.5963 12.6293 17.597 12.6305 17.5892 12.624C17.5872 12.6224 17.5667 12.6056 17.5409 12.5788C17.529 12.5665 17.4996 12.5353 17.4681 12.4898C17.452 12.4666 17.4267 12.4273 17.4028 12.3748C17.3809 12.3266 17.3439 12.2323 17.337 12.1067L18.8347 12.0243C18.8225 11.8023 18.7141 11.6543 18.701 11.6355C18.6678 11.5876 18.636 11.5536 18.6211 11.5381C18.589 11.5048 18.5593 11.4798 18.5457 11.4685C18.5143 11.4426 18.4812 11.4182 18.4563 11.4002C18.403 11.3618 18.3358 11.3161 18.269 11.2716C18.1332 11.1811 17.9718 11.0772 17.862 11.0072L17.0555 12.2719ZM17.3358 12.0655C17.3358 12.0973 17.3379 12.1231 17.3384 12.1298C17.3388 12.1348 17.3391 12.1391 17.3393 12.1411C17.3396 12.1444 17.3395 12.1438 17.3396 12.145C17.3397 12.1461 17.3388 12.1356 17.3385 12.121C17.3379 12.0893 17.3403 12.0458 17.3525 11.9968C17.3648 11.9476 17.3838 11.9055 17.4048 11.8723C17.4252 11.8401 17.4424 11.8244 17.4448 11.8223L18.4329 12.9508C18.6249 12.7828 18.7528 12.5813 18.8081 12.3593C18.8514 12.1852 18.8358 11.9174 18.8358 12.0655H17.3358ZM17.4448 11.8223C17.3546 11.9013 17.1997 12.0217 17.0825 12.1106L17.9896 13.3053C18.1047 13.2179 18.2984 13.0686 18.4329 12.9508L17.4448 11.8223ZM16.7502 13.2031C16.7664 13.247 16.7881 13.2992 16.8169 13.3544L18.1462 12.6595C18.1502 12.6671 18.153 12.6731 18.1546 12.677C18.1563 12.6809 18.1573 12.6835 18.1578 12.6848L16.7502 13.2031ZM16.8169 13.3544C16.8333 13.3858 16.8495 13.4131 16.8606 13.4316C16.8713 13.4492 16.8837 13.469 16.8898 13.4789C16.9067 13.5062 16.9092 13.5113 16.9085 13.5098C16.9079 13.5086 16.8915 13.477 16.88 13.4233C16.8677 13.3658 16.8583 13.2692 16.8909 13.1551L18.3331 13.5674C18.4319 13.222 18.2992 12.9364 18.2478 12.8344C18.216 12.7713 18.1823 12.7169 18.1647 12.6885C18.139 12.647 18.1421 12.6515 18.1462 12.6595L16.8169 13.3544ZM16.8909 13.1551C16.9147 13.072 16.9496 13.0142 16.9701 12.984C16.9907 12.9538 17.0075 12.9363 17.0094 12.9343C17.0113 12.9323 17.0096 12.9342 16.9954 12.9476C16.9859 12.9565 16.96 12.9805 16.9369 13.0034C16.9 13.0398 16.7876 13.1502 16.7127 13.3142C16.6706 13.4063 16.6342 13.5274 16.6337 13.6707C16.6333 13.8173 16.6707 13.9533 16.732 14.0707L18.0613 13.3758C18.1046 13.4586 18.1341 13.5613 18.1337 13.6755C18.1334 13.7864 18.1051 13.8761 18.077 13.9375C18.0503 13.996 18.0214 14.0343 18.0084 14.0505C17.995 14.0672 17.9864 14.0752 17.991 14.0705C17.9971 14.0645 18.0022 14.0599 18.0232 14.0401C18.0394 14.0249 18.0677 13.9981 18.0972 13.9671C18.1265 13.9362 18.1683 13.8894 18.2092 13.8295C18.25 13.7696 18.3005 13.6814 18.3331 13.5674L16.8909 13.1551ZM16.732 14.0707C16.8005 14.2018 16.8851 14.2933 16.9405 14.3476C16.9682 14.3747 16.9937 14.3974 17.0084 14.4103C17.0182 14.419 17.0204 14.4209 17.0262 14.426C17.0304 14.4297 17.0314 14.4307 17.031 14.4303C17.0305 14.4299 17.0268 14.4264 17.0213 14.4207C17.0158 14.415 17.0069 14.4055 16.9962 14.3927C16.9759 14.3681 16.941 14.3216 16.9109 14.254C16.8791 14.1824 16.8556 14.0942 16.8546 13.9946C16.8535 13.8961 16.8747 13.8124 16.9002 13.7491L18.2909 14.3113C18.377 14.0983 18.3776 13.8603 18.2811 13.6436C18.205 13.4727 18.0879 13.3649 18.0534 13.3327C18.032 13.3128 18.0076 13.2916 18.001 13.2857C17.9896 13.2757 17.9885 13.2744 17.9902 13.2761C17.9936 13.2795 18.0289 13.3137 18.0613 13.3758L16.732 14.0707ZM16.9027 13.7431C16.9311 13.6745 16.961 13.6434 16.9334 13.6792C16.9092 13.7105 16.8952 13.7259 16.8459 13.7867C16.8125 13.8279 16.7496 13.9061 16.6975 13.9951C16.6708 14.0406 16.6314 14.1147 16.6033 14.2087C16.5763 14.2991 16.5425 14.4648 16.5956 14.6602L18.0432 14.2674C18.0899 14.4395 18.0584 14.5781 18.0404 14.6383C18.0213 14.7023 17.9977 14.7432 17.9917 14.7535C17.9838 14.7669 17.9799 14.7715 17.9852 14.7643C17.9899 14.7579 17.9978 14.7478 18.0111 14.7313C18.0257 14.7133 18.038 14.6986 18.0583 14.6738C18.0761 14.6522 18.0982 14.625 18.1205 14.5962C18.1424 14.5678 18.1696 14.5313 18.1964 14.49C18.2218 14.4509 18.2578 14.3912 18.2884 14.3173L16.9027 13.7431ZM16.5956 14.6602C16.595 14.6581 16.6066 14.7028 16.6174 14.7713C16.6283 14.8404 16.6354 14.9145 16.6341 14.9788C16.6327 15.0515 16.6216 15.0622 16.6335 15.0356C16.6417 15.0174 16.6617 14.9804 16.7023 14.9409C16.7454 14.899 16.7978 14.868 16.8507 14.851L17.3092 16.2792C17.6696 16.1635 17.8879 15.9037 18.0017 15.6505C18.1062 15.4179 18.1305 15.1802 18.1339 15.0079C18.1406 14.6615 18.0645 14.3458 18.0432 14.2674L16.5956 14.6602ZM16.8516 14.8507C16.7645 14.8786 16.5156 14.9177 16.1602 14.9521C15.8334 14.9838 15.4906 15.0051 15.2688 15.017L15.349 16.5149C15.5807 16.5025 15.9474 16.4797 16.3047 16.4452C16.6334 16.4133 17.0432 16.3642 17.3083 16.2795L16.8516 14.8507ZM15.2699 15.017C14.8092 15.041 14.4001 15.3047 14.1836 15.7036L15.5018 16.4193C15.4728 16.4728 15.4159 16.5114 15.3479 16.5149L15.2699 15.017ZM14.1838 15.7032C14.0708 15.911 13.9743 16.1741 13.926 16.5001L15.4098 16.7202C15.4324 16.5679 15.4727 16.4728 15.5016 16.4197L14.1838 15.7032ZM13.9255 16.5034C13.8967 16.7035 13.7674 17.1047 13.6091 17.5296C13.4603 17.9289 13.3161 18.271 13.297 18.3159L14.6781 18.9013C14.7009 18.8474 14.8548 18.4825 15.0147 18.0534C15.165 17.6499 15.3549 17.1014 15.4102 16.717L13.9255 16.5034ZM13.308 18.2918C13.2999 18.3084 13.2825 18.3443 13.2599 18.3932L14.6215 19.0226C14.6389 18.9849 14.6516 18.9588 14.6559 18.95L13.308 18.2918ZM13.2478 18.4208C13.2176 18.4937 13.1771 18.5972 13.1442 18.702C13.1279 18.7539 13.1096 18.8183 13.0961 18.8864C13.0859 18.9379 13.0631 19.0622 13.0815 19.2059L14.5694 19.0157C14.5735 19.0479 14.5745 19.0747 14.5745 19.0939C14.5745 19.1133 14.5735 19.1291 14.5726 19.1402C14.5707 19.1615 14.5681 19.1749 14.5676 19.1777C14.5669 19.1813 14.5669 19.1806 14.5684 19.175C14.5698 19.1696 14.5721 19.1617 14.5753 19.1513C14.582 19.13 14.591 19.1043 14.6017 19.0758C14.6122 19.0476 14.6233 19.0198 14.6336 18.995L13.2478 18.4208ZM13.0808 19.2008C13.097 19.3345 13.1434 19.4378 13.1674 19.4871C13.196 19.5458 13.2277 19.5972 13.254 19.637C13.3067 19.7165 13.3693 19.7962 13.4274 19.8664L14.5833 18.9104C14.5622 18.8849 14.5448 18.8631 14.5309 18.8449C14.5167 18.8263 14.5084 18.8144 14.5045 18.8085C14.4995 18.801 14.5058 18.8095 14.5161 18.8306C14.5216 18.8418 14.5308 18.8621 14.5403 18.8898C14.5494 18.9164 14.5629 18.9617 14.57 19.0209L13.0808 19.2008ZM13.4263 19.8651C13.7046 20.2032 14.168 20.3385 14.5892 20.1908L14.0928 18.7753C14.2733 18.712 14.4681 18.7705 14.5844 18.9117L13.4263 19.8651ZM14.5855 20.1921C17.9448 19.0338 20.3246 15.7903 20.2482 12.0247L18.7485 12.0551C18.8115 15.1583 16.8511 17.8243 14.0966 18.774L14.5855 20.1921ZM9.00515 16.6824C9.10448 16.4437 9.30123 16.3398 9.42463 16.3046C9.54283 16.2709 9.65415 16.2774 9.74935 16.3056L9.32233 17.7436C9.47745 17.7896 9.65765 17.7979 9.83575 17.7471C10.0191 17.6949 10.2667 17.555 10.3901 17.2586L9.00515 16.6824ZM9.33698 16.566C9.24373 16.4556 9.18308 16.2641 9.27308 16.064L10.6411 16.6791C10.8178 16.2862 10.7126 15.8701 10.483 15.5982L9.33698 16.566ZM10.0421 13.134C9.66015 12.7484 9.008 12.8818 8.8081 13.3864L10.2027 13.9389C10.004 14.4403 9.35593 14.5728 8.97638 14.1896L10.0421 13.134ZM13.297 18.3159C13.2992 18.3108 13.3014 18.3058 13.3036 18.301C13.3057 18.2964 13.3074 18.293 13.308 18.2918L14.6559 18.95C14.6618 18.9378 14.6695 18.9215 14.6781 18.9013L13.297 18.3159ZM10.1342 14.3568C10.2614 14.1295 10.4627 14.0812 10.5023 14.0734C10.5331 14.0673 10.5535 14.0672 10.5611 14.0674C10.5657 14.0675 10.5687 14.0677 10.5703 14.0679C10.572 14.0681 10.5729 14.0682 10.5732 14.0683C10.5732 14.0683 10.5742 14.0684 10.5771 14.0695C10.5796 14.0704 10.5898 14.0742 10.6059 14.0837C10.6158 14.0896 10.7485 14.1655 10.8145 14.3621L9.39245 14.8393C9.49178 15.1353 9.71408 15.299 9.84268 15.3751C9.98898 15.4615 10.1475 15.5142 10.2922 15.5418C10.4345 15.5689 10.6112 15.5809 10.7933 15.5449C10.9606 15.5118 11.2647 15.4082 11.4431 15.0895L10.1342 14.3568ZM10.1809 14.9766C10.0639 14.8308 10.0056 14.5866 10.1342 14.3568L11.4431 15.0895C11.6495 14.7208 11.5675 14.3079 11.3509 14.038L10.1809 14.9766ZM10.4622 11.3654C10.1714 11.3654 9.90665 11.5329 9.78218 11.7957L11.1378 12.4379C11.0141 12.6989 10.7511 12.8654 10.4622 12.8654V11.3654ZM12.6395 10.2107C12.7159 10.331 12.7562 10.4704 12.7562 10.6122H11.2562C11.2562 10.7543 11.2966 10.894 11.3732 11.0146L12.6395 10.2107ZM11.8786 11.8921C11.8979 11.7903 11.9429 11.6891 12.0156 11.6015L13.1699 12.5594C13.266 12.4436 13.3263 12.309 13.3524 12.1713L11.8786 11.8921ZM14.6441 9.14614C14.5943 9.14614 14.5443 9.15109 14.4949 9.16107L14.7921 10.6313C14.7431 10.6412 14.6935 10.6461 14.6441 10.6461V9.14614ZM15.3911 9.99469C15.4486 9.54454 15.0979 9.14614 14.6441 9.14614V10.6461C14.194 10.6461 13.8462 10.251 13.9032 9.80452L15.3911 9.99469ZM13.2777 12.6868C13.2094 12.7695 13.1272 12.8168 13.0552 12.8403L12.5895 11.4144C12.4219 11.4691 12.2533 11.5716 12.121 11.7318L13.2777 12.6868ZM11.9011 12.1333C12.2871 11.8876 12.6655 12.0791 12.8229 12.2435C12.9815 12.4093 13.165 12.8154 12.8742 13.1954L11.683 12.2838C11.3808 12.6786 11.5691 13.1029 11.7392 13.2807C11.908 13.4571 12.3047 13.6544 12.7065 13.3987L11.9011 12.1333ZM14.302 11.7555C14.3949 11.7555 14.4872 11.7728 14.5742 11.8067L14.0289 13.2041C14.1162 13.2382 14.2088 13.2555 14.302 13.2555V11.7555ZM14.8765 12.9903C15.2878 12.5018 14.9405 11.7555 14.302 11.7555V13.2555C13.6652 13.2555 13.319 12.5114 13.729 12.0243L14.8765 12.9903ZM12.4396 7.41047C12.5128 7.43132 12.5937 7.44574 12.6807 7.44902L12.7371 5.95007C12.7807 5.95172 12.819 5.95887 12.8505 5.96784L12.4396 7.41047ZM12.4271 13.8163C12.2919 14.0136 12.08 14.0512 11.9396 14.0226L12.2391 12.5528C11.8854 12.4808 11.4478 12.5917 11.1896 12.9685L12.4271 13.8163ZM13.4241 13.4209C13.5402 13.4209 13.6551 13.4479 13.7595 13.5002L13.0878 14.8414C13.1925 14.8938 13.3076 14.9209 13.4241 14.9209V13.4209ZM13.9576 14.7003C14.4272 14.2262 14.0913 13.4209 13.4241 13.4209V14.9209C12.7585 14.9209 12.4235 14.1177 12.8919 13.6448L13.9576 14.7003ZM11.5448 15.2474C11.411 15.4878 11.1627 15.5277 11.0079 15.4859L11.3986 14.0377C11.0025 13.9309 10.4893 14.0593 10.234 14.5181L11.5448 15.2474ZM10.9782 11.5701C10.8379 11.438 10.6531 11.3654 10.4622 11.3654V12.8654C10.2726 12.8654 10.089 12.7933 9.94963 12.662L10.9782 11.5701ZM11.1159 14.8121C11.2338 14.7863 11.3198 14.8119 11.3549 14.826C11.392 14.8408 11.4152 14.8589 11.432 14.876C11.4469 14.8912 11.4836 14.9334 11.5071 15.0133C11.5334 15.1028 11.5426 15.2498 11.4616 15.3985L10.1441 14.6814C9.84493 15.2311 10.168 15.7289 10.3598 15.9249C10.5645 16.1342 10.9634 16.3814 11.4377 16.2772L11.1159 14.8121ZM11.0408 13.3479C10.9761 13.2103 10.9634 13.0064 11.0883 12.8253L12.3231 13.6769C12.5389 13.3641 12.531 12.992 12.3982 12.7097L11.0408 13.3479ZM13.146 16.1439C13.5776 15.6598 13.2339 14.8932 12.5854 14.8932V16.3932C11.9387 16.3932 11.596 15.6286 12.0263 15.1458L13.146 16.1439ZM12.7562 10.6122C12.7562 9.91334 11.8853 9.59349 11.433 10.1263L12.5765 11.097C12.1252 11.6286 11.2562 11.3095 11.2562 10.6122H12.7562ZM10.7732 16.7931C10.6571 17.0518 10.4035 17.1082 10.2437 17.0736L10.5606 15.6075C10.1486 15.5184 9.6264 15.6849 9.40468 16.179L10.7732 16.7931ZM11.0883 12.8253C11.2112 12.6472 11.3776 12.6044 11.4354 12.5953C11.4965 12.5857 11.5285 12.5951 11.5299 12.5955C11.5335 12.5965 11.55 12.6005 11.5786 12.6214C11.5987 12.636 11.6971 12.7116 11.7436 12.8756L10.3004 13.2845C10.3784 13.5599 10.5617 13.7364 10.6953 13.8338C10.8375 13.9374 10.9964 14.006 11.1466 14.0457C11.2946 14.0848 11.4775 14.1072 11.6692 14.077C11.8577 14.0472 12.1346 13.9503 12.3231 13.6769L11.0883 12.8253ZM12.5854 14.8932C12.6897 14.8932 12.7931 14.915 12.889 14.9575L12.2809 16.3287C12.3771 16.3713 12.4808 16.3932 12.5854 16.3932V14.8932ZM12.1343 13.2502C12.259 13.2345 12.3427 13.2708 12.3708 13.2854C12.402 13.3016 12.4186 13.3179 12.4296 13.3313C12.4387 13.3424 12.4698 13.3827 12.4862 13.461C12.5046 13.5487 12.5046 13.7024 12.4035 13.8508L11.1638 13.0063C10.7998 13.5407 11.104 14.0804 11.2699 14.2826C11.4519 14.5045 11.8311 14.8003 12.322 14.7384L12.1343 13.2502ZM17.0825 12.1106C16.8206 12.3095 16.5749 12.7269 16.7502 13.2031L18.1578 12.6848C18.2691 12.987 18.1039 13.2185 17.9896 13.3053L17.0825 12.1106ZM12.0156 11.6015C12.1677 11.4182 12.3659 11.3706 12.4857 11.3661C12.5993 11.3618 12.6843 11.3906 12.736 11.415C12.7892 11.4401 12.8555 11.4832 12.9166 11.5584C12.9768 11.6326 13.0676 11.7866 13.0517 12.0019L11.5558 11.8911C11.5354 12.1665 11.6505 12.3788 11.7521 12.5039C11.8545 12.63 11.9792 12.7165 12.0961 12.7717C12.2115 12.8261 12.3656 12.8717 12.5421 12.865C12.7246 12.8582 12.9793 12.7891 13.1699 12.5594L12.0156 11.6015ZM8.35033 19.8621C8.76905 20.0582 9.30433 19.9443 9.585 19.5166L8.33095 18.6936C8.48628 18.4569 8.77483 18.4045 8.98665 18.5037L8.35033 19.8621Z" fill="black"/>
</g>
</svg>
