<svg width="24" height="24" viewBox="0 0 24 24" fill="none" xmlns="http://www.w3.org/2000/svg">
<path d="M21.024 17.7386C21.0278 17.2231 22.9939 17.2451 22.9805 16.7632C22.9709 16.3917 22.1002 16.4003 22.3738 15.6141C22.777 14.4429 22.9958 13.1853 22.9958 11.8768C22.9958 5.52643 17.8464 0.378906 11.4979 0.378906C5.14753 0.378906 5.82957e-06 5.52643 5.82957e-06 11.8768C-0.00130601 13.1781 0.218795 14.4702 0.650886 15.6976C0.814086 16.2189 0.00192583 16.4234 0.00192583 16.7344C0.00192583 17.2221 1.71265 17.1568 1.71265 17.7232C1.71265 18.2186 0.0220858 18.3703 0.0220858 18.8695C0.0220858 19.5578 3.76705 19.3178 3.81409 19.9101C3.85153 20.368 2.52769 20.3949 2.51905 20.8835C2.50657 21.6631 7.63105 21.4077 7.63105 21.9271C7.63105 22.3197 5.30017 22.1776 5.30017 22.6413C5.30017 23.105 8.36833 23.3997 11.7494 23.3997C15.1306 23.3997 17.4643 23.0234 17.4643 22.6163C17.4643 22.2103 15.287 22.2947 15.3322 21.9271C15.4109 21.2867 20.2416 21.6141 20.2416 20.8739C20.2416 20.4832 18.913 20.392 18.9552 19.9715C19.0166 19.3763 22.9958 19.4656 22.9958 18.8483C22.9958 18.3635 21.025 18.2435 21.0269 17.7405L21.024 17.7386ZM17.9424 16.2448C17.8368 16.6375 19.0483 16.696 19.0483 17.1059C19.0483 17.6042 15.3542 17.4055 15.3907 18.065C15.4138 18.4797 18.0154 18.5498 17.9654 18.9837C17.8944 19.6115 13.9373 19.2986 13.8979 19.8995C13.8691 20.3411 15.8294 20.3555 15.8333 20.7578C15.8371 21.0967 14.2934 21.281 11.3405 21.281C7.97376 21.281 6.33889 21.0995 6.52417 20.7213C6.69793 20.368 9.67777 20.4333 9.64801 19.8775C9.61729 19.3226 4.35649 19.4867 4.19713 18.9482C4.06561 18.5008 5.92609 18.4087 5.91457 17.9834C5.90209 17.5504 3.53089 17.6483 3.47905 17.1242C3.44545 16.7786 4.71841 16.8016 4.66369 16.3677C4.62337 16.0528 4.09729 16.097 3.78625 15.4461C3.18665 14.1517 2.9227 12.7271 3.01877 11.3039C3.11483 9.88056 3.56781 8.50439 4.33592 7.30231C5.10402 6.10022 6.1625 5.11095 7.4137 4.42576C8.6649 3.74057 10.0685 3.38154 11.495 3.38179C12.8935 3.38144 14.2704 3.72638 15.5035 4.38598C16.7366 5.04558 17.7878 5.99944 18.5637 7.16287C19.3397 8.3263 19.8164 9.66331 19.9515 11.0552C20.0866 12.4471 19.8759 13.8508 19.3382 15.1418C18.9398 16.0461 18.0422 15.8647 17.9395 16.2458H17.9414L17.9424 16.2448Z" fill="#121212"/>
</svg>
