<svg width="24" height="24" viewBox="0 0 24 24" fill="none" xmlns="http://www.w3.org/2000/svg">
<rect x="0.5" y="0.5" width="23" height="23" rx="11.5" fill="white"/>
<rect x="0.5" y="0.5" width="23" height="23" rx="11.5" stroke="#D8DFE9"/>
<g clip-path="url(#clip0_3972_30272)">
<path d="M3.24767 16.9392C1.34815 12.1212 1.39245 6.4395 4.96113 5.31979C6.88369 4.7158 9.75599 4.46659 13.9803 11.2178C14.2089 11.6521 14.1929 12.0035 13.9484 12.1661C13.5603 12.4257 13.1368 12.1575 12.8339 11.7283C8.58475 5.68495 6.85712 6.63679 6.47083 6.78909C4.61383 7.52633 5.99947 12.5936 7.50564 15.6966C8.09748 16.9167 7.78204 18.0831 6.56474 18.5521C4.89203 19.1959 3.6499 17.9533 3.24944 16.9375L3.24767 16.9392Z" fill="#FF00AA"/>
<path d="M19.6311 6.82872C21.5306 11.6468 21.4863 17.3284 17.9194 18.4481C15.9968 19.0521 13.1245 19.3013 8.90021 12.5502C8.67162 12.1158 8.68757 11.7645 8.93211 11.6018C9.32014 11.3422 9.74366 11.6104 10.0467 12.0396C14.2957 18.0812 16.0234 17.1294 16.4097 16.9754C18.2667 16.2381 16.881 11.1709 15.3749 8.06786C14.783 6.84776 15.0984 5.68132 16.3158 5.21232C17.9885 4.56853 19.2306 5.81112 19.6311 6.82699V6.82872Z" fill="#FF00AA"/>
</g>
<defs>
<clipPath id="clip0_3972_30272">
<rect width="19" height="14" fill="white" transform="translate(2 5)"/>
</clipPath>
</defs>
</svg>
