<svg width="24" height="24" viewBox="0 0 24 24" fill="none" xmlns="http://www.w3.org/2000/svg">
<g clip-path="url(#clip0_3924_29084)">
<path d="M24 12C24 5.37258 18.6274 0 12 0C5.37258 0 0 5.37258 0 12C0 18.6274 5.37258 24 12 24C18.6274 24 24 18.6274 24 12Z" fill="#6C00F6"/>
<path d="M14.5862 6.63867L11.2374 8.56201V14.5647L9.38968 15.6358L7.53062 14.5639V12.4207L9.38968 11.3592L10.585 12.0524V10.3185L9.37922 9.63395L6.03125 11.579V15.4265L9.39055 17.3611L12.7385 15.4265V9.42461L14.5976 8.35261L16.4557 9.42461V11.5581L14.5976 12.6397L13.3917 11.9403V13.6656L14.5862 14.3545L17.9672 12.4312V8.56201L14.5862 6.63867Z" fill="white"/>
</g>
<defs>
<clipPath id="clip0_3924_29084">
<rect width="24" height="24" fill="white"/>
</clipPath>
</defs>
</svg>
