<svg width="24" height="24" viewBox="0 0 24 24" fill="none" xmlns="http://www.w3.org/2000/svg">
<rect x="0.5" y="0.5" width="23" height="23" rx="11.5" fill="white"/>
<rect x="0.5" y="0.5" width="23" height="23" rx="11.5" stroke="#D8DFE9"/>
<path d="M17.929 15.1805V6.33574C17.9172 5.59567 17.3373 5 16.6095 5H7.53255C5.57397 5.03008 4 6.66065 4 8.65824C4 9.33213 4.17752 9.90975 4.4497 10.4152C4.68047 10.8363 5.04142 11.2335 5.39645 11.5283C5.49704 11.6125 5.4497 11.5764 5.7574 11.769C6.18343 12.0337 6.66864 12.1661 6.66864 12.1661L6.66272 17.4549C6.67456 17.7076 6.69823 17.9483 6.76331 18.1709C6.9645 18.917 7.47337 19.4886 8.16568 19.7654C8.45562 19.8797 8.78107 19.9579 9.13018 19.9639L16.3787 19.988C17.8225 19.988 18.9941 18.7966 18.9941 17.3225C19 16.4501 18.574 15.6679 17.929 15.1805Z" fill="#FFEEDA"/>
<path d="M18.1065 17.3887C18.0769 18.3333 17.3136 19.0915 16.3787 19.0915L11.3905 19.0734C11.787 18.6041 12.0296 17.9964 12.0296 17.3345C12.0296 16.2936 11.4201 15.5776 11.4201 15.5776H16.3846C17.3373 15.5776 18.1124 16.3658 18.1124 17.3345L18.1065 17.3887Z" fill="#EBC28E"/>
<path d="M5.86982 10.7822C5.29586 10.2286 4.89349 9.51264 4.89349 8.66426V8.57401C4.94083 7.12395 6.11243 5.95668 7.53846 5.91456H16.6154C16.8521 5.92659 17.0414 6.09506 17.0414 6.34176V14.1516C17.2485 14.1877 17.3491 14.2178 17.5503 14.29C17.7101 14.3502 17.929 14.4765 17.929 14.4765V6.34176C17.9172 5.60168 17.3373 5.00602 16.6095 5.00602H7.53255C5.57397 5.0361 4 6.66667 4 8.66426C4 9.82551 4.52071 10.8183 5.37278 11.5162C5.43195 11.5644 5.48521 11.6245 5.63905 11.6245C5.90533 11.6245 6.09468 11.4079 6.08284 11.1733C6.07692 10.9747 5.99408 10.9025 5.86982 10.7822Z" fill="#190602"/>
<path d="M16.3787 14.6631H9.26036C8.78107 14.6691 8.39645 15.0602 8.39645 15.5475V16.5884C8.40828 17.0698 8.81065 17.4789 9.28994 17.4789H9.81657V16.5884H9.28994V15.5716C9.28994 15.5716 9.42012 15.5716 9.57988 15.5716C10.4793 15.5716 11.142 16.42 11.142 17.3285C11.142 18.1348 10.4201 19.1637 9.21302 19.0794C8.14201 19.0072 7.56213 18.0385 7.56213 17.3285V8.50782C7.56213 8.11071 7.2426 7.7858 6.85207 7.7858H6.14201V8.68832H6.66864V17.3345C6.63905 19.0915 7.89941 19.9759 9.21302 19.9759L16.3846 20C17.8284 20 19 18.8087 19 17.3345C19 15.8604 17.8225 14.6631 16.3787 14.6631ZM18.1065 17.3887C18.0769 18.3333 17.3136 19.0915 16.3787 19.0915L11.3905 19.0734C11.787 18.6041 12.0296 17.9964 12.0296 17.3345C12.0296 16.2936 11.4201 15.5776 11.4201 15.5776H16.3846C17.3373 15.5776 18.1124 16.3658 18.1124 17.3345L18.1065 17.3887Z" fill="#190602"/>
<path d="M14.4616 8.85079H9.09469V7.94826H14.4616C14.7042 7.94826 14.9053 8.14682 14.9053 8.39952C14.9053 8.64622 14.7101 8.85079 14.4616 8.85079Z" fill="#190602"/>
<path d="M14.4616 13.0987H9.09469V12.1961H14.4616C14.7042 12.1961 14.9053 12.3947 14.9053 12.6474C14.9053 12.8941 14.7101 13.0987 14.4616 13.0987Z" fill="#190602"/>
<path d="M15.4083 10.9747H9.09469V10.0722H15.4024C15.645 10.0722 15.8462 10.2708 15.8462 10.5235C15.8521 10.7702 15.6509 10.9747 15.4083 10.9747Z" fill="#190602"/>
</svg>
