<svg width="24" height="24" viewBox="0 0 24 24" fill="none" xmlns="http://www.w3.org/2000/svg">
<rect x="0.5" y="0.5" width="23" height="23" rx="11.5" fill="white"/>
<rect x="0.5" y="0.5" width="23" height="23" rx="11.5" stroke="#D8DFE9"/>
<path fill-rule="evenodd" clip-rule="evenodd" d="M11.9745 22C14.9453 22 17.6142 20.7112 19.45 18.6635C18.5961 17.9232 17.3091 17.8782 16.3999 18.61L16.2263 18.7498C14.5616 20.0895 12.1361 19.8917 10.7118 18.2999C9.93497 17.4318 8.60463 17.3432 7.71897 18.1005L5.7164 19.813C7.43156 21.1816 9.60722 22 11.9745 22ZM15.2251 17.1577C16.8106 15.8815 19.0392 15.9273 20.5641 17.1598C21.4756 15.6534 22 13.8878 22 12C22 9.90232 21.3525 7.95556 20.246 6.34759C19.5326 6.19607 18.7594 6.37304 18.1725 6.89183L18.0055 7.03949C16.4046 8.45451 13.9724 8.3685 12.4761 6.84403C11.6599 6.01258 10.3268 5.98526 9.47718 6.7826L7.14681 8.9694L5.86484 7.61023L8.19525 5.42344C9.78686 3.92983 12.284 3.98097 13.8129 5.53849C14.6117 6.3523 15.91 6.39823 16.7646 5.64283L16.9317 5.49518C17.4504 5.03666 18.0506 4.72754 18.679 4.56496C16.9028 2.97041 14.5523 2 11.9745 2C6.88519 2 2.68159 5.78257 2.03521 10.6829C3.58104 9.94301 5.48781 10.2277 6.74822 11.5152C7.54393 12.3279 8.82511 12.4137 9.72259 11.7143L11.0256 10.699C12.663 9.42295 14.9779 9.48471 16.5446 10.8463L19.0813 13.0507L17.8524 14.4578L15.3156 12.2533C14.4248 11.4791 13.1085 11.4439 12.1773 12.1696L10.8744 13.1849C9.2255 14.4698 6.87158 14.3122 5.40968 12.8189C4.55959 11.9506 3.16925 11.9203 2.28196 12.7508L2 13.0147C2.21101 15.1033 3.06637 17.0022 4.3648 18.5107L6.50123 16.6838C8.1603 15.2651 10.6524 15.4311 12.1076 17.0573C12.8679 17.9071 14.1627 18.0127 15.0514 17.2975L15.2251 17.1577Z" fill="#9E1F19"/>
</svg>
