<svg width="24" height="23" viewBox="0 0 24 23" fill="none" xmlns="http://www.w3.org/2000/svg">
<path d="M14.4562 14.1331C10.0189 15.4143 6.34831 17.2831 4.05066 19.4727L3.94922 19.5698C4.56019 20.1257 5.23016 20.6228 5.95435 21.0454L6.11006 20.8624C6.73756 20.1257 7.40988 19.4139 8.11048 18.7428C9.99062 16.9419 12.142 15.3827 14.4586 14.1309L14.4562 14.1331Z" fill="url(#paint0_radial_4037_29907)"/>
<path d="M14.4562 14.1331C10.0189 15.4143 6.34831 17.2831 4.05066 19.4727L3.94922 19.5698C4.56019 20.1257 5.23016 20.6228 5.95435 21.0454L6.11006 20.8624C6.73756 20.1257 7.40988 19.4139 8.11048 18.7428C9.99062 16.9419 12.142 15.3827 14.4586 14.1309L14.4562 14.1331Z" fill="#121212"/>
<path d="M0.320312 12.2344C0.497236 14.5189 1.3795 16.6136 2.76423 18.3174L2.82793 18.2563C4.25039 16.9073 6.10221 15.6803 8.33616 14.6115C10.2942 13.6738 12.5423 12.8693 14.965 12.2344H0.320312Z" fill="url(#paint1_radial_4037_29907)"/>
<path d="M0.320312 12.2344C0.497236 14.5189 1.3795 16.6136 2.76423 18.3174L2.82793 18.2563C4.25039 16.9073 6.10221 15.6803 8.33616 14.6115C10.2942 13.6738 12.5423 12.8693 14.965 12.2344H0.320312Z" fill="#121212"/>
<path d="M9.34948 2.846C13.3197 6.64898 18.316 9.16397 23.796 10.1175C23.1354 4.47971 18.1438 0.09375 12.0789 0.09375C10.4771 0.09375 8.9508 0.401062 7.55664 0.954675C8.1228 1.60997 8.7267 2.24719 9.34948 2.846Z" fill="url(#paint2_radial_4037_29907)"/>
<path d="M9.34948 2.846C13.3197 6.64898 18.316 9.16397 23.796 10.1175C23.1354 4.47971 18.1438 0.09375 12.0789 0.09375C10.4771 0.09375 8.9508 0.401062 7.55664 0.954675C8.1228 1.60997 8.7267 2.24719 9.34948 2.846Z" fill="#121212"/>
<path d="M4.05066 3.311C6.34831 5.50288 10.0189 7.36935 14.4562 8.65283C12.1396 7.39872 9.98826 5.84182 8.10812 4.04088C7.40988 3.37201 6.73756 2.66022 6.1077 1.92131L5.95203 1.73828C5.2278 2.16084 4.55783 2.65796 3.94922 3.21383L4.05066 3.311Z" fill="url(#paint3_radial_4037_29907)"/>
<path d="M4.05066 3.311C6.34831 5.50288 10.0189 7.36935 14.4562 8.65283C12.1396 7.39872 9.98826 5.84182 8.10812 4.04088C7.40988 3.37201 6.73756 2.66022 6.1077 1.92131L5.95203 1.73828C5.2278 2.16084 4.55783 2.65796 3.94922 3.21383L4.05066 3.311Z" fill="#121212"/>
<path d="M9.34948 19.9379C8.72434 20.5367 8.12044 21.1739 7.55664 21.8292C8.94844 22.3828 10.4771 22.6901 12.0789 22.6901C18.1438 22.6901 23.1354 18.3041 23.7983 12.6641C18.3184 13.6176 13.322 16.1326 9.35184 19.9356L9.34948 19.9379Z" fill="url(#paint4_radial_4037_29907)"/>
<path d="M9.34948 19.9379C8.72434 20.5367 8.12044 21.1739 7.55664 21.8292C8.94844 22.3828 10.4771 22.6901 12.0789 22.6901C18.1438 22.6901 23.1354 18.3041 23.7983 12.6641C18.3184 13.6176 13.322 16.1326 9.35184 19.9356L9.34948 19.9379Z" fill="#121212"/>
<path d="M8.33617 8.17262C6.10221 7.10381 4.25039 5.87682 2.82793 4.52781L2.76423 4.4668C1.3795 6.17057 0.497236 8.26527 0.320312 10.5498H14.9626C12.5399 9.91481 10.2942 9.11038 8.33381 8.17036L8.33617 8.17262Z" fill="url(#paint5_radial_4037_29907)"/>
<path d="M8.33617 8.17262C6.10221 7.10381 4.25039 5.87682 2.82793 4.52781L2.76423 4.4668C1.3795 6.17057 0.497236 8.26527 0.320312 10.5498H14.9626C12.5399 9.91481 10.2942 9.11038 8.33381 8.17036L8.33617 8.17262Z" fill="#121212"/>
<defs>
<radialGradient id="paint0_radial_4037_29907" cx="0" cy="0" r="1" gradientUnits="userSpaceOnUse" gradientTransform="translate(12.0606 11.3921) rotate(90) scale(11.2982 11.7395)">
<stop stop-color="#1C294B"/>
<stop offset="0.317213" stop-color="#FF4433"/>
<stop offset="0.597213" stop-color="#FE9A4C"/>
<stop offset="1" stop-color="#E0E0E0"/>
</radialGradient>
<radialGradient id="paint1_radial_4037_29907" cx="0" cy="0" r="1" gradientUnits="userSpaceOnUse" gradientTransform="translate(12.0599 11.3915) rotate(90) scale(11.2982 11.7395)">
<stop stop-color="#1C294B"/>
<stop offset="0.317213" stop-color="#FF4433"/>
<stop offset="0.597213" stop-color="#FE9A4C"/>
<stop offset="1" stop-color="#E0E0E0"/>
</radialGradient>
<radialGradient id="paint2_radial_4037_29907" cx="0" cy="0" r="1" gradientUnits="userSpaceOnUse" gradientTransform="translate(12.0588 11.392) rotate(90) scale(11.2982 11.7395)">
<stop stop-color="#1C294B"/>
<stop offset="0.317213" stop-color="#FF4433"/>
<stop offset="0.597213" stop-color="#FE9A4C"/>
<stop offset="1" stop-color="#E0E0E0"/>
</radialGradient>
<radialGradient id="paint3_radial_4037_29907" cx="0" cy="0" r="1" gradientUnits="userSpaceOnUse" gradientTransform="translate(12.0606 11.3915) rotate(90) scale(11.2982 11.7395)">
<stop stop-color="#1C294B"/>
<stop offset="0.317213" stop-color="#FF4433"/>
<stop offset="0.597213" stop-color="#FE9A4C"/>
<stop offset="1" stop-color="#E0E0E0"/>
</radialGradient>
<radialGradient id="paint4_radial_4037_29907" cx="0" cy="0" r="1" gradientUnits="userSpaceOnUse" gradientTransform="translate(12.0588 11.3919) rotate(90) scale(11.2982 11.7395)">
<stop stop-color="#1C294B"/>
<stop offset="0.317213" stop-color="#FF4433"/>
<stop offset="0.597213" stop-color="#FE9A4C"/>
<stop offset="1" stop-color="#E0E0E0"/>
</radialGradient>
<radialGradient id="paint5_radial_4037_29907" cx="0" cy="0" r="1" gradientUnits="userSpaceOnUse" gradientTransform="translate(12.0599 11.3926) rotate(90) scale(11.2982 11.7395)">
<stop stop-color="#1C294B"/>
<stop offset="0.317213" stop-color="#FF4433"/>
<stop offset="0.597213" stop-color="#FE9A4C"/>
<stop offset="1" stop-color="#E0E0E0"/>
</radialGradient>
</defs>
</svg>
