<svg width="24" height="24" viewBox="0 0 24 24" fill="none" xmlns="http://www.w3.org/2000/svg">
<circle cx="12" cy="12" r="11.5" fill="white" stroke="#C3C7EF"/>
<mask id="mask0_3902_32517" style="mask-type:alpha" maskUnits="userSpaceOnUse" x="16" y="13" width="2" height="5">
<path d="M17.041 14.3281V16.9736H17.2793V14.3281H17.041Z" fill="black" stroke="#C3C7EF"/>
</mask>
<g mask="url(#mask0_3902_32517)">
<path d="M17.5338 13.8281H14.3739C14.2397 13.8281 14.1309 13.9369 14.1309 14.0712V17.231C14.1309 17.3652 14.2397 17.474 14.3739 17.474H17.5338C17.668 17.474 17.7769 17.3652 17.7769 17.231V14.0712C17.7769 13.9369 17.668 13.8281 17.5338 13.8281Z" fill="#221573" fill-opacity="0.5"/>
</g>
<mask id="mask1_3902_32517" style="mask-type:alpha" maskUnits="userSpaceOnUse" x="16" y="6" width="2" height="5">
<path d="M17.041 7.02734V9.67285H17.2793V7.02734H17.041Z" fill="url(#paint0_linear_3902_32517)" stroke="#C3C7EF"/>
</mask>
<g mask="url(#mask1_3902_32517)">
<path d="M17.5338 6.52734H14.3739C14.2397 6.52734 14.1309 6.63617 14.1309 6.7704V9.93019C14.1309 10.0644 14.2397 10.1732 14.3739 10.1732H17.5338C17.668 10.1732 17.7769 10.0644 17.7769 9.93019V6.7704C17.7769 6.63617 17.668 6.52734 17.5338 6.52734Z" fill="#221573" fill-opacity="0.5"/>
</g>
<mask id="mask2_3902_32517" style="mask-type:alpha" maskUnits="userSpaceOnUse" x="18" y="6" width="2" height="5">
<mask id="path-6-inside-1_3902_32517" fill="white">
<path d="M18.4034 6.52734H19.0195V10.1733H18.4034V6.52734Z"/>
</mask>
<path d="M18.4034 6.52734H19.0195V10.1733H18.4034V6.52734Z" fill="black"/>
<path d="M19.0195 6.52734V5.52734H20.0195V6.52734H19.0195ZM18.4034 6.52734H17.4034V5.52734H18.4034V6.52734ZM18.4034 10.1733V11.1733H17.4034V10.1733H18.4034ZM19.0195 10.1733H20.0195V11.1733H19.0195V10.1733ZM19.0195 6.52734V7.52734H18.4034V6.52734V5.52734H19.0195V6.52734ZM18.4034 6.52734H19.4034V10.1733H18.4034H17.4034V6.52734H18.4034ZM18.4034 10.1733V9.17327H19.0195V10.1733V11.1733H18.4034V10.1733ZM19.0195 10.1733H18.0195V6.52734H19.0195H20.0195V10.1733H19.0195Z" fill="#C3C7EF" mask="url(#path-6-inside-1_3902_32517)"/>
</mask>
<g mask="url(#mask2_3902_32517)">
<path d="M18.7721 6.52734H15.6122C15.478 6.52734 15.3691 6.63617 15.3691 6.7704V9.93019C15.3691 10.0644 15.478 10.1732 15.6122 10.1732H18.7721C18.9063 10.1732 19.0151 10.0644 19.0151 9.93019V6.7704C19.0151 6.63617 18.9063 6.52734 18.7721 6.52734Z" fill="#221573" fill-opacity="0.3"/>
</g>
<mask id="mask3_3902_32517" style="mask-type:alpha" maskUnits="userSpaceOnUse" x="18" y="13" width="2" height="5">
<mask id="path-9-inside-2_3902_32517" fill="white">
<path d="M18.4073 13.8281H19.0234V17.4741H18.4073V13.8281Z"/>
</mask>
<path d="M18.4073 13.8281H19.0234V17.4741H18.4073V13.8281Z" fill="black"/>
<path d="M19.0234 13.8281V12.8281H20.0234V13.8281H19.0234ZM18.4073 13.8281H17.4073V12.8281H18.4073V13.8281ZM18.4073 17.4741V18.4741H17.4073V17.4741H18.4073ZM19.0234 17.4741H20.0234V18.4741H19.0234V17.4741ZM19.0234 13.8281V14.8281H18.4073V13.8281V12.8281H19.0234V13.8281ZM18.4073 13.8281H19.4073V17.4741H18.4073H17.4073V13.8281H18.4073ZM18.4073 17.4741V16.4741H19.0234V17.4741V18.4741H18.4073V17.4741ZM19.0234 17.4741H18.0234V13.8281H19.0234H20.0234V17.4741H19.0234Z" fill="#C3C7EF" mask="url(#path-9-inside-2_3902_32517)"/>
</mask>
<g mask="url(#mask3_3902_32517)">
<path d="M18.7779 13.8281H15.6181C15.4838 13.8281 15.375 13.9369 15.375 14.0712V17.231C15.375 17.3652 15.4838 17.474 15.6181 17.474H18.7779C18.9122 17.474 19.021 17.3652 19.021 17.231V14.0712C19.021 13.9369 18.9122 13.8281 18.7779 13.8281Z" fill="#221573" fill-opacity="0.3"/>
</g>
<path d="M12.0196 10.1836H8.87473C8.74113 10.1836 8.63281 10.2911 8.63281 10.4238V13.5461C8.63281 13.6788 8.74113 13.7863 8.87473 13.7863H12.0196C12.1532 13.7863 12.2615 13.6788 12.2615 13.5461V10.4238C12.2615 10.2911 12.1532 10.1836 12.0196 10.1836Z" fill="#221573"/>
<path d="M8.37949 6.52734H5.21963C5.08539 6.52734 4.97656 6.63617 4.97656 6.7704V9.93019C4.97656 10.0644 5.08539 10.1732 5.21963 10.1732H8.37949C8.51371 10.1732 8.62255 10.0644 8.62255 9.93019V6.7704C8.62255 6.63617 8.51371 6.52734 8.37949 6.52734Z" fill="#221573"/>
<path d="M15.6686 6.52734H12.5087C12.3745 6.52734 12.2656 6.63617 12.2656 6.7704V9.93019C12.2656 10.0644 12.3745 10.1732 12.5087 10.1732H15.6686C15.8028 10.1732 15.9116 10.0644 15.9116 9.93019V6.7704C15.9116 6.63617 15.8028 6.52734 15.6686 6.52734Z" fill="#221573"/>
<path d="M8.37949 13.8203H5.21963C5.08539 13.8203 4.97656 13.9291 4.97656 14.0634V17.2231C4.97656 17.3574 5.08539 17.4662 5.21963 17.4662H8.37949C8.51374 17.4662 8.62255 17.3574 8.62255 17.2231V14.0634C8.62255 13.9291 8.51374 13.8203 8.37949 13.8203Z" fill="#221573"/>
<path d="M15.6685 13.8203H12.5087C12.3745 13.8203 12.2656 13.9291 12.2656 14.0634V17.2231C12.2656 17.3574 12.3745 17.4662 12.5087 17.4662H15.6685C15.8028 17.4662 15.9116 17.3574 15.9116 17.2231V14.0634C15.9116 13.9291 15.8028 13.8203 15.6685 13.8203Z" fill="#221573"/>
<defs>
<linearGradient id="paint0_linear_3902_32517" x1="16.435" y1="8.5608" x2="17.7668" y2="8.29114" gradientUnits="userSpaceOnUse">
<stop/>
<stop offset="1" stop-color="white"/>
</linearGradient>
</defs>
</svg>
